<svg width="108" height="104" viewBox="0 0 108 104" xmlns="http://www.w3.org/2000/svg"><title>Group</title><g fill="#7F7F7F" fill-rule="evenodd"><path d="M96.102 73.353c-6.55 0-11.892-5.29-11.892-11.837 0-6.554 5.341-11.846 11.892-11.846 6.503 0 11.837 5.291 11.837 11.846 0 6.547-5.334 11.837-11.837 11.837m0-17.526c-3.164 0-5.689 2.576-5.689 5.689 0 3.107 2.525 5.64 5.69 5.64a5.645 5.645 0 0 0 5.635-5.64c0-3.113-2.527-5.69-5.636-5.69M47.309 103.962h6.162V82.675h-6.162zM56.24 103.962h6.16V82.675h-6.16zM82.018 10.42l6.062-6.064L83.682.008l-6.016 6.06-.01-.015-4.398 4.352.011.016-.01.01 7.814 7.79-6.008 6.009 4.353 4.397 10.426-10.423zM13.112 49.67L0 72.314h26.179L13.112 49.67zm.002 11.74l2.894 5.014h-5.843l2.949-5.013zM40.388 6.64l-4.354-4.396-7.538 7.536-7.535-7.536L16.61 6.64l7.54 7.49-7.54 7.538 4.352 4.4 7.535-7.54 7.538 7.54 4.354-4.4-7.518-7.538z"/></g></svg>