<svg width="113" height="51" viewBox="0 0 113 51" xmlns="http://www.w3.org/2000/svg"><title>Group 7</title><g fill="#7F7F7F" fill-rule="evenodd"><path d="M79.508 4.974v1.812h15.514c1.035 0 2.587 0 3.62 1.035 1.036 1.035 1.036 2.587 1.036 3.62v15.515c0 1.035 0 2.586-1.035 3.622-1.034 1.034-2.586 1.034-3.621 1.034h-7.5c-1.291 0-2.973 0-3.618-1.423-.647-1.422.257-2.715 1.034-3.75l10.084-13.446H79.508L73.3 21.268c-1.04 1.386-1.938 2.586-1.938 4.138 0 1.55.837 2.668 1.94 4.135l1.552 2.07c1.55 2.068 3.102 4.137 5.17 5.173 2.07 1.034 4.525 1.034 7.885 1.034h6.726c3.878 0 9.696 0 13.575-3.88 3.879-3.88 3.879-9.568 3.879-11.636v-6.207c0-2.068 0-7.757-3.88-11.637C104.332.578 98.514.583 94.636.582L83.904.578c-1.036 0-2.33 0-3.364 1.036-1.034 1.034-1.034 2.328-1.034 3.36"/><path d="M.38 17.386c0-1.034 0-2.326 1.035-3.36 1.034-1.036 2.326-1.036 3.36-1.036h25.99c3.36 0 5.816 0 7.886 1.036 2.069 1.034 3.62 3.103 5.172 5.172l1.55 2.068c1.103 1.469 1.94 2.587 1.94 4.139 0 1.549-.9 2.749-1.94 4.134l-6.205 8.276H23.652l10.086-13.447c.776-1.035 1.68-2.328 1.035-3.75-.648-1.421-2.33-1.421-3.622-1.421H18.998v31.03H6.588v-31.03H.38v-1.811m60.508-4.396h15.515L57.786 37.815H42.272L60.888 12.99"/></g></svg>