<svg width="110" height="38" viewBox="0 0 110 38" xmlns="http://www.w3.org/2000/svg"><title>Amway_(logo)</title><g fill="none" fill-rule="evenodd"><path d="M-1-1h112.15v39.908H-1z"/><path d="M.827 37.35s62.096-15.254 108.105-4.507l.142-.497S68.929 20.491 1.598 34.931" fill="#ED174C"/><path d="M30.552 7.415v2.529c.229-.507.52-1.193 1.3-1.843.845-.722 2.08-1.12 3.284-1.12.616 0 1.234.11 1.85.326 1.918.722 2.47 2.238 2.698 2.888 1.496-2.78 3.867-3.176 5.134-3.176 1.559 0 2.925.579 3.835 1.48 1.624 1.59 1.689 3.32 1.689 7.655v9.965h-4.775v-8.847c0-2.998-.065-3.611-.554-4.404-.52-.867-1.268-1.05-1.983-1.05-1.299 0-1.948.94-2.046 1.085-.521.903-.521 2.456-.521 3.972v9.244h-4.776v-9.424c0-2.022 0-2.925-.488-3.756a2.277 2.277 0 0 0-1.949-1.12c-.422 0-.845.109-1.235.327-1.398.793-1.43 2.166-1.43 5.705v8.268h-4.778V7.415M69.34 7.415h4.873L69.34 26.119h-4.455l-2.827-12.637-2.793 12.637h-4.517L49.874 7.415h4.874l2.568 11.699 2.631-11.699h4.224l2.602 11.699M84.491 26.119h4.681V7.379h-4.583V9.8c-.844-1.806-2.306-2.853-4.16-2.853-3.183 0-7.343 2.744-7.343 10.11 0 5.85 2.988 9.46 6.986 9.46 2.73 0 3.834-1.588 4.418-2.455l.001 2.058zm-.245-9.57c0 1.7-.228 3.324-1.236 4.552-.845.973-1.786 1.047-2.08 1.047-.942 0-2.014-.578-2.665-2.204-.388-.938-.52-2.058-.52-3.214 0-1.444.198-2.924 1.008-4.115.585-.832 1.494-1.372 2.373-1.372.714 0 1.43.36 1.917.938.617.687 1.203 1.95 1.203 4.369z" fill="#004B85"/><path d="M100.203 7.415h4.856l-5.343 18.56c-.39 1.3-1.006 3.43-1.95 4.477-.878.94-1.918 1.373-5.785 1.373-.553 0-.779-.037-1.267-.072V27.6h1.267c.456 0 1.528 0 2.015-.469.39-.326.715-1.12.715-1.879 0-.396-.196-1.12-.357-1.589l-5.2-16.248h5.2l3.054 12.601M12.109.569l-8.023 25.55h5.893l1.497-5.429h7.525l1.532 5.429h5.926L18.101.569H12.11zm3.029 5.61l2.564 9.843H12.71l2.428-9.843z" fill="#004B85"/></g></svg>