<svg width="147" height="53" viewBox="0 0 147 53" xmlns="http://www.w3.org/2000/svg"><title>Group 2</title><g fill="#7F7F7F" fill-rule="evenodd"><path d="M37.437 21.129H2.498l-2.52 6.926h34.938l2.521-6.926zm3.776-10.39H6.273l-2.52 6.927h34.94l2.52-6.926zm1.262-3.463H7.535L10.056.35h34.94l-2.52 6.925zM73.596 30.151v.145c1.581.575 3.091 1.582 3.882 2.228 2.445 2.014 3.523 4.673 3.523 8.124 0 5.681-3.02 9.778-7.98 11.072-1.51.432-3.091.576-6.04.576H51.956V10.74h13.3c2.734 0 4.603.143 6.255.575 4.817 1.294 7.981 4.602 7.981 9.85 0 2.803-1.005 5.176-2.66 6.757-.719.72-1.725 1.583-3.236 2.23zm-13.302 4.387v10.927h5.752c1.726 0 3.308-.143 4.458-1.222 1.151-1.078 1.654-2.445 1.654-4.24 0-1.368-.36-2.662-1.079-3.596-1.221-1.51-2.731-1.869-5.32-1.869h-5.465zm-.07-7.19h4.673c1.436 0 2.156 0 2.875-.216 1.941-.576 3.163-2.3 3.163-4.673 0-2.804-1.294-4.027-3.163-4.602-.79-.216-1.582-.287-3.163-.287h-4.385v9.777zm33.288 24.948V17.713H81.504V10.74h33.36l-2.373 6.973h-10.64v34.583h-8.34zm23.94 0V10.74h27.035l-2.374 6.973h-16.392v9.204h6.686c5.392 0 8.196 1.294 10.137 2.947 1.51 1.294 4.099 4.17 4.099 9.85 0 5.608-2.66 8.7-4.89 10.281-2.588 1.798-5.32 2.301-10.855 2.301h-13.445zm8.269-6.974h6.255c2.373 0 3.81-.575 4.816-1.869.504-.648 1.224-1.798 1.224-3.955s-.72-3.666-2.157-4.745c-.865-.647-2.014-1.006-3.954-1.006h-6.184v11.575z"/></g></svg>