<svg width="54" height="64" viewBox="0 0 54 64" xmlns="http://www.w3.org/2000/svg"><title>Coat_of_Arms_of_Moscow</title><g fill="none" fill-rule="evenodd"><path d="M.055.103h53.1v49.12l-.024.51-.024.51-.048.51-.073.51-.097.485-.122.46-.145.486-.17.437-.17.461-.219.413-.218.437-.243.388-.267.388-.315.389-.316.34-.315.34-.364.315-.388.315-.389.267-.437.291-.436.219-.437.242-.486.195-.485.194-.51.145-.534.146-.534.145-.558.098-.582.072-.607.049-.607.024-.63.024H35.972l-.388.025h-.389l-.388.048-.364.025-.364.048-.34.049-.34.072-.34.073-.315.073-.315.073-.316.097-.315.097-.292.097-.267.097-.29.121-.268.122-.267.121-.267.122-.242.145-.243.146-.243.145-.242.146-.243.146-.218.17-.219.17-.218.17-.195.17-.218.17-.194.169-.218.194-.85.85-.85-.85-.218-.194-.194-.17-.218-.17-.195-.17-.218-.17-.218-.17-.243-.17-.219-.145-.242-.146-.243-.145-.243-.146-.242-.145-.267-.122-.267-.121-.267-.122-.291-.12-.292-.098-.29-.097-.292-.097-.316-.097-.315-.073-.316-.073-.34-.073-.34-.072-.363-.049-.34-.048-.364-.025-.388-.048h-.389l-.412-.025h-6.407l-.631-.024-.607-.024-.607-.049-.582-.072-.558-.098-.534-.145-.534-.146-.51-.145-.485-.194-.486-.195-.46-.242-.438-.219-.412-.29-.388-.268-.389-.315-.34-.316-.34-.34-.315-.34-.291-.388-.291-.388-.243-.388-.218-.437-.219-.413-.194-.46-.145-.438-.146-.485-.121-.461-.098-.486-.072-.51-.049-.509-.024-.51-.024-.51V.104z" fill="#FFF"/><path d="M.71.734h51.815v48.49l-.025.485-.024.486-.049.485-.072.461-.097.461-.122.461-.121.413-.146.437-.17.412-.194.413-.218.364-.219.388-.266.364-.267.34-.292.316-.315.315-.316.291-.364.292-.364.266-.388.243-.413.219-.412.218-.437.194-.486.17-.46.146-.51.145-.51.122-.558.072-.534.098-.583.048-.582.024-.607.025h-6.431l-.413.024h-.412l-.388.048-.389.025-.364.048-.364.073-.364.049-.34.072-.34.073-.34.097-.339.097-.316.097-.29.097-.316.122-.291.121-.292.122-.267.145-.29.121-.268.146-.243.146-.266.145-.243.17-.243.17-.243.17-.242.17-.219.17-.218.194-.218.194-.219.17-.194.194-.437.413-.413-.413-.218-.194-.218-.17-.219-.194-.218-.194-.219-.17-.242-.17-.243-.17-.243-.17-.242-.17-.243-.145-.267-.146-.291-.146-.267-.12-.267-.146-.291-.122-.292-.121-.315-.122-.291-.097-.34-.097-.316-.097-.315-.097-.34-.073-.364-.072-.364-.049-.364-.073-.364-.048-.388-.025-.389-.048h-.412l-.413-.024h-6.431l-.607-.025-.582-.024-.583-.048-.558-.098-.534-.072-.51-.122-.51-.145-.485-.146-.437-.17-.46-.194-.437-.218-.389-.219-.388-.243-.364-.266-.364-.292-.316-.291-.315-.315-.291-.316-.267-.34-.267-.364-.219-.388-.218-.364-.194-.413-.17-.412-.146-.437-.145-.413-.097-.46-.098-.462-.072-.46-.049-.486-.024-.486V.734z" fill="#161413"/><path d="M1.001 1.05h51.184v48.174c0 5.193-3.325 8.858-9.78 8.858h-6.02c-4.635 0-7.596 1.602-9.78 3.762-2.184-2.16-5.17-3.762-9.78-3.762h-6.02c-6.455 0-9.804-3.665-9.804-8.858V1.049z" fill="#A8002C"/><path d="M12.165 44.516c.388-1.457 1.286-2.209 2.767-2.452 1.431-.242 3.009-1.043 4.732-1.844.728-.534.825-.291.291.752l-.825.947c-.437.485-.534.995.073 1.48.825.413 1.165.801 1.044 1.14-.899-.242-1.724-.12-2.427.535-.51-.146-1.117-.073-1.966.34-.437-.243-.922-.267-1.505-.098-.145-.364-.558-.46-1.262-.34-.194-.218-.51-.363-.922-.46zm9.926 0c-.874-.898-.97-1.7.024-2.379.558-.388 1.384-1.286 2.403-2.645.68-.049 1.286-.194 1.966-.291 2.718-.34 5.29-.923 7.353-2.063.389-.122.68-.049.85.242l1.601 2.112-.46.17 1.213.922c-.219.17-.073.291.194.388-.146.219-.049.437.17.413.097.291.315.728-.316.121-.388-.194-.436 0-.121.607l.655.946c.049.437.219.801.558 1.117l.534 1.092c0 .17.097.34.146.485.073.413.17.631.51.68-.34.655-.777 1.262-1.505 1.65-1.432.777-2.573.461-2.451-1.432.073-1.02.267-1.869.291-2.912.413-1.626.024-2.451-1.383-2.548-.728.024-1.287.024-1.7.315-.387.267-.946.17-1.698-.267-1.456-1.092-2.548-1.674-3.276-1.674.703.8.898 1.601.34 2.402.582.267.558.534-.025.801-1.407.049-2.985-.243-4.635-.704-.534-.097-.631 0-.267.292 1.213.485 1.868 1.213 1.868 2.232-.776.025-1.431.073-1.795.146-.34.218-.704.194-1.044-.218zm13.76 7.838c-.412.219-.509.462-.12.704.266.17.412.194.46.073.486-.097-.194-.364-.34-.777zM23.16 51.287c-.267.194-.388.412-.243.704l.534.46c.218-.194.17-.485-.073-.679-.121-.097-.194-.267-.218-.485zm-6.213-2.549c.388.17.388.534-.097.753-.364-.146-.34-.461.097-.753zM9.859 34.322c1.748 2.015 2.063 4.296.631 6.941-.534 1.287-.46 2.112.243 2.5.194-.437.364-1.116.461-1.82.146-1.092.85-.97 1.772-1.917.995-1.02.704-2.087.606-3.786-.17-3.64.583-5.752 1.65-6.941-2.717-.753-4.368 1.262-5.363 5.023zm1.723-30.118c-.315.049-.436.267-.388.631l2.16 3.058c.073.146.218.292.194.413-.17.413-.242.68.122 1.044l.728.703c.073.51.17.923.34 1.068-.17.34.048.655.34.971.072.097.096.218.218.315l.12 1.044c-1.018.85-1.528 1.48-1.625 1.869-.049.218-.097.388.048.51l1.432-.146c.122.073.267.097.316.194.218.51-.073 1.31-.85 1.407-1.771.437-3.058 1.044-2.548 2.233.655.85.316 1.602-.8 2.282-.268.242-.389.558-.34.97-.316.267-.559.68-.777 1.14-.17.486-.17.705.17.656 2.475-.825 4.902-1.165 6.625.267.85.704.704 1.068 2.039 1.14-.146.56 0 .874.485.972l.073.63c-.534.122-1.14.122-1.675.268-.606.145-1.189.388-1.723.388-.46-.364-.995-.582-1.432-.85-2.232-1.383-4.101-1.456-5.727.437-.85.995-1.626 2.354-2.257 4.442-.121.364-.413.51-.995.17-1.165-.947-1.383-1.796-.801-2.355.825-.776 1.14-.315.704.097l.024.098c.631 0 .874.436 1.116.898.534-1.384.243-2.33-.51-3.083l-.17-.024.074 1.19c-1.287-.268-1.99.727-2.087 1.65-.073.897.34 1.698 1.504 2.378.655.218.85.97.34 1.723-1.262 1.844-1.068 3.81.073 6.334l.145-.073c.243-2.766.826-4.174 1.748-4.44.291-.098.558-.292.8-.607.268-.413.413-.365.607.072.51 1.165.462 2.282-.242 3.398-1.602 2.597-1.675 4.587.607 6.164l.072.194-.606.777c-.195.316-.049.704.485 1.14.388.462.582 1.214.704 2.16-.194.292-.219.656-.097 1.069.34.485 1.165.752 2.33.63.12-.024.097-.12.097-.242.097-.534-.267-.922-.656-1.578-1.14-1.019-1.383-1.99-1.019-2.936l.17-.267c.898.315 2.039.68 3.082.825-.437.898-.388 2.014 0 2.67.728 1.262 1.505 1.844 2.985 1.723 1.966-.17 2.937-1.796 2.209-4.005.704-.388 1.165-.364 1.407.073-.024.995.413.68.437 1.65-1.165 1.02-1.601 1.893-.34 2.452.656.655.292.898-.558.946-.898-.218-1.553-.17-1.674.558-.826.049-1.068.534-1.044 1.31.243-.582.704-.63.947-.485.436-.024.897.097 1.286-.072.364-.17.776-.17 1.238.024.242 0 .412.097.534.291.582.607.51-.073 1.795.704.316.024.85 0 .947.51l.121-.462c.097-.17.049-.363-.145-.533-.413-.486.242-.51 1.383-.292.607.267 1.165.389 1.602.316.51-.51.63-.194.728.485.364-.995.121-1.529-.874-1.577.17-.534.243.267.607-.389.315-.145.63 0 .946.316.073-.486-.218-.777-.85-.922-.145-.413-.46-.437-.897-.025-1.844-.485-2.039-1.601-.995-1.82.558-.145.777.437 1.213.607.34.121.51.073.971.121.51.025.97.122 1.286.34l.365.121c.194-.145.388-.12.63.097.267.389.534.437.777.122.728-.583 1.82-.583 1.747-.219-.024.534.073.729.267.68.17.024.243.243.243.631-.704-.024-1.19.097-1.19.607-.654.194-.63.655-.339 1.262-.073-1.165.922-.219 1.893-.85l.68-.073c.073.34.388.486.995.462.218-.098.558-.098.776-.146 1.19-.316 2.136-.243 2.84.728.145-.291.121-.607-.073-.898.825-.558 1.723-.34 1.19.558.485-.242.97-1.48.339-1.456.267-.728 1.36-.121 1.044.413.46-.243.533-.607-.025-1.068-.072-.413-.412-.534-1.019-.364-.34-.583-.777-.607-1.36-.097-.582.267-1.043.291-1.334-.097-.315-.51-.243-.753.194-.583.219.073.316-.194.583-.704.097-.218.291-.388.437-.68.63-.096 1.14-.654 1.795-1.77.462-.22.68-1.117.704-2.525.195.097.437.024.753-.17-.219-.024-.316-.097-.316-.655h.607c.243-.097.34-.194.315-.315 0-.098-.242-.073-.412-.34-.073-.34-.267-.68-.631-1.02l-.583-.946c-.412-1.31-.898-2.063-1.504-1.578l-.17-.097c-.461-.51-.801-1.189-1.068-1.941.024-.922-.947-.97-1.456-.097l-.146-.728-.243.388-1.528-2.208c.17-.025.46-.195.63-.219 1.87-.145 3.738-.704 5.655-1.772l1.36-.412c.606-.243.8-.049 1.116.267l1.383 1.432c.267.29.267.558.121.85-.145.29.194.679.68 1.091.437.486.485 1.14.097 1.966-.218.534-.17.874.146 1.044l.946.68c.631.509.947.339.922-.559a3.354 3.354 0 0 0-.46-1.359c-.316-.558-.535-1.092-.559-1.65-.024-1.117-.17-1.7-.631-2.088a7.734 7.734 0 0 1-1.359-1.723c-.121-.364-.218-.582-.413-.68-.048-1.164-.898-1.747-1.432-1.431-.46.097-.897.146-1.383.073v-.267c.607-.34 1.65-1.408 2.694-2.573.388-.485.583-.291.97.097l1.506 1.578c-.049.776.072 1.286.606 1.238.364.63.534 1.237.194 1.504-.34.291-.606.486-.606.898.073.607.776 1.238 1.553 1.53.073.023.194-.025.243-.122.218-.534.242-1.165.024-1.796l-.267-.898c-.049-.364 0-.655.024-.922.073-.704.097-1.092-.655-1.626-.947-.971-1.748-1.966-2.403-3.01.024-1.383-1.165-1.747-1.917-.242l-1.456 1.019c-.364.243-.607-.146-.607-.534-.145-1.82-1.383-3.276-2.742-4.684-.728-2.209-1.723-4.053-2.087-5.752 1.383.146 2.426.413 2.839.825.607.656 1.383.995 1.578.534.072-.145-.365-.412-.583-.63.243 0 .558.218.898.557.607 0 .8-.46.63-1.092.074-.51.05-.898-.169-1.067l-.51-.292c-.849-.922-1.553-1.844-2.135-2.863a.587.587 0 0 1-.097-.316c0-.413-.122-.777-.534-1.14l.194-.098-.024-.145.437.097-.437-.728c-.243-.898-1.068-1.044-2.306-.68-.17.049-.388-.145-.607-.388-.776-.752-1.601-1.165-1.31-.607.048.097.291.364.024.34l-1.335-.219c-.291-.048-.34.049-.267.195.243.267.486.51.583.8l-1.7.098c-.339.024-.63.17-.946.145-.922-.776-2.062-.194-3.252.704l-.17-.073-.024-1.383h.146l-.122-.898h.098c.097-1.36-.17-2.233-.68-2.84-.097-.412.316-.364.413-.485.388-.485.364-1.044.364-1.335-.073-.582-.267-.776-.558-.582h-.34c-.364-.049-.656-.17-.801-.34-.389-.267-.753-.267-1.117-.024-1.747.437-2.062 1.796-4.198.873-.243-.024-.291.073-.194.267.364.486.873.801 1.432 1.044-.195.146-.583.17-1.214.121.364.486 1.068.728 2.16.704.413.243.898.146 1.432-.073.291-.17.315-.073.121.316-.558.46-.946 1.359-1.019 2.985-.218.34-.34.704-.413 1.116-.8-.218-1.504-.364-1.795-.121l-.316-.024c-.704-.534-1.383-.51-1.942-.146l-1.237.946c-.461.316-.85.34-.923-.048l-.51-1.092c.025-.777-.266-1.14-.8-1.19-.243-.218-.413-.485-.461-.776l-.364-.461c.121-.413-.049-.558-.34-.558-.315 0-.607-.049-.777-.17l-2.524-3.107z" fill="#161413"/><path d="M46.603 40.147l.243-.51c.12-.17.218-.17.29-.024l.583.534c-.121.121-.388.121-.582.17l.194.316-.194.097-.073.267c-.364-.292-.582-.559-.461-.85zm.51-1.747c.072 0 .145.218.145.461 0 .242-.073.461-.145.461-.098 0-.146-.219-.146-.461 0-.243.048-.461.146-.461zm-.34-1.966c.048-.049.17.049.242.17.098.145.122.291.073.315-.048.025-.17-.048-.242-.194-.098-.145-.122-.267-.073-.291zM48.326 34.056c-.073-.073-.146-.049-.218.024-.267.315-.316.558-.17.776l.534.413c.17.146.364.073.267-.073l-.195-.267c.122.049.219.17.34.17.097 0 .122-.145 0-.243-.194-.194-.242-.267-.121-.388.048-.048.048-.097-.024-.146l-.413-.266zm0-2.257c-.243-.292-.194-.462.121-.437-.29-.461.025-.558.316-.073.145.218.17.655.121 1.165-.024.145-.194.194-.242 0a2.355 2.355 0 0 0-.316-.655zm.194 1.917l.122-.558c.024-.146.072-.122.145 0 .194.242.364.485.413.898.048.17.024.266-.097.29-.146.025-.267-.048-.389-.17-.17-.193-.218-.315-.194-.46zM39.929 27.503c.024-1.02.145-1.845.145-2.597 0-.316.219-.316.219.049.048.8-.049 1.626-.146 2.475 0 .121-.218.34-.218.073zm1.407 4.053c.049 0 .073.048.073.097 0 .048-.024.097-.073.097-.048 0-.072-.049-.072-.097 0-.049.024-.097.072-.097zm-2.402-3.592l.097-.073c.024-.024.073-.024.097.024l.364.462c.024.024.024.072 0 .097l-.097.073c-.024.024-.073.024-.097-.025l-.389-.461c-.024-.024-.024-.073.025-.097zm3.495 2.597l.145-.947-.17.34c-.145 0-.17-.145-.194-.437-.024-.34 0-.461.194-.388l.122.315.097-.218c.17-.097.194 0 .121.291l-.048 1.044c-.098.145-.17.412-.267 0zM45 27.576c-.146-.194-.17-.437 0-.607a.386.386 0 0 1 .534-.073c.146.073.194.17.194.243l-.291.097.364.097c.194.17.024.485-.146.218-.145-.145-.315-.17-.485-.072 0 .218-.049.267-.17.097zm-3.519 1.699c.049-.025.146.072.219.194.048.121.072.242 0 .267-.05.048-.146-.049-.195-.17-.072-.122-.072-.267-.024-.291zm-2.233-.195c.049-.024.146.049.219.17.073.146.073.267.024.292-.049.024-.146-.05-.218-.195-.073-.121-.073-.242-.025-.267zm.656-1.189c.17-.024.388.17.436.437.073.291-.048.534-.218.583-.194.024-.388-.146-.461-.437-.049-.292.048-.534.243-.583zm.315 1.602c-.097-.461.049-.534.219-.097.267.63.412 1.432.388 2.403 0 .364-.291.388-.316.048-.097-.85-.121-1.65-.291-2.354zm2.815.752c.025-.46.122-.946.291-1.407.073-.219.17-.243.292-.122.437-.703.34-.315.145.219l.122.073c.534-.995.315-.195.267.242-.389.486-.656.583-.777.243l-.121.63c-.097.292-.17.34-.219.122zM10.03 47.137c-.17.655-.899.315-.535-.267.898-1.456 1.772-2.913 1.942-4.878.048-.704.485-1.02 1.043-1.335 1.19-.655 1.602-1.772 1.578-3.034-.267-5.485 1.262-7.887 3.616-8.834l-.073.219c-2.111 1.286-2.985 3.761-3.01 7.135-.023.752-.096 1.529 0 2.354l.074-.17c.072-1.99.072-3.689.315-4.854.267-1.286.68-2.063 1.092-2.621.146-.194.267-.437.413-.582.194-.195.412-.243.582-.413l-.024.17c-.8.8-1.48 1.82-1.796 3.155-.34 1.529-.364 3.3-.243 5.145a1.863 1.863 0 0 1-.17.68l.098-.05c.145-.29.218-.63.218-1.043-.17-2.232 0-4.49.8-6.067.56-1.092.899-1.505 2.452-2.378l-.049.17c-1.31.898-2.548 1.941-2.79 5.484l.072-.072c.243-2.694 1.214-4.684 3.01-5.412.63-.267 1.383-.219 2.208-.219l-.145.122c-1.262-.122-2.355.315-3.3 1.31l.145.049c.898-.923 1.941-1.432 3.252-1.141l-.097.194c-.922-.145-1.7.194-2.427.752v.098c.825-.559 1.577-.826 2.305-.68.243.024.316.218.243.51l-.146 1.334c-.024 1.287-.097 2.549-.412 3.69l-.122.096.122-2.232-.51 2.766c-.048.316-.267.267-.218-.024.121-.582.315-1.383.437-2.233-.122.025-.219.097-.243.267-.146 1.19-.34 2.16-.607 2.5.17-.752.267-1.505.291-2.257l-.145.121-.364 2.112c.267.145-.073.364-.17.097l.121-1.165-.097-.024-.51 1.868.17-1.286-.437 1.286h-.17l.219-1.092-.728 1.99c-.219.049-.243-.024-.073-.364l.461-1.359-.145.024c-.292.996-.51 1.7-.874 1.918l-.121.024c.51-.898.582-1.335.606-1.772-.267.85-.534 1.456-1.019 1.966-.073-.073.024-.291.316-.825l.267-.704c-.122-.145-.195-.097-.267.122-.17.606-.34 1.019-.656 1.407l.316-1.189-.049-.146c-.218.704-.51 1.311-.922 1.675l.194.097c.655-.437 1.553-.291 2.476-.704.194-.097.388-.145.51-.048l-.17.46-.17-.266c-.098.364-.243.704-.437.85l-.073-.535c-.389.85-.655 1.31-.68.898l.073-.51c-.291.292-.485.631-.558 1.044-.146-.024-.17-.315-.121-.728l-.243.898c-.219.049-.267-.194-.146-.728-.194.485-.364.825-.437.874-.097-.146-.121-.389-.048-.704l-.243.461c0 .34-.097.461-.243.437.073-.51.073-.704-.024-.583l-.291.777c-.17.097-.218-.097-.194-.534-.267.146-.194.68-.388.898-.146-.097-.17-.34-.146-.607-.121.413-.243.655-.413.68l-.048-.801c-.073.364-.17.655-.316.898l-.218-.583-.097.559c-.17.097-.316-.049-.413-.413-.024.752-.097 1.383-.582 1.699.048.194-.17.704-.461 1.286l.776-1.14c.17-.049.243.048.17.412l-.8 1.31c-.122.146-.268.098-.413 0-.17.656-.461 1.117-.753 1.554.34-.219.559-.68.825-1.31.05-.195.267.048.195.436l-.195.17.025.291-.243.025v.388l-.218.097c.218.534-.049.874-.583.607zM14.592 28.862l.946-.17-.048.194-.898-.024zM5.758 36.264c.121-.461.437-.728.752-1.286.194-.316.267-.097.243.194-.413.607-.728.922-.995 1.092z" fill="#FFF"/><path d="M15.684 28.425c-1.553-1.383-3.082-2.111-4.223-1.869-2.16.486-3.203 2.476-3.834 4.369.364-.631.679-1.044 1.067-1.165-1.067 1.699-1.674 3.422-1.771 5.412a1.32 1.32 0 0 1-.389.63c-.68.51-.63.923-.752 1.336.146-.097.316-.413.534-.68.291-.364.631-.752.777-1.383.218-.85.315-1.699.485-2.33a8.206 8.206 0 0 1 .922-2.111c.777-1.287 1.772-2.452 2.913-2.937v.097c-1.117.607-1.918 1.529-2.816 2.96-.218.365-.364.705-.558 1.214-.194.461-.388.995-.437 1.602-.145 1.31-.46 2.16-.825 2.67-.388.51-.63.728-.704.97-.048.122-.145.34-.121.583.85-1.602 1.238-1.456 1.602-2.597.51-1.747.17-3.543 2.5-6.091h.17c-1.117 1.286-1.87 2.5-2.258 5.096-.072.437-.145 1.044-.34 1.408-.29.558-.897.995-1.067 1.553l.121-.024c.291-.292.874-.971 1.092-1.432.704-1.36.461-3.18 1.36-4.636 1.164-1.917 2.062-2.912 3.494-3.47l.17-.024c-1.966 1.043-2.306 1.796-3.155 2.96-.291.389-.51.777-.752 1.505-.219.631-.364 1.602-.486 2.354a3.985 3.985 0 0 1-.898 2.039c-.218.267-.388.388-.558.63-.146.22-.291.632-.364.923l.121-.048c.534-1.432.85-1.117 1.238-1.602.218-.291.558-.874.655-1.553.146-1.408.437-2.476.923-3.398.51-1.02 1.31-2.136 2.208-2.888.413-.34.728-.534 1.286-.704h.122c-.656.437-1.092.558-1.602 1.044-.825.776-1.626 1.941-2.014 2.936-.413.947-.631 1.99-.753 3.058.024-.145.097.073.146-.048.437-2.524 1.335-4.296 2.475-5.437.631-.655 1.384-1.14 2.087-1.31l.462-.024c-1.068.29-2.088.8-2.864 1.99l.145-.025c.947-1.019 1.893-1.48 2.816-1.698l.145.024c-.63.218-1.213.46-1.577.8l.048.146c.704-.46 1.772-.703 3.034-.825zM5.976 39.03a1.152 1.152 0 0 1-.17-.606c.025-.291.243-.267.292-.073.048.364-.122.389-.122.68zM8.791 41.627l.243-.266c.122-.073.267-.097.364-.049-.024.121-.291.243-.607.315zM8.573 42.38l.316-.34c.17-.121.364-.145.51-.073-.05.146-.39.316-.826.413zM8.597 42.768l.364-.315c.17-.097.389-.122.534-.025-.048.122-.46.267-.898.34zM8.694 43.108l.34-.291a.545.545 0 0 1 .51-.024c-.073.145-.437.266-.85.315zM8.864 43.472l.219-.243c.121-.072.267-.097.364-.048-.025.097-.291.218-.583.29zM10.102 39.589l.194-.121c.097-.049.219-.025.267.024-.024.073-.243.097-.46.097zM9.787 40.002l.412-.195c.194-.024.388 0 .485.122-.097.121-.46.145-.897.073zM10.03 39.006l.315-.242a.463.463 0 0 1 .437 0c-.073.121-.389.194-.753.242zM10.272 38.424l.315-.073c.146 0 .292.073.34.17-.073.073-.364.024-.655-.097zM9.592 44.952l.219-.12a.457.457 0 0 1 .267.023c-.025.073-.243.122-.486.097zM10.272 44.2l-.534.073c-.218.097-.388.291-.413.461.17.049.559-.194.947-.534zM10.03 43.957h-.413c-.195.049-.34.17-.364.316.12.048.46-.097.776-.316zM11.922 45.947l.243-.51a.678.678 0 0 1 .534-.266c0 .17-.34.51-.777.776zM13.014 45.438l.437-.17c.219 0 .413.073.51.194h-.024c-.025.146-.316.413-.68.607l.218-.413a1.05 1.05 0 0 1 .17-.145H13.5c-.097.121-.292.267-.51.412l.17-.34c.024-.048.073-.072.097-.097-.073-.024-.146-.024-.243-.048zM15.126 45.51c.145-.072.655.05.582.219-.024.146-.34.413-.68.655l.195-.437c.048-.072.097-.097.145-.145h-.17a2.224 2.224 0 0 1-.485.412l.146-.364c.024-.024.073-.048.097-.072-.049 0-.097-.025-.122-.025-.072.097-.218.194-.363.292l.097-.243c.17-.219.29-.194.558-.291zM18.256 45.438c0-.413.316-.655.923-.728.703-.097 1.553.048 1.31.364h-.073l-.121.291-.267.485.17-.534.073-.266c-.073-.025-.194-.073-.316-.098l-.218.219-.364.412.291-.485.122-.194c-.05 0-.098-.024-.146-.024l-.219.218-.364.413.291-.461.122-.195h-.194l-.146.219-.34.437.243-.51.073-.121a4.001 4.001 0 0 0-.267.072l-.17.413.073-.388c-.219.097-.413.218-.486.46zM15.975 45.778v-.049h.049l.606-.388c.413-.194.923-.267.85.073 0 .024-.049.072-.146.097 0 .121.024.267.024.412l-.17-.364h-.097c0 .194 0 .388.025.583l-.243-.534c-.048.024-.073.024-.121.024.024.267.024.558.024.85l-.34-.704v-.049c-.048.146-.073.316-.121.461l-.073-.485c-.073.194-.17.437-.243.68l-.024-.51v-.122.025z" fill="#FFF"/><path d="M9.034 29.372l1.044-1.044c-.413.17-.777.51-1.044 1.044zM14.762 48.35c-.097-.243-.219-.461 0-1.02.194-.509.437-.655.582-.63.17.194-.048.582.049 1.068l-.389-.34.122.655-.292-.315-.072.582zM18.208 48.981c-.049-.097-.122-.146-.146-.146-.048.025 0 .122.049.219.073.097.145.146.17.146.024-.025 0-.122-.073-.219zM18.208 49.418c-.097-.146-.194-.218-.243-.194-.048.024 0 .145.097.291s.194.219.243.194c.024-.024 0-.145-.097-.291zM17.99 49.83c-.073-.12-.146-.194-.17-.194-.049.025-.025.146.024.267.073.097.145.194.17.17.048 0 .024-.121-.025-.242zM17.771 50.243c-.048-.194-.17-.34-.218-.315-.049.024-.049.194.024.388.048.17.146.315.194.315.073-.024.073-.194 0-.388zM14.932 50.073c.145.024.242.073.242.122-.024.024-.145.048-.267.024-.121-.024-.242-.073-.218-.097 0-.049.121-.073.243-.049zM14.81 49.758c.17.024.291.097.291.145 0 .049-.145.073-.315.049-.17-.049-.291-.097-.291-.146 0-.048.145-.072.315-.048zM14.737 49.37c.195.048.34.12.34.17-.024.072-.194.096-.388.048-.194-.024-.364-.097-.34-.17 0-.049.17-.073.388-.049zM21.047 45.244c-.145-.486.389-.656.947-.413.437.17.97.243 1.674.097.34-.073.704-.073 1.068-.024.364.194.34.364-.073.437-.776.728-1.359 1.48-1.456 2.208-.267-.364.292-1.286 1.165-2.427-.534.413-1.019.947-1.48 1.553.097-.388.412-.922.85-1.504-.947.704-1.602 1.747-1.505 3.689-.364-1.165-.122-2.282.63-3.374l-1.043 1.092.947-1.456-.583.194.049-.218-.364.17v-.243l-.486.389.097-.413c-.17-.097-.29.049-.437.243zM21.484 47.986a1.25 1.25 0 0 0 .219.97c.073.074.17-.023.121-.193-.17-.146-.267-.437-.34-.777z" fill="#FFF"/><path d="M22.698 48.132c.048 0 .097.121.097.29 0 .17-.049.316-.097.316-.049 0-.097-.145-.097-.315s.048-.291.097-.291zM23.814 46.894c.024.024.024.146-.024.267-.073.146-.146.243-.194.218-.049 0-.025-.145.024-.267.073-.145.146-.242.194-.218zM24.081 46.311c.049.05 0 .146-.073.243-.073.121-.17.194-.194.17-.024-.024 0-.146.073-.243.073-.12.17-.17.194-.17zM33.182 47.258c.413.146.461.728.243 1.432.024-.583-.073-1.044-.243-1.432zM31.07 50.243a1.142 1.142 0 0 0-.145-.364l.073.437.073-.073zM26.314 42.914c.048 0 .121 0 .194.024l.194.316a.706.706 0 0 1-.218-.049l-.17-.291zM25.925 45.025c.049.025.122.146.146.267.024.122 0 .194-.048.17-.049-.024-.122-.121-.146-.243-.024-.12 0-.194.048-.194zM26.29 45.001c.024-.024.097.073.12.194.05.121.074.219.05.243-.05 0-.098-.073-.146-.194-.049-.146-.073-.243-.024-.243zM26.726 44.928c.049 0 .146.146.17.316.025.145.049.218-.073.218-.097.024-.072-.048-.097-.218-.024-.146-.024-.316 0-.316zM27.139 44.783c.024 0 .121.12.194.315.049.17.073.34.024.34-.048.024-.121-.097-.194-.291-.048-.195-.073-.34-.024-.364zM27.576 44.783c.073-.025.146.145.194.34.049.218.024.388-.024.412-.049 0-.146-.17-.17-.364-.049-.219-.049-.388 0-.388zM28.061 44.855c.049-.024.194.219.219.413.048.194.072.291-.073.315-.17.025-.122-.072-.17-.29-.024-.195-.024-.438.024-.438zM28.377 44.758c.073-.024.145.146.218.364.049.219.049.413 0 .413-.048.024-.145-.146-.194-.364-.049-.219-.073-.413-.024-.413zM28.886 44.637c.049 0 .122.218.122.485s-.049.486-.122.486c-.048 0-.121-.219-.121-.486s.049-.485.121-.485zM29.299 44.783c.048 0 .097.194.097.412 0 .243-.049.413-.097.413-.073 0-.097-.17-.097-.413 0-.218.024-.412.097-.412zM29.712 44.661c.048 0 .097.219.097.486s-.049.485-.097.485c-.05 0-.098-.218-.098-.485s.049-.486.098-.486zM30.148 44.54c.073.024.097.243.073.558-.048.267-.097.51-.17.51-.048 0-.072-.243-.048-.534.024-.291.072-.534.145-.534zM30.73 44.516c.074 0 .074.242.025.534-.048.29-.121.51-.194.51-.049 0-.073-.244-.024-.535.048-.291.145-.51.194-.51zM31.192 44.249c.073 0 .194.364.145.703-.072.364-.17.656-.242.631-.073-.024-.024-.315.024-.655.049-.364.024-.704.073-.68zM28.717 46.991c.024-.024.072.073.12.17.05.121.05.243.05.243-.025.024-.098-.073-.122-.17-.048-.122-.073-.243-.048-.243zM29.056 46.87c.049 0 .122.121.17.267.049.145.049.218-.024.242-.097.049-.073-.048-.122-.194-.048-.121-.048-.291-.024-.315zM32.332 45.85v.17l.219-.145c.048-.437.048-.85.024-1.19-.073.437-.145.826-.243 1.165z" fill="#FFF"/><path d="M32.09 46.384c-.121.631-.146.825-.388 1.044.097-.388.048-.68.048-.753-.073.025-.121.049-.17.049v.073c.024.243.024.558-.267.946-.024-.34.122-.655.122-.995-.073.025-.122.049-.195.073v.34c-.024.146-.17.51-.194.534.025 0 .122-.704.049-.85-.049.025-.121.025-.17.049v.097c-.024.073-.024.146-.073.146-.024 0-.048-.049-.048-.122-.025-.024-.025-.073-.049-.097-.024 0-.073 0-.121.024v.025c.024.073.024.121 0 .145-.025 0-.073-.072-.122-.145-.048 0-.097.024-.12.024.023.121.023.17-.074.218-.121.049-.121-.072-.145-.194-.073.025-.146.025-.219.049.025.097 0 .17-.024.17-.024.024-.073-.049-.121-.146h-.195c.025.097.025.146 0 .17-.024 0-.072-.049-.12-.146l-.025.025c0-.025 0-.025.024-.025-.024-.024-.024-.072-.048-.121-.073-.146-.098-.291-.073-.316.048-.024.121.073.194.243a.449.449 0 0 1 .048.17.45.45 0 0 1 .17-.048c0-.049 0-.073-.024-.098-.048-.194-.048-.364 0-.388.049-.024.121.121.17.316 0 .024.024.072.024.121.073-.024.121-.049.194-.073-.024-.121-.024-.17-.024-.243 0-.097 0-.145.024-.145.025-.024.146.145.194.34.05-.025.073-.025.122-.049-.024-.024-.024-.024-.024-.048-.049-.146-.049-.195-.049-.292-.024-.072-.024-.097 0-.12.024-.025.146.169.194.339 0 .024 0 .048.024.073.05-.025.073-.025.122-.049v-.389c0-.096.024-.145.048-.145.025 0 .049.049.073.121.024.098.049.219.073.34.049 0 .097-.024.146-.048v-.194c.024-.073.024-.122.048-.122.024-.024.073.122.097.243.073-.024.121-.049.194-.073v-.267c0-.073.025-.145.049-.145.024-.025.048.024.048.097a.716.716 0 0 1 .049.242c.048-.024.097-.024.146-.073 0-.145.024-.29.024-.388.024-.097.048-.17.073-.17.024-.024.048.025.048.122.024.097.024.218.024.364a.344.344 0 0 1 .146-.049c.17-.68.388-1.602.388-2.427-.048-.097-.097-.17-.145-.267-.049.922-.122 1.7-.413 2.209a6.087 6.087 0 0 0-.024-2.476H31.75c.024.995.024 1.82-.243 2.379.097-.801.073-1.65-.242-2.597-.049-.024-.097-.049-.146-.049.218.195.17.971.073 1.093-.146-.462-.024-.607-.437-.923h-.121c.218.243.242.607.194.898-.121-.267-.316-.582-.51-.776H30.1c.315.364.315.436.267.728-.122-.316-.607-.534-.801-.68-.097 0-.121.024-.219.024.243.122.583.559.462.704-.17-.194-.534-.388-.68-.655-.097 0-.049.048-.146.048.049.146 0 .243.025.413-.219-.048-.34-.073-.607-.364-.049 0-.146-.024-.146 0 .025.073.122.243.146.316-.049-.073-.558-.34-.607-.413-.024-.024.097-.024-.194-.049.024.073.194.462.219.534a9.689 9.689 0 0 0-.462-.51c-.121-.024-.218-.024-.34-.048l-.218-.364c1.092.073 2.306.024 3.762-.243l1.36-.267c.46-.145.776.098.873.801l.072.777c.292.412.413.922.122 1.626.121.51.412.946.85 1.31.388.365.436.874-.025 1.602-.413 1.068-.995 1.723-1.505 2.427 0 .025-.048.049-.048.073-.024.024-.049.048-.073.097.024-.049.049-.073.073-.121l-.073-.364c.073.097.097.17.121.267l.219-.364a11.33 11.33 0 0 1-.073-.389c.048.097.097.17.145.267.05-.097.122-.194.17-.291-.048-.121-.072-.267-.12-.412.072.097.12.194.169.29.073-.12.146-.242.194-.363-.024-.122-.073-.243-.097-.364.049.072.097.145.146.242.072-.218.121-.388.145-.534l-2.5 1.554c.22-.195.462-.364.68-.559l-.024.025c-.025-.146-.049-.316-.073-.461.073.12.121.267.17.388.048-.049.121-.097.17-.146l-.073-.582c.097.17.146.34.194.485.073-.048.146-.121.219-.17-.025-.242-.049-.51-.098-.776.122.218.195.437.243.655.073-.073.122-.121.194-.17-.024-.34-.072-.728-.121-1.092.17.34.291.655.291.922.049-.048.097-.073.146-.121a10.6 10.6 0 0 0-.146-1.19c.194.365.316.729.34 1.02 0-.024.048-.049.073-.073 0-.388-.073-.922-.146-1.407.243.46.364.898.316 1.213l.145-.146c-.024-.703-.267-1.334-.485-1.99-.097.34-.097.461-.194.437.048-.388.024-.558-.049-.607-.048.534-.17.874-.34 1.044l.098-.874h-.146z" fill="#FFF"/><path d="M29.906 47.913c0 .146 0 .267-.097.267-.097-.024-.073-.145-.049-.267h.146zM30.173 47.646c.048.025.072.073.072.243 0 .17 0 .291-.12.291-.146-.024-.122-.17-.074-.315.049-.17.073-.219.122-.219zM30.512 47.695c0 .267 0 .461-.097.437-.097-.025-.097-.219-.048-.437h.145zM30.464 47.355c.024 0 .024.049.048.121h-.12c.023-.072.048-.12.072-.12zM30.804 47.307c.048 0 .072.097.072.315s0 .413-.17.388c-.17-.024-.12-.218-.072-.437.073-.194.097-.266.17-.266zM29.129 40.341c.607.146 1.238.656 1.869 1.19.097.17.048.218-.097.145-.437-.145-1.068-.874-1.772-1.335zM31.459 41.919c.121.073.17.145.145.17-.024.048-.12.024-.242-.049-.097-.073-.17-.17-.146-.194.024-.024.121 0 .243.073zM25.343 42.817l.655.073.146.242-.024-.024c-.073 0 .218.777-.17-.049-.049-.097-.194-.072-.316-.12-.121-.05-.073-.074-.29-.122zM22.31 53.301c.12 0 .242.048.242.097 0 .024-.073.073-.194.073-.146 0-.243-.024-.243-.073-.024-.049.073-.097.194-.097zM22.625 53.908c.194-.049.413-.073.437-.024.048.048-.097.12-.291.194-.195.048-.389.048-.437 0-.025-.049.097-.122.29-.17zM22.819 54.102c.219-.049.437-.073.485-.024.025.048-.12.145-.34.194-.242.073-.436.073-.485.024-.048-.048.097-.146.34-.194zM23.11 54.32c.146-.048.292-.048.316 0 .024.025-.073.097-.219.146-.17.024-.315.024-.34-.024-.024-.025.098-.097.243-.122zM23.304 54.515c.146 0 .243.048.243.096.024.05-.073.073-.194.073-.121 0-.243-.024-.243-.073 0-.048.073-.096.194-.096zM25.901 53.544c.194-.073.389-.073.413.024.048.073-.097.218-.291.291-.195.073-.389.073-.413-.024-.024-.073.097-.194.291-.291zM25.561 53.325c.146-.073.292-.073.316 0 .024.073-.073.17-.218.219-.146.073-.292.048-.316 0-.048-.073.073-.17.218-.219zM25.246 52.888c.121-.048.218-.024.243 0 .024.073-.049.146-.17.17-.122.049-.219.049-.243 0-.024-.048.049-.12.17-.17zM21.727 50.874c-.024-.121-.146-.121-.194-.024-.024.17.024.388.194.485.194.097.243-.097.146-.17a.479.479 0 0 1-.146-.29zM21.387 50.704c.024-.145-.097-.218-.194-.097-.121.17-.17.437-.024.607.17.218.315.024.267-.097-.073-.17-.097-.267-.049-.413zM38.327 39.807c-.146.219-.194 1.044.534 2.039.267.34-.049.582.34.63.145-.023.242-.145.267-.363l-.243-.121h.34l-.364-.243c.121-.024.412.049.388-.073-.024-.145-.364-.17-.534-.243l.413-.097c.024-.121-.219-.218-.607-.34l.388-.096-.437-.267.34-.098-.534-.267.291-.145-.315-.097.291-.146c-.242-.097-.34-.315-.558-.073zM37.745 40.438c-.146-.315-.17-.582-.097-.825.17-.437.34-.558.485-.558.291.315-.194.51-.291.752-.073.049-.097.219-.097.631zM37.623 38.934c.122-.122.267-.194.316-.146.048.049-.025.17-.146.315-.121.122-.267.219-.315.17-.049-.048.024-.194.145-.34zM37.502 40.487c.073 0 .146.073.146.17a.157.157 0 0 1-.146.145c-.097 0-.17-.072-.17-.145 0-.097.073-.17.17-.17zM37.817 40.972c.097.025.122.146.049.267-.049.122-.146.194-.218.146-.098-.024-.122-.146-.049-.267.049-.121.146-.194.218-.146zM38.157 41.482c.122.049.146.17.049.316a.38.38 0 0 1-.364.17c-.122-.05-.146-.195-.073-.316s.243-.219.388-.17zM38.521 42.04c.073.097.024.194-.097.243a.265.265 0 0 1-.315-.073c-.049-.073-.025-.17.097-.218.121-.049.242-.025.315.048zM40.269 42.331c.048-.072.048-.194-.073-.218-.122-.024-.194-.024-.267-.146-.097-.29.048-.436.291-.51.194 0 .267.074.219.195l-.122.097c.219.073.364.146.437.267-.121 0-.194.024-.218.121.412-.073.388.583.024.461-.243-.072-.364.025-.243.437.097.486.437.607.413.097-.049-.242.776-.291.873.243l-.315-.121c.073.388.388.218.437.558l-.267.024c.315.219.558.485.68.8-.34-.048-.365-.412-.68-.412.412.559.898.437 1.14.995-.34-.024-.752-.29-1.213-.728.413.583.68 1.068.583 1.31-.607-.266-.729-1.164-.971-1.431 0 .461.34.728.218 1.238-.242-.292-.364-.753-.364-1.48.243.048.34-.122.34-.535-.049-.436-.267-.412-.218 0 0 .316-.219.413-.874.025-.097.097.048.218.412.437l-.024.363.194-.315.073 1.02c-.024.266-.097.218-.17-.05l-.073-.509c0 .364-.048.534-.17.51l-.097-.947-.267.34-.072-.534-.243.194v-.655c-.17.097-.364.024-.558-.267.267.073.437.024.655-.097-.121-.485.097-.728.51-.777zM34.493 45.292c.024-.218.072-.291-.146-.582-.097-.097-.17-.122-.146 0 .049.194.243.388.292.582zM34.104 43.812c.316.17.461.194.631.655.049.17.025.291-.097.146-.194-.219-.291-.583-.534-.801zM34.153 42.865c.412.292.582.34.776 1.02.049.267-.024.412-.17.194-.242-.34-.315-.85-.606-1.214zM34.347 42.186c.461.145.8.704.8 1.189 0 .267-.12.437-.193.194-.097-.34-.267-1.043-.607-1.383zM34.541 41.822c.413.17.68.46.825.898.025.242 0 .364-.17.17-.097-.364-.34-.728-.655-1.068zM37.405 53.835c.097-.243.461-.486.898-.291.194.048.17.291.17.46-.122-.12-.243-.266-.364-.12-.34-.267-.461-.122-.704-.049zM36.094 53.932c.097 0 .17.049.17.146 0 .072-.073.121-.17.121-.072 0-.145-.049-.145-.121 0-.097.073-.146.145-.146zM35.245 53.932c.048-.024.121.073.17.194.024.122.024.243-.024.243-.049.024-.122-.049-.17-.194-.025-.122-.025-.243.024-.243zM35.536 53.884c.024 0 .073.048.097.145.024.073.024.146-.024.17-.024 0-.073-.049-.097-.146-.024-.072-.024-.145.024-.17zM35.609 50.753c-.024.024-.049.048-.049.073-.097.097-.194.17-.218.121-.049-.024-.024-.146.049-.243l.097-.097c-.025-.024-.025-.048-.049-.073-.024.025-.024.049-.048.073-.098.122-.219.194-.267.146-.049-.024-.025-.17.072-.291.025-.049.073-.073.097-.098-.024-.024-.024-.048-.048-.048-.097.121-.218.17-.267.146-.049-.049-.024-.17.073-.292 0-.024.024-.048.048-.048-.048-.049-.048-.073-.072-.097-.073.048-.122.072-.17.048-.025-.024 0-.121.072-.218-.048-.097-.072-.194 0-.243.146-.121.219.049.364.364.049.121 0 .194.073.267.049.097.194.146.243.219.17.267.146.485.121.51-.048.024-.024-.025-.121-.22z" fill="#FFF"/><path d="M35.609 50.996c.073.048.024.194-.097.34-.121.145-.243.218-.291.17-.073-.05-.025-.195.072-.34.122-.146.267-.219.316-.17zM38.594 49.564c.024 0 0 .145-.049.29-.048.146-.145.243-.194.22-.024 0 0-.146.049-.292.073-.146.145-.243.194-.218zM38.23 49.418c.049.024.024.218-.073.437-.121.194-.243.364-.315.34-.073-.025-.049-.219.072-.437.098-.219.243-.364.316-.34zM37.38 49.078c.05.024.025.17-.048.364-.073.17-.17.292-.218.267-.049-.024-.025-.17.048-.34.073-.194.17-.315.219-.29zM13.84 8.063c.072-.34.29-.51.533-.534l.534.097c.194.146.17.195-.048.219-.437-.073-.68.024-.801.315-.17.243-.243.267-.219-.097zM15.538 9.083c.049 0 .122.048.122.145 0 .073-.073.146-.122.146-.072 0-.121-.073-.121-.146 0-.097.049-.145.121-.145z" fill="#FFF"/><path d="M13.767 8.597c-.17.219-.122.461.17.753l.388.485c.34.243.51.194.46-.17-.048-.243.025-.34.244-.34a.428.428 0 0 0 .315-.218c.049-.194.024-.291-.145-.34a2.233 2.233 0 0 1-.801.364c.29-.194.51-.34.582-.461.073-.073.17-.097.316-.049 0-.12-.049-.242-.219-.29-.34 0-.68.242-.995.582.194-.413.486-.656.922-.656.025-.121 0-.218-.121-.315a1.06 1.06 0 0 0-.752.218l-.364.437zM15.732 11.606c.801.777 1.48 1.7 2.015 2.743v.898l-.291-1.02c.024.704 0 1.166-.073 1.02l-.243-1.456-.17.63-.145-.897c-.122-.097-.146.46-.122 1.238-.218-.219-.194-.85-.17-1.554l-.242.68c-.146-.364-.073-.85 0-1.31-.146-.122-.243.12-.292.849-.17-.486-.121-.874-.048-1.335l-.17.364-.049-.85zM21.678 4.763c.267.194.631.242.995.242l.025.194c.582 0 1.189-.267 1.796-.68-.025-.023-.146-.048-.267 0-.437.22-.389.074.436-.339.122-.073.219.024.413-.048l.534-.122c-.437.389-.874.777-1.359 1.14-.68.39-1.286.486-1.845.292a5.188 5.188 0 0 1-.922-.558c-.073-.121-.145-.194.194-.121zM25.028 4.884c.072 0 .12.048.12.097s-.048.097-.12.097a.104.104 0 0 1-.098-.097c0-.049.049-.097.098-.097zM25.756 6.34c.048-.073.097-.097.145-.048.049.024.049.097 0 .145-.048.073-.121.097-.145.073-.049-.024-.049-.097 0-.17zM27.479 5.685c.073-.024.145-.024.17.024.024.049 0 .146-.097.17-.073.049-.146.049-.17-.024-.049-.049 0-.122.097-.17zM27.09 5.418c.073-.049.146-.073.17-.024.049.024.025.121-.024.17-.073.048-.146.072-.17.024-.024-.025-.024-.097.024-.17zM24.445 5.928c.073-.025.146 0 .17.048 0 .049-.049.121-.121.121-.073.025-.146 0-.17-.048 0-.049.048-.097.121-.121zM25.392 7.723c.097-.048.218-.048.242 0 .025.049-.024.122-.145.17-.097.025-.219.025-.243-.024-.024-.048.024-.121.146-.146zM22.285 6.073c.267-.024.631-.121 1.117-.34l.558-.267c.267-.12.315-.097.097.122-.243.242-.558.364-.777.534-.218.145-.534.34-1.068.194-.267-.073-.17-.219.073-.243z" fill="#FFF"/><path d="M23.984 5.83c.316-.29.51-.364.946-.558.413-.17.826-.218 1.238-.218.291-.267.558.097.243.388-.097.097-.219.146-.34.219-.315.242-.655.34-.995.436-.437.122-.485.073-.121-.17a2.96 2.96 0 0 1 .34-.242c.266-.17.558-.219.825-.243-.413-.267-1.214.146-2.015.534-.242.121-.315.049-.121-.146z" fill="#FFF"/><path d="M26.168 4.568c.17-.048.316-.024.51-.024.315.097.461.267.485.486-.073.218-.17.34-.315.388-.073-.388-.219-.607-.437-.68-.097-.024-.146-.024-.243-.024v-.146zM25.804 4.666c.097-.049.121-.073.219-.098v.146l-.195.049c-.097.024-.194-.049-.024-.097zM25.367 4.423c.219-.194.461-.364.753-.388.29-.025.606-.025.922.024.607.218.364.412-.024.267-.243-.146-.534-.122-.874 0-.024.242-.437.048-.68.218-.17.073-.194.024-.097-.121zM27.139 4.496c.194 0 .34.024.364.194.024.218-.024.388-.17.485.073-.46-.145-.412-.194-.68zM27.673 4.374c.049.073.073.267 0 .583l-.194.364c-.049.17 0 .218.121.17a.582.582 0 0 0 .291-.534c0-.364.025-.534.146-.655-.218-.365-.437-.316-.364.072zM26.12 6.51c0 .243.558.291.63.024.122-.29-.096-.51-.024-.8-.364.096-.606.363-.606.776zM25.974 7.141c.121-.218.316-.291.607-.267.218 0 .34.049.34.267 0 .218.024.461-.025.655-.073.194-.097.17-.34.194-.266 0-.364-.12-.655.049.17-.413-.024-.583.073-.898zM27.018 6.194c-.122-.194.024-.266.145-.12.146.12.243.29.243.46.024.17-.17.316-.291.17-.122-.145.024-.291-.097-.51zM27.139 7.117c-.073-.243.024-.267.316-.146.194.17.218.291.12.388.195.195.195.462.025.777-.121-.097-.267-.049-.364-.194-.024-.097-.097-.049-.048-.413a.614.614 0 0 0-.049-.412zM27.479 9.107c.121 0 .194.073.194.145 0 .073-.097.122-.194.098-.122 0-.194-.073-.194-.146 0-.049.097-.097.194-.097zM25.974 8.888c.121 0 .218.073.194.146 0 .073-.097.146-.218.121-.122 0-.219-.072-.194-.145 0-.073.097-.146.218-.122z" fill="#FFF"/><path d="M27.819 8.621c-.146-.242-.51-.412-1.044-.485-.34-.049-.801.049-1.286.17-.267.291-.364.728-.316 1.31l.219.049-.195.146h.267l-.17.242.146.049-.121.315.145.097-.072.195.194.024-.049.194.146.024-.049.194.146.049c.097.146.267.267.461.388.146.073.291.073.461.049.291-.219.364-.413.607-.68.073-.024.097-.17.097-.388.146-.073.194-.194.194-.364l.122-.17v-.582c-.146.048-.243.072-.365.048l-.34-.145-.096.752c0 .145-.073.364-.243.291l-.413-.194c-.097-.049-.073-.194.049-.243l.145-.024v-.655c-.242.073-.51.097-.752-.073-.097-.049-.194-.049-.291-.049a.977.977 0 0 1 .267-.34l-.146-.218c.049 0 .146.024.219.024.34-.024.51-.072.606.025.097.097.17.17.267.218l.025-.17c.072-.194.218-.242.436-.17l-.048.486.777-.243v-.146zm-1.796 1.99c.218-.048.46-.048.68 0 .387.098.412.243.048.462-.219 0-.461 0-.704-.073.073-.122.145-.17-.024-.388zm.29.17c.098-.072.244-.072.39 0 .072.049.048.122-.025.17a.5.5 0 0 1-.267 0c-.073-.073-.024-.121-.097-.17z" fill="#FFF"/><path d="M26.387 10.029c.048 0 .072.024.072.073 0 .024-.024.048-.072.048-.025 0-.073-.024-.073-.048 0-.049.048-.073.073-.073zM26.775 8.913c0-.049.024-.097.024-.17.122-.122.17-.194.17-.073 0 .097 0 .17-.024.243h-.17zM26.63 10.102c.024-.316.072-.583.12-.971h.17c-.024.267-.048.558-.145 1.02-.049.096-.097.048-.146-.05zM24.76 8.427c-.024-.194.17-.17.195 0 .048.34 0 .607-.17.777-.122.073-.291 0-.194-.146.17-.242.218-.412.17-.63zM24.615 9.81c-.049-.218.097-.29.146-.048.17.655.46 1.286 1.116 1.893.267.218-.024.413-.267.194-.655-.558-.85-1.335-.995-2.038zM27.042 11.8c-.024-.194.048-.388.267-.558.146-.097.194.073.121.17-.145.17-.267.17-.388.389zM20.708 14.495c.024-.17.048-.292.145-.413a.735.735 0 0 1-.17-.121c-.121.267-.29.485-.534.8.17-.51.34-.898.704-1.286-.048.17-.097.316-.145.437.048.049.121.097.17.146.048-.049.097-.097.12-.146 0 .073 0 .146-.023.219h.024l-.024.072-.025-.024c-.048.121-.121.194-.242.316zM20.416 14.931a.57.57 0 0 1 .17-.34c-.024.17-.048.219-.17.34zM21.703 15.126c.024-.097.048-.195.073-.267l.048-.049c0-.024.024-.073.049-.097.048-.049.097-.121.145-.17-.024.291-.097.388-.315.583zM21.654 15.83c-.073-.243 0-.413.291-.559 0 .364-.024.461-.29.558zM22.237 15.611c.242-.582.267-.85.194-1.578.267.68.218.874-.194 1.578zM26.192 17.82c.122-.51.17-.996.146-1.505-.048.024-.073.024-.121.048a3.754 3.754 0 0 1-.243.971c.073-.315.121-.63.097-.946a.345.345 0 0 1-.146.048c-.024.219-.097.461-.194.777.049-.267.073-.51.073-.753-.073 0-.145.025-.218.025a12.55 12.55 0 0 1-.146 1.092c0-.364-.024-.728-.024-1.068h-.243c0 .364-.048.728-.121 1.238-.024-.437-.024-.85-.049-1.262-.073-.025-.145-.025-.242-.049 0 .388-.049.777-.122 1.31-.024-.46-.048-.897-.048-1.334l-.219-.073c-.024.364-.097.728-.194 1.214 0-.437 0-.826.024-1.262-.072-.025-.145-.05-.218-.073-.024.485-.073.922-.097 1.432-.073-.631-.121-1.068-.073-1.505a.486.486 0 0 1-.194-.097c-.121.582-.17 1.092-.121 1.674-.17-.752-.195-1.189-.025-1.723-.048-.048-.097-.073-.145-.097a4.272 4.272 0 0 1-.34.656c.121-.243.17-.486.243-.704-.073-.049-.17-.097-.243-.146-.049.316-.194.631-.437 1.068.316-.777.34-1.505.364-2.427.073.364.122.655.122.922.097.049.17.073.266.122.05-.413.073-.801.073-1.262.122.533.17.922.097 1.286.073.024.146.073.219.073a2.2 2.2 0 0 1 .121-.194l-.073.218c.049 0 .122.024.17.024.049-.145.073-.315.146-.51 0 .195-.024.365-.024.559.072 0 .12.024.194.024 0-.121.024-.267.024-.413.049.17.049.292.073.437.073 0 .17.025.242.025V15.1c.049.219.097.389.122.559.097.024.194.024.291.024 0-.194 0-.364.024-.583.049.219.073.413.122.583h.242v-.874c.097.34.146.607.17.85.073 0 .146-.025.219-.025 0-.194-.049-.412-.073-.63.097.218.17.412.194.606.048 0 .097-.024.146-.024-.025-.219-.073-.437-.098-.68.098.243.17.437.219.631.048 0 .097 0 .146-.024-.049-.34-.073-.704-.146-1.116.558 1.383.558 2.014.048 3.422zM26.872 16.218l.097.218.34-.315c.097-.122.194-.097.267.072l.024-.388c.122-.073.219-.024.316.097.072-.097.072-.218.024-.364l.048-.485c-.194-.316-.34-.51-.558-.583.122.267.122.486.049.68-.024-.316-.17-.534-.413-.655.097.194.146.388.097.582a.727.727 0 0 0-.242-.218l.048.29-.146.098.049.97zM29.105 14.495c0 .072 0 .121-.049.121-.048 0-.097-.049-.17-.121h.219zM28.96 14.082c.048.121.096.218.096.291h-.267a2.129 2.129 0 0 1-.145-.242c-.025 0-.025-.025-.025-.049h.34zM28.522 13.62c.073 0 .243.146.364.365h-.315c-.097-.194-.121-.364-.049-.364zM28.377 14.47c.024-.024.121.073.218.219.073.145.097.267.073.29-.024.025-.121-.072-.194-.217-.097-.146-.122-.292-.097-.292zM27.916 14.373c.024-.024.145.097.267.267.097.194.145.34.097.364-.025.025-.146-.097-.267-.267-.097-.194-.146-.34-.097-.364zM20.077 13.427c.072.048.12.097.17.121l.12-.121c-.023.17-.072.218-.193.34.024-.073.048-.146.073-.195-.05-.048-.098-.097-.17-.145zM17.917 37.769l-.097.315-.097-.048.048-.267h.146zM10.393 48.472c.316-.122.389.024.486.388.267.242.436.437.436.63.559.462.462.656-.29.583-.243-.073-.389-.242-.389-.582l-.243-1.02zM10.515 50.34c-.195.291-.146.656.097.947.145.17.315.218.485.218L11 51.238l.291.194c0-.145-.121-.315-.388-.51l.364.098c0-.194-.17-.364-.461-.51h.242c-.12-.34-.34-.437-.533-.17zM11.461 50.51c.097-.024.17.097.194.243.024.145-.024.267-.121.29-.073.025-.17-.096-.194-.242 0-.145.048-.291.121-.291zM16.388 33.886c0-.777.34-1.53.776-2.282a18.1 18.1 0 0 0-.776 2.282zM18.135 29.372c-.291.12-.315-.122-.097-.292.461-.388.97-.533 1.553-.533h1.02c.388 0 .34.388-.025.364h-.728c-.655-.025-1.189.17-1.723.46z" fill="#FFF"/><path d="M20.344 29.008c.267 0 .485.048.485.097 0 .072-.218.097-.485.097s-.486-.025-.486-.097c0-.049.219-.097.486-.097zM22.334 23.862c-.049-.048-.17.122-.34.34-.146.194-.243.388-.218.388.024.025.17-.12.315-.34.17-.193.267-.388.243-.388zM20.635 25.537c-.122.218-.073.34.17.437.97.291 1.917-.024 2.863-.558l1.19-.559c.218-.267.17-.34-.122-.242l-.582.291.146-.485c-.316.242-.51.485-.656.752l-.097-.243a.92.92 0 0 0-.315.51l-.122-.267a.737.737 0 0 0-.291.316l.049-.34c-.097-.073-.243.097-.437.485l.097-.364c-.073-.073-.194.073-.364.437l.388-1.165c-.194.024-.461.461-.752 1.238-.122.024-.17-.025-.146-.122l.437-.85c-.218-.023-.461.292-.752.85l.34-.97-.632.825v-.316c-.145.049-.29.17-.412.34zM20.756 41.336c-.097-.097.073-.194.122-.145l.29.267c.074.073-.096.194-.17.145l-.242-.267zM20.975 41.142c-.049-.073.072-.17.121-.121l.243.243c.072.072-.073.17-.122.12l-.242-.242zM21.12 40.924c-.097-.097.073-.219.146-.146l.291.291c.073.073-.121.195-.17.122l-.267-.267zM21.242 40.56c-.097-.122.12-.292.242-.219l.437.437c.122.122-.17.316-.243.219l-.436-.437zM21.703 40.171c-.146-.145.048-.34.17-.218l.533.461c.146.121-.072.34-.194.243l-.51-.486zM22.018 39.929c-.121-.122.025-.292.146-.194l.46.388c.122.121-.072.291-.169.218l-.437-.412zM22.43 39.783c-.096-.097.025-.243.122-.17l.388.34c.098.097-.072.267-.145.194l-.364-.364zM20.49 37.04c0-.12-.195-.072-.22.025l-.048.437c0 .097.219.048.219-.024l.048-.437zM19.858 37.647c-.024-.194-.218-.097-.218.025l.048.34c0 .17.243.072.219-.025l-.049-.34zM19.13 38.108c-.024-.17-.145-.12-.145 0l-.025.316c-.024.17.17.097.17 0v-.316zM20.052 37.502c.049 0 .097.048.097.121s-.048.122-.097.122c-.024 0-.072-.049-.072-.122s.048-.121.072-.121zM19.373 37.939c.073 0 .121.072.121.145 0 .097-.048.146-.121.146s-.122-.049-.122-.146c0-.073.049-.145.122-.145zM18.766 38.375c0-.145-.194-.145-.194-.024v.291c0 .146.218.122.218.025l-.024-.292zM24.033 20.028c.072 0 .12.073.12.17 0 .097-.048.194-.12.194-.049 0-.098-.097-.098-.194s.049-.17.098-.17zM24.324 20.489c-.049 0-.073-.121-.073-.267 0-.17.024-.291.073-.291.048 0 .097.121.097.291 0 .146-.049.267-.097.267zM24.785 20.368c.121 0 .218.048.218.097 0 .024-.097.073-.218.073-.097 0-.194-.049-.194-.073 0-.049.097-.097.194-.097zM25.028 20.78c.048 0 .097.049.097.097 0 .073-.049.122-.097.122-.025 0-.073-.049-.073-.122 0-.048.048-.097.073-.097zM25.416 20.756h.898c.291 0 .34.146.145.413.098.485-.51.8-.485.024-.049-.146-.218-.219-.558-.219-.146-.048-.146-.194 0-.218zM24.008 26.46c.073 0 .122.048.122.12 0 .073-.049.146-.122.146-.048 0-.097-.073-.097-.145 0-.073.049-.122.097-.122zM23.62 26.58c.073 0 .146.073.146.17a.157.157 0 0 1-.146.146c-.097 0-.146-.073-.146-.145 0-.098.049-.17.146-.17zM24.105 26.847c.316-.218.631-.363.68-.29.048.072-.17.315-.51.558-.34.218-.63.34-.704.267-.024-.073.195-.316.534-.535zM25.27 26.095c.194-.17.389-.267.413-.243.048.05-.097.219-.291.389-.195.145-.389.267-.413.218-.049-.048.097-.218.291-.364zM24.518 27.94c.073-.17.145-.34.243-.486l-.049-.024c.049-.291.267-.51.558-.655l.049.024c.097-.097.218-.17.364-.243-.073.122-.122.243-.194.34l.072.049c.17-.17.389-.316.631-.389-.145.195-.29.34-.46.486l.145.097c.218-.194.485-.34.704-.437-.17.17-.34.364-.534.534l.17.097c.218-.17.485-.291.728-.34-.122.097-.243.194-.34.291.17-.048.364-.048.607-.072-.316.145-.51.194-.753.29l.195.122c.242-.145.51-.218.728-.218-.17.097-.364.218-.559.315l.17.097c.219-.12.486-.17.704-.145a3.577 3.577 0 0 0-.534.242l.097.073c.219-.097.437-.145.656-.145-.194.072-.34.17-.51.242l.146.073a1.12 1.12 0 0 1 .558-.048c-.146.048-.291.072-.437.145l.51.316-.098.048-.776-.267c-.049 0-.073.025-.097.049 0-.024.024-.049.048-.073l-.194-.048c-.097.048-.218.12-.34.17.073-.098.122-.17.195-.22l-.195-.072c-.097.049-.218.122-.34.17.05-.073.122-.17.195-.243l-.194-.072c-.146.097-.267.194-.413.267.073-.122.146-.219.243-.316l-.267-.097c-.122.121-.243.218-.364.315a.763.763 0 0 1 .194-.364l-.243-.097c-.121.122-.267.243-.412.364.072-.145.145-.29.242-.412l-.388-.146a2.543 2.543 0 0 1-.461.413zM21.8 28.692c-.316.631-.631 1.602-.85 3.568-.121.873-.194 1.747-.024 2.645.097.485.316.655.534.631l3.616-.582c.267-.049.534-.267.413-.51l-.146-.291-.121.412-.194-.34-.146.389-.219-.486-.17.583-.218-.461-.121.485-.121-.413-.146.51-.17-.46-.146.557-.194-.534-.145.389-.17-.316-.122.291-.17-.242a.623.623 0 0 0-.51 0l-.072.121-.097-.121c-.267-.073-.558-.122-.825-.17l.34-.17c0-.121-.122-.17-.34-.146l.364-.267-.388-.073.364-.218c0-.097-.097-.194-.389-.315l.389-.122v-.097l-.389-.048.413-.195c.048-.097-.073-.17-.34-.267l.34-.097c-.024-.097-.049-.218-.291-.315l.29-.097-.29-.219.364-.145c0-.122-.049-.17-.267-.267l.388-.17c-.024-.073-.121-.194-.364-.267l.364-.121-.291-.194.34-.146-.267-.097.315-.194c.073-.073-.048-.146-.315-.17l.364-.146.024-.145-.34.048.17-.145-.218-.17.51-.122.048-.097-.364-.097.291-.17c-.048-.145-.146-.194-.291-.194zm.558.51l.073-.025c-.316 1.724-.461 3.374-.219 4.854-.121-2.305.17-4.756.607-5.169l.073.17c-.51 1.844-.558 3.495-.219 4.975-.218-2.524-.024-3.98.413-4.757v.243c-.34 1.772-.364 3.203-.048 4.368l.097-.072a14.111 14.111 0 0 1 .194-4.709l.17.025c-.34 1.868-.34 3.324-.097 4.66l.097-.098c-.195-1.917-.17-3.252.121-4.465l.146.024c-.267 1.844-.292 3.3-.05 4.49l.098-.025c-.194-2.014-.097-3.446.17-4.514l.097.098a17.31 17.31 0 0 0 0 4.344l.097-.049c-.048-1.747-.145-3.13.073-4.15l.121-.145c-.17 1.286-.17 2.718.049 4.32h.097c-.17-1.894-.121-3.325.073-4.49l.097.072a30.133 30.133 0 0 0 .024 4.442l.097-.025c-.097-2.087-.024-3.519.194-4.368.194-.073.194.17.025.437-.122 1.262-.17 2.524 0 3.907l.145.024c-.145-2.014-.024-3.179.194-4.32.122-.12.243.025.097.316-.17 1.408-.267 2.403-.12 4.004h.169c.194.073.218.146.024.219-1.189.243-2.33.461-3.422.534-.218.024-.291-.097-.291-.413-.073-1.723.121-3.3.534-4.732zm4.004.995l.146-.728c.17-.097.243-.049.218.145l-.315.607-.049-.024zm-.267-.777c-.17 1.214-.17 1.942-.29 3.204l.096.218c.024-1.408.219-2.305.413-3.373.073-.194-.122-.243-.219-.049zm-.364-.048c.073-.097.194-.073.17.048-.194 1.044-.315 2.281-.34 3.69h-.072c-.073-1.36-.025-2.573.242-3.738zm-5.048 7.936c-.024-.389.025-.801.17-1.214.049-.17.219-.267.51-.291l3.252-.485c.17-.025.194.072.17.29-.049.316-.097.608-.243.85-.121.097-.145-.315-.121-.946-.243.582-.146 1.189-.534 1.286-.17-.267.097-.777.146-1.165-.365.34-.243.752-.559 1.19-.12.023-.097-.39-.024-1.044-.17.485-.315.873-.485 1.043-.097-.145-.097-.51-.073-.898-.146.631-.316 1.068-.461 1.14a3.739 3.739 0 0 1 .024-1.043l-.073-.072c-.097.606-.194.97-.34 1.14-.12-.34-.145-.728.049-1.116h-.146c-.097.315-.145.582-.29.68-.195-.025-.292-.243-.292-.607-.17.68-.413 1.043-.68 1.262z" fill="#FFF"/><path d="M26.823 30.44c-.194.145-.266.315.122.29-.267.243-.291.413-.073.486-.485.607-.485.777-.024.51-.534.68-.461.776-.097.655-.461.558-.389.631-.243.655-.316.437-.316.655-.024.631-.243.097-.413.291-.461.68-.098.388-1.141.825-.267 1.189.267.146.485.51.655 1.14.073.34.218.365.51.243.242-.073.485-.097.728-.121.46.048.485-.461-.025-.534.049-.194-.121-.291-.388-.17.219-.364-.048-.267-.146-.315.146-.073.122-.243-.267-.025l-.048-.121c.218-.073.291-.194.315-.34l-.655.219c.194-.17.291-.291.267-.413l-.461.097c.485-.34.68-.582.655-.704l-.51.146c.365-.291.607-.534.583-.68l-.437.17c0-.145.194-.29.558-.388.292-.146.437-.34.389-.607l-.656.316c.534-.486.971-.922 1.093-1.214-.049-.17-.583.194-1.287.777v-.121a5.49 5.49 0 0 0 1.578-1.602l-1.286.995 1.164-1.383c-.072-.17-.412.024-1.067.703l.048-.145.607-.655c.461-.267.752-.607.946-1.02.122-.315-.29.097-.922.655-.145.146-.315.219-.485.389l1.48-1.553.025-.195c-.146-.145-1.093.971-1.894 1.36zm-1.747 5.994c-.267-.17.024-.558.219-.388l.728.534c.218.17 0 .46-.17.34l-.777-.486zm.291-.461c-.267-.17.049-.51.219-.364l.388.388c.218.194.073.364-.121.267l-.486-.291zm1.554 1.456c-.195-.097-.292.049-.17.146.315.266.655.485 1.019.655.364.194.752.218 1.116.218.267 0 .389-.17.049-.242-.631-.17-1.262-.365-2.014-.777zm.194-.024c-.122-.146-.097-.267.073-.364l.873-.073c.17 0 .316.097.461.291l.413.461c.17.219.024.388-.146.34a9.98 9.98 0 0 1-1.674-.655z" fill="#FFF"/><path d="M27.988 35.1c.146-.268.364-.462.68-.583.825-.122 1.65-.292 2.427-.583.242-.17.34-.121.315.146-.073.752-.17 1.383-.388 1.577v-1.31l-.097.024c-.073.655-.17 1.14-.34 1.335l.049-1.214h-.122l-.267 1.19.073-1.044c0-.146-.048-.17-.121-.097-.17 1.213-.388 1.723-.631 1.893.243-.777.243-1.31.194-1.772l-.073-.048c-.073.63-.17 1.237-.388 1.699-.243-.364.218-.995.121-1.602h-.048l-.437 1.505c-.146 0-.097-.195.048-.583l.049-.85-.073.05c-.121.46-.242.8-.412 1.091l.072-1.116-.315.8.024-.654-.34.145zm3.592-.923c.024-.267.316-.194.194.073l-.145.34h-.073l.024-.413zm-.073.995c.025 0 .049.073.049.17 0 .097-.024.17-.049.17-.024 0-.048-.073-.048-.17 0-.097.024-.17.048-.17zm.122-.364c.048 0 .073.024.073.097 0 .049-.025.097-.073.097a.104.104 0 0 1-.097-.097c0-.073.048-.097.097-.097zm-.025-1.48c.073 0 .122.096.146.218.024.121.024.243-.048.243-.025.024-.098-.073-.122-.195-.024-.12 0-.242.024-.267zm-.364-.704c.219.218.243.412.219.582-.024.243-.219.413-.219.243-.024-.219 0-.461-.17-.753-.096-.12.073-.17.17-.072zm-1.771-.437c.024-.243.218-.049.218.097l-.073.388c-.072.073-.097.024-.17-.121l.025-.364zm-.85 1.262c-.194.121-.194.218.025.291l.097-.024v.024c0 .097.048.17.097.17.048 0 .097-.073.097-.17v-.073l.218-.048v.485c-.073.024-.145.024-.242.049 0-.049-.049-.073-.073-.073a.104.104 0 0 0-.097.097s.024.024.024.048c-.048.025 0 .025.097.097l1.626-.364c.486 0 .607-.364.486-.946.072-.194.024-.267-.146-.243l-.364-.048.218-.146c.292-.146.292-.218.049-.218l-.51-.073.413-.073c.121-.024.17-.17-.025-.243l-.436-.048.34-.073c.218-.17.096-.291-.316-.34.145-.17.121-.29-.049-.29-.073-.17-.29-.292-.218.023l.097 1.602c.048.17-.024.291-.218.364l-1.19.243zm.923-.631c.072 0 .12.048.12.121s-.048.122-.12.122c-.049 0-.097-.049-.097-.122s.048-.121.097-.121zm.97.51c.025 0 .049.024.049.048 0 .048-.024.073-.049.073-.024 0-.048-.025-.048-.073 0-.024.024-.049.048-.049zm-.097-.316c.097-.024.17 0 .194.049.025.072-.048.12-.145.145-.097.024-.17 0-.194-.073-.025-.024.048-.097.145-.121zM29.3 34.056h.048v-.486l-.12.049.072.437zm.267-.073c.048 0 .073-.025.121-.025v-.46l-.218.048.097.437zm.291-.097c.024-.025.049-.025.073-.049v-.388l-.097.024.024.413zm.218-.097s.05 0 .073-.025c.17-.194.17-.29-.024-.34h-.049v.365zM33.837 10.854c-2.014-.17-2.985.486-3.519 1.165a3.46 3.46 0 0 0-.752 1.966c.048.121.267-.146.582-.558l-.194-.073c.049-.146.121-.267.219-.413.048-.073.048-.194.17-.267.145-.073.242-.218.242-.267h-.17c.559-.68 1.335-.85 2.209-.825.242.024.461.049.68.073a.44.44 0 0 0 .315-.073c.073-.048.097-.121-.024-.121a6.135 6.135 0 0 0-2.306.097c.558-.364 1.36-.388 2.5-.34.46.024.485-.315.048-.364zm-3.519 12.96c.073.048.097.194.049.364-.049.146-.17.267-.243.243-.097-.025-.121-.194-.073-.34.073-.17.17-.291.267-.267zm-1.747.704c.024 0 .073.121.073.242 0 .146-.049.243-.073.243-.049 0-.073-.097-.073-.243 0-.12.024-.242.073-.242zm.146.85c.072-.462.29-.874.679-1.141.34-.243.413-.17.146.17-.243.315-.389.703-.583 1.043-.073.146-.291.315-.242-.073zm1.019-1.845c-.34.121-.607.34-.777.655-.121.291-.073.316.146.097.218-.243.485-.388.728-.582.097-.073.194-.243-.097-.17zm-2.087 1.626c-.17.218-.146.291.145.17.461-.704.777-1.165 1.044-1.31l.825-.729c.631-.146.995-.825 1.116-1.966l-.048-.145c-.316.8-.68 1.383-1.165 1.698-.437.316-.801.704-1.14 1.165-.146.146-.146.316-.268.51-.145.194-.388.388-.51.607zm-.194-.51c-.146.267-.025.364.12.146.559-.777.947-1.31 1.53-1.796.534-.413 1.31-1.165 1.626-2.16.194-.583-.024-.752-.17-.389-.316.874-.68 1.65-1.262 2.112-.655.534-1.36 1.14-1.844 2.087zm-.073-.8c-.122.218-.146.388-.049.509.461-.17.316-.898 1.456-1.48.146-.195.097-.267-.145-.195l-1.068.777c.364-.583.728-1.044 1.262-1.165.34-.048.655-.194.946-.51.122-.267.073-.34-.121-.218-.655.437-1.213.607-1.723.995-.461.388-.777.874-.898 1.432l.34-.146zm-.073-1.408c.194-.413.728-.68 1.48-.923.51-.17.923-.534 1.286-.97.389-.243.316-.025.195.242-.146.243-.243.316-.486.461-.29.243-.728.462-1.067.607a2.595 2.595 0 0 0-1.165.825c-.219.17-.316.097-.243-.242zm1.14-1.384c.365-.218.68-.437.923-.8.34-.486.485-.51.388 0-.097.412-.388.849-.995 1.067-.51.194-.655-.048-.315-.267zm1.53-1.116l.17-.874a1.62 1.62 0 0 1 .363-.922l.267-.728c.073-.291.195-.267.195.097l-.17.461c.145.073.072.218-.025.364-.024.17-.024.364-.194.413-.048.655-.121 1.189-.315 1.359-.291.364-.389.315-.291-.17zm-1.165-.121l.388-.947c.097-.34.267-.534.485-.558l.534-.51c.121-.145.194.049.121.17l-.388.631c-.073.51-.267.97-.728 1.505-.097.097-.267.097-.17-.049l.461-.922-.582.8c-.17.22-.194.05-.121-.12zm-.68.388c.218-.583.291-.898.51-1.092.267-.267.34-.243.17.072a2.388 2.388 0 0 0-.292 1.19c0 .485-.606.388-.388-.17zm-.049-.777c.025.194.049.146.146 0l.219-.606c.242-.219.582-.462.897-.85.146.218.413.024.826-.534.51-.243.752-.63.898-1.116.12-.413.048-.486-.219-.219-.388.51-.68.704-.825 1.068-.461.146-.825.656-1.36.898-.145.097-.193.243-.193.437-.219.146-.364.388-.389.922zm.049-1.189c.049-.073.146-.097.194-.073.049.049.049.146-.024.219-.049.097-.146.121-.219.072-.024-.048-.024-.145.049-.218zm2.694-4.15c.34-.413.752-.704 1.14-.874.462-.194.437.17.122.17-.243 0-.583.219-1.14.922-.146.195-.316.025-.122-.218zm-3.204 4.951c-.072-.874.122-1.383.534-1.675 1.117-.68 1.505-1.674 1.87-1.65.363-.631.921-1.286 1.576-1.893.486-.34.583-.267.316.267-.704.995-1.408 2.184-2.039 2.524-.29.024-.51.194-.68.461l.438-.218c.218-.025.242.048.097.194-.364.194-.971 1.14-1.117.534-.242.46-.655.388-.68.85l-.048.606c-.097.17-.17.17-.267 0zm4.32-6.359c.219.025.316.097.146.292-.534.218-1.044.63-1.529 1.213.048.219-.049.413-.291.558 0 .364-.219.534-.583.583l-.534.68c.122.17-.073.436-.46.824-.243.267-.34.195-.292-.242.291-.801.85-1.966 1.116-1.966.146 0 .146-.049.195-.316.024-.194.218-.145.17 0-.025.195.024.219.145.073.607-.995 1.262-1.505 1.917-1.699zm-1.626.243c.437-.51 1.19-.85 2.597-.825.291.024.243.315-.024.291-.219-.024-.461.073-.68.121-.267.073-.558.097-.8.243-.486.267-.923.704-1.311 1.31-.146.074-.17.025-.097-.145.485-.874 1.068-1.335 1.674-1.383l.025-.049c-.34-.073-.753.073-1.36.631-.072.073-.097 0-.024-.194zm.534-.752c.534-.34 1.14-.534 1.845-.437.436.048.436.315.194.291-.68-.097-1.335-.073-1.99.243-.243.121-.194 0-.049-.097zM34.226 10.175c-.17-.219-.049-.34.242-.316.753.146 1.408.243 1.82.583.243.17.049.34-.12.218l-.51-.267c.024.219-.17.121-.462-.121-.194.194-.436.097-.703-.194l.17.485c.024.097-.073.097-.122.024l-.315-.412zm1.043.388c-.097.073.024.243.097.315.097.098.219.049.17-.097-.024-.145-.17-.29-.267-.218zM36.822 11.17c-.072-.049-.242-.122-.024-.17-.243-.146-.145-.34.024-.364.656-.024 1.165-.389 1.918.024l.34.388c.218.51.024.753-.268.389-.145-.219-.024-.413-.388-.583.194.364.34.728.34 1.14.558.535.048.656-.097.316l-.219-.995c.049.486.073.85 0 .85-.17 0-.072-.34-.145-.753-.049-.17-.097-.485-.194-.51-.413-.145-.801-.024-1.117 0 .534-.024.898 0 1.02.146.17.243.194.51.121.753-.121.194-.194.145-.194-.097l-.073-.316c-.024-.17-.218-.194-.485-.17-.17.024-.364.073-.559-.048zM30.075 29.299a26.06 26.06 0 0 0 2.694 3.689c.122.145.025-.292.122-.122.218.461.558.898.704 1.044.145-.121-.316-.534-.389-1.02l1.384 1.602c.12-.218-.68-1.165-1.335-1.99l.097-.097 1.577 2.063.073-.024c-.242-.68-.97-1.505-1.456-2.257l.049-.17c.29.364.68.922.995 1.383.46.656.873 1.238.995 1.287.582.145-1.384-1.918-2.282-3.64l.025-.098c1.068 1.626 2.014 3.107 3.058 3.786.12.073.218-.073.097-.218-.947-1.117-2.063-2.33-2.743-3.422l.049-.097c1.019 1.213 1.553 2.596 3.495 3.761.12.073.194.195.315.097.437-.34-1.675-.849-3.3-3.591l.024-.195c.606.826.704 1.068 1.262 1.65.776.85 1.99 1.845 2.184 1.7.194-.17-1.747-1.505-2.791-3.131l.049-.049c.825 1.141 1.99 2.524 3.688 3.398.243.121.146.097.437.097.753.049-1.674-1.19-2.936-2.572l.024-.122c.364.316.825.728 1.335 1.14.606.438 1.237.826 1.747 1.117.461.243.825.389.995.316.437-.219-1.674-.971-2.208-1.53.315.17.63.292.898.413.922.461 1.577.777 1.723.607.097-.121-.389-.388-1.238-.704-.097-.097-.024-.121.218-.073.971.389 1.53.656 1.65.583.316-.097-.193-.316-.776-.68.728.316 1.36.607 1.699.51.121-.024-.413-.316-.874-.728.656.412 2.209.97.728-.073l.097-.048c.559.412 1.262.582.413-.097h.121c.486.388.753.68.389-.122.485.704.97.971.315-.048l.753.582c-.267.121-.243.194 0 .34.63.412.68.34.558 0 .072-.655-.17-1.092-.607-1.36-.485-.315-.461.05.097.923a2.173 2.173 0 0 1-.51-.558c-.097-.194-.315-.316-.558-.316-1.14.025-2.257.243-3.325.389-.825.121-1.456 0-1.747-.195-.291-.242-.388-.34-.243-.606.097-.219 0-.389-.145-.461l-.777-1.553c.097.17.218.242.316.388.315.51.533.922.606.898-.121-.34-.534-1.092-.85-1.942.608 1.068 1.141 1.99 1.287 1.869-.073-.413-.558-1.213-1.043-2.039.145.146.194.194.29.316.195.243.365.46.462.412-.388-.8-.801-1.31-1.238-1.456-.68-.242-1.092-.34-.995.097l-.34-.388-.364-.049c-.121.049.049.243.292.656l-.073.048-.413-.655c-.121-.073-.291-.146-.315 0l.218.437-.461-.51c-.218-.121-.461-.17-.461-.073l.68 1.117c-.122-.17-.316-.34-.486-.583-.267-.364-.485-.63-.8-.68-.316-.023.315.486.751 1.53l-1.043-1.505c-.097-.073-.51-.146-.534 0l1.213 1.747c-.558-.63-1.116-1.164-1.431-1.771-.073-.073-.146-.073-.219-.073-.048-.024-.097 0-.146.049l1.481 1.917a8.448 8.448 0 0 1-.801-.825c-.315-.437-.607-.728-.85-1.117-.097-.121-.29-.073-.315-.024-.121.17 1.116 1.432 1.65 2.184a12.06 12.06 0 0 1-1.868-2.184c-.243-.121-.413-.121-.486 0-.073.146 1.505 1.65 2.112 2.597-.825-.874-1.626-1.7-2.282-2.597-.097-.121-.388-.121-.388 0 0 .243 1.36 1.48 2.451 2.985-.8-.874-1.771-2.038-2.184-2.281-.194-.024.485.825 2.039 2.597a20.825 20.825 0 0 1-2.136-2.257c-.194.17.655 1.237 1.893 2.596l-1.942-2.038c-.266-.17-.315-.146-.17.097zm8.252-.461c-.17-.243.073-.364.267-.073.388.655.752 1.213 1.02 1.844.12.292-.05.364-.17.097-.316-.703-.704-1.262-1.117-1.868zm-.752-.243c-.122-.194.194-.315.437.024a16.05 16.05 0 0 1 1.431 2.354c.219.486 0 .607-.218.17-.461-.946-1.068-1.771-1.65-2.548z" fill="#FFF"/><path d="M34.104 12.19c-.024.436.219.994.68 1.358 0-.073-.219-.413-.364-.704-.146-.34-.219-.606-.316-.655zm1.505 15.143c-.049-.704-.437-1.214-1.213-1.796.024.17.51.582.8 1.092.292.486.292.607.413.704zm-.024-.728c-.097-.073-.17-.34-.413-.728-.243-.413-.655-.825-.68-.947.632.461 1.044 1.117 1.093 1.675zm-.097-.922c-.073-.073-.146-.267-.316-.559-.194-.315-.51-.63-.534-.728.51.34.825.826.85 1.287zm-.097-.947c0-.315-.243-.655-.583-.85.024.074.219.268.364.486.121.194.17.316.219.364zm-.364-13.3c-.122.413 0 .996.388 1.481.024-.097-.122-.461-.219-.8-.072-.316-.097-.632-.17-.68zm-4.296 15.63c-.364.024-.437-.049-.461-.413.17.17.315.243.46.413zm-.486-.631c.243.243.486.388.729.655a.338.338 0 0 0 .363-.048c-.388-.413-.752-.656-1.164-1.068.024.145.048.315.072.461zm-.097-.68c.51.51.898.826 1.36 1.311.145.073.242.073.315 0-.558-.704-1.068-1.238-1.626-1.942-.049.219-.049.437-.049.631zm.097-.776c.631.728 1.238 1.359 1.893 2.16.194.097.34.097.413.024-.63-.825-1.432-1.723-2.16-2.621-.049.121-.073.218-.121.315-.025.049-.025.073-.025.122zm.17-.607c.825.947 1.578 1.796 2.451 2.84a.345.345 0 0 0 .34.024c-.097-.097-.68-.801-.776-.922-.704-.874-1.117-1.335-1.918-2.306a2.026 2.026 0 0 1-.097.364zm.146-.51c.874.971 1.19 1.408 2.136 2.524.097.146.606.656.703.777.122.243.534.243.34.073-.17-.194 0-.049-.242-.364-.777-.947-2.063-2.5-2.84-3.47-.024.17-.073.315-.097.46zm.121-.582c.025-.146.049-.267.073-.388.728.922 2.16 2.645 2.985 3.664.437.534.413.51.656.777 0 .121-.098.073-.267.024-.219-.242-.195-.218-.413-.51-1.02-1.189-2.136-2.572-3.034-3.567zm.073-.51c.049-.17.049-.364.073-.533.776 1.213 1.893 2.5 3.13 3.64-.096-.486-1.65-1.82-2.596-3.082a11.84 11.84 0 0 1-.486-.923c.025-.145.025-.267.05-.436.654 1.334 1.698 2.572 3.154 3.834-.17-.437-1.675-1.65-2.476-2.936-.29-.51-.51-.923-.63-1.262v-.219c.655 1.31 1.795 2.67 3.155 3.835-.146-.437-1.7-1.7-2.452-2.937-.315-.534-.51-.946-.655-1.286v-.243c.631 1.262 2.039 2.96 3.325 4.077-.146-.412-1.893-1.941-2.621-3.13-.316-.559-.534-.995-.655-1.335v-.34c.533 1.262 1.893 2.937 3.227 4.029-.145-.413-1.82-1.796-2.5-2.937a7.73 7.73 0 0 1-.679-1.408c0-.12 0-.266.024-.363.461 1.286 1.748 2.839 3.107 3.883-.146-.364-1.699-1.626-2.33-2.694-.413-.704-.607-1.165-.752-1.505 0-.146 0-.267.024-.413.388 1.262 1.602 2.791 2.96 3.86-.096-.365-1.553-1.506-2.183-2.525-.462-.776-.607-1.286-.753-1.626v-.073c.024-.145.024-.315.049-.46.267 1.261 1.432 2.887 2.815 4.004-.097-.316-1.432-1.456-1.99-2.403-.534-.898-.655-1.432-.825-1.723.412-3.495 1.893-5.558 4.053-5.922l.048.024c-.073.413 0 .923.243 1.408.048-.097-.073-.582-.097-.995v-.364l.194.049c.024.485.194.946.413.995-.17-.267-.195-.607-.195-.898l.267.072c0 .51.17 1.068.413 1.092-.218-.29-.218-.679-.194-.995l.048.025c.049.194.122.388.219.485.097-.121.048-.364-.024-.63.266-.146.582-.122.922.096.121.146.073.219-.097.219h-.17l.388.17c.024.048.097.097-.121.121l-.146.121.51.049c.17.073.145.121.097.194l-.122.145c.437 0 .898.098 1.457.389-.025.194-.243.17-.656-.049.097.243.486.267.461.413-.048.267-.63.024-.897.364l.655.024c.145.097.097.17-.122.17.34.413.607.534.704.243.097-.219.194-.219.292 0 .412.243.485.267.242.315l-.388.073.461.073c.121.048.121.146.049.218-.316.049-.34.097.242.122.243.121.34.242.243.34-.51.024-.485.097.121.145.146.073.195.17.17.243-.315.073-.267.145.121.145.049.073.098.122.025.195-.364.097-.316.145.145.145.025.17.292.146.389.364.388-.073.558.194.218.194l-.024.073c.558.024.8.17.728.51-.049.145-.801-.291-.485.873l.12.122c.22.048-.023-.534.34-.485.05.024.098.194.025.485-.073.267-.243.388-.51.218-.242-.17-.388-.34-.364-.534l.025-.364c-.267.025-.316-.145-.34-.412 0-.049-.097-.025-.073-.097-.437-.073-.631.072-.752.388-.025.121-.122.024-.17-.097.024-.073-.146.024-.243-.024-.073 0-.049-.17-.121-.146-.049 0-.049.073-.146.073-.073-.024-.048-.194-.194-.049-.097.097-.121.097-.146-.048.025-.122.122-.364-.145-.025-.097.049-.122.049-.17-.072-.146-.413-.243-.437-.292-.073-.072.145-.145.17-.145-.049-.146-.63-.17-.63-.121-.024-.025.267-.098.243-.243-.073-.17-.51-.243.049-.364-.194-.17-.291-.049-.704-.34-.825l.17.85c0 .12-.194.145-.218-.05-.098-.557-.462-1.528-.389-1.213l.219 1.165c.024.097-.243.049-.292-.097l-.29-1.456c-.074-.413-.074.777.096 1.286 0 .073-.194.073-.17-.024 0-.121-.218-1.505-.29-1.432-.17.17.29 1.553-.074 1.335-.048-.024-.17-1.408-.218-1.432-.024 0 0 1.335-.049 1.31-.388-.485.025-1.795-.242-1.868-.049 0-.17 1.602-.219 1.553.17 1.238 1.165 1.286 1.092 1.65l-.703-.364c.194.364.485.753.68 1.165-.22.073.023.364.169.51-.218-.024-.17.121.243.51.097.072.121.145.097.218-.51-.121-.558-.121.267.534-.51-.073-.534-.024.048.364.097.073.219.218.243.364.024.097-.073.049-.121.049-.097-.049-.243-.146-.292-.17-.145-.025-.048.17.631.68.17.145.243.266.122.315-.825-.51-.777-.389.121.388.218.34.243.485.17.534-.728-.607-1.213-.995.048.267.219.218.267.364.098.388-1.262-.946-.583-.315.266.558.049.049 0 .122-.048.097-1.213-.897-1.262-.68.024.656.049.121.122.218.073.315-.024.049-.121 0-.17-.024-.874-.825-.8-.655.194.704.146.218.219.412-.024.291-1.092-1.238-1.432-1.505-.024.388.145.243.17.364-.025.292-.995-1.36-1.019-1.19-.048.266.073.17.073.195 0 .17-.898-1.092-1.165-1.359-.049.243.146.291.122.34-.024.194-1.092-1.359-1.116-1.189-.048.219.097.17.145.267-.025.194-1.262-1.432-1.262-1.384-.048.17.024.388.024.364-.219.17-.12-.146-.12-.267-.242-.389-.777-.946-.874-.874.048.34-.097.097-.218.097-.364-.024-.8-1.044-.873-1.044-.242-.049l-.437-.073a1.087 1.087 0 0 0-.243-.315c-.752-.728-1.02-.801-.267.145.024.025-.048.05-.024.073l-.85-.145a.415.415 0 0 1-.315-.17c-.364-.631-.583-.874-1.19-1.456.05.218.51.606.874 1.213.097.389-.34.219-.485.146-.267-.364-.364-.413-.752-.874-1.093-1.286-2.257-2.742-3.204-3.762zm2.937-10.193c.072.049.17.364.364.728.194.389.485.753.51.874-.583-.461-.899-1.092-.874-1.602zm-.364.389c.097.097.17.412.388.849.243.437.631.874.631 1.02-.631-.535-1.02-1.263-1.02-1.87zm-.34.436c.121.098.194.461.46.947.268.485.73.995.753 1.14-.752-.582-1.213-1.407-1.213-2.087zm-.291.437c.024.753.558 1.675 1.383 2.33-.024-.17-.582-.728-.874-1.286-.315-.534-.388-.922-.51-1.044zm-.267.461c.048.826.63 1.82 1.577 2.573-.048-.194-.68-.825-1.02-1.432-.339-.607-.436-1.02-.557-1.14zm-.243.462c.073.898.728 1.99 1.747 2.79-.048-.218-.776-.873-1.14-1.553-.389-.655-.462-1.092-.607-1.237zm-.243.46c.097.996.85 2.16 1.942 3.034-.049-.242-.85-.97-1.287-1.698-.388-.704-.485-1.165-.655-1.335zm-.194.462c.097 1.068.922 2.33 2.112 3.276-.073-.267-.947-1.043-1.408-1.82-.437-.777-.534-1.262-.704-1.456zm-.17.485c.097 1.14.995 2.5 2.282 3.52-.098-.292-1.044-1.141-1.554-1.99-.485-.826-.558-1.336-.728-1.53zm-.194.461c.17 1.214 1.19 2.767 2.548 3.859-.097-.315-1.213-1.31-1.747-2.208-.51-.898-.607-1.408-.8-1.65zm3.204-4.78c.072.023.17.29.267.557.097.243.242.51.242.583-.388-.316-.558-.777-.51-1.14zm6.334 6.406c-.267-.267-.437.049-.073.389.316.29.655.194.558.097l-.485-.486zm-1.966-3.01c-.049 0 .024.292.049.438 0 .145.048.242.145.364.097.121.146.145.122.097-.098-.267-.195-.51-.219-.728 0-.097-.048-.146-.097-.17zm-.34-.363c-.048 0 .025.34.025.51 0 .145.048.29.145.436.097.122.146.17.121.122-.097-.34-.194-.607-.194-.874a.338.338 0 0 0-.097-.194zm-.364-.364c-.048-.024.025.364.025.558 0 .194.024.364.145.534.097.146.146.194.121.121-.072-.364-.194-.68-.194-.995 0-.145-.024-.194-.097-.218zm-.34-.364c-.048-.049 0 .412 0 .63-.024.22.025.39.122.608.121.17.17.218.145.145-.072-.437-.17-.8-.17-1.14 0-.17-.048-.219-.097-.243zm-.34-.389c-.048-.024 0 .486-.024.729-.024.242.025.436.122.655.097.218.17.267.145.194-.072-.485-.17-.898-.145-1.286 0-.17-.049-.243-.097-.292zm-.363-.364c-.049-.048 0 .51-.025.801-.024.243 0 .486.122.728.097.243.145.292.145.219-.072-.534-.17-.995-.145-1.432.024-.194-.024-.267-.097-.316zm-.316.025c-.024-.049-.024.412-.048.63-.025.22 0 .413.097.607.073.195.121.243.121.17-.048-.436-.121-.8-.097-1.14.024-.17-.024-.219-.073-.267zm-.267 0c-.048-.025-.048.34-.073.51a.778.778 0 0 0 .05.46c.072.17.096.195.096.146-.024-.34-.073-.63-.024-.898.024-.121-.024-.17-.049-.218z" fill="#FFF"/><path d="M11.607 4.69c.728.898 1.407 1.747 2.184 2.766 0 .17-.073.267-.267.267-.801-1.14-1.408-2.062-2.014-2.936-.122-.17.024-.194.097-.097zm3.664 6.237c.073.194-.072.291-.218.097-.316-.364-.243-.825.097-1.238.364-.436.825-.436 1.238-.121.242.194.17.218-.122.218-.825 0-1.14.413-.995 1.044zm.85-.388c-.34-.122-.437.024-.364.388C20.61 17.77 27.964 27.77 36.628 39.565l-.048.17.728.412-.243-.97-.146.096c-6.674-9.319-14.415-20.289-20.798-28.734z" fill="#E2B700"/><path d="M27.891 12.335c0-.17.631-.607 1.456-1.165.365-.292.704-.389 1.02-.389.097.025.242.049.437.025.194.12.121.218-.097.267-.098-.073-.195-.097-.292-.049-.218.049-.242.194-.388.243l-.097-.146c-.291.194-.485.728-.704.995l-.048-.267c-.146.024-.243.34-.461.51.024-.194-.025-.291-.098-.291-.364.242-.63.364-.728.267zm-9.635 12.717c.219 0 .413.072.413.145 0 .097-.194.17-.413.17-.242 0-.436-.073-.436-.17 0-.073.194-.145.436-.145zm1.65-.34c.146-.218.316-.316.365-.267.048.073-.024.291-.146.485-.145.219-.315.34-.364.267-.048-.048.025-.267.146-.485zm-.533.291c.097-.17.218-.267.267-.218.048.048 0 .218-.097.388-.122.17-.243.267-.292.218-.048-.048 0-.218.122-.388zm-.486.097c.098-.145.194-.218.219-.194.048.049 0 .194-.073.34-.097.121-.194.194-.243.17-.024-.049 0-.194.097-.316zm-8.081-1.723l-.097.267c.121.024.218-.146.34-.218l-.098.436c.146.025.486-.34.728-.51l-.17.438c.219 0 .365-.316.535-.486l-.098.461c.267-.024.437-.364.656-.558l-.049.437c.194-.024.34-.291.534-.461l.097.315c.17.025.267-.218.413-.315l.073.291.364-.364.072.316.413-.146.121.17.34-.17-.024.364.46-.194.05.243.34-.195v.316l.388-.097.024.291.582-.243-.194.437.51-.315-.073.34.558-.243-.315.51c.364.024.485-.243.728-.365l-.17.462c.364-.073.68-.364.995-.753.073.122.024.316-.243.728.389-.17.583-.437.728-.728l-.121.51c.243-.024.485-.219.704-.558l-.025.485c.195-.146.34-.34.437-.582.243.097.51-.049.607-.437.146-.364.049-.486-.267-.364-1.044.728-2.427.922-4.465.315-1.311-.364-2.67-.412-4.03-.46-.606-.025-1.116.072-1.358.63zm3.082-5.218c.097-.17.291-.315.534-.46l.049.218.582-.195.048.195.631-.34c-.364.46-.436.655-.315.655.097 0 .558-.534.704-.388-.316.485-.025.34.51-.097.145.048-.195.388-.146.436.048.049.243-.097.63-.363.098-.073.316-.316.365-.195.024.146-.122.219-.194.316-.389.46-.292.388.388-.049.097-.048.243-.17.34-.121-.461.607-.267.485.412.073.097-.049.219-.219.34-.097-.85.752-.704.85.388.315-.51.583-.388.607.413.097.073-.024.17 0 .267-.048-.364.364-.413.63-.243.534.267-.122.607-.267.777-.219-.34.34-.316.486.121.413.146.048 0 .218-.437.51-.072.12-.145 0-.218-.292-.048.17-.121.17-.194.073l-.097.631-.146-.024v-.364c-.073-.097-.146-.097-.218 0l-.122.485-.218-.121c-.073.17-.17.34-.34.46-.146-.193-.243-.145-.291.025-.097.024-.146-.048-.243-.024-.073.218-.145.267-.267.121a2.924 2.924 0 0 0-.558.437l-.097-.243c-.17.243-.315.389-.413.34l-.17-.17-.266.437-.437.121c0 .122.17.122.46.073.39-.048 1.141-.218 1.627-.364.485-.145 1.02-.218 1.602-.461.46-.218.995-.607 1.529-.874.121.097.024.34-.995 1.141l-.486-.146.267.364c-.121.122-.218.17-.34.146l-.436-.218.145.46c-.315 0-.46-.388-.752-.218l.121.364-.655-.194.121.437-.558-.243-.121.243c-.17 0-.267.049-.292.121 1.287.219 2.694-.242 4.15-.946.073-.024.098.024.098.146-.122.582-.534 1.092-1.19 1.553l.195-.777c-.437.194-.923 1.14-1.287 1.262l.388-1.02-1.14.947c-.097-.121.048-.388.291-.728-.34 0-.922.801-1.02.753-.242-.122.195-.364.292-.534-.315-.025-.534.267-.8.412-.025-.145.145-.315.436-.582l-.946.437c0-.17.364-.316.436-.558-.436.29-.825.485-.922.46l.291-.46-.825.436.51-.534-.874.413.243-.461-.631.412.267-.51c-.316.268-.607.438-.777.438.17-.219.292-.389.267-.51-.291.243-.582.413-.704.413l.122-.413c-.243.243-.51.413-.801.51l.291-.486c.049-.073.024-.17-.073-.097l-.655.534c.146-.267.218-.437.121-.51l-.46.243.048-.267-.534.583c-.073-.025.024-.17.097-.437l-.558.364c.291-.583.776-.971 1.432-1.165.776-.243 1.383-.267 1.868-.34.85-.121 1.384-.194 2.063-.51.316-.12.68-.266 1.068-.582.194-.146.121-.194-.097-.17l-.874.049v-.389l-.34.461-.072-.46-.292.8-.12-.922-.22.995-.12-.97-.365 1.116-.097-1.165-.218 1.189-.219-1.214-.145 1.214-.243-1.14-.097 1.091-.315-1.116-.025 1.165-.364-1.117-.073.996-.242-.971-.097.874-.195-.801-.12.873c-.365-.68-.51-1.237-.268-1.553.364-.413.85-.51 1.335-.437zm2.767-2.645c.073 0 .145.097.194.267.048.17.048.315.024.315-.073.025-.145-.097-.194-.267-.049-.145-.049-.29-.024-.315zm-2.476-.291c.364-.559.655-.728.85-.292.242-.776.51-.849.849-.17.461 0 .558.704.485 1.748l-.436-1.165v.752c-.292-1.286-2.16-.533-1.748-.873zM22.237 11c.534.048 1.068.242 1.577.534.024.072.049.121-.048.072-.195-.145-.364-.218-.51-.218.049.218.024.316-.073.291-.194-.34-.364-.388-.51-.315-.048.024-.072.048-.121.024-.146-.315-.218-.315-.291-.194-.146-.121-.146-.194-.024-.194zm-2.743.145c-.121.073-.121.122-.024.146.17-.146.34-.17.558.049 0-.316.121-.292.388.097-.097-.389 0-.486.413.097 0-.316.024-.364.291.17.073.097.146.097.17.048-.145-.558-.073-.534.243.049.097.121.145.121.145.048-.024-.388.146-.315.51.219.097.121.146.17.17.048-.073-.315.073-.291.388.097.243-.024.583.17 1.02.558.048.073.097.097.145.073-.243-.437.049-.267.437 0 .243-.121.267-.194.121-.243-.825-.29-1.504-.606-1.99-.97-.558-.437-.8-.316-1.456-.728-.558-.243-1.068-.122-1.529.242zm-1.189.777c-.291.097-.291.218-.024.267a.691.691 0 0 0 .315 0c.17-.024.243 0 .316.146.121.242.267.34.388.266.073-.072-.461-.46-.194-.46h.145c.413.388.801.606.777.533l-.17-.436c-.048-.146.17-.073.267.024l.558.485c.073.097 0-.073-.097-.388-.048-.097.097-.097.194 0 .34.34.753.922.753.704v-.219c0-.097.121-.097.194 0 .194.243.461.461.437.364l-.049-.194c-.024-.121.073-.121.219 0l.582.486c.122.097.219.048.17-.025l-.097-.145c-.073-.122-.024-.146.121-.049l.51.364c.097.073.097-.024-.049-.243h.292c.048.17.17.219.46.34.074.049.098-.048.243-.097l.704-.218c.219-.073.194-.219 0-.17-1.019.267-2.087-.243-3.227-.874-1.505-.8-2.719-.8-3.738-.46zm9.999.558c.048.049 0 .121-.073.219-.073.072-.17.097-.218.072-.025-.048 0-.145.072-.218.098-.073.17-.097.219-.073zm.776.194c-.17-.121-.242.17.049.073l.413-.364c.194-.34.072.097.194.073.145-.049.364-.485.315-.655l.34-.17c.194-.17.146-.243-.121-.219-.316.243-.631.51-.898.874l-.292.388z" fill="#0092D0"/></g></svg>