<?xml version="1.0" encoding="UTF-8" standalone="no"?>
<svg width="110px" height="38px" viewBox="0 0 110 38" version="1.1" xmlns="http://www.w3.org/2000/svg" xmlns:xlink="http://www.w3.org/1999/xlink" xmlns:sketch="http://www.bohemiancoding.com/sketch/ns">
    <!-- Generator: Sketch Beta 3.4 (15460) - http://www.bohemiancoding.com/sketch -->
    <title>Amway_(logo)</title>
    <desc>Created with Sketch Beta.</desc>
    <defs></defs>
    <g id="Page-1" stroke="none" stroke-width="1" fill="none" fill-rule="evenodd" sketch:type="MSPage">
        <g id="Kindbeetle" sketch:type="MSArtboardGroup" transform="translate(-321.000000, -1906.000000)">
            <g id="Amway_(logo)" sketch:type="MSLayerGroup" transform="translate(320.000000, 1905.000000)">
                <rect id="Rectangle-path" sketch:type="MSShapeGroup" x="0" y="0" width="112.149533" height="39.9084112"></rect>
                <g id="Group" transform="translate(1.495327, 1.495327)" sketch:type="MSShapeGroup">
                    <path d="M0.331588785,36.8553271 C0.331588785,36.8553271 62.4280374,21.6003738 108.436262,32.3472897 L108.578318,31.8508411 C108.578318,31.8508411 68.433271,19.9958879 1.10280374,34.4358879" id="Shape" fill="#ED174C"></path>
                    <path d="M30.0564486,6.91962617 L30.0564486,9.4482243 C30.2852336,8.94205607 30.5760748,8.25570093 31.3566355,7.60598131 C32.2018692,6.88411215 33.4370093,6.48560748 34.6407477,6.48560748 C35.2564486,6.48560748 35.8743925,6.59551402 36.4904673,6.81196262 C38.4082243,7.53383178 38.9611215,9.05009346 39.1884112,9.69943925 C40.684486,6.92 43.0557009,6.52373832 44.3226168,6.52373832 C45.8814953,6.52373832 47.2474766,7.10242991 48.1573832,8.00448598 C49.7816822,9.5928972 49.8463551,11.3237383 49.8463551,15.6586916 L49.8463551,25.6239252 L45.0714019,25.6239252 L45.0714019,16.7768224 C45.0714019,13.7790654 45.0063551,13.1652336 44.5181308,12.3727103 C43.9985047,11.5057944 43.2500935,11.3233645 42.5345794,11.3233645 C41.2358879,11.3233645 40.5865421,12.2624299 40.4885981,12.4078505 C39.9674766,13.3102804 39.9674766,14.8631776 39.9674766,16.3794393 L39.9674766,25.6231776 L35.1921495,25.6231776 L35.1921495,16.1996262 C35.1921495,14.1775701 35.1921495,13.2747664 34.7039252,12.4433645 C34.3469159,11.831028 33.6314019,11.3233645 32.7547664,11.3233645 C32.3330841,11.3233645 31.9095327,11.4325234 31.5192523,11.6504673 C30.1214953,12.4433645 30.0897196,13.8164486 30.0897196,17.355514 L30.0897196,25.6235514 L25.3114019,25.6235514 L25.3114019,6.91962617" id="Shape" fill="#004B85"></path>
                    <path d="M68.844486,6.91962617 L73.7173832,6.91962617 L68.844486,25.6231776 L64.3899065,25.6231776 L61.562243,12.9865421 L58.7693458,25.6231776 L54.2530841,25.6231776 L49.3783178,6.91962617 L54.2530841,6.91962617 L56.8201869,18.6186916 L59.4519626,6.91962617 L63.6758879,6.91962617 L66.2773832,18.6186916" id="Shape" fill="#004B85"></path>
                    <path d="M83.9958879,25.6231776 L88.6766355,25.6231776 L88.6766355,6.88411215 L84.0934579,6.88411215 L84.0934579,9.30280374 C83.2500935,7.49794393 81.7872897,6.45046729 79.9345794,6.45046729 C76.751028,6.45046729 72.5902804,9.19514019 72.5902804,16.5607477 C72.5902804,22.4100935 75.5790654,26.0213084 79.5768224,26.0213084 C82.3065421,26.0213084 83.4108411,24.4325234 83.9951402,23.5656075 L83.9958879,25.6231776 Z M83.7502804,16.0545794 C83.7502804,17.7528972 83.5229907,19.3775701 82.5151402,20.6056075 C81.6699065,21.5790654 80.7282243,21.6527103 80.4351402,21.6527103 C79.4930841,21.6527103 78.4209346,21.0743925 77.7697196,19.4485981 C77.3813084,18.5106542 77.2500935,17.3906542 77.2500935,16.2351402 C77.2500935,14.791028 77.4474766,13.3102804 78.2579439,12.1196262 C78.842243,11.2878505 79.7521495,10.7480374 80.631028,10.7480374 C81.3446729,10.7480374 82.0601869,11.1069159 82.5480374,11.6856075 C83.1648598,12.3727103 83.7502804,13.6358879 83.7502804,16.0545794 L83.7502804,16.0545794 Z" id="Shape" fill="#004B85"></path>
                    <path d="M99.7080374,6.91962617 L104.563364,6.91962617 L99.2201869,25.4788785 C98.8299065,26.7790654 98.2142056,28.9102804 97.2706542,29.9570093 C96.3925234,30.8960748 95.3528972,31.3300935 91.4859813,31.3300935 C90.9330841,31.3300935 90.7069159,31.2923364 90.2186916,31.2571963 L90.2186916,27.1042991 L91.4859813,27.1042991 C91.9413084,27.1042991 93.0134579,27.1042991 93.5001869,26.6358879 C93.8904673,26.3095327 94.2157009,25.5158879 94.2157009,24.7566355 C94.2157009,24.3603738 94.0198131,23.6362617 93.8583178,23.1678505 L88.6586916,6.91962617 L93.8583178,6.91962617 L96.9125234,19.5207477" id="Shape" fill="#004B85"></path>
                    <path d="M11.6134579,0.073271028 L3.59028037,25.6231776 L9.48373832,25.6231776 L10.9809346,20.1947664 L18.5054206,20.1947664 L20.0373832,25.6231776 L25.9641121,25.6231776 L17.6059813,0.073271028 L11.6134579,0.073271028 Z M14.6426168,5.68411215 L17.206729,15.5271028 L12.2145794,15.5271028 L14.6426168,5.68411215 L14.6426168,5.68411215 Z" id="Shape" fill="#004B85"></path>
                </g>
            </g>
        </g>
    </g>
</svg>