<?xml version="1.0" encoding="UTF-8" standalone="no"?>
<svg width="200px" height="32px" viewBox="0 0 200 32" version="1.1" xmlns="http://www.w3.org/2000/svg" xmlns:xlink="http://www.w3.org/1999/xlink" xmlns:sketch="http://www.bohemiancoding.com/sketch/ns">
    <!-- Generator: Sketch Beta 3.4 (15460) - http://www.bohemiancoding.com/sketch -->
    <title>RZD</title>
    <desc>Created with Sketch Beta.</desc>
    <defs></defs>
    <g id="Page-1" stroke="none" stroke-width="1" fill="none" fill-rule="evenodd" sketch:type="MSPage">
        <g id="Kindbeetle" sketch:type="MSArtboardGroup" transform="translate(-320.000000, -2021.000000)">
            <g id="RZD" sketch:type="MSLayerGroup" transform="translate(320.000000, 2021.000000)">
                <path d="M50.4776,3.0044 L50.4776,4.1588 L60.3752,4.1588 C61.035,4.1588 62.0248,4.1588 62.6846,4.8188 C63.3444,5.4788 63.3444,6.4686 63.3444,7.1284 L63.3444,17.0256 C63.3444,17.6858 63.3444,18.6754 62.6846,19.3354 C62.0248,19.9952 61.035,19.9952 60.3752,19.9952 L55.5914,19.9952 C54.7666,19.9952 53.6942,19.9952 53.282,19.088 C52.8696,18.1806 53.4468,17.3558 53.9418,16.696 L60.3752,8.1184 L50.4776,8.1184 L46.5186,13.3968 C45.8554,14.2808 45.2814,15.0464 45.2814,16.0362 C45.2814,17.0256 45.8158,17.7386 46.5186,18.6754 L47.5084,19.9952 C48.498,21.3148 49.4878,22.6344 50.8076,23.2944 C52.1272,23.9542 53.6942,23.9542 55.8388,23.9542 L60.1278,23.9542 C62.6022,23.9542 66.3138,23.9542 68.7882,21.4798 C71.2626,19.0054 71.2626,15.3764 71.2626,14.0566 L71.2626,10.0976 C71.2626,8.778 71.2626,5.1488 68.7882,2.6744 C66.3138,0.2 62.6022,0.203 60.1278,0.2022 L53.282,0.2 C52.622,0.1998 51.7972,0.2 51.1374,0.8602 C50.4776,1.52 50.4776,2.3448 50.4776,3.0044" id="Shape" fill="#C4151C" sketch:type="MSShapeGroup"></path>
                <path d="M38.6006,8.118 L48.4982,8.118 L36.621,23.9542 L26.7236,23.9542 L38.6006,8.118" id="Shape" fill="#C4151C" sketch:type="MSShapeGroup"></path>
                <path d="M0,10.9224 C0,10.2626 0,9.4378 0.6598,8.778 C1.3196,8.1182 2.1444,8.1182 2.8044,8.1182 L19.3828,8.1182 C21.5272,8.1182 23.0944,8.1182 24.414,8.778 C25.7336,9.4378 26.7234,10.7572 27.7132,12.0772 L28.703,13.3968 C29.4056,14.3338 29.9402,15.0464 29.9402,16.0362 C29.9402,17.0256 29.366,17.7912 28.703,18.6754 L24.744,23.954 L14.8464,23.954 L21.2798,15.3762 C21.7746,14.7164 22.352,13.8914 21.9396,12.9842 C21.5272,12.0772 20.455,12.0772 19.6302,12.0772 L11.8772,12.0772 L11.8772,31.8722 L3.959,31.8722 L3.959,12.0774 L0,12.0774 L0,10.9224" id="Shape" fill="#C4151C" sketch:type="MSShapeGroup"></path>
                <path d="M80.6668,21.1038 C80.0728,21.9116 79.4672,22.7072 78.8734,23.503 L78.8734,23.9544 L80.548,23.9544 C81.3676,22.8618 81.7952,22.2916 81.7952,21.6382 L83.4342,21.6382 L83.4342,23.9544 L85.002,23.9544 L85.002,21.638 L86.641,21.638 C86.641,22.2914 87.0686,22.8616 87.888,23.9542 L89.5628,23.9542 L89.5628,23.5028 L87.7574,21.1036 C89.2778,19.9634 89.2778,19.9634 89.2778,18.4666 L89.2778,17.968 L87.5674,17.968 L87.5674,18.4668 C87.5674,20.284 87.5674,20.284 85.7858,20.284 L85.002,20.284 L85.002,17.968 L83.4342,17.968 L83.4342,20.284 L82.6504,20.284 C80.8686,20.284 80.8686,20.284 80.8686,18.4668 L80.8686,17.968 L79.1584,17.968 L79.1584,18.4668 C79.1584,19.9634 79.1584,19.9634 80.6668,21.1038" id="Shape" fill="#231F20" sketch:type="MSShapeGroup"></path>
                <path d="M92.532,20.427 C92.532,19.1082 92.532,19.1082 93.9928,19.1082 C95.4538,19.1082 95.4538,19.1082 95.4538,20.427 L92.532,20.427 L92.532,20.427 Z M92.532,21.4958 L93.9928,21.4958 C95.525,21.4838 95.9764,21.5078 96.4872,21.3888 L97.0928,21.2464 L97.0928,20.6646 C97.0928,19.6786 97.0928,17.8258 94.278,17.8258 L93.7078,17.8258 C90.893,17.8258 90.893,19.6788 90.893,20.6762 L90.893,21.2466 C90.893,22.3156 90.9166,24.097 94.0166,24.097 C94.4798,24.097 95.525,24.097 96.6654,23.812 L96.6654,22.5294 L96.3446,22.5294 L95.2044,22.8144 L93.9928,22.8144 C92.532,22.814 92.532,22.814 92.532,21.4958 L92.532,21.4958 Z" id="Shape" fill="#231F20" sketch:type="MSShapeGroup"></path>
                <path d="M99.7414,17.9684 C99.7414,18.8712 99.6702,21.5906 98.2448,23.491 L98.2448,23.9542 L99.9908,23.9542 C101.0242,22.5764 101.0242,20.783 101.0242,19.2864 L103.4828,19.2864 L103.4828,23.9542 L105.0504,23.9542 L105.0504,17.9682 L99.7414,17.9682" id="Shape" fill="#231F20" sketch:type="MSShapeGroup"></path>
                <path d="M108.6608,20.427 C108.6608,19.1082 108.6608,19.1082 110.122,19.1082 C111.5828,19.1082 111.5828,19.1082 111.5828,20.427 L108.6608,20.427 L108.6608,20.427 Z M108.6608,21.4958 L110.122,21.4958 C111.6538,21.4838 112.1052,21.5078 112.6162,21.3888 L113.2216,21.2464 L113.2216,20.6646 C113.2216,19.6786 113.2216,17.8258 110.407,17.8258 L109.8366,17.8258 C107.022,17.8258 107.022,19.6788 107.022,20.6762 L107.022,21.2466 C107.022,22.3156 107.0456,24.097 110.1454,24.097 C110.6086,24.097 111.6538,24.097 112.7942,23.812 L112.7942,22.5294 L112.4734,22.5294 L111.3332,22.8144 L110.1218,22.8144 C108.6608,22.814 108.6608,22.814 108.6608,21.4958 L108.6608,21.4958 Z" id="Shape" fill="#231F20" sketch:type="MSShapeGroup"></path>
                <path d="M118.9818,21.0562 L118.9818,20.878 C120.1934,20.5692 120.1934,19.821 120.1934,19.536 C120.1934,18.9656 120.1934,17.8254 117.307,17.8254 C116.8794,17.8254 115.8818,17.8254 114.7418,18.1106 L114.7418,19.3934 L115.0624,19.3934 L116.2024,19.1082 L117.521,19.1082 C118.4354,19.1082 118.483,19.1082 118.483,19.7732 C118.483,20.4268 118.483,20.4268 117.521,20.4268 L116.2024,20.4268 L116.2024,21.4956 L117.521,21.4956 C118.4354,21.4956 118.483,21.4956 118.483,22.149 C118.483,22.8142 118.483,22.8142 117.521,22.8142 L116.2024,22.8142 L115.0624,22.529 L114.7418,22.529 L114.7418,23.8118 C115.8818,24.0966 116.8794,24.0966 117.307,24.0966 C120.1814,24.0966 120.1934,22.9566 120.1934,22.3864 C120.1934,22.1016 120.1934,21.3534 118.9818,21.0562" id="Shape" fill="#231F20" sketch:type="MSShapeGroup"></path>
                <path d="M126.7136,17.9684 L126.7136,20.2842 L123.5782,20.2842 L123.5782,17.9684 L122.0104,17.9684 L122.0104,23.9542 L123.5782,23.9542 L123.5782,21.6382 L126.7136,21.6382 L126.7136,23.9542 L128.2814,23.9542 L128.2814,17.9684 L126.7136,17.9684" id="Shape" fill="#231F20" sketch:type="MSShapeGroup"></path>
                <path d="M133.2342,20.9614 C134.4814,20.9614 134.4814,20.9614 134.4814,21.8878 C134.4814,22.8144 134.4814,22.8144 133.2342,22.8144 L131.987,22.8144 L131.987,20.9614 L133.2342,20.9614 L133.2342,20.9614 Z M138.8284,17.9684 L137.2606,17.9684 L137.2606,23.9544 L138.8284,23.9544 L138.8284,17.9684 L138.8284,17.9684 Z M133.448,23.9542 C135.3362,23.9542 136.1202,23.5384 136.1202,21.9232 C136.1202,21.0324 136.1202,19.7496 133.6616,19.7496 C133.3056,19.7496 132.6994,19.7856 131.9868,19.9636 L131.9868,17.9682 L130.419,17.9682 L130.419,23.9542 L133.448,23.9542 L133.448,23.9542 Z" id="Shape" fill="#231F20" sketch:type="MSShapeGroup"></path>
                <path d="M142.3674,20.427 C142.3674,19.1082 142.3674,19.1082 143.8284,19.1082 C145.2894,19.1082 145.2894,19.1082 145.2894,20.427 L142.3674,20.427 L142.3674,20.427 Z M142.3674,21.4958 L143.8284,21.4958 C145.3604,21.4838 145.8118,21.5078 146.3228,21.3888 L146.9282,21.2464 L146.9282,20.6646 C146.9282,19.6786 146.9282,17.8258 144.1134,17.8258 L143.5432,17.8258 C140.7284,17.8258 140.7284,19.6788 140.7284,20.6762 L140.7284,21.2466 C140.7284,22.3156 140.7522,24.097 143.852,24.097 C144.3152,24.097 145.3604,24.097 146.5008,23.812 L146.5008,22.5294 L146.18,22.5294 L145.04,22.8144 L143.8284,22.8144 C142.3674,22.814 142.3674,22.814 142.3674,21.4958 L142.3674,21.4958 Z" id="Shape" fill="#231F20" sketch:type="MSShapeGroup"></path>
                <path d="M153.4602,20.7474 C153.4602,19.144 153.4602,19.1798 155.5862,19.1798 C155.8714,19.1798 156.2634,19.2152 156.7384,19.3222 L156.7384,21.8876 L155.2182,22.2674 C153.4602,22.2676 153.4602,22.2676 153.4602,20.7474 L153.4602,20.7474 Z M152.534,24.8806 L152.534,26.2346 C153.6742,26.5198 154.6006,26.5198 154.9568,26.5198 C158.1872,26.5198 158.2944,25.1184 158.3062,23.5266 L158.3062,17.9684 L157.7952,17.9684 L157.0352,18.5386 C156.5126,17.8614 155.2418,17.8376 154.838,17.8376 C151.821,17.8376 151.821,19.738 151.821,20.605 L151.821,20.8902 C151.821,21.8878 151.821,23.5268 154.3866,23.5268 C155.1586,23.5268 156.0732,23.3132 156.7382,22.8142 L156.7382,23.313 C156.7382,25.154 156.7026,25.166 154.8142,25.166 L153.9948,25.166 L152.8544,24.8808 L152.534,24.8808 L152.534,24.8806 Z" id="Shape" fill="#231F20" sketch:type="MSShapeGroup"></path>
                <path d="M163.069,17.8256 C160.0402,17.8256 160.0402,19.6072 160.0402,20.6762 L160.0402,21.2464 C160.0402,22.3154 160.0402,24.0968 163.069,24.0968 L163.6392,24.0968 C166.668,24.0968 166.668,22.3154 166.668,21.2464 L166.668,20.6762 C166.668,19.6072 166.668,17.8256 163.6392,17.8256 L163.069,17.8256 L163.069,17.8256 Z M163.354,19.1442 C165.0288,19.1442 165.0288,19.1442 165.0288,20.9614 C165.0288,22.7786 165.0288,22.7786 163.354,22.7786 C161.6792,22.7786 161.6792,22.7786 161.6792,20.9614 C161.6792,19.1442 161.6792,19.1442 163.354,19.1442 L163.354,19.1442 Z" id="Shape" fill="#231F20" sketch:type="MSShapeGroup"></path>
                <path d="M173.2476,20.9614 C173.2476,22.7428 173.2476,22.7428 171.5016,22.7428 C171.074,22.7428 170.5276,22.7428 169.9694,22.6002 L169.9694,19.6072 L171.49,19.2274 C173.2476,19.2274 173.2476,19.251 173.2476,20.9614 L173.2476,20.9614 Z M168.4016,17.9684 L168.4016,26.3774 L169.9694,26.3774 L169.9694,23.7762 C170.682,23.9544 171.2522,24.0968 172.1074,24.0968 C174.8866,24.0968 174.8866,22.066 174.8866,21.2466 L174.8866,20.6762 C174.8866,19.6786 174.8866,17.8256 172.2856,17.8256 C170.9556,17.8256 170.1832,18.4078 169.7558,18.7284 L169.1856,17.9684 L168.4016,17.9684 L168.4016,17.9684 Z" id="Shape" fill="#231F20" sketch:type="MSShapeGroup"></path>
                <path d="M179.6016,17.8256 C176.5728,17.8256 176.5728,19.6072 176.5728,20.6762 L176.5728,21.2464 C176.5728,22.3154 176.5728,24.0968 179.6016,24.0968 L180.1716,24.0968 C183.2006,24.0968 183.2006,22.3154 183.2006,21.2464 L183.2006,20.6762 C183.2006,19.6072 183.2006,17.8256 180.1716,17.8256 L179.6016,17.8256 L179.6016,17.8256 Z M179.8866,19.1442 C181.5614,19.1442 181.5614,19.1442 181.5614,20.9614 C181.5614,22.7786 181.5614,22.7786 179.8866,22.7786 C178.2118,22.7786 178.2118,22.7786 178.2118,20.9614 C178.2118,19.1442 178.2118,19.1442 179.8866,19.1442 L179.8866,19.1442 Z" id="Shape" fill="#231F20" sketch:type="MSShapeGroup"></path>
                <path d="M187.7252,17.8256 C187.1548,17.8256 186.4068,17.8256 185.2666,18.1108 L185.2666,19.3934 L185.5872,19.3934 L186.7276,19.1084 L188.1884,19.1084 C188.9724,19.1084 188.9724,19.1084 188.9724,19.5598 C188.9724,19.8688 188.9724,19.9638 188.3668,20.0706 L186.9414,20.427 C186.1216,20.6288 184.9818,20.9376 184.9818,22.1728 C184.9818,22.9922 184.9818,24.0966 187.8678,24.0966 C188.438,24.0966 189.1864,24.0966 190.3264,23.8118 L190.3264,22.529 L190.0056,22.529 C189.5306,22.6596 189.0792,22.7664 188.9012,22.8142 L187.4046,22.8142 C186.6208,22.8142 186.6208,22.8142 186.6208,22.3626 C186.6208,22.0896 186.6208,22.0302 186.9534,21.9352 L187.7492,21.7214 L188.6518,21.4956 C189.4714,21.2938 190.6114,20.997 190.6114,19.7498 C190.6112,18.9302 190.6112,17.8256 187.7252,17.8256" id="Shape" fill="#231F20" sketch:type="MSShapeGroup"></path>
                <path d="M197.9394,24.1208 L199.1032,23.2536 C198.6758,22.6834 198.6758,22.6834 198.6758,21.674 L198.6758,17.9684 L197.108,17.9684 L197.108,22.3152 L195.5874,22.6952 C193.9722,22.6952 193.9722,22.6952 193.9722,21.0444 L193.9722,17.9684 L192.4044,17.9684 L192.4044,21.2818 C192.4044,22.4576 192.4044,24.0966 194.7918,24.0966 C196.039,24.0966 196.811,23.5148 197.2384,23.1942 L197.9394,24.1208" id="Shape" fill="#231F20" sketch:type="MSShapeGroup"></path>
                <path d="M79.1806,3.6684 L79.1806,12.0772 L80.8908,12.0772 L80.8908,9.7612 L82.2448,9.7612 C84.5608,9.7612 86.378,9.7612 86.378,6.7206 C86.378,3.6684 84.5608,3.6684 82.2448,3.6684 L79.1806,3.6684 L79.1806,3.6684 Z M80.8908,8.2646 L80.8908,5.1646 L82.9574,5.1646 C84.4896,5.1646 84.5608,5.1646 84.5608,6.7204 C84.5608,8.2288 84.5608,8.2646 82.9574,8.2646 L80.8908,8.2646 L80.8908,8.2646 Z" id="Shape" fill="#231F20" sketch:type="MSShapeGroup"></path>
                <path d="M90.7132,5.9484 C87.6844,5.9484 87.6844,7.73 87.6844,8.799 L87.6844,9.3692 C87.6844,10.4382 87.6844,12.2196 90.7132,12.2196 L91.2832,12.2196 C94.312,12.2196 94.312,10.4382 94.312,9.3692 L94.312,8.799 C94.312,7.73 94.312,5.9484 91.2832,5.9484 L90.7132,5.9484 L90.7132,5.9484 Z M90.9982,7.2668 C92.673,7.2668 92.673,7.2668 92.673,9.084 C92.673,10.9012 92.673,10.9012 90.9982,10.9012 C89.3234,10.9012 89.3234,10.9012 89.3234,9.084 C89.3234,7.2668 89.3234,7.2668 90.9982,7.2668 L90.9982,7.2668 Z" id="Shape" fill="#231F20" sketch:type="MSShapeGroup"></path>
                <path d="M98.9794,12.2198 C99.4072,12.2198 100.5116,12.2198 101.6518,11.9346 L101.6518,10.6522 L101.331,10.6522 L100.179,10.9372 L99.502,10.9372 C97.5184,10.9372 97.5184,10.9372 97.5184,9.0842 C97.5184,7.2312 97.5184,7.2312 98.9794,7.2312 C100.2146,7.2312 100.2146,7.2312 100.5116,8.4072 L101.9368,8.0508 C101.9368,7.4808 101.9368,5.9486 99.2644,5.9486 L98.6944,5.9486 C95.8794,5.9486 95.8794,7.7302 95.8794,8.799 L95.8794,9.3694 C95.8794,10.4382 95.8794,12.2198 98.9794,12.2198" id="Shape" fill="#231F20" sketch:type="MSShapeGroup"></path>
                <path d="M106.5094,12.2198 C106.937,12.2198 108.0416,12.2198 109.1818,11.9346 L109.1818,10.6522 L108.861,10.6522 L107.709,10.9372 L107.032,10.9372 C105.0484,10.9372 105.0484,10.9372 105.0484,9.0842 C105.0484,7.2312 105.0484,7.2312 106.5094,7.2312 C107.7446,7.2312 107.7446,7.2312 108.0416,8.4072 L109.4668,8.0508 C109.4668,7.4808 109.4668,5.9486 106.7944,5.9486 L106.2244,5.9486 C103.4094,5.9486 103.4094,7.7302 103.4094,8.799 L103.4094,9.3694 C103.4094,10.4382 103.4094,12.2198 106.5094,12.2198" id="Shape" fill="#231F20" sketch:type="MSShapeGroup"></path>
                <path d="M116.6046,12.2436 L117.7686,11.3762 C117.3412,10.8062 117.3412,10.8062 117.3412,9.7968 L117.3412,6.091 L115.7732,6.091 L115.7732,10.438 L114.2528,10.8178 C112.6374,10.8178 112.6374,10.8178 112.6374,9.167 L112.6374,6.091 L111.0698,6.091 L111.0698,9.4046 C111.0698,10.5804 111.0698,12.2194 113.4572,12.2194 C114.7042,12.2194 115.4764,11.6376 115.9038,11.3168 L116.6046,12.2436" id="Shape" fill="#231F20" sketch:type="MSShapeGroup"></path>
                <path d="M122.1158,3.9532 C121.3436,3.9532 121.3436,3.9532 120.9636,3.5254 L120.2748,4.0602 C121.023,5.0222 121.4032,5.0936 122.4956,5.0936 L122.757,5.0936 C123.8376,5.0936 124.2296,5.0222 124.9662,4.0602 L124.2772,3.5254 C123.9092,3.9532 123.9092,3.9532 123.1252,3.9532 L122.1158,3.9532 L122.1158,3.9532 Z M125.0136,12.2436 L126.1774,11.3762 C125.7498,10.8062 125.7498,10.8062 125.7498,9.7968 L125.7498,6.091 L124.1822,6.091 L124.1822,10.438 L122.6616,10.8178 C121.0822,10.8178 121.0462,10.8178 121.0462,9.167 L121.0462,6.091 L119.4786,6.091 L119.4786,9.4046 C119.4786,10.5804 119.4786,12.2194 121.866,12.2194 C123.113,12.2194 123.8852,11.6376 124.3126,11.3168 L125.0136,12.2436 L125.0136,12.2436 Z" id="Shape" fill="#231F20" sketch:type="MSShapeGroup"></path>
                <path d="M130.857,12.2198 C131.2848,12.2198 132.3892,12.2198 133.5292,11.9346 L133.5292,10.6522 L133.2084,10.6522 L132.0564,10.9372 L131.3792,10.9372 C129.3958,10.9372 129.3958,10.9372 129.3958,9.0842 C129.3958,7.2312 129.3958,7.2312 130.8568,7.2312 C132.092,7.2312 132.092,7.2312 132.389,8.4072 L133.8142,8.0508 C133.8142,7.4808 133.8142,5.9486 131.1418,5.9486 L130.5716,5.9486 C127.7568,5.9486 127.7568,7.7302 127.7568,8.799 L127.7568,9.3694 C127.757,10.4382 127.757,12.2198 130.857,12.2198" id="Shape" fill="#231F20" sketch:type="MSShapeGroup"></path>
                <path d="M135.5722,6.091 L135.5722,12.0772 L137.14,12.0772 L137.14,9.7612 L139.0642,9.7612 C139.0642,10.4144 139.4916,10.9844 140.311,12.0772 L141.9858,12.0772 L141.9858,11.6258 L140.1806,9.2266 C141.7008,8.0866 141.7008,8.0866 141.7008,6.5898 L141.7008,6.091 L139.9906,6.091 L139.9906,6.5898 C139.9906,8.407 139.9906,8.407 138.209,8.407 L137.14,8.407 L137.14,6.091 L135.5722,6.091" id="Shape" fill="#231F20" sketch:type="MSShapeGroup"></path>
                <path d="M149.1,12.2436 L150.264,11.3762 C149.8364,10.8062 149.8364,10.8062 149.8364,9.7968 L149.8364,6.091 L148.2686,6.091 L148.2686,10.438 L146.7482,10.8178 C145.1328,10.8178 145.1328,10.8178 145.1328,9.167 L145.1328,6.091 L143.5652,6.091 L143.5652,9.4046 C143.5652,10.5804 143.5652,12.2194 145.9524,12.2194 C147.1996,12.2194 147.9718,11.6376 148.3992,11.3168 L149.1,12.2436" id="Shape" fill="#231F20" sketch:type="MSShapeGroup"></path>
                <path d="M153.3636,8.5498 C153.3636,7.2312 153.3636,7.2312 154.8248,7.2312 C156.2856,7.2312 156.2856,7.2312 156.2856,8.5498 L153.3636,8.5498 L153.3636,8.5498 Z M153.3636,9.6188 L154.8248,9.6188 C156.3568,9.6068 156.8082,9.6308 157.319,9.5118 L157.9246,9.3694 L157.9246,8.7876 C157.9246,7.8014 157.9246,5.9488 155.1098,5.9488 L154.5396,5.9488 C151.7248,5.9488 151.7248,7.8016 151.7248,8.7992 L151.7248,9.3696 C151.7248,10.4386 151.7486,12.22 154.8484,12.22 C155.3114,12.22 156.3568,12.22 157.4972,11.9348 L157.4972,10.6524 L157.1764,10.6524 L156.0362,10.9374 L154.8248,10.9374 C153.3636,10.9372 153.3636,10.9372 153.3636,9.6188 L153.3636,9.6188 Z" id="Shape" fill="#231F20" sketch:type="MSShapeGroup"></path>
            </g>
        </g>
    </g>
</svg>