<svg width="54" height="64" viewBox="0 0 54 64" xmlns="http://www.w3.org/2000/svg"><title>Coat_of_Arms_of_Moscow</title><g fill="none" fill-rule="evenodd"><path d="M.055.103h53.1v49.12l-.024.51-.023.51-.048.51-.074.51-.097.485-.123.46-.145.486-.17.437-.17.462-.22.413-.217.437-.243.388-.267.388-.315.39-.316.338-.315.34-.365.316-.388.315-.39.267-.436.29-.435.22-.437.242-.486.195-.485.195-.51.145-.534.146-.534.145-.56.1-.58.07-.608.05-.607.024-.63.024H35.972l-.388.025h-.39l-.387.048-.364.026-.364.048-.34.05-.34.07-.34.074-.315.073-.315.074-.316.097-.315.098-.293.097-.267.097-.29.12-.268.123-.267.12-.267.123-.242.145-.243.146-.243.144-.242.146-.243.146-.218.17-.22.17-.217.17-.195.17-.218.17-.194.17-.218.193-.85.85-.85-.85-.218-.195-.194-.17-.218-.17-.195-.17-.218-.17-.218-.17-.243-.17-.218-.145-.242-.146-.243-.145-.243-.147-.242-.145-.267-.122-.267-.12-.267-.123-.29-.12-.292-.098-.29-.097-.292-.097-.316-.096-.315-.073-.316-.072-.34-.073-.34-.072-.364-.05-.34-.047-.364-.025-.388-.047h-.39l-.41-.025H10.805l-.63-.024-.608-.024-.607-.05-.58-.07-.56-.1-.533-.144-.534-.146-.51-.145-.485-.194-.486-.194-.46-.242-.438-.22-.412-.29-.388-.267-.39-.315-.338-.316-.34-.34-.316-.34-.29-.388-.292-.388-.243-.388-.218-.437-.22-.413-.193-.46-.145-.438-.147-.485-.12-.462-.1-.486-.07-.51-.05-.51-.024-.51-.025-.508V.104z" fill="#FFF"/><path d="M.71.734h51.815v48.49l-.025.485-.024.485-.05.485-.07.46-.098.462-.122.46-.12.414-.147.437-.17.412-.195.413-.218.364-.22.388-.265.364-.267.34-.292.316-.315.315-.316.29-.364.293-.364.266-.388.243-.413.22-.412.217-.436.194-.486.17-.46.146-.51.145-.51.12-.558.073-.534.098-.583.05-.582.023-.606.025h-6.431l-.413.024h-.412l-.388.048-.39.025-.363.048-.364.073-.364.05-.34.07-.34.074-.34.097-.34.097-.316.097-.29.098-.316.122-.29.12-.293.123-.267.145-.29.12-.268.147-.243.146-.266.146-.242.17-.243.17-.243.17-.242.17-.22.17-.217.194-.218.194-.22.17-.193.194-.437.413-.413-.412-.218-.194-.218-.17-.22-.194-.217-.194-.22-.17-.242-.17-.243-.17-.243-.17-.242-.17-.243-.145-.267-.145-.29-.146-.268-.122-.267-.145-.29-.122-.293-.12-.315-.122-.29-.097-.34-.096-.317-.097-.315-.097-.34-.073-.364-.072-.363-.05-.364-.072-.364-.048-.39-.025-.388-.048h-.412l-.413-.024h-6.431l-.607-.025-.583-.024-.583-.05-.558-.097-.534-.072-.51-.12-.51-.146-.485-.146-.437-.17-.46-.194-.437-.218-.39-.22-.387-.242-.364-.266-.364-.292-.316-.29-.315-.316-.29-.316-.268-.34-.268-.364-.22-.388-.217-.364-.194-.413-.17-.412-.145-.437-.145-.413-.097-.46-.098-.462-.072-.46-.05-.485-.023-.486V.733z" fill="#161413"/><path d="M1 1.05h51.185v48.174c0 5.193-3.325 8.858-9.78 8.858h-6.02c-4.635 0-7.596 1.602-9.78 3.762-2.184-2.16-5.17-3.762-9.78-3.762h-6.02c-6.455 0-9.804-3.665-9.804-8.858V1.05z" fill="#A8002C"/><path d="M12.165 44.516c.388-1.457 1.286-2.21 2.767-2.452 1.43-.242 3.01-1.043 4.732-1.844.728-.534.825-.29.29.752l-.824.947c-.437.484-.534.994.073 1.48.825.412 1.165.8 1.044 1.14-.9-.243-1.724-.122-2.427.534-.51-.146-1.117-.073-1.966.34-.437-.243-.922-.267-1.505-.098-.146-.364-.56-.46-1.263-.34-.194-.218-.51-.363-.922-.46zm9.926 0c-.873-.898-.97-1.7.025-2.38.558-.387 1.384-1.285 2.403-2.644.68-.05 1.286-.194 1.966-.29 2.718-.34 5.29-.924 7.353-2.064.39-.122.68-.05.85.242l1.6 2.112-.46.17 1.214.922c-.218.17-.072.29.195.388-.146.22-.05.437.17.413.097.29.315.728-.316.12-.39-.193-.437 0-.122.608l.655.946c.05.436.22.8.558 1.116l.535 1.092c0 .17.097.34.146.485.074.413.17.63.51.68-.34.655-.776 1.262-1.504 1.65-1.432.777-2.573.46-2.45-1.432.072-1.018.266-1.868.29-2.91.413-1.627.024-2.452-1.383-2.55-.728.025-1.287.025-1.7.316-.387.267-.946.17-1.698-.267-1.456-1.093-2.548-1.675-3.276-1.675.702.8.897 1.6.338 2.402.583.267.56.534-.024.8-1.407.05-2.985-.242-4.635-.703-.535-.097-.632 0-.268.292 1.213.485 1.868 1.213 1.868 2.232-.776.025-1.43.073-1.795.146-.34.218-.704.194-1.044-.218zm13.762 7.838c-.413.22-.51.462-.122.704.267.17.413.194.46.073.487-.096-.193-.363-.338-.776zM23.16 51.287c-.268.194-.39.412-.244.704l.534.462c.218-.195.17-.486-.073-.68-.12-.097-.194-.267-.218-.485zm-6.214-2.55c.388.17.388.535-.097.754-.365-.145-.34-.46.096-.752zM9.86 34.323c1.747 2.015 2.062 4.296.63 6.94-.534 1.288-.46 2.113.243 2.5.194-.436.364-1.115.46-1.82.147-1.09.85-.97 1.773-1.916.995-1.02.704-2.087.606-3.786-.17-3.64.583-5.752 1.65-6.94-2.717-.754-4.368 1.26-5.363 5.022zM11.58 4.204c-.315.05-.436.267-.388.63l2.16 3.06c.073.145.218.29.194.412-.17.413-.242.68.122 1.044l.728.703c.073.51.17.923.34 1.068-.17.34.048.656.34.972.072.097.096.218.218.315l.12 1.044c-1.018.85-1.528 1.48-1.625 1.87-.048.218-.096.388.05.51l1.43-.146c.123.073.268.097.317.194.218.51-.073 1.31-.85 1.407-1.77.437-3.058 1.044-2.548 2.233.654.85.315 1.602-.802 2.282-.267.242-.388.558-.34.97-.315.267-.558.68-.776 1.14-.17.486-.17.705.17.656 2.475-.825 4.902-1.165 6.625.267.85.704.704 1.068 2.04 1.14-.147.56 0 .874.484.972l.074.63c-.534.122-1.14.122-1.675.268-.607.145-1.19.388-1.724.388-.46-.363-.995-.58-1.432-.848-2.232-1.384-4.1-1.457-5.727.436-.85.995-1.626 2.354-2.257 4.442-.12.364-.413.51-.995.17-1.165-.947-1.383-1.796-.8-2.355.824-.776 1.14-.315.703.097l.024.098c.63 0 .874.436 1.116.898.534-1.384.243-2.33-.51-3.083l-.17-.024.074 1.19c-1.287-.267-1.99.728-2.087 1.65-.073.898.34 1.7 1.504 2.38.654.217.85.97.34 1.722-1.263 1.844-1.07 3.81.072 6.334l.145-.073c.243-2.766.826-4.174 1.748-4.44.29-.098.558-.292.8-.607.268-.413.413-.365.607.072.51 1.165.462 2.282-.242 3.398-1.602 2.597-1.675 4.587.607 6.164l.072.194-.607.777c-.195.317-.05.705.485 1.142.388.46.582 1.213.704 2.16-.194.29-.22.655-.097 1.068.34.485 1.165.752 2.33.63.12-.024.097-.12.097-.242.097-.534-.267-.922-.656-1.578-1.14-1.02-1.383-1.99-1.02-2.936l.17-.267c.9.315 2.04.68 3.083.825-.438.898-.39 2.014 0 2.67.727 1.262 1.504 1.844 2.984 1.723 1.966-.17 2.937-1.796 2.21-4.005.703-.388 1.164-.364 1.406.073-.024.995.413.68.437 1.65-1.165 1.02-1.6 1.893-.34 2.452.656.655.292.898-.558.946-.9-.217-1.554-.17-1.675.56-.826.048-1.068.533-1.044 1.31.244-.583.705-.63.948-.486.436-.024.897.097 1.286-.072.364-.17.776-.17 1.238.024.242 0 .412.097.534.29.582.608.51-.072 1.795.705.317.025.85 0 .948.51l.12-.46c.098-.17.05-.364-.144-.534-.413-.486.242-.51 1.383-.292.607.267 1.165.39 1.602.316.508-.51.63-.194.727.485.364-.995.12-1.53-.874-1.577.17-.534.243.267.607-.39.315-.144.63 0 .946.317.073-.486-.218-.777-.85-.922-.145-.413-.46-.437-.897-.025-1.845-.485-2.04-1.6-.996-1.82.558-.145.777.437 1.213.607.34.12.51.073.97.12.51.026.972.123 1.287.34l.365.122c.193-.145.387-.12.63.097.266.39.533.437.776.122.728-.583 1.82-.583 1.747-.22-.024.535.073.73.267.68.17.025.243.244.243.632-.704-.024-1.19.097-1.19.607-.654.194-.63.655-.34 1.262-.072-1.165.923-.22 1.894-.85l.68-.073c.073.34.388.486.995.462.218-.098.558-.098.776-.146 1.19-.316 2.136-.243 2.84.728.145-.29.12-.607-.073-.898.825-.558 1.723-.34 1.19.558.485-.242.97-1.48.34-1.456.266-.728 1.358-.12 1.043.413.46-.243.533-.607-.025-1.068-.072-.413-.412-.534-1.02-.364-.34-.583-.776-.607-1.358-.097-.583.267-1.044.29-1.335-.097-.315-.51-.243-.754.194-.584.22.073.316-.194.583-.704.097-.218.29-.388.437-.68.63-.096 1.14-.654 1.795-1.77.46-.22.68-1.117.703-2.525.195.097.437.024.753-.17-.22-.024-.316-.097-.316-.655h.607c.243-.097.34-.194.315-.315 0-.098-.242-.073-.412-.34-.073-.34-.267-.68-.63-1.02l-.584-.946c-.412-1.31-.898-2.062-1.504-1.577l-.17-.097c-.46-.51-.8-1.19-1.068-1.94.024-.923-.947-.972-1.456-.098l-.146-.728-.243.388-1.53-2.208c.17-.025.462-.195.632-.22 1.868-.144 3.737-.703 5.654-1.77l1.36-.413c.606-.243.8-.05 1.116.267l1.383 1.432c.267.29.267.558.12.85-.144.29.195.68.68 1.09.438.487.486 1.142.098 1.967-.218.534-.17.874.146 1.044l.945.68c.63.51.947.34.922-.56-.048-.46-.194-.897-.46-1.358-.316-.56-.535-1.093-.56-1.65-.023-1.118-.17-1.7-.63-2.09-.534-.508-.995-1.09-1.36-1.722-.12-.364-.217-.582-.412-.68-.048-1.164-.898-1.747-1.432-1.43-.46.096-.897.145-1.383.072v-.267c.607-.34 1.65-1.408 2.694-2.573.388-.485.583-.29.97.097l1.506 1.578c-.05.776.072 1.286.606 1.238.364.63.534 1.237.194 1.504-.34.29-.606.486-.606.898.073.607.776 1.238 1.553 1.53.073.023.194-.025.243-.122.218-.534.242-1.165.024-1.796l-.267-.898c-.05-.365 0-.656.024-.923.074-.704.098-1.092-.654-1.626-.947-.97-1.748-1.965-2.403-3.01.024-1.382-1.165-1.746-1.917-.24l-1.456 1.018c-.364.243-.607-.146-.607-.534-.145-1.82-1.383-3.276-2.742-4.684-.727-2.21-1.722-4.053-2.086-5.752 1.383.146 2.426.413 2.84.825.606.656 1.382.995 1.577.534.073-.145-.364-.412-.582-.63.243 0 .558.218.898.557.607 0 .8-.46.63-1.092.074-.51.05-.898-.17-1.067l-.508-.292c-.85-.922-1.554-1.844-2.136-2.863-.073-.122-.097-.22-.097-.316 0-.413-.122-.777-.534-1.14l.195-.098-.024-.145.438.098-.437-.728c-.242-.898-1.067-1.044-2.305-.68-.17.05-.388-.145-.607-.388-.776-.752-1.6-1.165-1.31-.607.048.097.29.364.024.34l-1.335-.22c-.29-.047-.34.05-.267.196.243.268.486.51.583.802l-1.7.097c-.34.023-.63.168-.946.144-.922-.776-2.062-.194-3.252.704l-.17-.073-.024-1.383h.147l-.122-.898h.098c.097-1.36-.17-2.233-.68-2.84-.097-.412.316-.364.413-.485.388-.486.364-1.045.364-1.336-.073-.582-.267-.776-.558-.582h-.34c-.364-.05-.656-.17-.8-.34-.39-.267-.754-.267-1.118-.024-1.747.437-2.062 1.796-4.198.873-.243-.023-.29.074-.194.268.364.486.873.8 1.432 1.044-.195.146-.583.17-1.214.12.364.487 1.068.73 2.16.705.413.243.898.146 1.432-.073.29-.17.315-.073.12.316-.557.46-.945 1.36-1.018 2.985-.218.34-.34.704-.413 1.116-.8-.217-1.503-.363-1.794-.12l-.316-.024c-.704-.534-1.383-.51-1.942-.146l-1.237.946c-.46.316-.85.34-.922-.048l-.51-1.092c.025-.777-.266-1.14-.8-1.19-.243-.218-.413-.485-.46-.776l-.365-.46c.12-.414-.05-.56-.34-.56-.315 0-.607-.048-.777-.17l-2.524-3.106z" fill="#161413"/><path d="M46.603 40.147l.243-.51c.12-.17.218-.17.29-.024l.583.534c-.122.12-.39.12-.583.17l.194.316-.193.097-.073.267c-.364-.292-.582-.56-.46-.85zm.51-1.747c.072 0 .145.218.145.46 0 .243-.073.462-.145.462-.098 0-.146-.22-.146-.46 0-.244.048-.462.146-.462zm-.34-1.966c.048-.05.17.05.242.17.098.145.122.29.073.315-.048.024-.17-.05-.242-.195-.098-.145-.122-.267-.073-.29zM48.326 34.056c-.073-.073-.146-.05-.218.024-.267.315-.316.558-.17.776l.534.413c.17.145.364.072.267-.074l-.196-.267c.122.048.22.17.34.17.097 0 .122-.146 0-.244-.194-.194-.242-.267-.12-.388.047-.048.047-.097-.025-.146l-.414-.266zm0-2.257c-.243-.293-.194-.463.12-.438-.29-.46.026-.558.317-.073.145.217.17.654.12 1.164-.023.145-.193.194-.24 0-.1-.29-.196-.486-.317-.655zm.194 1.916l.122-.558c.024-.146.072-.122.145 0 .194.242.364.485.413.898.048.17.024.266-.097.29-.146.025-.267-.048-.39-.17-.17-.193-.217-.315-.193-.46zM39.93 27.503c.023-1.02.144-1.845.144-2.597 0-.316.22-.316.22.05.047.8-.05 1.625-.147 2.474 0 .12-.218.34-.218.073zm1.406 4.053c.05 0 .073.048.073.097 0 .048-.025.097-.074.097-.048 0-.072-.05-.072-.097 0-.05.024-.097.072-.097zm-2.402-3.592l.097-.073c.025-.023.074-.023.098.025l.364.462c.024.024.024.072 0 .097l-.097.073c-.024.024-.073.024-.097-.025l-.39-.46c-.023-.025-.023-.074.026-.098zm3.495 2.597l.144-.946-.17.34c-.145 0-.17-.145-.194-.437-.024-.34 0-.46.194-.388l.122.314.097-.218c.17-.097.194 0 .12.29l-.047 1.045c-.098.146-.17.413-.267 0zM45 27.577c-.145-.194-.17-.437 0-.607.147-.17.365-.195.535-.074.146.073.194.17.194.243l-.292.096.364.097c.194.17.024.485-.146.218-.145-.144-.315-.168-.485-.07 0 .217-.048.266-.17.096zm-3.518 1.7c.05-.026.146.07.22.193.047.12.07.24 0 .266-.05.048-.147-.05-.196-.17-.072-.122-.072-.267-.024-.29zm-2.233-.196c.048-.024.145.05.218.17.073.146.073.267.024.292-.05.024-.146-.05-.218-.195-.073-.12-.073-.242-.025-.267zm.655-1.19c.17-.023.388.17.436.438.074.29-.047.534-.217.583-.194.025-.388-.145-.46-.436-.05-.292.047-.534.242-.583zm.315 1.603c-.097-.46.05-.534.22-.097.266.63.41 1.432.387 2.403 0 .363-.29.387-.316.047-.096-.85-.12-1.65-.29-2.354zm2.815.752c.025-.46.122-.946.29-1.407.074-.22.17-.243.293-.122.437-.703.34-.315.145.22l.122.072c.534-.995.315-.195.267.242-.39.486-.656.583-.777.243l-.12.63c-.098.292-.17.34-.22.122zM10.03 47.137c-.17.655-.9.315-.535-.267.898-1.456 1.772-2.913 1.942-4.878.048-.704.485-1.02 1.043-1.335 1.19-.655 1.602-1.772 1.578-3.034-.267-5.485 1.262-7.887 3.616-8.834l-.073.218c-2.11 1.286-2.984 3.76-3.008 7.135-.024.752-.097 1.53 0 2.354l.073-.17c.072-1.99.072-3.69.315-4.854.267-1.286.68-2.063 1.092-2.62.146-.195.267-.438.413-.583.194-.195.412-.243.582-.413l-.024.17c-.8.8-1.48 1.82-1.796 3.155-.34 1.53-.364 3.3-.243 5.145-.024.267-.072.485-.17.68l.098-.05c.145-.29.218-.63.218-1.043-.17-2.232 0-4.49.8-6.067.56-1.092.9-1.505 2.452-2.378l-.05.17c-1.31.897-2.547 1.94-2.79 5.483l.073-.072c.243-2.693 1.214-4.683 3.01-5.41.63-.268 1.383-.22 2.208-.22l-.145.122c-1.262-.122-2.355.315-3.3 1.31l.145.05c.898-.924 1.94-1.433 3.252-1.142l-.097.194c-.922-.145-1.7.194-2.427.752v.098c.826-.56 1.578-.826 2.306-.68.243.024.316.218.243.51l-.147 1.334c-.024 1.287-.097 2.55-.412 3.69l-.12.096.12-2.232-.51 2.766c-.047.316-.266.267-.217-.024.12-.582.315-1.383.437-2.233-.122.026-.22.098-.243.268-.146 1.19-.34 2.16-.607 2.5.17-.752.267-1.505.29-2.257l-.144.122-.364 2.112c.267.145-.073.364-.17.097l.12-1.164-.096-.024-.51 1.868.17-1.286-.437 1.286h-.17l.218-1.092-.728 1.99c-.22.05-.243-.024-.073-.364l.46-1.36-.144.025c-.292.995-.51 1.698-.874 1.917l-.122.024c.51-.897.582-1.334.606-1.77-.267.85-.534 1.455-1.02 1.965-.072-.073.025-.29.317-.825l.268-.704c-.122-.145-.195-.097-.267.122-.17.606-.34 1.02-.655 1.407l.316-1.19-.048-.145c-.218.704-.51 1.31-.922 1.675l.194.097c.655-.437 1.553-.29 2.476-.704.194-.097.388-.145.51-.048l-.17.46-.17-.266c-.098.364-.243.704-.437.85l-.073-.535c-.39.85-.655 1.31-.68.897l.073-.51c-.29.292-.485.63-.558 1.044-.146-.023-.17-.314-.12-.727l-.244.898c-.218.05-.266-.193-.145-.727-.194.485-.364.825-.437.874-.097-.146-.12-.39-.048-.704l-.243.46c0 .34-.097.462-.243.438.073-.51.073-.703-.024-.582l-.29.777c-.17.097-.22-.097-.195-.534-.267.147-.194.68-.388.9-.146-.098-.17-.34-.146-.608-.12.413-.242.655-.412.68l-.048-.8c-.073.363-.17.654-.316.897l-.218-.584-.097.56c-.17.096-.317-.05-.414-.414-.024.752-.097 1.383-.582 1.7.048.193-.17.703-.46 1.285l.775-1.14c.17-.05.242.048.17.412l-.802 1.31c-.12.145-.267.097-.412 0-.17.655-.46 1.116-.753 1.553.34-.22.56-.68.825-1.31.05-.195.267.048.195.436l-.195.17.025.29-.243.025v.388l-.218.097c.218.534-.05.874-.583.607zM14.592 28.862l.946-.17-.048.194-.898-.024zM5.758 36.264c.12-.46.437-.728.752-1.286.194-.316.267-.097.243.194-.413.607-.728.922-.995 1.092z" fill="#FFF"/><path d="M15.684 28.425c-1.553-1.383-3.082-2.11-4.223-1.87-2.16.487-3.202 2.477-3.833 4.37.364-.63.68-1.044 1.067-1.165-1.067 1.7-1.674 3.422-1.77 5.412-.074.243-.195.46-.39.63-.68.51-.63.923-.752 1.336.146-.097.316-.413.534-.68.29-.364.63-.752.777-1.383.218-.85.315-1.7.485-2.33.243-.825.485-1.383.922-2.11.777-1.288 1.772-2.453 2.913-2.938v.097c-1.117.607-1.918 1.53-2.816 2.96-.218.365-.364.705-.558 1.214-.195.46-.39.995-.438 1.602-.145 1.31-.46 2.16-.825 2.67-.388.51-.63.728-.704.97-.048.122-.145.34-.12.583.848-1.602 1.237-1.456 1.6-2.597.51-1.747.17-3.543 2.5-6.09h.17C9.107 30.39 8.355 31.603 7.966 34.2c-.072.438-.145 1.045-.34 1.41-.29.557-.897.994-1.067 1.552l.12-.024c.29-.292.874-.97 1.092-1.432.704-1.36.46-3.18 1.36-4.636 1.164-1.917 2.062-2.912 3.494-3.47l.17-.024c-1.966 1.043-2.306 1.796-3.155 2.96-.29.39-.51.777-.75 1.505-.22.632-.365 1.603-.487 2.355-.145.97-.51 1.554-.898 2.04-.218.266-.388.387-.558.63-.146.218-.29.63-.364.922l.12-.048c.535-1.433.85-1.118 1.24-1.603.217-.29.557-.874.654-1.553.146-1.408.437-2.476.923-3.398.51-1.02 1.31-2.136 2.208-2.888.413-.34.728-.534 1.286-.704h.122c-.656.437-1.092.558-1.602 1.044-.825.776-1.626 1.94-2.014 2.936-.413.947-.63 1.99-.753 3.058.024-.145.097.073.146-.048.437-2.524 1.335-4.296 2.475-5.437.63-.655 1.384-1.14 2.087-1.31l.462-.024c-1.068.29-2.088.8-2.864 1.99l.145-.025c.947-1.02 1.893-1.48 2.816-1.698l.145.024c-.632.218-1.214.46-1.578.8l.048.146c.704-.46 1.772-.703 3.034-.825zM5.976 39.03c-.12-.193-.17-.412-.17-.606.025-.29.243-.267.292-.073.048.365-.122.39-.122.68zM8.79 41.627l.244-.266c.122-.072.267-.096.364-.048-.024.12-.29.243-.607.315zM8.573 42.38l.316-.34c.168-.12.363-.145.508-.073-.048.146-.388.316-.825.413zM8.597 42.768l.364-.315c.17-.097.39-.122.535-.025-.048.122-.46.267-.898.34zM8.694 43.108l.34-.29c.17-.098.364-.098.51-.025-.073.145-.437.266-.85.315zM8.864 43.472l.22-.243c.12-.073.266-.098.363-.05-.025.098-.29.22-.583.292zM10.102 39.59l.194-.122c.097-.05.22-.025.267.024-.024.073-.243.097-.46.097zM9.787 40.002l.412-.195c.193-.024.387 0 .484.122-.097.12-.46.144-.897.072zM10.03 39.006l.315-.242c.145-.073.315-.073.437 0-.073.12-.39.194-.753.242zM10.272 38.424l.315-.073c.146 0 .292.074.34.17-.073.074-.364.025-.655-.096zM9.592 44.952l.22-.12c.096-.025.217 0 .266.023-.025.073-.243.122-.486.097zM10.272 44.2l-.534.073c-.218.097-.388.29-.413.46.17.05.56-.193.947-.533zM10.03 43.957h-.413c-.195.05-.34.17-.364.316.12.048.46-.097.776-.316zM11.922 45.947l.243-.51c.12-.17.34-.266.534-.266 0 .17-.34.51-.778.777zM13.014 45.438l.437-.17c.22 0 .414.073.51.194h-.023c-.025.146-.316.413-.68.607l.218-.414c.05-.048.097-.097.17-.145H13.5c-.097.122-.292.268-.51.413l.17-.34c.024-.048.073-.072.097-.097-.073-.024-.146-.024-.243-.048zM15.126 45.51c.145-.072.655.05.582.22-.024.145-.34.412-.68.654l.195-.437c.048-.072.097-.097.145-.145h-.17c-.097.12-.266.267-.485.412l.146-.364c.023-.024.072-.048.096-.072-.05 0-.097-.025-.122-.025-.072.097-.218.194-.363.292l.098-.243c.17-.22.29-.194.558-.29zM18.256 45.438c0-.413.316-.655.923-.728.702-.097 1.552.048 1.31.364h-.074l-.12.29-.268.486.17-.534.073-.266c-.072-.025-.193-.073-.315-.098l-.218.22-.364.41.29-.484.123-.194c-.05 0-.098-.024-.146-.024l-.22.218-.363.413.29-.46.123-.195h-.194l-.146.22-.34.436.243-.51.073-.12c-.097.024-.194.048-.267.072l-.17.413.072-.388c-.22.097-.413.218-.486.46zM15.975 45.778v-.049h.05l.605-.39c.413-.193.923-.266.85.074 0 .024-.05.072-.146.097 0 .122.024.268.024.413l-.17-.364h-.097c0 .193 0 .387.026.582l-.243-.534c-.048.024-.073.024-.12.024.023.267.023.558.023.85l-.34-.704v-.05c-.048.147-.073.317-.12.462l-.074-.485c-.073.194-.17.437-.243.68l-.025-.51v-.122.025z" fill="#FFF"/><path d="M9.034 29.372l1.044-1.044c-.413.17-.777.51-1.044 1.044zM14.762 48.35c-.097-.243-.22-.46 0-1.02.194-.51.437-.655.582-.63.17.194-.048.582.05 1.068l-.39-.34.122.655-.292-.315-.072.582zM18.208 48.98c-.05-.096-.122-.145-.146-.145-.048.025 0 .122.05.22.072.096.144.145.17.145.023-.025 0-.122-.074-.22zM18.208 49.418c-.097-.146-.194-.218-.243-.194-.048.024 0 .145.097.29.097.147.194.22.243.195.024-.025 0-.146-.097-.292zM17.99 49.83c-.073-.12-.146-.194-.17-.194-.05.025-.025.146.024.267.073.097.145.194.17.17.048 0 .024-.12-.025-.242zM17.77 50.243c-.047-.194-.17-.34-.217-.315-.05.024-.05.194.024.388.048.17.146.315.194.315.074-.023.074-.193 0-.387zM14.932 50.073c.145.024.242.073.242.122-.024.024-.145.048-.267.024-.12-.025-.242-.074-.218-.098 0-.05.12-.073.242-.05zM14.81 49.758c.17.024.29.097.29.145 0 .05-.144.073-.314.05-.17-.05-.29-.098-.29-.147 0-.048.144-.072.314-.048zM14.737 49.37c.195.048.34.12.34.17-.024.072-.194.096-.388.048-.195-.024-.365-.097-.34-.17 0-.05.17-.073.387-.05zM21.047 45.244c-.145-.486.39-.656.947-.413.437.17.97.244 1.674.098.34-.073.704-.073 1.068-.024.364.194.34.364-.073.437-.776.73-1.36 1.48-1.456 2.21-.267-.365.292-1.287 1.165-2.428-.534.413-1.02.947-1.48 1.553.097-.388.412-.922.85-1.504-.947.705-1.602 1.748-1.505 3.69-.364-1.165-.122-2.282.63-3.374l-1.043 1.092.947-1.456-.582.194.05-.218-.365.17v-.243l-.486.39.097-.414c-.17-.096-.29.05-.437.244zM21.484 47.986c-.048.29-.024.63.22.97.072.074.17-.023.12-.193-.17-.146-.267-.437-.34-.777z" fill="#FFF"/><path d="M22.698 48.132c.048 0 .097.12.097.29 0 .17-.05.316-.097.316-.05 0-.097-.145-.097-.315s.05-.29.098-.29zM23.814 46.894c.024.024.024.146-.024.267-.073.147-.146.244-.194.22-.05 0-.025-.146.024-.268.073-.145.146-.242.194-.218zM24.08 46.31c.05.05 0 .147-.072.244-.073.12-.17.194-.194.17-.024-.024 0-.146.073-.243.073-.12.17-.17.194-.17zM33.182 47.258c.413.146.46.728.243 1.432.024-.583-.073-1.044-.243-1.432zM31.07 50.243c-.024-.12-.072-.243-.145-.364.024.145.05.29.073.436l.073-.073zM26.314 42.914c.048 0 .12 0 .194.024l.194.316c-.073 0-.145-.025-.218-.05l-.17-.29zM25.925 45.025c.05.025.122.146.146.267.025.122 0 .194-.047.17-.05-.024-.122-.12-.146-.243-.024-.122 0-.195.048-.195zM26.29 45c.024-.023.097.074.12.195.05.12.074.22.05.243-.05 0-.098-.073-.146-.194-.05-.146-.073-.243-.024-.243zM26.726 44.928c.05 0 .146.146.17.316.025.145.05.218-.073.218-.097.024-.072-.048-.097-.218-.024-.146-.024-.316 0-.316zM27.14 44.783c.023 0 .12.12.193.315.05.17.073.34.024.34-.048.024-.12-.097-.194-.29-.048-.196-.073-.34-.024-.365zM27.576 44.783c.073-.025.146.145.194.34.05.218.024.388-.024.412-.05 0-.146-.17-.17-.364-.05-.218-.05-.387 0-.387zM28.06 44.855c.05-.024.195.22.22.413.048.194.072.29-.073.315-.17.025-.122-.072-.17-.29-.024-.195-.024-.438.024-.438zM28.377 44.758c.073-.024.145.146.218.364.05.22.05.413 0 .413-.048.024-.145-.146-.194-.364-.048-.218-.072-.412-.023-.412zM28.886 44.637c.05 0 .122.218.122.485s-.05.486-.122.486c-.048 0-.12-.22-.12-.486 0-.267.048-.485.12-.485zM29.3 44.783c.047 0 .096.194.096.412 0 .243-.05.413-.097.413-.074 0-.098-.17-.098-.413 0-.218.024-.412.097-.412zM29.712 44.66c.048 0 .097.22.097.487s-.05.485-.098.485c-.05 0-.098-.218-.098-.485s.05-.486.098-.486zM30.148 44.54c.073.024.097.243.073.558-.047.267-.096.51-.17.51-.047 0-.07-.243-.047-.534.024-.29.072-.534.145-.534zM30.73 44.516c.074 0 .074.242.025.534-.048.29-.12.51-.194.51-.048 0-.072-.244-.023-.535.048-.29.145-.51.194-.51zM31.192 44.25c.073 0 .194.363.145.702-.072.364-.17.656-.242.63-.073-.023-.024-.314.024-.654.048-.364.023-.704.072-.68zM28.717 46.99c.024-.023.072.074.12.17.05.122.05.244.05.244-.025.024-.098-.073-.122-.17-.048-.122-.073-.243-.048-.243zM29.056 46.87c.05 0 .122.12.17.267.05.145.05.218-.024.242-.097.048-.073-.05-.122-.195-.048-.12-.048-.29-.024-.315zM32.332 45.85v.17l.22-.145c.047-.437.047-.85.023-1.19-.073.437-.145.826-.243 1.165z" fill="#FFF"/><path d="M32.09 46.384c-.12.63-.146.825-.388 1.044.097-.388.048-.68.048-.753-.073.025-.12.05-.17.05v.072c.024.243.024.558-.267.946-.024-.34.122-.655.122-.995-.073.025-.122.05-.195.073v.34c-.024.147-.17.51-.194.535.025 0 .122-.704.05-.85-.05.025-.122.025-.17.05v.096c-.025.074-.025.147-.074.147-.024 0-.048-.05-.048-.122-.025-.024-.025-.073-.05-.097-.023 0-.072 0-.12.024v.025c.024.073.024.12 0 .145-.025 0-.073-.072-.122-.145-.048 0-.097.024-.12.024.023.122.023.17-.074.22-.12.048-.12-.073-.145-.195-.073.025-.146.025-.22.05.026.096 0 .17-.023.17-.024.023-.073-.05-.12-.147h-.196c.025.097.025.146 0 .17-.024 0-.072-.05-.12-.146l-.025.025c0-.025 0-.025.023-.025-.024-.024-.024-.072-.048-.12-.073-.147-.098-.292-.073-.317.048-.024.12.073.194.243.024.05.048.122.048.17.05-.024.122-.048.17-.048 0-.05 0-.073-.024-.098-.048-.194-.048-.364 0-.388.05-.024.12.12.17.316 0 .024.024.072.024.12.073-.023.12-.048.194-.072-.024-.12-.024-.17-.024-.243 0-.097 0-.145.024-.145.025-.024.146.145.194.34.05-.025.073-.025.122-.05-.024-.023-.024-.023-.024-.047-.05-.146-.05-.195-.05-.292-.023-.07-.023-.096 0-.12.025-.024.147.17.195.34 0 .024 0 .048.024.073.048-.025.072-.025.12-.05v-.388c0-.096.025-.145.05-.145.024 0 .048.05.072.12.024.1.05.22.073.34.05 0 .097-.023.146-.047v-.194c.025-.074.025-.123.05-.123.023-.024.072.122.096.243.073-.024.12-.05.194-.073v-.267c0-.073.025-.145.05-.145.023-.025.047.024.047.097.025.072.05.145.05.242.047-.024.096-.024.145-.073 0-.144.024-.29.024-.387.024-.097.048-.17.073-.17.023-.024.047.025.047.122.024.097.024.218.024.364.05-.026.1-.05.147-.05.17-.68.388-1.602.388-2.427-.048-.097-.097-.17-.145-.267-.05.922-.122 1.7-.413 2.21.146-.754.17-1.554-.024-2.477H31.75c.024.994.024 1.82-.243 2.378.097-.8.073-1.65-.242-2.597-.05-.023-.097-.048-.146-.048.217.195.17.97.072 1.093-.146-.462-.024-.607-.437-.923h-.12c.217.243.24.607.193.898-.12-.267-.316-.582-.51-.776H30.1c.315.364.315.436.267.728-.122-.316-.607-.534-.8-.68-.098 0-.122.024-.22.024.243.122.583.56.462.704-.17-.194-.535-.388-.68-.655-.098 0-.05.048-.147.048.05.146 0 .243.025.413-.22-.048-.34-.073-.607-.364-.048 0-.145-.024-.145 0 .025.073.122.243.146.316-.048-.073-.557-.34-.606-.413-.024-.024.097-.024-.194-.05.024.074.194.463.22.535-.05-.072-.414-.46-.463-.51-.12-.024-.218-.024-.34-.048l-.218-.364c1.09.073 2.305.024 3.76-.243l1.36-.267c.46-.145.777.098.874.8l.072.778c.292.412.413.922.122 1.626.12.51.412.946.85 1.31.388.365.436.874-.025 1.602-.413 1.068-.995 1.723-1.505 2.427 0 .026-.048.05-.048.074-.024.024-.05.048-.073.097.024-.048.05-.072.073-.12-.024-.122-.05-.243-.073-.364.073.097.097.17.12.267l.22-.364c-.025-.123-.05-.244-.073-.39.048.097.097.17.145.267.048-.097.12-.194.17-.29-.05-.122-.073-.268-.122-.413.073.097.12.194.17.29.073-.12.146-.242.194-.363-.024-.12-.073-.242-.097-.363.05.072.097.145.146.242.073-.22.122-.39.146-.535l-2.5 1.554c.22-.196.462-.365.68-.56l-.024.025c-.025-.146-.05-.316-.073-.46.072.12.12.266.17.387.047-.05.12-.097.17-.146-.026-.194-.05-.388-.074-.582.097.17.146.34.194.485.073-.05.146-.122.22-.17-.026-.243-.05-.51-.1-.777.123.218.196.437.244.655.073-.073.122-.12.194-.17-.024-.34-.072-.728-.12-1.092.17.34.29.655.29.922.05-.048.097-.073.146-.12-.025-.365-.073-.802-.146-1.19.194.364.316.728.34 1.02 0-.025.048-.05.073-.074 0-.388-.072-.922-.145-1.407.243.46.364.898.316 1.213.05-.048.098-.097.146-.146-.024-.703-.267-1.334-.485-1.99-.096.34-.096.46-.193.437.048-.387.024-.557-.05-.606-.047.534-.17.874-.34 1.044l.1-.874h-.147z" fill="#FFF"/><path d="M29.906 47.913c0 .146 0 .267-.097.267-.098-.024-.074-.145-.05-.267h.146zM30.173 47.646c.048.025.072.073.072.243 0 .17 0 .29-.12.29-.146-.024-.122-.17-.074-.315.05-.17.074-.22.123-.22zM30.512 47.695c0 .267 0 .46-.097.437-.097-.025-.097-.22-.048-.437h.145zM30.464 47.355c.024 0 .024.05.048.12h-.12c.023-.07.048-.12.072-.12zM30.804 47.307c.048 0 .072.097.072.315s0 .413-.17.388c-.17-.024-.12-.218-.072-.437.073-.194.097-.266.17-.266zM29.13 40.34c.606.147 1.237.657 1.868 1.19.097.17.048.22-.097.146-.436-.145-1.067-.874-1.77-1.335zM31.46 41.92c.12.072.17.144.144.17-.024.047-.12.023-.242-.05-.097-.073-.17-.17-.146-.194.024-.024.12 0 .243.073zM25.343 42.817l.655.073.146.242-.024-.024c-.073 0 .218.777-.17-.05-.05-.096-.194-.07-.316-.12-.12-.048-.073-.073-.29-.12zM22.31 53.3c.12 0 .242.05.242.098 0 .024-.073.073-.194.073-.146 0-.243-.023-.243-.072-.024-.05.073-.097.194-.097zM22.625 53.908c.194-.05.413-.073.437-.024.048.048-.097.12-.29.194-.196.048-.39.048-.438 0-.025-.05.097-.122.29-.17zM22.82 54.102c.218-.05.436-.073.484-.024.025.048-.12.145-.34.194-.242.073-.436.073-.485.024-.05-.048.096-.146.34-.194zM23.11 54.32c.146-.048.292-.048.316 0 .024.025-.073.097-.22.146-.168.024-.314.024-.338-.024-.025-.025.097-.097.242-.122zM23.304 54.515c.146 0 .243.048.243.096.024.05-.073.074-.194.074-.12 0-.243-.024-.243-.073 0-.047.073-.095.194-.095zM25.9 53.544c.195-.073.39-.073.414.024.048.073-.097.218-.29.29-.196.074-.39.074-.414-.023-.024-.073.097-.194.29-.29zM25.56 53.325c.147-.073.293-.073.317 0 .024.073-.073.17-.218.22-.147.072-.293.047-.317 0-.048-.074.073-.17.218-.22zM25.246 52.888c.12-.048.218-.024.243 0 .023.073-.05.146-.17.17-.123.05-.22.05-.244 0-.024-.048.05-.12.17-.17zM21.727 50.874c-.024-.12-.146-.12-.194-.024-.024.17.024.388.194.485.194.097.243-.097.146-.17-.097-.097-.122-.17-.146-.29zM21.387 50.704c.024-.145-.097-.218-.194-.097-.12.17-.17.437-.024.607.17.218.314.024.266-.097-.073-.17-.097-.267-.05-.413zM38.327 39.807c-.146.22-.194 1.044.534 2.04.268.34-.048.58.34.63.146-.024.243-.146.268-.364l-.243-.12h.34l-.364-.244c.122-.025.413.048.39-.074-.025-.145-.365-.17-.535-.243l.413-.097c.024-.12-.22-.218-.607-.34l.39-.096-.438-.267.34-.098-.534-.267.29-.145-.314-.097.29-.146c-.24-.097-.34-.315-.557-.073zM37.745 40.438c-.146-.315-.17-.582-.097-.825.17-.437.34-.558.485-.558.29.315-.194.51-.29.752-.074.05-.098.22-.098.63zM37.623 38.934c.122-.122.267-.194.316-.146.047.05-.026.17-.147.315-.12.122-.267.22-.315.17-.05-.048.024-.194.145-.34zM37.502 40.487c.073 0 .146.073.146.17 0 .073-.073.145-.146.145-.097 0-.17-.072-.17-.145 0-.097.073-.17.17-.17zM37.817 40.972c.097.025.122.146.05.267-.05.12-.147.193-.22.145-.097-.024-.12-.146-.048-.267.048-.12.145-.194.217-.146zM38.157 41.482c.122.05.146.17.05.316-.074.12-.244.194-.365.17-.122-.05-.146-.195-.073-.316.072-.12.242-.22.387-.17zM38.52 42.04c.074.097.025.194-.096.243-.097.048-.243.024-.315-.073-.05-.073-.026-.17.096-.218.12-.05.242-.025.315.048zM40.27 42.33c.047-.07.047-.193-.074-.217-.122-.024-.194-.024-.267-.146-.098-.29.047-.436.29-.51.194 0 .267.074.22.195l-.123.097c.22.072.364.145.437.266-.12 0-.194.024-.218.12.412-.072.388.584.024.462-.243-.072-.364.025-.243.437.097.486.437.607.413.097-.05-.242.776-.29.873.243l-.315-.12c.073.387.388.217.437.557l-.267.024c.315.22.558.485.68.8-.34-.048-.365-.412-.68-.412.412.56.898.437 1.14.995-.34-.025-.752-.292-1.213-.73.413.584.68 1.07.583 1.312-.607-.267-.73-1.165-.97-1.432 0 .46.338.728.217 1.238-.242-.292-.364-.753-.364-1.48.244.048.34-.122.34-.535-.048-.436-.266-.412-.217 0 0 .316-.22.413-.874.025-.098.097.047.218.41.437l-.023.363.194-.315.074 1.02c-.024.266-.097.218-.17-.05l-.073-.51c0 .365-.047.535-.17.51l-.096-.946-.267.34-.072-.534-.243.194v-.655c-.17.097-.364.024-.558-.267.267.073.437.024.655-.097-.122-.485.096-.728.51-.777zM34.493 45.292c.024-.218.072-.29-.146-.582-.097-.097-.17-.122-.146 0 .05.194.244.388.293.582zM34.104 43.812c.316.17.46.194.63.655.05.17.026.29-.096.146-.194-.22-.29-.583-.534-.8zM34.153 42.865c.412.292.582.34.776 1.02.048.267-.025.412-.17.194-.243-.34-.316-.85-.607-1.215zM34.347 42.186c.46.145.8.704.8 1.19 0 .266-.12.436-.193.193-.097-.34-.267-1.044-.607-1.384zM34.54 41.822c.414.17.68.46.826.898.025.242 0 .364-.17.17-.097-.364-.34-.728-.655-1.068zM37.405 53.835c.097-.243.46-.486.898-.29.194.047.17.29.17.46-.122-.12-.243-.267-.364-.12-.34-.268-.462-.123-.705-.05zM36.094 53.932c.097 0 .17.05.17.146 0 .072-.073.12-.17.12-.072 0-.145-.048-.145-.12 0-.097.072-.146.144-.146zM35.245 53.932c.048-.024.12.073.17.194.024.122.024.243-.024.243-.048.023-.12-.05-.17-.195-.024-.122-.024-.243.025-.243zM35.536 53.884c.024 0 .073.048.097.145.024.072.024.145-.024.17-.025 0-.074-.05-.098-.147-.024-.072-.024-.145.024-.17zM35.61 50.753c-.025.024-.05.048-.05.073-.097.097-.194.17-.218.12-.05-.023-.024-.145.05-.242.047-.048.07-.073.096-.097-.025-.024-.025-.048-.05-.073-.023.025-.023.05-.047.073-.097.122-.218.194-.266.146-.05-.024-.025-.17.072-.29.025-.05.073-.074.097-.1-.024-.023-.024-.047-.048-.047-.097.12-.218.17-.267.146-.05-.05-.024-.17.073-.292 0-.024.025-.048.05-.048-.05-.05-.05-.073-.073-.097-.073.048-.122.072-.17.048-.025-.024 0-.12.072-.218-.05-.097-.073-.194 0-.243.145-.12.218.05.363.364.05.12 0 .194.073.267.05.097.194.146.243.22.17.266.145.484.12.508-.048.026-.024-.023-.12-.217z" fill="#FFF"/><path d="M35.61 50.996c.072.048.023.194-.098.34-.12.145-.243.218-.29.17-.074-.05-.026-.195.07-.34.123-.146.268-.22.317-.17zM38.594 49.564c.024 0 0 .145-.05.29-.047.146-.144.243-.193.22-.023 0 0-.146.05-.292.073-.146.145-.243.194-.218zM38.23 49.418c.05.024.024.218-.073.437-.12.194-.243.364-.315.34-.073-.025-.05-.22.072-.437.098-.22.243-.364.316-.34zM37.38 49.078c.05.024.025.17-.048.364-.073.17-.17.292-.218.267-.05-.025-.025-.17.048-.34.073-.195.17-.316.22-.292zM13.84 8.063c.072-.34.29-.51.533-.534l.534.096c.194.146.17.195-.048.22-.438-.074-.68.023-.802.314-.17.243-.243.267-.22-.097zM15.538 9.083c.05 0 .122.048.122.145 0 .073-.073.146-.122.146-.072 0-.12-.073-.12-.146 0-.097.048-.145.12-.145z" fill="#FFF"/><path d="M13.767 8.597c-.17.22-.122.46.17.753l.388.485c.34.243.51.194.46-.17-.048-.243.025-.34.244-.34.144-.024.24-.097.314-.218.05-.194.024-.29-.145-.34-.317.218-.584.316-.802.364.29-.193.51-.34.582-.46.073-.073.17-.097.316-.05 0-.12-.05-.24-.22-.29-.34 0-.678.243-.994.583.194-.413.486-.656.922-.656.025-.12 0-.218-.12-.315-.268-.024-.535.048-.753.218l-.363.437zM15.732 11.606c.8.777 1.48 1.7 2.015 2.743v.897l-.29-1.02c.023.704 0 1.166-.074 1.02l-.243-1.456-.17.632-.145-.898c-.122-.097-.146.46-.122 1.238-.218-.22-.194-.85-.17-1.554l-.242.68c-.145-.364-.072-.85 0-1.31-.145-.122-.242.12-.29.85-.17-.487-.122-.875-.05-1.336l-.17.364-.048-.85zM21.678 4.763c.267.194.63.242.995.242l.025.194c.582 0 1.19-.268 1.796-.68-.025-.024-.146-.05-.267 0-.437.218-.39.073.436-.34.122-.073.22.024.413-.048l.534-.122c-.437.39-.874.777-1.36 1.14-.68.39-1.285.486-1.844.292-.315-.145-.63-.34-.922-.558-.073-.12-.145-.194.194-.12zM25.028 4.884c.072 0 .12.048.12.097 0 .05-.048.098-.12.098-.05 0-.098-.048-.098-.097 0-.048.05-.096.098-.096zM25.756 6.34c.048-.073.097-.097.145-.048.05.024.05.097 0 .145-.047.073-.12.097-.144.073-.05-.024-.05-.097 0-.17zM27.48 5.685c.072-.024.144-.024.17.024.023.048 0 .145-.098.17-.073.048-.146.048-.17-.025-.05-.05 0-.122.097-.17zM27.09 5.418c.073-.05.146-.073.17-.024.05.024.025.12-.024.17-.073.048-.146.072-.17.024-.024-.025-.024-.097.024-.17zM24.445 5.928c.073-.025.146 0 .17.048 0 .05-.05.12-.12.12-.074.026-.147 0-.17-.047 0-.05.047-.098.12-.122zM25.392 7.723c.097-.048.218-.048.242 0 .025.05-.024.122-.145.17-.098.025-.22.025-.244-.024-.024-.05.024-.122.146-.147zM22.285 6.073c.267-.024.63-.12 1.117-.34l.558-.267c.267-.12.315-.097.097.122-.243.242-.558.364-.777.534-.218.145-.534.34-1.068.194-.267-.073-.17-.22.073-.243z" fill="#FFF"/><path d="M23.984 5.83c.316-.29.51-.364.946-.558.413-.17.826-.218 1.238-.218.29-.267.558.097.243.388-.096.097-.218.146-.34.22-.314.24-.654.338-.994.435-.437.122-.485.073-.12-.17.12-.097.217-.17.34-.242.265-.17.557-.22.824-.243-.413-.267-1.214.146-2.015.534-.242.12-.315.05-.12-.146z" fill="#FFF"/><path d="M26.168 4.568c.17-.048.316-.024.51-.024.315.097.46.267.485.486-.073.218-.17.34-.315.388-.073-.388-.22-.607-.437-.68-.096-.024-.145-.024-.242-.024v-.146zM25.804 4.666c.097-.05.12-.073.22-.098v.146c-.1.024-.1.024-.196.05-.097.023-.194-.05-.024-.098zM25.367 4.423c.22-.194.46-.364.753-.388.29-.025.606-.025.922.024.607.217.364.41-.024.266-.243-.146-.534-.122-.874 0-.024.242-.437.048-.68.218-.17.073-.194.024-.097-.12zM27.14 4.496c.193 0 .34.024.363.194.024.218-.024.388-.17.485.073-.46-.145-.412-.194-.68zM27.673 4.374c.05.073.073.267 0 .583l-.194.364c-.05.17 0 .22.12.17.194-.12.29-.29.29-.533 0-.364.026-.534.147-.655-.218-.365-.437-.316-.364.072zM26.12 6.51c0 .243.558.29.63.024.122-.29-.096-.51-.024-.8-.364.096-.606.363-.606.776zM25.974 7.14c.12-.217.316-.29.607-.266.22 0 .34.05.34.267 0 .22.025.462-.024.656-.073.194-.097.17-.34.194-.266 0-.364-.12-.655.05.17-.414-.023-.584.074-.9zM27.018 6.194c-.122-.194.024-.266.145-.12.146.12.243.29.243.46.024.17-.17.316-.29.17-.123-.145.023-.29-.098-.51zM27.14 7.117c-.074-.243.023-.267.315-.146.194.17.218.292.12.39.195.194.195.46.025.776-.12-.097-.267-.05-.364-.194-.024-.097-.097-.05-.048-.413.024-.146.024-.268-.05-.413zM27.48 9.107c.12 0 .193.073.193.145 0 .073-.097.122-.194.098-.123 0-.195-.073-.195-.146 0-.05.097-.097.194-.097zM25.974 8.888c.12 0 .218.073.194.146 0 .073-.097.146-.218.12-.122 0-.22-.07-.194-.144 0-.073.097-.146.218-.122z" fill="#FFF"/><path d="M27.82 8.62c-.147-.24-.51-.41-1.045-.484-.34-.05-.8.05-1.286.17-.268.29-.365.728-.317 1.31l.22.05-.196.145h.267l-.17.243.146.05-.12.314.144.097-.072.195.194.023-.05.194.147.024-.05.195.147.05c.097.145.267.266.46.387.147.073.292.073.462.05.29-.22.364-.414.607-.68.072-.025.096-.17.096-.39.146-.072.194-.193.194-.363l.122-.17v-.583c-.146.048-.243.072-.365.048l-.34-.145-.096.752c0 .145-.072.364-.242.29l-.413-.193c-.097-.05-.073-.195.05-.244l.144-.024v-.655c-.243.073-.51.097-.753-.073-.097-.05-.194-.05-.29-.05.072-.144.17-.266.266-.338l-.146-.22c.05 0 .146.025.22.025.338-.023.508-.07.605.026.097.097.17.17.267.218l.024-.17c.072-.194.218-.242.436-.17l-.048.486.777-.243V8.62zm-1.797 1.992c.218-.05.46-.05.68 0 .387.097.412.242.048.46-.218 0-.46 0-.703-.072.073-.122.145-.17-.024-.388zm.29.17c.098-.073.244-.073.39 0 .072.048.048.12-.025.17-.097.024-.17.024-.267 0-.072-.074-.023-.122-.096-.17z" fill="#FFF"/><path d="M26.387 10.03c.048 0 .072.023.072.072 0 .024-.025.048-.073.048-.025 0-.073-.024-.073-.048 0-.05.048-.073.073-.073zM26.775 8.913c0-.05.024-.097.024-.17.12-.122.17-.194.17-.073 0 .097 0 .17-.025.243h-.17zM26.63 10.102c.024-.316.072-.583.12-.97h.17c-.024.266-.048.557-.145 1.018-.05.097-.097.05-.146-.048zM24.76 8.427c-.024-.194.17-.17.195 0 .048.34 0 .607-.17.777-.122.073-.29 0-.194-.146.17-.242.22-.412.17-.63zM24.615 9.81c-.05-.218.097-.29.146-.048.17.655.462 1.286 1.117 1.893.267.218-.024.413-.267.194-.655-.56-.85-1.336-.995-2.04zM27.042 11.8c-.024-.194.048-.388.267-.558.145-.097.193.073.12.17-.145.17-.267.17-.388.39zM20.708 14.495c.024-.17.048-.292.145-.413-.048-.024-.12-.073-.17-.12-.12.266-.29.484-.534.8.17-.51.34-.9.703-1.287-.048.17-.097.316-.145.437.048.05.12.097.17.146.048-.05.097-.097.12-.146 0 .073 0 .146-.023.22H21l-.025.07-.025-.023c-.048.12-.12.193-.242.315zM20.416 14.93c.025-.144.073-.24.17-.338-.024.17-.048.218-.17.34zM21.703 15.126c.024-.097.048-.195.073-.267l.048-.05c0-.024.024-.073.05-.097.047-.05.096-.12.144-.17-.024.29-.097.388-.315.583zM21.654 15.83c-.073-.243 0-.413.29-.56 0 .365-.023.462-.29.56zM22.237 15.61c.242-.58.267-.848.194-1.577.268.68.22.874-.193 1.578zM26.192 17.82c.122-.51.17-.996.146-1.505-.048.024-.073.024-.12.048-.026.267-.098.583-.244.97.073-.314.12-.63.097-.945-.047.024-.096.048-.145.048-.024.22-.097.46-.194.777.05-.267.074-.51.074-.753-.073 0-.145.025-.218.025-.025.315-.073.655-.146 1.092 0-.364-.024-.728-.024-1.068h-.243c0 .363-.048.727-.12 1.237-.025-.437-.025-.85-.05-1.262-.073-.025-.145-.025-.242-.05 0 .39-.048.778-.12 1.312-.025-.46-.05-.898-.05-1.335-.072-.024-.145-.05-.218-.073-.024.363-.097.727-.194 1.213 0-.437 0-.826.024-1.262l-.218-.072c-.024.485-.073.922-.097 1.432-.073-.63-.12-1.068-.073-1.505-.073-.024-.146-.05-.194-.097-.12.582-.17 1.092-.12 1.674-.17-.752-.196-1.19-.026-1.723-.048-.05-.097-.074-.145-.098-.074.194-.195.413-.34.656.12-.243.17-.486.242-.704-.073-.05-.17-.097-.243-.146-.05.316-.195.63-.438 1.068.316-.777.34-1.505.364-2.427.073.363.122.654.122.92.097.05.17.074.266.123.05-.413.073-.8.073-1.262.122.534.17.923.097 1.287.073.024.146.073.22.073.023-.05.072-.122.12-.194l-.073.218c.05 0 .123.024.17.024.05-.145.074-.315.147-.51 0 .195-.024.365-.024.56.072 0 .12.023.194.023 0-.12.024-.266.024-.412.05.17.05.292.074.437.073 0 .17.025.242.025v-.56c.05.22.097.39.122.56.097.024.194.024.29.024 0-.194 0-.364.025-.583.05.22.073.414.122.584h.242v-.874c.097.34.146.607.17.85.073 0 .146-.025.22-.025 0-.194-.05-.412-.074-.63.097.218.17.412.194.606.048 0 .097-.023.146-.023-.025-.22-.073-.437-.098-.68.098.243.17.437.22.63.047 0 .096 0 .145-.023-.05-.34-.073-.704-.146-1.116.558 1.383.558 2.014.048 3.422zM26.872 16.218l.097.218.34-.315c.096-.12.193-.096.266.073l.024-.388c.122-.073.22-.024.316.097.072-.097.072-.218.024-.364l.048-.485c-.194-.316-.34-.51-.558-.583.122.267.122.486.05.68-.025-.316-.17-.534-.414-.655.097.194.146.388.097.582-.048-.073-.12-.146-.242-.218l.05.29-.147.097.05.97zM29.105 14.495c0 .072 0 .12-.05.12-.047 0-.096-.048-.17-.12h.22zM28.96 14.082c.048.12.096.218.096.29h-.267c-.05-.072-.098-.144-.146-.24-.025 0-.025-.026-.025-.05h.34zM28.522 13.62c.073 0 .243.146.364.365h-.315c-.096-.194-.12-.364-.048-.364zM28.377 14.47c.024-.024.12.073.218.22.073.144.097.266.073.29-.024.024-.12-.073-.194-.218-.097-.146-.122-.292-.097-.292zM27.916 14.373c.024-.024.145.097.267.267.097.194.145.34.097.364-.025.025-.146-.097-.267-.267-.097-.194-.146-.34-.097-.364zM20.077 13.427c.072.048.12.097.17.12l.12-.12c-.023.17-.072.218-.193.34.024-.073.048-.146.073-.195-.05-.048-.098-.097-.17-.145zM17.917 37.77l-.097.314-.097-.048.048-.267h.147zM10.393 48.472c.316-.122.39.024.486.388.266.242.435.437.435.63.56.462.462.656-.29.583-.243-.073-.39-.242-.39-.582l-.242-1.018zM10.515 50.34c-.195.29-.146.656.097.947.145.17.315.218.485.218L11 51.238l.29.194c0-.145-.12-.315-.387-.51l.364.098c0-.194-.17-.364-.46-.51h.24c-.12-.34-.338-.437-.532-.17zM11.46 50.51c.098-.024.17.097.195.243.024.145-.024.267-.12.29-.074.025-.17-.096-.195-.242 0-.144.048-.29.12-.29zM16.388 33.886c0-.777.34-1.53.776-2.282-.315.777-.582 1.53-.776 2.282zM18.135 29.372c-.29.12-.315-.122-.097-.292.46-.388.97-.533 1.553-.533h1.02c.39 0 .34.388-.024.364h-.728c-.655-.024-1.19.17-1.723.462z" fill="#FFF"/><path d="M20.344 29.008c.267 0 .485.048.485.097 0 .072-.22.097-.486.097-.267 0-.486-.025-.486-.097 0-.05.22-.097.486-.097zM22.334 23.862c-.05-.048-.17.122-.34.34-.146.194-.243.388-.218.388.024.025.17-.12.315-.34.17-.193.268-.388.244-.388zM20.635 25.537c-.122.218-.073.34.17.437.97.29 1.917-.024 2.863-.558l1.19-.56c.218-.266.17-.338-.122-.24l-.582.29.146-.485c-.316.243-.51.486-.656.753l-.097-.243c-.145.122-.267.292-.315.51l-.122-.267c-.12.073-.218.17-.29.316l.048-.34c-.097-.074-.243.096-.437.484l.098-.364c-.073-.073-.194.073-.364.437l.388-1.165c-.194.024-.46.46-.752 1.238-.122.024-.17-.025-.146-.122l.437-.85c-.217-.023-.46.292-.75.85l.338-.97-.63.825v-.316c-.146.05-.292.17-.413.34zM20.756 41.336c-.097-.097.073-.194.122-.145l.29.268c.074.073-.096.194-.17.145l-.242-.267zM20.975 41.142c-.05-.073.072-.17.12-.12l.244.242c.07.072-.074.17-.123.12l-.242-.242zM21.12 40.924c-.097-.097.073-.22.146-.146l.29.29c.074.074-.12.196-.17.123l-.266-.266zM21.242 40.56c-.097-.122.12-.292.242-.22l.437.438c.123.122-.17.316-.242.22l-.436-.438zM21.703 40.17c-.146-.144.048-.338.17-.217l.533.46c.146.122-.072.34-.194.244l-.51-.486zM22.018 39.93c-.12-.123.025-.293.146-.195l.46.388c.122.12-.072.29-.17.218l-.436-.41zM22.43 39.783c-.096-.097.025-.243.122-.17l.388.34c.098.097-.072.267-.145.194l-.364-.364zM20.49 37.04c0-.12-.195-.072-.22.025l-.048.437c0 .097.22.048.22-.024l.047-.437zM19.858 37.647c-.024-.194-.218-.097-.218.025l.048.34c0 .17.243.072.22-.025l-.05-.34zM19.13 38.108c-.024-.17-.145-.12-.145 0l-.025.316c-.024.17.17.097.17 0v-.316zM20.052 37.502c.05 0 .097.048.097.12 0 .074-.05.123-.098.123-.024 0-.072-.05-.072-.122 0-.073.048-.12.072-.12zM19.373 37.94c.073 0 .12.07.12.144 0 .097-.047.146-.12.146s-.122-.05-.122-.146c0-.073.05-.145.123-.145zM18.766 38.375c0-.145-.194-.145-.194-.024v.292c0 .146.218.122.218.025l-.024-.292zM24.033 20.028c.072 0 .12.073.12.17 0 .097-.048.194-.12.194-.05 0-.098-.097-.098-.194s.05-.17.098-.17zM24.324 20.49c-.05 0-.073-.122-.073-.268 0-.17.025-.29.074-.29.048 0 .097.12.097.29 0 .146-.048.267-.096.267zM24.785 20.368c.12 0 .218.048.218.097 0 .024-.097.073-.218.073-.097 0-.194-.05-.194-.073 0-.05.098-.097.195-.097zM25.028 20.78c.048 0 .097.05.097.097 0 .073-.05.122-.097.122-.025 0-.073-.05-.073-.123 0-.048.048-.097.073-.097zM25.416 20.756h.898c.29 0 .34.146.145.413.097.484-.51.8-.486.023-.05-.146-.218-.22-.558-.22-.146-.047-.146-.193 0-.217zM24.008 26.46c.073 0 .122.048.122.12 0 .073-.05.146-.122.146-.048 0-.097-.073-.097-.145s.05-.12.098-.12zM23.62 26.58c.073 0 .146.073.146.17 0 .073-.073.146-.146.146-.097 0-.146-.073-.146-.145 0-.097.05-.17.146-.17zM24.105 26.847c.316-.218.63-.363.68-.29.048.072-.17.315-.51.558-.34.218-.63.34-.704.267-.023-.073.196-.316.535-.535zM25.27 26.095c.194-.17.39-.267.413-.243.048.05-.097.22-.29.39-.196.144-.39.266-.414.217-.05-.05.096-.22.29-.365zM24.518 27.94c.073-.17.145-.34.243-.486l-.048-.024c.05-.29.267-.51.558-.655l.05.024c.096-.098.217-.17.363-.244-.073.122-.122.243-.194.34l.07.05c.17-.17.39-.317.632-.39-.145.195-.29.34-.46.486l.145.097c.218-.195.485-.34.704-.438-.17.17-.34.364-.533.534l.17.097c.218-.17.485-.29.728-.34-.122.097-.243.194-.34.29.17-.047.364-.047.607-.07-.316.144-.51.193-.753.29l.194.12c.242-.144.51-.217.728-.217-.17.097-.364.218-.56.315l.17.098c.22-.12.487-.17.705-.145-.194.073-.364.145-.534.242l.097.073c.22-.097.437-.145.656-.145-.194.072-.34.17-.51.242l.146.073c.194-.073.388-.073.558-.048-.146.048-.29.072-.437.145l.51.316-.098.05-.776-.268c-.05 0-.074.025-.098.05 0-.025.024-.05.048-.074l-.194-.048c-.097.048-.218.12-.34.17.073-.098.122-.17.195-.22l-.194-.072c-.097.05-.218.122-.34.17.05-.073.122-.17.195-.243l-.193-.072c-.146.097-.267.194-.413.267.073-.122.146-.22.243-.316l-.267-.097c-.122.12-.243.218-.364.315.024-.12.097-.267.194-.364l-.243-.097c-.12.123-.267.244-.412.365.072-.145.145-.29.242-.412l-.388-.146c-.122.146-.292.29-.462.413zM21.8 28.692c-.316.63-.63 1.602-.85 3.568-.12.873-.194 1.747-.024 2.645.097.485.316.655.534.63l3.616-.58c.267-.05.534-.268.413-.51l-.147-.292-.12.412-.195-.34-.146.39-.22-.487-.168.583-.22-.46-.12.485-.12-.413-.147.51-.17-.46-.146.557-.193-.535-.145.39-.17-.317-.122.29-.17-.24c-.17-.074-.34-.074-.51 0l-.072.12-.097-.12c-.266-.074-.557-.123-.824-.17l.34-.17c0-.122-.122-.17-.34-.147l.364-.266-.388-.073.364-.217c0-.097-.097-.194-.39-.315l.39-.122v-.097l-.39-.05.414-.194c.048-.097-.073-.17-.34-.267l.34-.098c-.024-.097-.05-.218-.29-.315l.29-.097-.29-.22.363-.144c0-.122-.05-.17-.267-.267l.388-.17c-.024-.074-.12-.195-.364-.268l.364-.12-.29-.195.34-.146-.268-.096.315-.194c.074-.073-.047-.146-.314-.17l.364-.146.024-.145-.34.047.17-.145-.218-.17.51-.122.048-.097-.364-.097.29-.17c-.047-.145-.145-.194-.29-.194zm.558.51l.073-.025c-.315 1.724-.46 3.374-.218 4.854-.12-2.304.17-4.755.607-5.168l.072.17c-.51 1.844-.558 3.495-.22 4.975-.217-2.524-.023-3.98.414-4.757v.243c-.34 1.772-.364 3.203-.048 4.368l.097-.07c-.22-1.846-.097-3.278.194-4.71l.17.025c-.34 1.868-.34 3.324-.098 4.66l.097-.098c-.196-1.917-.17-3.252.12-4.465l.146.024c-.267 1.844-.292 3.3-.05 4.49l.098-.025c-.194-2.013-.097-3.445.17-4.513l.097.098c-.193 1.6-.17 3.01 0 4.344l.098-.05c-.048-1.747-.145-3.13.073-4.15l.122-.145c-.17 1.286-.17 2.718.05 4.32h.096c-.17-1.894-.12-3.325.073-4.49l.098.072c-.097 1.53-.097 2.913.024 4.442l.097-.026c-.098-2.087-.025-3.52.193-4.368.194-.073.194.17.025.437-.122 1.262-.17 2.524 0 3.907l.145.024c-.145-2.014-.024-3.18.194-4.32.122-.12.243.025.097.316-.17 1.408-.267 2.403-.12 4.004h.17c.193.073.217.146.023.22-1.19.242-2.33.46-3.422.533-.218.024-.29-.097-.29-.413-.074-1.723.12-3.3.533-4.732zm4.004.995l.146-.728c.17-.098.243-.05.218.144l-.315.607-.048-.023zm-.267-.777c-.17 1.214-.17 1.942-.29 3.204l.096.218c.025-1.408.22-2.305.414-3.373.073-.195-.122-.244-.22-.05zm-.364-.048c.074-.097.195-.073.17.048-.193 1.044-.314 2.28-.34 3.69h-.07c-.074-1.36-.026-2.573.24-3.738zm-5.047 7.936c-.024-.39.025-.8.17-1.214.05-.17.22-.267.51-.29l3.252-.486c.17-.025.194.072.17.29-.05.316-.097.608-.243.85-.12.097-.145-.315-.12-.946-.244.582-.147 1.19-.535 1.286-.17-.267.097-.777.146-1.165-.365.34-.243.752-.56 1.19-.12.023-.096-.39-.023-1.044-.17.484-.315.872-.485 1.042-.097-.145-.097-.51-.073-.898-.146.63-.316 1.068-.46 1.14-.05-.363-.026-.703.023-1.043l-.073-.07c-.097.605-.194.97-.34 1.14-.12-.34-.145-.73.05-1.117h-.147c-.097.315-.145.582-.29.68-.195-.025-.292-.243-.292-.607-.17.68-.413 1.043-.68 1.262z" fill="#FFF"/><path d="M26.823 30.44c-.194.145-.266.315.122.29-.267.243-.29.413-.073.486-.485.607-.485.777-.024.51-.534.68-.46.776-.097.655-.46.56-.388.632-.242.656-.316.437-.316.655-.024.63-.243.098-.413.292-.46.68-.1.39-1.142.826-.268 1.19.267.146.485.51.655 1.14.074.34.22.365.51.243.243-.074.486-.098.73-.122.46.048.484-.46-.026-.534.05-.194-.12-.29-.388-.17.22-.364-.048-.267-.146-.315.146-.074.122-.244-.267-.026l-.048-.12c.218-.074.29-.195.315-.34l-.655.218c.194-.17.29-.29.267-.413l-.46.096c.484-.34.68-.582.654-.704l-.51.146c.365-.29.607-.534.583-.68l-.438.17c0-.145.194-.29.558-.388.292-.146.437-.34.39-.607l-.657.316c.534-.487.97-.923 1.093-1.215-.05-.17-.583.194-1.287.777v-.12c.68-.463 1.19-.996 1.577-1.603l-1.286.994 1.165-1.383c-.072-.17-.412.025-1.067.704l.048-.145.607-.656c.46-.267.752-.607.946-1.02.12-.315-.292.097-.923.655-.145.145-.315.218-.485.388l1.48-1.553.025-.195c-.146-.145-1.093.97-1.894 1.36zm-1.747 5.994c-.267-.17.024-.558.22-.388l.727.534c.218.17 0 .46-.17.34l-.777-.486zm.29-.46c-.266-.17.05-.51.22-.365l.388.387c.218.194.073.364-.12.267l-.487-.29zm1.555 1.455c-.194-.098-.29.048-.17.145.316.266.656.485 1.02.655.364.194.752.218 1.116.218.267 0 .39-.17.05-.242-.632-.17-1.263-.365-2.015-.777zm.195-.025c-.122-.146-.097-.267.073-.364l.873-.072c.17 0 .317.097.462.29l.413.462c.17.22.024.388-.146.34-.583-.17-1.14-.388-1.675-.655z" fill="#FFF"/><path d="M27.988 35.1c.146-.268.364-.462.68-.583.825-.122 1.65-.292 2.427-.583.242-.17.34-.12.315.146-.073.752-.17 1.383-.388 1.577v-1.31l-.097.024c-.073.656-.17 1.142-.34 1.336l.05-1.214h-.123l-.267 1.19.073-1.044c0-.146-.048-.17-.12-.097-.17 1.214-.39 1.724-.632 1.894.243-.777.243-1.31.194-1.772l-.073-.048c-.073.63-.17 1.237-.388 1.7-.244-.365.217-.996.12-1.603h-.048l-.437 1.506c-.146 0-.097-.195.048-.583l.05-.85-.074.05c-.122.46-.243.8-.413 1.09l.072-1.115-.316.8.024-.654-.34.145zm3.592-.923c.024-.267.316-.194.194.073l-.145.34h-.074l.024-.413zm-.073.995c.025 0 .05.073.05.17 0 .097-.025.17-.05.17-.024 0-.048-.073-.048-.17 0-.097.023-.17.047-.17zm.122-.364c.047 0 .072.024.072.097 0 .05-.025.097-.073.097-.05 0-.098-.048-.098-.097 0-.073.048-.097.097-.097zm-.026-1.48c.073 0 .122.096.146.218.024.12.024.243-.048.243-.025.023-.098-.074-.122-.196-.024-.12 0-.242.024-.267zm-.364-.704c.22.218.243.412.22.582-.025.243-.22.413-.22.243-.024-.22 0-.462-.17-.754-.096-.12.073-.17.17-.072zm-1.77-.437c.023-.243.217-.05.217.097l-.073.388c-.072.073-.097.024-.17-.12l.025-.365zm-.85 1.262c-.195.12-.195.217.024.29l.097-.024v.024c0 .097.05.17.098.17s.097-.073.097-.17v-.073l.218-.048v.484c-.073.024-.145.024-.242.05 0-.05-.048-.074-.072-.074-.05 0-.097.048-.097.097 0 0 .025.024.025.048-.048.025 0 .025.097.097l1.626-.364c.486 0 .607-.364.486-.946.072-.194.024-.267-.146-.243l-.364-.05.218-.145c.292-.146.292-.218.05-.218l-.51-.073.412-.073c.12-.023.17-.17-.025-.242l-.437-.048.34-.073c.218-.17.096-.29-.316-.34.145-.17.12-.29-.05-.29-.072-.17-.29-.292-.217.023l.097 1.602c.048.17-.024.29-.218.364l-1.19.243zm.922-.632c.072 0 .12.048.12.12 0 .074-.048.123-.12.123-.05 0-.097-.048-.097-.12 0-.074.048-.122.097-.122zm.97.51c.025 0 .05.024.05.048 0 .048-.025.073-.05.073-.024 0-.048-.026-.048-.074 0-.024.024-.05.048-.05zm-.097-.316c.097-.024.17 0 .194.05.024.07-.05.12-.146.144-.097.024-.17 0-.194-.073-.025-.024.048-.097.145-.12zM29.3 34.056h.047v-.486l-.12.05.072.436zm.266-.073c.048 0 .073-.025.12-.025v-.46l-.217.048.096.437zm.29-.097c.025-.025.05-.025.074-.05v-.387l-.097.023.024.413zm.22-.097s.048 0 .072-.026c.17-.194.17-.29-.024-.34h-.05v.365zM33.837 10.854c-2.014-.17-2.985.486-3.52 1.165-.46.58-.703 1.237-.75 1.965.047.12.266-.146.58-.558l-.193-.073c.05-.146.12-.267.22-.413.047-.072.047-.193.168-.266.146-.073.243-.218.243-.267h-.17c.56-.68 1.335-.85 2.21-.825.24.024.46.05.678.073.122.024.243-.024.316-.073.072-.048.096-.12-.025-.12-.777-.122-1.554-.074-2.306.096.557-.364 1.358-.388 2.5-.34.46.024.484-.315.047-.364zm-3.52 12.96c.074.048.098.194.05.364-.05.146-.17.267-.243.243-.097-.024-.12-.193-.073-.34.074-.17.17-.29.268-.266zm-1.746.704c.025 0 .074.12.074.242 0 .146-.05.243-.073.243-.048 0-.072-.097-.072-.243 0-.12.024-.242.073-.242zm.147.85c.072-.462.29-.874.68-1.14.34-.244.412-.17.145.168-.243.316-.39.704-.583 1.044-.074.146-.292.315-.243-.073zm1.02-1.845c-.34.12-.608.34-.778.655-.122.29-.074.316.145.097.218-.243.485-.388.728-.582.097-.073.194-.243-.097-.17zm-2.088 1.626c-.17.217-.147.29.144.17.46-.705.777-1.166 1.044-1.312l.825-.728c.63-.146.995-.825 1.116-1.966l-.05-.145c-.315.8-.68 1.382-1.164 1.697-.437.316-.8.704-1.14 1.165-.146.146-.146.316-.268.51-.145.194-.388.388-.51.607zm-.195-.51c-.146.266-.025.363.12.145.56-.777.947-1.31 1.53-1.796.534-.414 1.31-1.166 1.626-2.16.195-.584-.023-.753-.17-.39-.315.874-.68 1.65-1.26 2.112-.656.534-1.36 1.14-1.845 2.087zm-.073-.802c-.122.22-.146.39-.05.51.462-.17.317-.898 1.457-1.48.145-.195.096-.267-.146-.195l-1.068.777c.364-.583.728-1.044 1.262-1.165.34-.048.655-.194.946-.51.122-.267.073-.34-.12-.218-.656.437-1.214.607-1.724.995-.46.388-.777.874-.898 1.432l.34-.146zm-.073-1.407c.193-.412.727-.68 1.48-.922.51-.17.922-.534 1.285-.97.39-.243.316-.025.195.242-.146.243-.243.316-.486.46-.29.244-.728.463-1.067.608-.413.146-.8.39-1.165.825-.22.17-.316.097-.243-.242zm1.14-1.383c.364-.218.68-.437.922-.8.34-.486.485-.51.388 0-.097.412-.388.85-.995 1.067-.51.194-.655-.048-.315-.267zm1.53-1.116l.168-.873c.025-.34.146-.655.364-.922l.267-.728c.072-.29.194-.267.194.097l-.17.46c.145.074.072.22-.025.365-.025.17-.025.363-.195.412-.048.655-.12 1.19-.315 1.36-.29.363-.39.314-.29-.17zm-1.166-.12l.388-.947c.097-.34.267-.534.485-.558l.534-.51c.122-.145.195.05.122.17l-.388.63c-.073.51-.267.972-.728 1.506-.097.098-.267.098-.17-.048l.46-.922-.58.8c-.17.22-.195.05-.122-.12zm-.68.388c.218-.583.29-.898.51-1.092.267-.267.34-.243.17.072-.122.243-.292.583-.292 1.19 0 .485-.606.388-.388-.17zm-.05-.777c.026.195.05.147.147 0l.22-.605c.242-.22.582-.462.897-.85.146.218.413.024.826-.534.51-.242.752-.63.898-1.115.122-.413.05-.486-.218-.22-.388.51-.68.705-.825 1.07-.46.145-.825.655-1.36.897-.145.097-.193.243-.193.437-.22.145-.364.387-.39.92zm.05-1.188c.05-.073.146-.097.194-.073.05.048.05.145-.024.218-.05.097-.146.12-.22.072-.023-.048-.023-.145.05-.218zm2.694-4.15c.34-.413.752-.704 1.14-.874.462-.194.437.17.122.17-.243 0-.583.22-1.14.922-.146.195-.316.025-.122-.218zm-3.204 4.95c-.072-.873.122-1.382.534-1.674 1.117-.68 1.505-1.674 1.87-1.65.363-.63.92-1.286 1.576-1.893.486-.34.583-.267.316.267-.704.995-1.408 2.184-2.04 2.524-.29.024-.508.194-.678.46l.437-.217c.217-.026.24.047.096.193-.364.194-.97 1.14-1.117.534-.243.46-.656.388-.68.85l-.05.606c-.096.17-.168.17-.266 0zm4.32-6.358c.22.025.316.097.146.292-.534.218-1.044.63-1.53 1.213.05.218-.048.412-.29.557 0 .364-.22.534-.583.583l-.534.68c.122.17-.073.436-.46.824-.243.267-.34.195-.292-.242.292-.8.85-1.966 1.117-1.966.146 0 .146-.05.195-.316.024-.194.218-.145.17 0-.025.195.024.22.145.073.607-.995 1.262-1.505 1.917-1.7zm-1.626.243c.437-.51 1.19-.85 2.597-.825.29.024.243.315-.024.29-.218-.023-.46.074-.68.122-.266.073-.557.097-.8.243-.485.267-.922.704-1.31 1.31-.146.074-.17.025-.097-.145.485-.874 1.068-1.335 1.674-1.383l.025-.05c-.34-.073-.753.073-1.36.63-.072.074-.097 0-.024-.193zm.534-.752c.534-.34 1.14-.534 1.845-.437.436.048.436.315.194.29-.68-.096-1.334-.072-1.99.244-.242.12-.193 0-.048-.097zM34.226 10.175c-.17-.22-.05-.34.242-.316.753.145 1.408.242 1.82.582.243.17.05.34-.12.218l-.51-.267c.024.22-.17.12-.462-.12-.194.193-.436.096-.703-.195l.17.485c.024.097-.073.097-.122.024l-.314-.412zm1.043.388c-.098.073.023.243.096.315.097.098.22.05.17-.097-.024-.144-.17-.29-.267-.217zM36.822 11.17c-.072-.05-.242-.122-.024-.17-.243-.146-.145-.34.024-.364.656-.024 1.165-.39 1.918.024l.34.388c.218.51.024.753-.268.39-.145-.22-.024-.414-.388-.584.194.364.34.728.34 1.14.558.535.048.656-.097.316l-.22-.995c.05.486.074.85 0 .85-.168 0-.07-.34-.144-.753-.05-.17-.097-.485-.194-.51-.414-.145-.802-.024-1.118 0 .534-.024.898 0 1.02.146.17.243.194.51.12.753-.12.195-.193.146-.193-.096l-.074-.316c-.024-.17-.218-.194-.485-.17-.17.024-.363.073-.558-.048zM30.075 29.3c.777 1.285 1.675 2.523 2.694 3.688.12.145.024-.292.12-.122.22.46.56.898.705 1.044.145-.12-.316-.534-.39-1.02l1.385 1.602c.12-.218-.68-1.165-1.335-1.99l.097-.097 1.577 2.063.072-.024c-.242-.68-.97-1.505-1.456-2.257l.05-.17c.29.364.678.922.994 1.383.46.656.873 1.238.995 1.287.582.145-1.384-1.918-2.282-3.64l.025-.098c1.068 1.625 2.014 3.106 3.058 3.785.12.073.218-.073.097-.218-.947-1.117-2.063-2.33-2.743-3.422l.05-.097c1.018 1.213 1.552 2.596 3.494 3.76.12.074.194.196.315.098.436-.34-1.676-.85-3.302-3.59l.025-.196c.606.826.704 1.068 1.262 1.65.776.85 1.99 1.845 2.184 1.7.193-.17-1.748-1.505-2.792-3.13l.05-.05c.824 1.14 1.99 2.524 3.687 3.398.243.12.146.097.437.097.753.05-1.674-1.19-2.936-2.572l.024-.122c.364.317.825.73 1.335 1.142.606.437 1.237.825 1.747 1.116.46.243.825.39.995.316.437-.22-1.674-.97-2.208-1.53.314.17.63.292.897.413.922.46 1.577.777 1.723.607.097-.12-.39-.388-1.238-.704-.097-.097-.024-.12.218-.073.97.39 1.53.656 1.65.583.316-.097-.193-.316-.776-.68.728.316 1.36.607 1.7.51.12-.024-.414-.316-.875-.728.655.412 2.208.97.727-.073l.097-.05c.56.413 1.262.583.413-.096h.12c.487.388.754.68.39-.122.485.704.97.97.315-.048l.753.582c-.267.12-.243.194 0 .34.63.412.68.34.558 0 .072-.655-.17-1.092-.607-1.36-.485-.315-.46.05.097.923-.218-.17-.388-.365-.51-.56-.097-.193-.315-.315-.558-.315-1.14.025-2.257.243-3.325.39-.825.12-1.456 0-1.747-.196-.29-.243-.388-.34-.243-.607.097-.22 0-.39-.145-.46l-.777-1.554c.097.168.218.24.316.387.315.51.533.922.606.898-.12-.34-.534-1.092-.85-1.942.608 1.068 1.14 1.99 1.287 1.87-.073-.414-.558-1.214-1.043-2.04.145.146.194.194.29.316.195.242.365.46.462.41-.388-.8-.8-1.31-1.238-1.455-.68-.242-1.092-.34-.995.097l-.34-.388-.364-.05c-.122.05.048.244.29.657l-.072.05-.413-.656c-.12-.073-.29-.146-.315 0l.218.437-.46-.51c-.22-.12-.462-.17-.462-.072l.68 1.117c-.122-.17-.316-.34-.486-.583-.267-.364-.485-.63-.8-.68-.316-.023.315.486.75 1.53l-1.042-1.505c-.097-.073-.51-.146-.534 0l1.213 1.747c-.558-.63-1.116-1.164-1.43-1.77-.074-.074-.147-.074-.22-.074-.048-.024-.097 0-.146.05l1.482 1.916c-.29-.267-.583-.558-.8-.825-.316-.436-.608-.727-.85-1.116-.098-.12-.292-.073-.316-.024-.12.17 1.116 1.432 1.65 2.184-.752-.704-1.334-1.383-1.868-2.184-.243-.12-.413-.12-.486 0-.073.146 1.505 1.65 2.112 2.597-.825-.874-1.626-1.7-2.282-2.597-.097-.12-.388-.12-.388 0 0 .243 1.36 1.48 2.45 2.985-.8-.874-1.77-2.038-2.183-2.28-.193-.025.486.824 2.04 2.596-.777-.703-1.48-1.456-2.136-2.256-.194.17.655 1.237 1.893 2.596l-1.942-2.038c-.266-.17-.315-.146-.17.097zm8.252-.462c-.17-.243.073-.364.267-.073.388.655.752 1.213 1.02 1.844.12.29-.05.363-.17.096-.316-.703-.704-1.262-1.117-1.868zm-.752-.243c-.122-.194.194-.315.437.024.558.776 1.043 1.552 1.43 2.353.22.486 0 .607-.217.17-.46-.946-1.068-1.77-1.65-2.548z" fill="#FFF"/><path d="M34.104 12.19c-.024.436.22.994.68 1.358 0-.073-.22-.413-.364-.704-.146-.34-.22-.606-.316-.655zm1.505 15.143c-.05-.704-.438-1.214-1.214-1.796.024.17.51.582.8 1.092.292.485.292.606.413.703zm-.025-.728c-.097-.073-.17-.34-.413-.728-.243-.413-.655-.825-.68-.947.632.46 1.044 1.117 1.093 1.675zm-.097-.922c-.073-.073-.146-.267-.316-.56-.194-.314-.51-.63-.534-.727.51.34.825.826.85 1.287zm-.097-.947c0-.315-.242-.655-.582-.85.024.074.22.268.364.486.12.194.17.316.22.364zm-.363-13.3c-.122.413 0 .996.388 1.48.024-.096-.122-.46-.22-.8-.07-.315-.096-.63-.168-.68zm-4.296 15.63c-.363.024-.436-.05-.46-.413.17.17.315.243.46.413zm-.485-.63c.243.242.486.387.73.654.12.05.24.05.362-.048-.388-.413-.752-.656-1.164-1.068.024.145.048.315.072.46zm-.097-.68c.51.51.898.825 1.36 1.31.145.073.242.073.315 0-.558-.704-1.068-1.238-1.626-1.942-.05.22-.05.437-.05.63zm.097-.777c.63.727 1.238 1.358 1.893 2.16.194.096.34.096.413.023-.63-.825-1.43-1.723-2.16-2.62-.048.12-.072.217-.12.314-.025.05-.025.073-.025.122zm.17-.608c.825.947 1.578 1.796 2.45 2.84.123.072.244.072.34.024-.096-.097-.678-.8-.775-.922-.704-.874-1.117-1.335-1.918-2.306-.024.12-.048.243-.097.364zm.146-.51c.875.97 1.19 1.408 2.137 2.524.097.146.606.656.703.777.122.243.534.243.34.073-.17-.194 0-.05-.242-.364-.777-.947-2.063-2.5-2.84-3.47-.024.17-.073.315-.097.46zm.122-.582c.025-.146.05-.267.073-.388.728.922 2.16 2.645 2.985 3.664.437.534.413.51.656.777 0 .12-.098.073-.267.024-.22-.242-.196-.218-.414-.51-1.02-1.19-2.136-2.572-3.034-3.567zm.073-.51c.05-.17.05-.364.073-.533.776 1.213 1.893 2.5 3.13 3.64-.096-.486-1.65-1.82-2.596-3.082-.194-.34-.364-.656-.486-.923.025-.145.025-.267.05-.436.654 1.334 1.698 2.572 3.154 3.834-.17-.437-1.675-1.65-2.476-2.936-.29-.51-.51-.923-.63-1.262v-.22c.655 1.312 1.795 2.67 3.155 3.836-.147-.437-1.7-1.7-2.453-2.937-.315-.533-.51-.945-.655-1.285v-.243c.63 1.262 2.04 2.96 3.325 4.077-.146-.413-1.893-1.942-2.62-3.13-.317-.56-.535-.996-.656-1.336v-.34c.534 1.262 1.894 2.937 3.228 4.03-.145-.414-1.82-1.797-2.5-2.938-.363-.607-.558-1.068-.68-1.408 0-.12 0-.266.025-.363.46 1.286 1.748 2.84 3.107 3.883-.146-.364-1.7-1.626-2.33-2.694-.413-.704-.607-1.165-.752-1.505 0-.147 0-.268.024-.414.388 1.262 1.602 2.79 2.96 3.86-.096-.365-1.553-1.506-2.183-2.525-.463-.775-.608-1.285-.754-1.625v-.073c.024-.145.024-.315.05-.46.266 1.26 1.43 2.887 2.814 4.004-.097-.316-1.432-1.456-1.99-2.403-.534-.898-.655-1.432-.825-1.723.412-3.495 1.893-5.558 4.053-5.922l.048.024c-.073.413 0 .923.243 1.408.047-.097-.074-.582-.098-.995v-.364l.194.05c.024.485.194.946.413.995-.17-.267-.196-.607-.196-.898l.267.072c0 .51.17 1.067.414 1.09-.218-.29-.218-.678-.194-.994l.048.025c.05.195.122.39.22.486.096-.12.047-.364-.025-.63.266-.146.582-.122.922.096.12.146.073.22-.097.22h-.17l.388.17c.024.047.097.096-.12.12l-.147.12.51.05c.17.073.144.12.096.194l-.122.145c.437 0 .898.1 1.457.39-.024.194-.242.17-.655-.05.097.244.486.268.46.414-.047.267-.63.024-.896.364l.654.024c.145.097.097.17-.122.17.34.413.607.534.704.243.097-.22.194-.22.292 0 .412.243.485.267.242.315l-.388.073.46.073c.122.048.122.146.05.218-.316.05-.34.097.242.122.243.12.34.242.243.34-.51.024-.485.097.12.145.147.074.196.17.17.244-.314.073-.266.145.122.145.048.072.097.12.024.194-.364.097-.316.145.145.145.024.17.29.145.388.363.388-.073.558.194.218.194l-.024.073c.558.024.8.17.728.51-.05.145-.8-.29-.485.873l.12.122c.22.048-.023-.534.34-.485.05.024.098.194.025.485-.073.267-.243.388-.51.218-.242-.17-.388-.34-.364-.534l.025-.365c-.266.025-.315-.145-.34-.412 0-.05-.096-.025-.072-.097-.437-.073-.63.072-.752.388-.025.12-.122.024-.17-.097.024-.073-.146.024-.243-.024-.073 0-.05-.17-.12-.146-.05 0-.05.073-.147.073-.073-.024-.048-.194-.194-.05-.097.098-.12.098-.146-.047.025-.122.122-.364-.145-.025-.096.05-.12.05-.17-.072-.145-.413-.242-.437-.29-.073-.073.145-.146.17-.146-.05-.146-.63-.17-.63-.12-.023-.026.267-.1.243-.244-.073-.17-.51-.243.05-.364-.194-.17-.29-.05-.704-.34-.825l.17.85c0 .12-.194.145-.218-.05-.098-.557-.462-1.528-.39-1.213l.22 1.165c.024.097-.243.05-.292-.097l-.29-1.456c-.074-.413-.074.777.096 1.286 0 .073-.194.073-.17-.024 0-.122-.218-1.506-.29-1.433-.17.17.29 1.553-.074 1.335-.048-.024-.17-1.408-.218-1.432-.024 0 0 1.335-.05 1.31-.387-.485.026-1.795-.24-1.868-.05 0-.17 1.602-.22 1.553.17 1.238 1.165 1.286 1.092 1.65l-.703-.364c.193.365.484.754.678 1.166-.218.073.024.364.17.51-.218-.024-.17.12.243.51.098.072.122.145.098.218-.51-.12-.558-.12.267.534-.51-.073-.534-.024.048.364.097.073.22.218.243.364.024.097-.073.05-.12.05-.098-.05-.244-.147-.293-.17-.145-.026-.048.17.63.678.17.146.244.267.123.316-.825-.51-.777-.39.12.388.22.34.244.485.17.534-.727-.607-1.212-.995.05.267.218.217.266.363.097.387-1.262-.946-.583-.315.266.558.048.05 0 .122-.05.097-1.212-.897-1.26-.68.025.656.05.12.122.218.073.315-.024.05-.12 0-.17-.024-.874-.826-.8-.656.194.703.146.218.22.412-.024.29-1.092-1.237-1.432-1.504-.024.39.145.242.17.363-.025.29-.996-1.36-1.02-1.19-.05.267.074.17.074.195 0 .17-.897-1.092-1.164-1.36-.048.243.146.29.122.34-.024.194-1.092-1.36-1.116-1.19-.048.22.097.168.145.266-.025.193-1.262-1.432-1.262-1.384-.048.17.024.388.024.364-.22.17-.12-.146-.12-.267-.24-.39-.778-.945-.875-.873.047.34-.097.098-.218.098-.364-.023-.8-1.044-.873-1.044-.242-.05l-.437-.072c-.072-.145-.145-.218-.242-.315-.752-.728-1.02-.8-.267.145.025.025-.047.05-.023.073l-.85-.145c-.097 0-.218-.05-.315-.17-.364-.63-.583-.874-1.19-1.456.05.218.51.606.874 1.213.097.39-.34.22-.485.146-.266-.364-.363-.413-.75-.874-1.094-1.286-2.258-2.742-3.205-3.762zm2.937-10.193c.072.05.17.364.364.728.194.39.485.753.51.874-.583-.462-.9-1.093-.874-1.603zm-.364.39c.097.096.17.41.388.848.243.437.63.874.63 1.02-.63-.535-1.018-1.263-1.018-1.87zm-.34.435c.12.098.194.46.46.947.268.484.73.994.753 1.14-.75-.583-1.212-1.408-1.212-2.088zm-.29.437c.023.752.557 1.674 1.382 2.33-.024-.17-.582-.73-.874-1.287-.315-.534-.388-.922-.51-1.044zm-.268.46c.048.826.63 1.82 1.577 2.573-.048-.194-.68-.825-1.02-1.432-.34-.606-.436-1.018-.557-1.14zm-.243.462c.073.898.728 1.99 1.747 2.79-.048-.218-.776-.873-1.14-1.553-.39-.656-.462-1.093-.607-1.238zm-.243.46c.097.996.85 2.16 1.942 3.034-.05-.242-.85-.97-1.287-1.698-.39-.704-.486-1.165-.656-1.335zm-.194.462c.097 1.068.922 2.33 2.112 3.276-.073-.267-.947-1.043-1.408-1.82-.437-.777-.534-1.262-.704-1.456zm-.17.485c.097 1.14.995 2.5 2.282 3.518-.098-.29-1.044-1.14-1.554-1.99-.485-.825-.558-1.335-.728-1.53zm-.194.46c.17 1.214 1.19 2.767 2.548 3.86-.097-.316-1.213-1.312-1.747-2.21-.51-.897-.607-1.407-.8-1.65zm3.204-4.78c.072.023.17.29.267.557.097.243.242.51.242.583-.39-.316-.56-.777-.51-1.14zm6.334 6.406c-.267-.267-.437.05-.073.39.317.29.656.193.56.096l-.486-.486zm-1.966-3.01c-.05 0 .024.292.05.438 0 .145.047.242.144.364.097.12.146.145.122.097-.098-.267-.195-.51-.22-.728 0-.097-.047-.146-.096-.17zm-.34-.363c-.048 0 .025.34.025.51 0 .145.048.29.145.436.097.12.146.17.12.12-.096-.34-.193-.606-.193-.873-.024-.12-.072-.17-.097-.194zm-.364-.364c-.048-.025.025.363.025.557 0 .194.023.364.144.534.097.147.146.195.12.122-.07-.364-.193-.68-.193-.995 0-.145-.023-.194-.096-.218zm-.34-.365c-.048-.05 0 .412 0 .63-.024.22.025.39.122.608.12.17.17.218.145.145-.07-.437-.168-.8-.168-1.14 0-.17-.05-.22-.098-.243zm-.34-.39c-.048-.023 0 .487-.024.73-.024.242.025.436.122.655.097.218.17.267.145.194-.072-.485-.17-.898-.145-1.286 0-.17-.05-.243-.097-.292zm-.363-.363c-.048-.048 0 .51-.024.8-.024.244 0 .487.122.73.097.242.145.29.145.218-.072-.534-.17-.995-.145-1.432.024-.194-.024-.267-.097-.316zm-.315.025c-.024-.05-.024.412-.048.63-.025.22 0 .413.097.607.073.195.12.243.12.17-.047-.436-.12-.8-.096-1.14.024-.17-.024-.22-.073-.267zm-.267 0c-.048-.025-.048.34-.073.51-.024.145-.024.29.05.46.072.17.096.195.096.146-.023-.34-.072-.63-.023-.898.024-.12-.024-.17-.05-.218z" fill="#FFF"/><path d="M11.607 4.69c.728.898 1.407 1.747 2.184 2.766 0 .17-.072.267-.266.267-.8-1.14-1.408-2.062-2.014-2.936-.122-.17.024-.194.097-.097zm3.664 6.237c.074.194-.07.29-.217.097-.316-.364-.243-.825.097-1.238.364-.436.825-.436 1.238-.12.242.193.17.217-.122.217-.825 0-1.14.413-.995 1.044zm.85-.388c-.34-.123-.436.023-.363.387 4.854 6.844 12.207 16.843 20.87 28.638l-.047.17.728.412-.243-.97-.146.096c-6.675-9.32-14.416-20.29-20.8-28.734z" fill="#E2B700"/><path d="M27.89 12.335c0-.17.632-.607 1.457-1.165.365-.292.704-.39 1.02-.39.097.026.242.05.437.026.194.12.12.218-.097.267-.098-.073-.195-.097-.292-.05-.218.05-.242.195-.388.244l-.097-.146c-.29.195-.485.73-.704.996l-.048-.267c-.146.023-.243.34-.46.51.023-.195-.026-.292-.1-.292-.363.242-.63.364-.727.267zm-9.634 12.717c.22 0 .413.072.413.145 0 .097-.195.17-.414.17-.242 0-.436-.073-.436-.17 0-.073.194-.145.436-.145zm1.65-.34c.146-.218.316-.316.365-.267.05.073-.023.29-.145.485-.145.22-.315.34-.364.267-.047-.048.026-.267.147-.485zm-.533.29c.097-.17.218-.266.267-.217.048.048 0 .218-.097.388-.122.17-.243.267-.292.218-.047-.047 0-.217.123-.387zm-.486.098c.098-.145.194-.218.22-.194.047.05 0 .194-.074.34-.097.12-.194.194-.243.17-.024-.05 0-.194.097-.316zm-8.08-1.723l-.098.267c.12.024.217-.146.338-.218l-.097.436c.147.025.487-.34.73-.51l-.17.438c.218 0 .364-.316.534-.486l-.098.46c.267-.023.437-.363.656-.557l-.05.437c.195-.024.34-.29.535-.46l.097.314c.17.025.267-.218.413-.315l.073.29.364-.363.072.316.413-.146.12.17.34-.17-.024.364.46-.194.05.243.34-.195v.316l.388-.097.024.29.582-.242-.194.437.51-.315-.073.34.558-.243-.314.51c.364.024.485-.243.728-.365l-.17.46c.364-.072.68-.363.995-.752.072.122.023.316-.244.728.39-.17.583-.437.728-.728l-.12.51c.242-.024.484-.22.703-.558l-.025.485c.195-.146.34-.34.437-.582.242.097.51-.05.606-.437.146-.364.05-.486-.267-.364-1.045.728-2.428.922-4.466.315-1.31-.364-2.67-.412-4.03-.46-.606-.025-1.116.072-1.358.63zm3.08-5.218c.098-.17.292-.316.535-.462l.05.22.58-.196.05.195.63-.34c-.364.46-.436.655-.315.655.097 0 .558-.534.704-.388-.315.485-.024.34.51-.097.146.048-.194.388-.145.436.048.05.243-.097.63-.363.098-.073.316-.316.365-.195.024.146-.122.22-.194.316-.39.462-.292.39.388-.048.097-.048.243-.17.34-.12-.46.606-.267.484.412.072.097-.05.22-.22.34-.097-.85.752-.704.85.388.315-.51.583-.388.607.413.097.073-.025.17 0 .267-.05-.364.365-.413.632-.243.535.268-.122.608-.267.778-.22-.34.34-.316.487.12.414.147.047 0 .217-.436.508-.072.122-.145 0-.218-.29-.048.17-.12.17-.194.072l-.097.63-.146-.023v-.364c-.073-.097-.146-.097-.218 0l-.123.485-.218-.12c-.074.17-.17.34-.34.46-.147-.194-.244-.146-.292.024-.097.024-.146-.048-.243-.024-.073.218-.145.267-.267.12-.194.122-.364.244-.558.438l-.097-.243c-.17.243-.315.39-.413.34l-.17-.17-.266.437-.437.12c0 .123.17.123.46.074.39-.048 1.14-.218 1.627-.364.485-.145 1.02-.218 1.602-.46.46-.22.995-.608 1.53-.875.12.097.023.34-.996 1.14l-.486-.145.267.364c-.12.122-.217.17-.34.146l-.435-.218.145.46c-.315 0-.46-.388-.752-.218l.12.364-.654-.194.12.437-.557-.242-.12.243c-.17 0-.268.05-.293.122 1.287.22 2.694-.242 4.15-.946.073-.024.098.024.098.146-.122.582-.534 1.092-1.19 1.553l.195-.777c-.437.194-.923 1.14-1.287 1.262l.388-1.02-1.14.947c-.097-.12.048-.388.29-.728-.34 0-.92.8-1.018.752-.243-.122.194-.364.29-.534-.314-.025-.533.267-.8.412-.024-.145.146-.315.437-.582l-.946.437c0-.17.365-.316.437-.558-.436.29-.825.485-.922.46l.29-.46-.824.436.51-.534-.873.412.243-.46-.63.41.266-.508c-.316.267-.607.437-.777.437.17-.218.29-.388.266-.51-.29.244-.582.414-.704.414l.122-.413c-.243.244-.51.414-.8.51l.29-.485c.05-.073.024-.17-.073-.097l-.654.534c.146-.267.218-.437.12-.51l-.46.243.05-.267-.535.583c-.072-.024.025-.17.098-.436l-.558.364c.29-.583.776-.97 1.432-1.165.776-.243 1.383-.267 1.868-.34.85-.12 1.384-.194 2.063-.51.316-.12.68-.266 1.068-.582.195-.145.122-.193-.096-.17l-.874.05v-.39l-.34.462-.072-.46-.292.8-.12-.922-.22.995-.12-.97-.365 1.116-.096-1.164-.218 1.19-.22-1.215-.144 1.215-.243-1.14-.098 1.09-.315-1.115-.025 1.165-.364-1.117-.073.996-.242-.97-.097.873-.195-.8-.12.872c-.364-.68-.51-1.238-.267-1.554.364-.413.85-.51 1.335-.437zm2.768-2.646c.073 0 .145.097.194.267.047.17.047.316.023.316-.073.025-.145-.097-.194-.267-.05-.146-.05-.292-.025-.316zm-2.476-.29c.363-.56.654-.73.85-.293.24-.775.508-.848.848-.168.46 0 .558.703.485 1.747l-.436-1.166v.752c-.292-1.286-2.16-.533-1.748-.873zM22.236 11c.534.048 1.068.242 1.577.534.024.072.05.12-.048.072-.195-.145-.364-.218-.51-.218.05.218.024.316-.073.29-.194-.338-.364-.387-.51-.314-.048.024-.072.048-.12.024-.147-.315-.22-.315-.292-.194-.145-.12-.145-.194-.023-.194zm-2.743.145c-.12.073-.12.122-.024.146.17-.145.34-.17.558.05 0-.316.12-.292.388.097-.097-.39 0-.486.413.097 0-.316.023-.364.29.17.073.097.146.097.17.048-.145-.558-.073-.534.243.05.097.12.145.12.145.047-.024-.39.146-.316.51.218.097.12.146.17.17.048-.073-.315.073-.29.388.097.243-.024.583.17 1.02.558.048.074.097.098.145.074-.242-.437.05-.267.438 0 .243-.12.267-.194.12-.243-.824-.29-1.503-.605-1.99-.97-.557-.436-.8-.315-1.455-.727-.558-.243-1.068-.122-1.53.242zm-1.19.777c-.29.097-.29.218-.023.267.122.023.22.023.316 0 .17-.025.243 0 .316.145.12.242.267.34.388.266.073-.07-.46-.46-.194-.46h.145c.414.39.802.607.778.534l-.17-.436c-.048-.146.17-.073.267.024l.558.485c.073.097 0-.073-.097-.388-.048-.098.097-.098.194 0 .34.34.753.92.753.703v-.22c0-.096.12-.096.194 0 .194.244.46.462.437.365l-.05-.194c-.023-.12.074-.12.22 0l.582.486c.122.097.22.048.17-.025l-.097-.145c-.074-.122-.025-.146.12-.05l.51.365c.097.073.097-.024-.05-.243h.293c.048.17.17.22.46.34.074.05.098-.048.243-.097l.704-.218c.22-.073.194-.22 0-.17-1.02.267-2.087-.243-3.227-.874-1.505-.8-2.72-.8-3.738-.46zm10 .558c.048.05 0 .12-.073.22-.072.07-.17.096-.217.07-.025-.047 0-.144.072-.217.098-.073.17-.097.22-.073zm.776.194c-.17-.12-.242.17.05.073l.412-.364c.194-.34.072.097.194.073.145-.05.364-.485.315-.655l.34-.17c.195-.17.147-.242-.12-.218-.316.243-.63.51-.898.874l-.292.388z" fill="#0092D0"/></g></svg>