<svg width="200" height="32" viewBox="0 0 200 32" xmlns="http://www.w3.org/2000/svg"><title>RZD</title><g fill="none" fill-rule="evenodd"><path d="M50.478 3.004V4.16h9.897c.66 0 1.65 0 2.31.66.66.66.66 1.65.66 2.31v9.897c0 .66 0 1.65-.66 2.31-.66.66-1.65.66-2.31.66h-4.784c-.824 0-1.897 0-2.309-.908-.412-.907.165-1.732.66-2.392l6.433-8.578h-9.897l-3.96 5.279c-.663.884-1.237 1.65-1.237 2.64 0 .989.535 1.702 1.238 2.638l.99 1.32c.989 1.32 1.979 2.64 3.299 3.3 1.32.66 2.886.66 5.03.66h4.29c2.474 0 6.186 0 8.66-2.475 2.475-2.475 2.475-6.104 2.475-7.423v-3.96c0-1.319 0-4.948-2.475-7.423C66.314.2 62.602.203 60.128.202L53.282.2c-.66 0-1.485 0-2.145.66-.66.66-.66 1.485-.66 2.144" fill="#C4151C"/><path d="M38.6 8.118h9.898L36.621 23.954h-9.897L38.6 8.118M0 10.922c0-.66 0-1.484.66-2.144.66-.66 1.484-.66 2.144-.66h16.579c2.144 0 3.711 0 5.031.66 1.32.66 2.31 1.98 3.3 3.3l.989 1.319c.703.937 1.237 1.65 1.237 2.64 0 .989-.574 1.754-1.237 2.638l-3.959 5.279h-9.898l6.434-8.578c.495-.66 1.072-1.485.66-2.392-.413-.907-1.485-.907-2.31-.907h-7.753v19.795H3.96V12.077H0v-1.155" fill="#C4151C"/><path d="M80.667 21.104c-.594.808-1.2 1.603-1.794 2.399v.451h1.675c.82-1.092 1.247-1.662 1.247-2.316h1.64v2.316h1.567v-2.316h1.639c0 .653.428 1.224 1.247 2.316h1.675v-.451l-1.806-2.4c1.52-1.14 1.52-1.14 1.52-2.636v-.499h-1.71v.499c0 1.817 0 1.817-1.781 1.817h-.784v-2.316h-1.568v2.316h-.784c-1.781 0-1.781 0-1.781-1.817v-.499h-1.71v.499c0 1.496 0 1.496 1.508 2.637M92.532 20.427c0-1.319 0-1.319 1.46-1.319 1.462 0 1.462 0 1.462 1.319h-2.922zm0 1.069h1.46c1.533-.012 1.984.012 2.495-.107l.606-.143v-.581c0-.986 0-2.84-2.815-2.84h-.57c-2.815 0-2.815 1.854-2.815 2.851v.57c0 1.07.024 2.851 3.124 2.851.463 0 1.508 0 2.648-.285v-1.283h-.32l-1.14.285h-1.212c-1.461 0-1.461 0-1.461-1.318zM99.741 17.968c0 .903-.07 3.623-1.496 5.523v.463h1.746c1.033-1.378 1.033-3.171 1.033-4.668h2.459v4.668h1.567v-5.986h-5.309M108.66 20.427c0-1.319 0-1.319 1.462-1.319 1.46 0 1.46 0 1.46 1.319h-2.921zm0 1.069h1.462c1.532-.012 1.983.012 2.494-.107l.606-.143v-.581c0-.986 0-2.84-2.815-2.84h-.57c-2.815 0-2.815 1.854-2.815 2.851v.57c0 1.07.024 2.851 3.123 2.851.464 0 1.509 0 2.65-.285v-1.283h-.322l-1.14.285h-1.211c-1.461 0-1.461 0-1.461-1.318zM118.982 21.056v-.178c1.211-.309 1.211-1.057 1.211-1.342 0-.57 0-1.71-2.886-1.71-.428 0-1.425 0-2.565.285v1.282h.32l1.14-.285h1.319c.914 0 .962 0 .962.665 0 .654 0 .654-.962.654h-1.319v1.069h1.319c.914 0 .962 0 .962.653 0 .665 0 .665-.962.665h-1.319l-1.14-.285h-.32v1.283c1.14.285 2.137.285 2.565.285 2.874 0 2.886-1.14 2.886-1.71 0-.285 0-1.034-1.211-1.33M126.714 17.968v2.316h-3.136v-2.316h-1.568v5.986h1.568v-2.316h3.136v2.316h1.567v-5.986h-1.567M133.234 20.961c1.247 0 1.247 0 1.247.927 0 .926 0 .926-1.247.926h-1.247v-1.853h1.247zm5.594-2.993h-1.567v5.986h1.567v-5.986zm-5.38 5.986c1.888 0 2.672-.416 2.672-2.03 0-.892 0-2.174-2.458-2.174-.356 0-.963.036-1.675.214v-1.996h-1.568v5.986h3.029zM142.367 20.427c0-1.319 0-1.319 1.461-1.319s1.461 0 1.461 1.319h-2.922zm0 1.069h1.461c1.532-.012 1.984.012 2.495-.107l.605-.143v-.581c0-.986 0-2.84-2.815-2.84h-.57c-2.815 0-2.815 1.854-2.815 2.851v.57c0 1.07.024 2.851 3.124 2.851.463 0 1.508 0 2.649-.285v-1.283h-.321l-1.14.285h-1.212c-1.46 0-1.46 0-1.46-1.318zM153.46 20.747c0-1.603 0-1.567 2.126-1.567.285 0 .677.035 1.152.142v2.566l-1.52.38c-1.758 0-1.758 0-1.758-1.52zm-.926 4.134v1.354c1.14.285 2.067.285 2.423.285 3.23 0 3.337-1.402 3.35-2.993v-5.559h-.512l-.76.57c-.522-.677-1.793-.7-2.197-.7-3.017 0-3.017 1.9-3.017 2.767v.285c0 .998 0 2.637 2.566 2.637.772 0 1.686-.214 2.351-.713v.499c0 1.841-.035 1.853-1.924 1.853h-.82l-1.14-.285h-.32zM163.069 17.826c-3.029 0-3.029 1.781-3.029 2.85v.57c0 1.07 0 2.85 3.029 2.85h.57c3.029 0 3.029-1.78 3.029-2.85v-.57c0-1.069 0-2.85-3.029-2.85h-.57zm.285 1.318c1.675 0 1.675 0 1.675 1.817 0 1.818 0 1.818-1.675 1.818s-1.675 0-1.675-1.818c0-1.817 0-1.817 1.675-1.817zM173.248 20.961c0 1.782 0 1.782-1.746 1.782-.428 0-.974 0-1.533-.143v-2.993l1.521-.38c1.758 0 1.758.024 1.758 1.734zm-4.846-2.993v8.41h1.567v-2.602c.713.178 1.283.32 2.138.32 2.78 0 2.78-2.03 2.78-2.85v-.57c0-.997 0-2.85-2.601-2.85-1.33 0-2.103.582-2.53.902l-.57-.76h-.784zM179.602 17.826c-3.03 0-3.03 1.781-3.03 2.85v.57c0 1.07 0 2.85 3.03 2.85h.57c3.029 0 3.029-1.78 3.029-2.85v-.57c0-1.069 0-2.85-3.03-2.85h-.57zm.285 1.318c1.674 0 1.674 0 1.674 1.817 0 1.818 0 1.818-1.674 1.818-1.675 0-1.675 0-1.675-1.818 0-1.817 0-1.817 1.675-1.817zM187.725 17.826c-.57 0-1.318 0-2.458.285v1.282h.32l1.14-.285h1.461c.784 0 .784 0 .784.452 0 .309 0 .404-.605.51l-1.426.357c-.82.202-1.96.51-1.96 1.746 0 .82 0 1.924 2.887 1.924.57 0 1.318 0 2.458-.285v-1.283h-.32c-.475.13-.927.237-1.105.285h-1.496c-.784 0-.784 0-.784-.451 0-.273 0-.333.332-.428l.796-.214.903-.225c.82-.202 1.96-.499 1.96-1.746 0-.82 0-1.924-2.887-1.924M197.94 24.12l1.163-.866c-.427-.57-.427-.57-.427-1.58v-3.706h-1.568v4.347l-1.52.38c-1.616 0-1.616 0-1.616-1.65v-3.077h-1.568v3.314c0 1.176 0 2.815 2.388 2.815 1.247 0 2.019-.582 2.446-.903l.701.927M79.18 3.668v8.41h1.71V9.76h1.355c2.316 0 4.133 0 4.133-3.04 0-3.053-1.817-3.053-4.133-3.053H79.18zm1.71 4.597v-3.1h2.067c1.533 0 1.604 0 1.604 1.555 0 1.509 0 1.545-1.604 1.545h-2.066zM90.713 5.948c-3.029 0-3.029 1.782-3.029 2.851v.57c0 1.07 0 2.85 3.03 2.85h.57c3.028 0 3.028-1.78 3.028-2.85V8.8c0-1.069 0-2.85-3.029-2.85h-.57zm.285 1.319c1.675 0 1.675 0 1.675 1.817s0 1.817-1.675 1.817-1.675 0-1.675-1.817 0-1.817 1.675-1.817zM98.98 12.22c.427 0 1.532 0 2.672-.285v-1.283h-.321l-1.152.285h-.677c-1.984 0-1.984 0-1.984-1.853s0-1.853 1.461-1.853c1.236 0 1.236 0 1.533 1.176l1.425-.356c0-.57 0-2.102-2.673-2.102h-.57c-2.815 0-2.815 1.781-2.815 2.85v.57c0 1.07 0 2.85 3.1 2.85M106.51 12.22c.427 0 1.532 0 2.672-.285v-1.283h-.321l-1.152.285h-.677c-1.984 0-1.984 0-1.984-1.853s0-1.853 1.461-1.853c1.236 0 1.236 0 1.533 1.176l1.425-.356c0-.57 0-2.102-2.673-2.102h-.57c-2.815 0-2.815 1.781-2.815 2.85v.57c0 1.07 0 2.85 3.1 2.85M116.605 12.244l1.164-.868c-.428-.57-.428-.57-.428-1.58V6.092h-1.568v4.347l-1.52.38c-1.616 0-1.616 0-1.616-1.651V6.091h-1.567v3.314c0 1.175 0 2.814 2.387 2.814 1.247 0 2.02-.581 2.447-.902l.7.927M122.116 3.953c-.772 0-.772 0-1.152-.428l-.69.535c.749.962 1.13 1.034 2.222 1.034h.261c1.08 0 1.473-.072 2.21-1.034l-.69-.535c-.368.428-.368.428-1.152.428h-1.01zm2.898 8.29l1.163-.867c-.427-.57-.427-.57-.427-1.58V6.092h-1.568v4.347l-1.52.38c-1.58 0-1.616 0-1.616-1.651V6.091h-1.567v3.314c0 1.175 0 2.814 2.387 2.814 1.247 0 2.02-.581 2.447-.902l.7.927zM130.857 12.22c.428 0 1.532 0 2.672-.285v-1.283h-.32l-1.153.285h-.677c-1.983 0-1.983 0-1.983-1.853s0-1.853 1.46-1.853c1.236 0 1.236 0 1.533 1.176l1.425-.356c0-.57 0-2.102-2.672-2.102h-.57c-2.815 0-2.815 1.781-2.815 2.85v.57c0 1.07 0 2.85 3.1 2.85M135.572 6.091v5.986h1.568V9.761h1.924c0 .653.428 1.223 1.247 2.316h1.675v-.451l-1.805-2.4c1.52-1.14 1.52-1.14 1.52-2.636V6.09h-1.71v.499c0 1.817 0 1.817-1.782 1.817h-1.069V6.091h-1.568M149.1 12.244l1.164-.868c-.428-.57-.428-.57-.428-1.58V6.092h-1.567v4.347l-1.52.38c-1.616 0-1.616 0-1.616-1.651V6.091h-1.568v3.314c0 1.175 0 2.814 2.387 2.814 1.248 0 2.02-.581 2.447-.902l.701.927M153.364 8.55c0-1.319 0-1.319 1.46-1.319 1.462 0 1.462 0 1.462 1.319h-2.922zm0 1.069h1.46c1.533-.012 1.984.012 2.495-.107l.606-.143v-.581c0-.987 0-2.84-2.815-2.84h-.57c-2.815 0-2.815 1.854-2.815 2.851v.57c0 1.07.024 2.851 3.123 2.851.463 0 1.509 0 2.65-.285v-1.283h-.322l-1.14.285h-1.211c-1.461 0-1.461 0-1.461-1.318z" fill="#231F20"/></g></svg>