<svg width="193" height="55" viewBox="0 0 193 55" xmlns="http://www.w3.org/2000/svg"><title>Aeroflot_Logo_en</title><defs><linearGradient x1="25.508%" y1="-3.83%" x2="69.499%" y2="92.844%" id="a"><stop stop-color="#C4161C" offset=".56%"/><stop stop-color="#C93627" offset="30%"/><stop stop-color="#EBB39E" offset="50%"/><stop stop-color="#C93627" offset="71.91%"/><stop stop-color="#C4161C" offset="100%"/></linearGradient><linearGradient x1="18.878%" y1="16.251%" x2="92.402%" y2="95.981%" id="b"><stop stop-color="#FFF" offset="0%"/><stop stop-color="#FFF" offset="34.27%"/><stop stop-color="#FFF" offset="55%"/><stop stop-color="#C2CAE3" offset="91.01%"/></linearGradient><linearGradient x1="36.366%" y1="27.417%" x2="65.807%" y2="76.189%" id="c"><stop stop-color="#00529B" offset="10.67%"/><stop stop-color="#778EC1" offset="50%"/><stop stop-color="#728ABF" offset="51.96%"/><stop stop-color="#3C69AA" offset="72.83%"/><stop stop-color="#00589F" offset="88.11%"/><stop stop-color="#00529B" offset="96.07%"/></linearGradient><linearGradient x1="8.478%" y1="-1.991%" x2="87.993%" y2="65.956%" id="d"><stop stop-color="#C4161C" offset=".56%"/><stop stop-color="#C93627" offset="49.44%"/><stop stop-color="#EBB39E" offset="100%"/></linearGradient><linearGradient x1="18.33%" y1=".313%" x2="80.078%" y2="97.189%" id="e"><stop stop-color="#C2CAE3" offset="7.3%"/><stop stop-color="#00529B" offset="50%"/><stop stop-color="#00559E" offset="54.5%"/><stop stop-color="#1F5FA4" offset="61.55%"/><stop stop-color="#486FAE" offset="70.25%"/><stop stop-color="#738BBF" offset="80.28%"/><stop stop-color="#ABB7D9" offset="91.29%"/><stop stop-color="#C2CAE3" offset="94.94%"/></linearGradient><linearGradient x1="17.889%" y1="-5.861%" x2="78.739%" y2="99.991%" id="f"><stop stop-color="#EBB39E" offset="5.62%"/><stop stop-color="#C93627" offset="32.78%"/><stop stop-color="#C4161C" offset="51.69%"/><stop stop-color="#C93627" offset="74.72%"/><stop stop-color="#EBB39E" offset="96.07%"/></linearGradient><linearGradient x1="18.581%" y1="2.282%" x2="81.899%" y2="98.45%" id="g"><stop stop-color="#FFF" offset="0%"/><stop stop-color="#FFF" offset="30%"/><stop stop-color="#D4D9EC" offset="50.56%"/><stop stop-color="#FFF" offset="70%"/><stop stop-color="#FFF" offset="100%"/></linearGradient></defs><g fill="none" fill-rule="evenodd"><path d="M7.554 38.517l-1.492-.652 6.19-.755c.11.179.217.337.342.504l-5.04.903zm16.616 0l1.494-.692-6.156-.734c-.054.198-.217.356-.328.523l4.99.903zm-.898.104l-1.876.628-2.666-.809-.23-.072c.088-.07.16-.14.23-.235.113-.088.203-.216.308-.308l4.234.796zm4.95-1.746l-1.714.794-6.839-.794c.056-.16.11-.323.16-.488l8.392.488zm.61-.237l2.234-1.418H18.97c0 .505-.074.939-.24 1.312-.463 1.205-1.633 1.783-2.804 1.766-1.15-.034-2.322-.628-2.844-1.728a3.134 3.134 0 0 1-.288-1.35H.659l2.214 1.418 9.271-.48c.18.662.508 1.24.938 1.666a3.963 3.963 0 0 0 2.844 1.207c1.028.022 2.07-.355 2.804-1.185.399-.43.705-.99.886-1.66l9.217.452zM18.73 40.314l.24.433-.24.11-.627.288-.719-1.425c-.45.159-.95.249-1.458.268a4.672 4.672 0 0 1-1.587-.215l-.608 1.372c-.2.015-.47 0-.649-.13a.47.47 0 0 1-.218-.267l.218-.363.522-.935c-.164-.11-.306-.182-.453-.325l.433-.522c.741.451 1.55.7 2.343.7.793.02 1.581-.233 2.32-.755l.483.144.203.074c-.072.053-.128.103-.203.16-.141.144-.266.287-.498.414l.498.974zm0-7.366c.47.557.815 1.245.995 2.036h-.773a4.189 4.189 0 0 0-.222-.684c-.516-1.367-1.58-2.34-2.804-3.15-.162-.092-.307-.198-.469-.288.162.055.307.107.47.162 1.113.45 2.103 1.063 2.803 1.924zm-2.087 5.08c.203-.036.506-.146.741-.326l-1.227-2.43 1.279-.61-1.077-.935-.433.196-1.856.844.545 1.224.879-.393 1.149 2.43zm-3.345.34c-.073-.053-.147-.123-.216-.18a2.07 2.07 0 0 1-.357-.378l-4.232.798 1.801.605 3.004-.845zm-1.154-1.493c-.071-.16-.123-.323-.18-.488l-8.46.488 1.71.827 6.93-.827z" fill="#00529B"/><path d="M65.31 50.75c2.79.44 8.137 1.13 14.684 1.274 6.535.165 14.216-.217 21.476-1.302 7.259-1.053 14.063-2.823 18.895-4.732 4.869-1.834 7.591-4.07 7.579-4.078.026.014-2.811 2.599-7.968 4.818-5.104 2.304-12.311 4.513-19.9 5.94-7.58 1.468-15.532 2.138-22 2.177-6.466.075-11.49-.508-13.251-.784-6.084-.906-10.504-2.507-13.202-4.048-2.722-1.552-3.63-2.955-3.346-3.227.301-.324 1.657.331 4.403 1.18 2.749.861 6.933 1.936 12.63 2.782z" fill="#F47920"/><path d="M181.543 4.788l-1.037.131-.664.064c-1.247.108-3.128.268-4.788 1.325-1.646 1.051-3.533 3.246-4.852 4.934-14.297 2.394-22.136 10.865-27.323 16.478l-3.251 3.795.545-.17c9.743-8.99 18.433-13.798 26.57-14.697l.12-.013 1.084-1.414 2.28-2.99c.937-.845 2.235-1.144 4.144-1.362l3.333-.213 3.945-.276c2.253-.302 4.189-.821 6.845-4.47l3.618-4.884-.425-.367c-3.319 3.288-6.944 3.735-10.144 4.129zm.068.558c2.773-.34 5.849-.834 8.817-2.993-1.07 1.447-2.388 3.225-2.388 3.225-2.531 3.476-4.276 3.952-6.466 4.244 0 .002-3.893.272-3.893.272l-3.373.218c-1.424.16-2.46.464-3.371.917 1.268-1.596 2.95-3.507 4.423-4.446 1.54-.985 3.339-1.136 4.53-1.24l.692-.068 1.03-.13zm-11.848 6.571c-.256.33-2.263 2.962-2.263 2.962l-.945 1.234c-6.951.8-14.29 4.419-22.304 10.963 5.064-5.439 12.57-12.817 25.512-15.159zm10.818-6.442h.005-.005z" fill="#000"/><path d="M2.734 31.064c10.34-7.557 15.898-10.557 28.18-10.667l-2.646 3.569c-.498 1.059-1.27 1.01-2.084.962-8.78-.07-14.914.585-25.58 8.33l2.13-2.194z" fill="url(#a)" transform="translate(137.255 .086)"/><path d="M2.728 31.052c10.404-9.6 19.09-13.925 26.73-14.769.675-.894 3.008-3.891 3.715-4.89C15.762 14.238 8.065 26.02 2.728 31.054z" fill="url(#b)" transform="translate(137.255 .086)"/><path d="M3.262 30.503c-.206.198-.924.972-1.13 1.156 6.105-4.502 11.22-9.19 23.955-10.922.634-.719 2.487-3.155 3.36-4.454-11.61 1.578-19.204 8.06-26.185 14.22z" fill="url(#c)" transform="translate(137.255 .086)"/><path d="M28.038 24.378c.112-.394.386-.686-.905-1.447-1.519-.895-2.044-.518-1.708-1.428.25-.69 3.512-2.065 5.892-1.259 0 .001-2.111 2.448-3.28 4.134z" fill="url(#d)" transform="translate(137.255 .086)"/><path d="M37.184 10.27c-2.382.319-3.884.912-4.838 2.115l-3.325 4.454c.725-.648 2.917-.967 5.291-1.029l.333.007c.099-.007.201 0 .302-.007.335-.008.69-.024 1.061-.033 3.368-.132 8.044-.607 10.774-3.788l4.091-5.657.49-.673c-3.553 4.68-11.66 4.275-14.179 4.61z" fill="url(#e)" transform="translate(137.255 .086)"/><path d="M39.16 15.22c-2.556.357-5.478.463-6.316.505-1.431.064-3.334.52-3.86 1.159-1.605 1.994-3.142 3.854-3.558 4.62.98-.907 4.206-.808 8.12-.988 3.91-.179 7.872-1.87 10.996-5.43l2.373-3.281c-1.589 2.038-4.388 2.944-7.756 3.414z" fill="url(#f)" transform="translate(137.255 .086)"/><path d="M43.29 5.11c-1.041.14-3.387.103-5.338 1.35-1.955 1.246-4.308 4.204-5.465 5.76 1.075-1.15 2.503-1.477 4.598-1.714 2.095-.242 5.12-.2 7.272-.491 2.066-.275 3.987-.69 6.655-4.356L54.631.774C50.88 4.49 46.783 4.644 43.289 5.11z" fill="url(#g)" transform="translate(137.255 .086)"/><g fill="#00529B"><path d="M26.868 23.274v-3.737h7.04v-1.962h-7.04v-3.402h7.42V12.21H21.651v13.05h13.048v-1.985h-7.83zM42.332 25.259V14.173h3.066c.933 0 1.796.07 2.583.596.572.407.932.987.932 1.706 0 .6-.213 1.218-1.003 1.72-1.03.67-2.823.762-3.949.626l-.645-.077 5.196 6.515h6.029l-4.932-5.437c.884-.097 2.3-.448 3.16-1 1.028-.698 1.554-1.727 1.554-2.687 0-1.075-.577-2.244-1.888-3.014-1.56-.884-3.687-.91-5.65-.91h-9.693v13.048h5.24zM84.46 17.788v-3.615h7.613V12.21H79.247v13.05h5.214v-5.507h7.038v-1.964H84.46zM93.965 12.21v13.049h12.928v-1.985h-7.685V12.209h-5.243zM144.927 12.21h-16.49v1.963h5.624V25.26h5.244V14.173h5.622V12.21zM117.33 11.83c-2.442 0-5.865.552-8.164 2.198-1.823 1.293-2.68 3.142-2.68 4.716 0 1.559.858 3.404 2.68 4.696 2.299 1.624 5.722 2.176 8.164 2.176 2.439 0 5.887-.552 8.183-2.176 1.822-1.292 2.661-3.137 2.661-4.696 0-1.574-.84-3.423-2.66-4.716-2.297-1.646-5.745-2.174-8.184-2.198zm0 12.208c-1.295 0-2.826-.288-3.954-1.702-.933-1.148-1.1-2.467-1.1-3.592 0-1.17.167-2.465 1.1-3.613 1.128-1.44 2.66-1.724 3.954-1.724 1.313 0 2.826.284 3.968 1.724.937 1.148 1.106 2.443 1.106 3.613 0 1.125-.17 2.444-1.106 3.592-1.142 1.415-2.655 1.702-3.968 1.702zM66.594 11.83c-2.44 0-5.862.552-8.159 2.198-1.823 1.293-2.685 3.142-2.685 4.716 0 1.559.862 3.404 2.685 4.696 2.297 1.624 5.72 2.176 8.159 2.176 2.439 0 5.89-.552 8.188-2.176 1.817-1.292 2.657-3.137 2.657-4.696 0-1.574-.84-3.423-2.657-4.716-2.299-1.646-5.75-2.174-8.188-2.198zm0 12.208c-1.293 0-2.826-.288-3.95-1.702-.932-1.148-1.101-2.467-1.101-3.592 0-1.17.169-2.465 1.102-3.613 1.123-1.44 2.656-1.724 3.949-1.724 1.314 0 2.825.284 3.973 1.724.934 1.148 1.101 2.443 1.101 3.613 0 1.125-.167 2.444-1.101 3.592-1.148 1.415-2.66 1.702-3.973 1.702zM3.266 25.259l2.06-3.789h7.256l2.224 3.789h5.863l-7.944-13.05H7.864L.659 25.26h2.607zm3.017-5.557l2.467-4.546h.072l2.68 4.546h-5.22z"/></g><g fill="#00529B"><path d="M55.57 35.715L54.41 40c-.144.171-.367.315-.57.422-.312.17-.623.26-.908.26-.285 0-.537-.114-.653-.289-.085-.143-.168-.367-.056-.767l1.051-3.911h-1.08l-1.018 3.77c-.086.344-.228.937.082 1.392.173.255.544.54 1.304.54.315 0 .628-.055 1.027-.226.253-.148.534-.315.764-.486l-.168.598h.962l1.51-5.588H55.57zM62.478 36.36a1.997 1.997 0 0 0-.628-.538c-.36-.193-.763-.226-1.108-.226-.367 0-.823.033-1.33.34-.37.26-.823.654-.99 1.309-.152.48-.09.848.082 1.077.197.257.538.396.826.48l.536.175c.28.057.567.057.735.279.086.117.176.26.117.542a1.161 1.161 0 0 1-.398.538c-.197.173-.54.318-1.021.318-.311 0-.568-.064-.822-.206-.226-.168-.398-.31-.485-.449l-.713.655c.514.673 1.142.763 1.763.763.423 0 1.278-.055 1.989-.596.394-.338.68-.77.796-1.137.056-.288.112-.707-.028-.968-.202-.395-.655-.564-.911-.623l-.398-.115c-.507-.115-.736-.17-.85-.312-.111-.081-.2-.253-.111-.594.051-.14.17-.37.392-.54.284-.172.545-.199.741-.199.255 0 .482.06.682.199.171.112.31.257.425.4l.71-.572zM68.3 36.36a1.526 1.526 0 0 0-.624-.538c-.338-.193-.74-.226-1.078-.226-.392 0-.823.033-1.334.34-.37.26-.824.654-1.023 1.309-.108.48-.056.848.115 1.077.198.257.571.396.822.48l.51.175c.284.057.571.057.768.279.085.117.17.26.085.542-.085.255-.253.424-.37.538-.2.173-.538.318-1.022.318-.312 0-.565-.064-.85-.206-.23-.168-.37-.31-.483-.449l-.71.655c.546.673 1.167.763 1.788.763.429 0 1.276-.055 1.99-.596.396-.338.68-.77.765-1.137.086-.288.112-.707-.028-.968-.17-.395-.626-.564-.906-.623l-.4-.115c-.485-.115-.705-.17-.825-.312-.11-.081-.194-.253-.11-.594.056-.14.141-.37.397-.54.258-.172.538-.199.708-.199.287 0 .511.06.712.199.172.112.31.257.425.4l.678-.572zM70.381 35.715l-.2.734h.652l-1.3 4.854h1.074l1.503-5.588h-1.729zm.683-1.846c-.09.394.142.707.514.707.395 0 .76-.313.875-.707.11-.373-.114-.683-.512-.683-.363 0-.762.31-.877.683zM80.925 41.303l1.195-4.4c.375-.314.94-.569 1.45-.569.369 0 .571.141.652.31.172.26.087.682.027.854l-1.02 3.805h1.08l1.02-3.718c.117-.457.17-.996-.084-1.449-.23-.367-.65-.54-1.25-.54-.365 0-.99.086-1.676.54l.116-.422H80.7l-.195.734h.652l-1.305 4.854h1.073v.001zM45.42 33.244l-2.183 8.059h1.217l.944-3.544h.817l1.139 3.544H48.825l-1.303-3.606c.598-.061 1.394-.341 1.873-.71.536-.398.94-.965 1.075-1.561.172-.572.093-1.163-.247-1.557-.457-.57-1.366-.625-2.02-.625H45.42zm2.02 3.598H45.65l.711-2.664h1.619c.172 0 .706 0 .992.284.168.171.312.454.194.908a2.012 2.012 0 0 1-.678 1.051c-.369.28-.768.397-1.05.421zM75.672 38.038c-1.134.114-2.074.568-2.384 1.735-.03.136-.058.253-.058.365v.198c.029.626.453 1.082 1.39 1.082.339 0 .68-.055 1.052-.205.03 0 .058-.021.111-.05.371-.172.65-.457.74-.54h.056l-.194.68h.964l.992-3.605c.144-.57.281-1.137-.031-1.56-.257-.399-.907-.542-1.415-.542-.487 0-.912.06-1.224.143-.99.253-1.363.851-1.392 1.39l.997.057c.08-.282.198-.484.395-.625.229-.167.57-.226.995-.226.23 0 .51.026.623.226.173.2.114.484.059.742l-.2.707h-.796c-.229 0-.48 0-.68.028zm0 2.553c-.17.064-.34.09-.513.09-.222 0-.508-.026-.677-.26-.142-.2-.173-.396-.086-.681.056-.224.168-.454.452-.679.17-.115.398-.258.824-.31.14-.034.311-.06.514-.06h.795l-.314 1.19c-.172.228-.341.37-.543.511-.167.091-.312.175-.452.199zM101.597 35.715l-.196.734h.653l-1.31 4.854h1.08l1.503-5.588h-1.73zm.999-1.846c-.089.394.138.707.511.707.365 0 .763-.313.876-.707.116-.373-.113-.683-.511-.683-.365 0-.771.31-.876.683zM105.714 35.715l-1.502 5.588h1.08l.852-3.21c.14-.367.28-.736.482-1.02.34-.54.733-.624.965-.624.142 0 .308.026.425.14.08.088.113.253.113.455l.966-.284c.194-.565 0-.881-.339-1.046a1.302 1.302 0 0 0-.571-.12c-.625 0-1.245.342-1.676.938l.226-.818h-1.02zM111.681 33.129l-1.786 6.644c-.138.507-.398 1.53.883 1.53h.622l.197-.736h-.308c-.538 0-.4-.458-.374-.567l1.848-6.871h-1.082zM114.6 35.715l-.19.734h.654l-1.34 4.854h1.108l1.506-5.588H114.6zm.996-1.846c-.087.394.142.707.511.707.4 0 .769-.313.88-.707.085-.373-.143-.683-.508-.683-.4 0-.767.31-.883.683zM118.568 41.303l1.162-4.4c.397-.314.966-.569 1.474-.569.37 0 .572.141.655.31.198.26.057.682.029.854l-1.02 3.805h1.075l1.022-3.718c.114-.457.172-.996-.085-1.449-.222-.367-.653-.54-1.245-.54-.4 0-.968.086-1.676.54l.113-.422h-1.73l-.201.734h.651l-1.302 4.855h1.078zM135.232 36.36c-.225-.338-.508-.507-.598-.538-.368-.193-.731-.226-1.075-.226-.404 0-.825.033-1.332.34-.399.26-.854.654-1.023 1.309-.149.48-.058.848.11 1.077.172.257.541.396.797.48l.54.175c.28.057.57.057.731.279.12.117.177.26.12.542a1.123 1.123 0 0 1-.398.538c-.173.173-.512.318-1.021.318a1.68 1.68 0 0 1-.828-.206c-.224-.168-.392-.31-.48-.449l-.709.655c.51.673 1.138.763 1.761.763.454 0 1.277-.055 1.987-.596.4-.338.677-.77.795-1.137.085-.288.115-.707-.023-.968-.175-.395-.661-.564-.91-.623l-.403-.115c-.475-.115-.708-.17-.848-.312-.09-.081-.198-.253-.115-.594.057-.14.137-.37.399-.54.28-.172.564-.199.738-.199.282 0 .478.06.704.199.146.112.285.257.4.4l.681-.572zM92.019 41.303h1.22l1.221-1.961h3.092l.143 1.961h1.391l-.764-8.06h-.995l-5.308 8.06zm3.009-2.895l2.184-3.434h.027l.26 3.434h-2.471zM125.73 38.75h3.372l.09-.369c.225-.745.45-1.509.057-2.13-.342-.536-1.023-.655-1.508-.655-.719 0-1.408.257-1.956.738-.742.653-1.047 1.53-1.22 2.272-.17.597-.343 1.503.111 2.158.425.563 1.197.653 1.732.653.435 0 .837-.062 1.254-.205.223-.081.506-.196.76-.337l-.165-.654c-.26.114-.456.2-.742.261-.265.048-.514.107-.797.107-.422 0-.794-.143-.989-.393-.315-.37-.17-.942-.083-1.22l.084-.225zm.168-.74l.056-.25c.117-.29.257-.744.622-1.058.24-.233.608-.368.94-.368.286 0 .565.086.71.256.252.343.139.824.032 1.194l-.062.226h-2.298z"/></g></g></svg>