<?xml version="1.0" encoding="UTF-8" standalone="no"?>
<svg width="193px" height="55px" viewBox="0 0 193 55" version="1.1" xmlns="http://www.w3.org/2000/svg" xmlns:xlink="http://www.w3.org/1999/xlink" xmlns:sketch="http://www.bohemiancoding.com/sketch/ns">
    <!-- Generator: Sketch Beta 3.4 (15460) - http://www.bohemiancoding.com/sketch -->
    <title>Aeroflot_Logo_en</title>
    <desc>Created with Sketch Beta.</desc>
    <defs>
        <linearGradient x1="25.5080172%" y1="-3.82982584%" x2="69.4988445%" y2="92.8438142%" id="linearGradient-1">
            <stop stop-color="#C4161C" offset="0.56%"></stop>
            <stop stop-color="#C93627" offset="30%"></stop>
            <stop stop-color="#EBB39E" offset="50%"></stop>
            <stop stop-color="#C93627" offset="71.91%"></stop>
            <stop stop-color="#C4161C" offset="100%"></stop>
        </linearGradient>
        <linearGradient x1="18.8784259%" y1="16.2505453%" x2="92.4024132%" y2="95.981372%" id="linearGradient-2">
            <stop stop-color="#FFFFFF" offset="0%"></stop>
            <stop stop-color="#FFFFFF" offset="34.27%"></stop>
            <stop stop-color="#FFFFFF" offset="55%"></stop>
            <stop stop-color="#C2CAE3" offset="91.01%"></stop>
        </linearGradient>
        <linearGradient x1="36.3661084%" y1="27.4168062%" x2="65.807255%" y2="76.1886593%" id="linearGradient-3">
            <stop stop-color="#00529B" offset="10.67%"></stop>
            <stop stop-color="#778EC1" offset="50%"></stop>
            <stop stop-color="#728ABF" offset="51.96%"></stop>
            <stop stop-color="#3C69AA" offset="72.83%"></stop>
            <stop stop-color="#00589F" offset="88.11%"></stop>
            <stop stop-color="#00529B" offset="96.07%"></stop>
        </linearGradient>
        <linearGradient x1="8.47806326%" y1="-1.99109047%" x2="87.9929848%" y2="65.955632%" id="linearGradient-4">
            <stop stop-color="#C4161C" offset="0.56%"></stop>
            <stop stop-color="#C93627" offset="49.44%"></stop>
            <stop stop-color="#EBB39E" offset="100%"></stop>
        </linearGradient>
        <linearGradient x1="18.3300379%" y1="0.313300177%" x2="80.07817%" y2="97.1889968%" id="linearGradient-5">
            <stop stop-color="#C2CAE3" offset="7.3%"></stop>
            <stop stop-color="#00529B" offset="50%"></stop>
            <stop stop-color="#00559E" offset="54.5%"></stop>
            <stop stop-color="#1F5FA4" offset="61.55%"></stop>
            <stop stop-color="#486FAE" offset="70.25%"></stop>
            <stop stop-color="#738BBF" offset="80.28%"></stop>
            <stop stop-color="#ABB7D9" offset="91.29%"></stop>
            <stop stop-color="#C2CAE3" offset="94.94%"></stop>
        </linearGradient>
        <linearGradient x1="17.8887199%" y1="-5.86096159%" x2="78.7385252%" y2="99.991466%" id="linearGradient-6">
            <stop stop-color="#EBB39E" offset="5.62%"></stop>
            <stop stop-color="#C93627" offset="32.78%"></stop>
            <stop stop-color="#C4161C" offset="51.69%"></stop>
            <stop stop-color="#C93627" offset="74.72%"></stop>
            <stop stop-color="#EBB39E" offset="96.07%"></stop>
        </linearGradient>
        <linearGradient x1="18.5814321%" y1="2.28207313%" x2="81.8992462%" y2="98.4496569%" id="linearGradient-7">
            <stop stop-color="#FFFFFF" offset="0%"></stop>
            <stop stop-color="#FFFFFF" offset="30%"></stop>
            <stop stop-color="#D4D9EC" offset="50.56%"></stop>
            <stop stop-color="#FFFFFF" offset="70%"></stop>
            <stop stop-color="#FFFFFF" offset="100%"></stop>
        </linearGradient>
    </defs>
    <g id="Page-1" stroke="none" stroke-width="1" fill="none" fill-rule="evenodd" sketch:type="MSPage">
        <g id="Kindbeetle" sketch:type="MSArtboardGroup" transform="translate(-506.000000, -1898.000000)">
            <g id="Aeroflot_Logo_en" sketch:type="MSLayerGroup" transform="translate(506.000000, 1898.000000)">
                <g id="g3" transform="translate(0.219387, 0.086306)" sketch:type="MSShapeGroup">
                    <g id="g41">
                        <path d="M7.33468235,38.4311529 L5.84244706,37.7782588 L12.0327529,37.0239059 C12.1427765,37.2024471 12.2495059,37.3605647 12.3746824,37.5279059 L7.33468235,38.4311529 L7.33468235,38.4311529 Z M23.9502118,38.4311529 L25.4444235,37.7387294 L19.2890353,37.0048 C19.2350118,37.2024471 19.0716235,37.3605647 18.9609412,37.5279059 L23.9502118,38.4311529 L23.9502118,38.4311529 Z M23.0522353,38.5345882 L21.1765647,39.1631059 L18.5109647,38.3540706 L18.2797176,38.2816 C18.3686588,38.2117647 18.4411294,38.1412706 18.5109647,38.0464 C18.6236235,37.9587765 18.7132235,37.8309647 18.8186353,37.7387294 L23.0522353,38.5345882 L23.0522353,38.5345882 Z M28.0019765,36.7887059 L26.2890353,37.5825882 L19.4497882,36.7887059 C19.5057882,36.6286118 19.5598118,36.4658824 19.6105412,36.3005176 L28.0019765,36.7887059 L28.0019765,36.7887059 Z M28.6133647,36.5515294 L30.8467765,35.1337412 L18.7501176,35.1337412 C18.7501176,35.6390588 18.6769882,36.0725647 18.5109647,36.4461176 C18.0471529,37.6511059 16.8777412,38.2288941 15.7070118,38.2117647 C14.5573647,38.1781647 13.3846588,37.5832471 12.8628706,36.4836706 C12.6803765,36.0837647 12.5743059,35.6594824 12.5743059,35.1337412 L0.439435294,35.1337412 L2.65374118,36.5515294 L11.9247059,36.0719059 C12.1039059,36.7340235 12.4326588,37.3118118 12.8628706,37.7380706 C13.6027294,38.5161412 14.6608,38.9450353 15.7070118,38.9450353 C16.7341176,38.9667765 17.7757176,38.5892706 18.5109647,37.7598118 C18.9095529,37.3289412 19.2152471,36.7702588 19.3970824,36.0995765 L28.6133647,36.5515294 L28.6133647,36.5515294 Z M18.5109647,40.2277647 L18.7501176,40.6606118 L18.5109647,40.7699765 L17.8837647,41.0585412 L17.1649882,39.6341647 C16.7136941,39.7922824 16.2143059,39.8825412 15.7070118,39.9016471 C15.1661176,39.9214118 14.6054588,39.8449882 14.1199059,39.6862118 L13.5111529,41.0585412 C13.3108706,41.0736941 13.0414118,41.0585412 12.8628706,40.9294118 C12.7706353,40.8740706 12.6803765,40.7857882 12.6448,40.6612706 L12.8628706,40.2982588 L13.3846588,39.3633882 C13.2206118,39.2533647 13.0783059,39.1815529 12.9313882,39.0385882 L13.3648941,38.5168 C14.1060706,38.9680941 14.9144471,39.2164706 15.7076706,39.2164706 C16.5008941,39.2362353 17.2888471,38.9832471 18.0273882,38.4621176 L18.5109647,38.6057412 L18.7132235,38.6801882 C18.6414118,38.7322353 18.5860706,38.7829647 18.5109647,38.8402824 C18.3693176,38.9832471 18.2441412,39.1268706 18.0128941,39.2533647 L18.5109647,40.2277647 L18.5109647,40.2277647 Z M18.5109647,32.8614588 C18.9800471,33.4188235 19.3252706,34.1066353 19.5057882,34.8978824 L18.7329882,34.8978824 C18.6769882,34.6646588 18.6045176,34.4294588 18.5109647,34.2140235 C17.9951059,32.8463059 16.9297882,31.8745412 15.7070118,31.0641882 C15.5442824,30.9712941 15.3993412,30.8658824 15.2379294,30.7756235 C15.3993412,30.8303059 15.5442824,30.8830118 15.7070118,30.9376941 C16.8204235,31.3870118 17.8106353,32.0003765 18.5109647,32.8614588 L18.5109647,32.8614588 L18.5109647,32.8614588 Z M16.4231529,37.9409882 C16.6267294,37.9054118 16.9297882,37.7953882 17.1649882,37.6155294 L15.9376,35.1857882 L17.2163765,34.5750588 L16.1392,33.6408471 L15.7070118,33.8365176 L13.8511059,34.6804706 L14.3959529,35.9045647 L15.2741647,35.5112471 L16.4231529,37.9409882 L16.4231529,37.9409882 Z M13.0783059,38.2816 C13.0051765,38.2288941 12.9313882,38.1584 12.8628706,38.1017412 C12.7185882,37.9765647 12.5901176,37.8487529 12.5057882,37.7235765 L8.27350588,38.5220706 L10.0747294,39.1268706 L13.0783059,38.2816 L13.0783059,38.2816 Z M11.9247059,36.7887059 C11.8535529,36.6286118 11.8015059,36.4658824 11.7455059,36.3005176 L3.28423529,36.7887059 L4.99454118,37.6155294 L11.9247059,36.7887059 L11.9247059,36.7887059 Z" id="path43" fill="#00529B"></path>
                        <g id="g45" transform="translate(47.435294, 41.505882)" fill="#F47920">
                            <g id="g47">
                                <path d="M17.6551529,9.15830588 C20.4459294,9.5984 25.7922824,10.2881882 32.3396706,10.4318118 C38.8738824,10.5965176 46.5557647,10.2144 53.8153412,9.12997647 C61.0742588,8.07651765 67.8785882,6.30691765 72.7104,4.39830588 C77.5791059,2.56414118 80.3013647,0.328752941 80.2888471,0.320188235 C80.3152,0.333364706 77.4783059,2.91858824 72.3210353,5.13750588 C67.2171294,7.44141176 60.0102588,9.65110588 52.4212706,11.0781176 C44.8408471,12.5453176 36.8895059,13.2153412 30.4211765,13.2548706 C23.9548235,13.3299765 18.9306353,12.7469176 17.1702588,12.4708706 C11.0860235,11.5643294 6.66597647,9.96404706 3.96875294,8.42305882 C1.24583529,6.87087059 0.338635294,5.46823529 0.622588235,5.19548235 C0.923670588,4.872 2.27952941,5.52687059 5.02550588,6.37609412 C7.77411765,7.23717647 11.9583059,8.31171765 17.6551529,9.15830588 L17.6551529,9.15830588 Z" id="path49"></path>
                            </g>
                        </g>
                        <g id="g51" transform="translate(137.035294, 0.000000)">
                            <path d="M44.2880941,4.70136471 L43.2517647,4.83312941 L42.5870118,4.89637647 C41.3405176,5.00442353 39.4595765,5.16451765 37.7993412,6.22192941 C36.1529412,7.27275294 34.2660706,9.46729412 32.9477647,11.1558588 C18.6499765,13.5500235 10.8112941,22.0211765 5.62437647,27.6336941 L2.37308235,31.4285176 L2.91792941,31.2592 C12.6612706,22.2688941 21.3511529,17.4608 29.4876235,16.5615059 L29.6081882,16.5483294 L30.6919529,15.1344941 L32.9721412,12.1440941 C33.9096471,11.2994824 35.2068706,11.0010353 37.1168,10.7829647 L40.4497882,10.5701647 L44.3941647,10.2934588 C46.6473412,9.99171765 48.5829647,9.47256471 51.2393412,5.82334118 L54.8569412,0.940141176 L54.4326588,0.572517647 C51.1135059,3.86070588 47.488,4.30738824 44.2880941,4.70136471 L44.2880941,4.70136471 Z M44.3566118,5.25938824 C47.1289412,4.91877647 50.2049882,4.42597647 53.1736471,2.26701176 C52.1024,3.71378824 50.7854118,5.49195294 50.7854118,5.49195294 C48.2542118,8.96790588 46.5096471,9.44357647 44.3197176,9.73543529 C44.3197176,9.73741176 40.4260706,10.0075294 40.4260706,10.0075294 L37.0535529,10.2256 C35.6291765,10.3863529 34.5928471,10.6894118 33.6823529,11.1426824 C34.9505882,9.54635294 36.6332235,7.63576471 38.1050353,6.69694118 C39.6460235,5.712 41.4439529,5.56047059 42.6344471,5.45703529 L43.3275294,5.38851765 C43.3275294,5.38917647 44.3566118,5.25938824 44.3566118,5.25938824 L44.3566118,5.25938824 Z M32.5083294,11.8311529 C32.2520471,12.1612235 30.2452706,14.7925647 30.2452706,14.7925647 C30.2452706,14.7925647 29.4204235,15.8697412 29.3005176,16.0265412 C22.3492706,16.8270118 15.0106353,20.4452706 6.99670588,26.9900235 C12.0604235,21.5507765 19.5664,14.1726118 32.5083294,11.8311529 L32.5083294,11.8311529 Z M43.3262118,5.38917647 L43.3262118,5.38917647 L43.3308235,5.38917647 L43.3262118,5.38917647 L43.3262118,5.38917647 Z" id="path53" fill="#000000"></path>
                            <path d="M2.73411765,31.0641882 C13.0736941,23.5074824 18.6321882,20.5072 30.9139765,20.3971765 L28.2681412,23.9660235 C27.7700706,25.0247529 26.9972706,24.9766588 26.1836235,24.9279059 C17.4034824,24.8580706 11.2704941,25.5129412 0.604141176,33.2587294 L2.73411765,31.0641882 L2.73411765,31.0641882 Z" id="path66" fill="url(#linearGradient-1)"></path>
                            <path d="M2.72752941,31.0523294 C13.1323294,21.4519529 21.8189176,17.1274353 29.4573176,16.2834824 C30.1332706,15.3888 32.4661647,12.3918118 33.1730824,11.3936941 C15.7616941,14.2365176 8.06465882,26.0202353 2.72752941,31.0523294 L2.72752941,31.0523294 Z" id="path77" fill="url(#linearGradient-2)"></path>
                            <path d="M3.26183529,30.5028706 C3.05562353,30.7005176 2.33750588,31.4746353 2.13129412,31.6591059 C8.23727059,27.1567059 13.3510588,22.4698353 26.0867765,20.7371294 C26.7212235,20.0183529 28.5738353,17.5820235 29.4467765,16.2828235 C17.8363294,17.8613647 10.2427294,24.3435294 3.26183529,30.5028706 L3.26183529,30.5028706 Z" id="path92" fill="url(#linearGradient-3)"></path>
                            <path d="M28.0375529,24.3777882 C28.1495529,23.9844706 28.4236235,23.6919529 27.1329882,22.9310118 C25.6144,22.0363294 25.0893176,22.4125176 25.4253176,21.5026824 C25.6750118,20.8122353 28.9368471,19.4379294 31.3171765,20.2443294 C31.3178353,20.2449882 29.2056471,22.6918588 28.0375529,24.3777882 L28.0375529,24.3777882 Z" id="path101" fill="url(#linearGradient-4)"></path>
                            <path d="M37.184,10.2697412 C34.8023529,10.5886118 33.3002353,11.1822118 32.3462588,12.3845647 L29.0205176,16.8388706 C29.7458824,16.1905882 31.9377882,15.8717176 34.3121882,15.8104471 L34.6448941,15.8170353 C34.7437176,15.8104471 34.8464941,15.8170353 34.9472941,15.8104471 C35.2819765,15.8018824 35.6377412,15.7860706 36.008,15.7768471 C39.3759059,15.6450824 44.0522353,15.1700706 46.7824,11.9886118 L50.8730353,6.33195294 L51.3625412,5.65863529 C47.8095059,10.3382588 39.7026824,9.93374118 37.184,10.2697412 L37.184,10.2697412 Z" id="path120" fill="url(#linearGradient-5)"></path>
                            <path d="M39.1591529,15.2194824 C36.6042353,15.5772235 33.6823529,15.6832941 32.8443294,15.7254588 C31.4127059,15.7887059 29.5100235,16.2459294 28.9836235,16.8836706 C27.3787294,18.8779294 25.8423529,20.7377882 25.4259765,21.5033412 C26.4063059,20.5974588 29.6319059,20.6962824 33.5459765,20.5157647 C37.4560941,20.3372235 41.4176,18.6466824 44.5417412,15.0850824 L46.9154824,11.8048 C45.3264,13.8432 42.5270588,14.7490824 39.1591529,15.2194824 L39.1591529,15.2194824 Z" id="path133" fill="url(#linearGradient-6)"></path>
                            <path d="M43.2893176,5.11049412 C42.2490353,5.25082353 39.9029647,5.21327059 37.9521882,6.45976471 C35.9974588,7.70625882 33.6441412,10.6637176 32.4872471,12.2205176 C33.5624471,11.0702118 34.9901176,10.7427765 37.0851765,10.5056 C39.1795765,10.2638118 42.2055529,10.3053176 44.3566118,10.0147765 C46.4226824,9.74004706 48.3444706,9.32498824 51.0120471,5.65929412 L54.6309647,0.774117647 C50.8796235,4.48988235 46.7830588,4.64404706 43.2893176,5.11049412 L43.2893176,5.11049412 Z" id="path146" fill="url(#linearGradient-7)"></path>
                        </g>
                        <g id="g148" transform="translate(0.000000, 11.200000)" fill="#00529B">
                            <path d="M26.6487529,11.9872941 L26.6487529,8.25110588 L33.6882824,8.25110588 L33.6882824,6.28847059 L26.6487529,6.28847059 L26.6487529,2.88696471 L34.0690824,2.88696471 L34.0690824,0.923011765 L21.4315294,0.923011765 L21.4315294,13.9723294 L34.4795294,13.9723294 L34.4795294,11.9872941 L26.6487529,11.9872941 Z" id="polygon150"></path>
                            <path d="M42.1126588,13.9723294 L42.1126588,2.88696471 L45.1781647,2.88696471 C46.1117176,2.88696471 46.9741176,2.9568 47.7614118,3.48254118 C48.3339294,3.88969412 48.6936471,4.46945882 48.6936471,5.18889412 C48.6936471,5.78908235 48.4801882,6.40705882 47.6902588,6.90776471 C46.6605176,7.57844706 44.8672,7.67068235 43.7419294,7.53496471 L43.0962824,7.45788235 L48.2924235,13.9723294 L54.3213176,13.9723294 L49.3900235,8.53571765 C50.2735059,8.43887059 51.6899765,8.08771765 52.5490824,7.53562353 C53.5775059,6.83792941 54.1039059,5.80884706 54.1039059,4.84894118 C54.1039059,3.77374118 53.5261176,2.60432941 52.2157176,1.83482353 C50.6562824,0.950682353 48.5289412,0.924329412 46.5663059,0.924329412 L36.8723765,0.924329412 L36.8723765,13.9729882 L42.1126588,13.9729882 L42.1126588,13.9723294 L42.1126588,13.9723294 Z" id="path152"></path>
                            <path d="M84.2411294,6.50127059 L84.2411294,2.88696471 L91.8538353,2.88696471 L91.8538353,0.923011765 L79.0272,0.923011765 L79.0272,13.9723294 L84.2411294,13.9723294 L84.2411294,8.46522353 L91.2793412,8.46522353 L91.2793412,6.50127059 L84.2411294,6.50127059 Z" id="polygon154"></path>
                            <path d="M93.7453176,0.923011765 L93.7453176,13.9723294 L106.674071,13.9723294 L106.674071,11.9872941 L98.9882353,11.9872941 L98.9882353,0.923011765 L93.7453176,0.923011765 Z" id="polygon156"></path>
                            <path d="M144.707294,0.923011765 L128.216941,0.923011765 L128.216941,2.88696471 L133.841976,2.88696471 L133.841976,13.9723294 L139.085553,13.9723294 L139.085553,2.88696471 L144.707294,2.88696471 L144.707294,0.923011765 Z" id="polygon158"></path>
                            <path d="M117.110494,0.543529412 C114.668894,0.543529412 111.245647,1.09562353 108.947012,2.74202353 C107.124047,4.03463529 106.266259,5.88329412 106.266259,7.45788235 C106.266259,9.01665882 107.124706,10.8613647 108.947012,12.1539765 C111.245647,13.7779765 114.668894,14.3300706 117.110494,14.3300706 C119.549459,14.3300706 122.997741,13.7779765 125.293741,12.1539765 C127.115388,10.8613647 127.954729,9.01665882 127.954729,7.45788235 C127.954729,5.88329412 127.115388,4.03463529 125.293741,2.74202353 C122.997741,1.09562353 119.549459,0.567247059 117.110494,0.543529412 L117.110494,0.543529412 L117.110494,0.543529412 Z M117.110494,12.7515294 C115.815906,12.7515294 114.284141,12.4636235 113.156235,11.0497882 C112.224,9.90211765 112.057318,8.58249412 112.057318,7.45722353 C112.057318,6.28781176 112.224,4.99256471 113.156235,3.84489412 C114.284141,2.40470588 115.815906,2.12075294 117.110494,2.12075294 C118.423529,2.12075294 119.936847,2.40470588 121.078588,3.84489412 C122.015435,4.99256471 122.184753,6.28781176 122.184753,7.45722353 C122.184753,8.58249412 122.015435,9.90211765 121.078588,11.0497882 C119.936847,12.4642824 118.423529,12.7515294 117.110494,12.7515294 L117.110494,12.7515294 L117.110494,12.7515294 Z" id="path160"></path>
                            <path d="M66.3744941,0.543529412 C63.9348706,0.543529412 60.5129412,1.09562353 58.2156235,2.74202353 C56.3926588,4.03463529 55.5302588,5.88329412 55.5302588,7.45788235 C55.5302588,9.01665882 56.3926588,10.8613647 58.2156235,12.1539765 C60.5129412,13.7779765 63.9355294,14.3300706 66.3744941,14.3300706 C68.8134588,14.3300706 72.2637176,13.7779765 74.5630118,12.1539765 C76.3793882,10.8613647 77.2200471,9.01665882 77.2200471,7.45788235 C77.2200471,5.88329412 76.3793882,4.03463529 74.5630118,2.74202353 C72.2637176,1.09562353 68.8134588,0.567247059 66.3744941,0.543529412 L66.3744941,0.543529412 L66.3744941,0.543529412 Z M66.3744941,12.7515294 C65.0818824,12.7515294 63.5488,12.4636235 62.4255059,11.0497882 C61.4926118,9.90211765 61.3232941,8.58249412 61.3232941,7.45722353 C61.3232941,6.28781176 61.4926118,4.99256471 62.4255059,3.84489412 C63.5488,2.40470588 65.0818824,2.12075294 66.3744941,2.12075294 C67.6881882,2.12075294 69.1995294,2.40470588 70.3472,3.84489412 C71.2820706,4.99256471 71.4487529,6.28781176 71.4487529,7.45722353 C71.4487529,8.58249412 71.2820706,9.90211765 70.3472,11.0497882 C69.1995294,12.4642824 67.6875294,12.7515294 66.3744941,12.7515294 L66.3744941,12.7515294 L66.3744941,12.7515294 Z" id="path162"></path>
                            <path d="M3.04705882,13.9723294 L5.1072,10.1840941 L12.3628235,10.1840941 L14.5863529,13.9723294 L20.4498824,13.9723294 L12.5057882,0.923011765 L7.64432941,0.923011765 L0.439435294,13.9723294 L3.04705882,13.9723294 L3.04705882,13.9723294 Z M6.06315294,8.41581176 L8.53044706,3.86927059 L8.60291765,3.86927059 L11.2816941,8.41581176 L6.06315294,8.41581176 L6.06315294,8.41581176 Z" id="path164"></path>
                        </g>
                        <g id="g166" transform="translate(42.823529, 32.941176)" fill="#00529B">
                            <path d="M12.5275294,2.68734118 L11.3660235,6.97232941 C11.2224,7.14362353 10.9990588,7.28724706 10.7968,7.39463529 C10.4838588,7.56395294 10.1735529,7.65421176 9.88762353,7.65421176 C9.60301176,7.65421176 9.35068235,7.54023529 9.23472941,7.36564706 C9.1504,7.22268235 9.06672941,6.99802353 9.17872941,6.59877647 L10.2302118,2.68734118 L9.1504,2.68734118 L8.13251765,6.45778824 C8.04621176,6.80103529 7.90390588,7.39463529 8.21421176,7.84922353 C8.38682353,8.10484706 8.75774118,8.39011765 9.51802353,8.39011765 C9.83294118,8.39011765 10.1465412,8.33477647 10.5451294,8.16348235 C10.7981176,8.01590588 11.0794353,7.84856471 11.3093647,7.67792941 L11.1407059,8.27548235 L12.1025882,8.27548235 L13.6126118,2.68734118 L12.5275294,2.68734118 L12.5275294,2.68734118 Z" id="path168"></path>
                            <path d="M19.4352941,3.33298824 C19.1783529,2.99435294 18.8640941,2.82503529 18.8074353,2.79472941 C18.4464,2.60169412 18.0445176,2.56809412 17.6992941,2.56809412 C17.3316706,2.56809412 16.8764235,2.60169412 16.3691294,2.90936471 C15.9988706,3.16828235 15.5462588,3.56225882 15.3789176,4.21712941 C15.2273882,4.69807059 15.2886588,5.06569412 15.4606118,5.29496471 C15.6576,5.55190588 15.9988706,5.69025882 16.2867765,5.77524706 L16.8230588,5.94983529 C17.1037176,6.00649412 17.3903059,6.00649412 17.5583059,6.22851765 C17.6439529,6.34512941 17.7342118,6.48875294 17.6749176,6.77007059 C17.5879529,7.02503529 17.4219294,7.19435294 17.2769882,7.30832941 C17.08,7.4816 16.7367529,7.62654118 16.2558118,7.62654118 C15.9448471,7.62654118 15.6879059,7.56263529 15.4336,7.42032941 C15.2082824,7.25298824 15.0356706,7.11002353 14.9493647,6.97167059 L14.2365176,7.62654118 C14.7497412,8.2992 15.3782588,8.38945882 15.9988706,8.38945882 C16.4218353,8.38945882 17.2769882,8.33411765 17.9878588,7.79388235 C18.3818353,7.45524706 18.6684235,7.02437647 18.7843765,6.65675294 C18.8403765,6.36884706 18.8963765,5.94917647 18.7560471,5.68894118 C18.5544471,5.29364706 18.1011765,5.12432941 17.8448941,5.06503529 L17.4469647,4.9504 C16.9403294,4.83576471 16.7110588,4.78108235 16.5964235,4.63811765 C16.4857412,4.55708235 16.3968,4.38512941 16.4857412,4.04451765 C16.5371294,3.90418824 16.6557176,3.6736 16.8777412,3.50428235 C17.1616941,3.33232941 17.4232471,3.30597647 17.6195765,3.30597647 C17.8738824,3.30597647 18.1011765,3.36527059 18.3014588,3.50428235 C18.4720941,3.61628235 18.6111059,3.76188235 18.7257412,3.90418824 L19.4352941,3.33298824 L19.4352941,3.33298824 Z" id="path170"></path>
                            <path d="M25.2566588,3.33298824 C25.0280471,2.99435294 24.7177412,2.82503529 24.6334118,2.79472941 C24.2947765,2.60169412 23.8922353,2.56809412 23.5549176,2.56809412 C23.1635765,2.56809412 22.7320471,2.60169412 22.2208,2.90936471 C21.8512,3.16828235 21.3966118,3.56225882 21.1983059,4.21712941 C21.0902588,4.69807059 21.1423059,5.06569412 21.3129412,5.29496471 C21.5112471,5.55190588 21.8841412,5.69025882 22.1351529,5.77524706 L22.6450824,5.94983529 C22.9290353,6.00649412 23.2162824,6.00649412 23.4126118,6.22851765 C23.4982588,6.34512941 23.5825882,6.48875294 23.4982588,6.77007059 C23.4126118,7.02503529 23.2452706,7.19435294 23.1273412,7.30832941 C22.9283765,7.4816 22.5904,7.62654118 22.1061647,7.62654118 C21.7945412,7.62654118 21.5415529,7.56263529 21.2562824,7.42032941 C21.0263529,7.25298824 20.8853647,7.11002353 20.7727059,6.97167059 L20.0624941,7.62654118 C20.6086588,8.2992 21.2299294,8.38945882 21.8512,8.38945882 C22.2800941,8.38945882 23.1273412,8.33411765 23.8401882,7.79388235 C24.2368,7.45524706 24.5214118,7.02437647 24.6064,6.65675294 C24.6920471,6.36884706 24.7184,5.94917647 24.5780706,5.68894118 C24.4080941,5.29364706 23.9521882,5.12432941 23.6721882,5.06503529 L23.2716235,4.9504 C22.7867294,4.83576471 22.5666824,4.78108235 22.4474353,4.63811765 C22.3374118,4.55708235 22.2530824,4.38512941 22.3374118,4.04451765 C22.3934118,3.90418824 22.4784,3.6736 22.7340235,3.50428235 C22.9916235,3.33232941 23.2722824,3.30597647 23.4416,3.30597647 C23.7295059,3.30597647 23.9535059,3.36527059 24.1537882,3.50428235 C24.3264,3.61628235 24.4647529,3.76188235 24.5793882,3.90418824 L25.2566588,3.33298824 L25.2566588,3.33298824 Z" id="path172"></path>
                            <path d="M27.3385412,2.68734118 L27.1376,3.42127059 L27.7898353,3.42127059 L26.4899765,8.27548235 L27.5638588,8.27548235 L29.0672941,2.68734118 L27.3385412,2.68734118 L27.3385412,2.68734118 Z M28.0210824,0.841976471 C27.9301647,1.23595294 28.1627294,1.54823529 28.5349647,1.54823529 C28.9302588,1.54823529 29.2959059,1.23529412 29.4098824,0.841976471 C29.5205647,0.468423529 29.2959059,0.158776471 28.8979765,0.158776471 C28.5349647,0.158776471 28.1357176,0.467764706 28.0210824,0.841976471 L28.0210824,0.841976471 L28.0210824,0.841976471 Z" id="path174"></path>
                            <path d="M37.8823529,8.27548235 L39.0774588,3.87585882 C39.4516706,3.5616 40.0176,3.30663529 40.5262118,3.30663529 C40.8958118,3.30663529 41.0980706,3.44762353 41.1791059,3.61694118 C41.3510588,3.87651765 41.2660706,4.29816471 41.2061176,4.47011765 L40.1856,8.27548235 L41.2660706,8.27548235 L42.2865882,4.55774118 C42.4032,4.10051765 42.4559059,3.5616 42.2016,3.10898824 C41.9729882,2.74136471 41.5513412,2.56809412 40.9518118,2.56809412 C40.5868235,2.56809412 39.9616,2.6544 39.2764235,3.10898824 L39.3923765,2.68668235 L37.6570353,2.68668235 L37.4620235,3.42061176 L38.1136,3.42061176 L36.8091294,8.27482353 L37.8823529,8.27482353 L37.8823529,8.27548235 L37.8823529,8.27548235 Z" id="path176"></path>
                            <path d="M2.37703529,0.216094118 L0.193694118,8.27548235 L1.4112,8.27548235 L2.35463529,4.73167059 L3.17223529,4.73167059 L4.31068235,8.27548235 L4.39632941,8.27548235 L5.78249412,8.27548235 L4.47868235,4.66974118 C5.07689412,4.60847059 5.87275294,4.32847059 6.35237647,3.95952941 C6.888,3.5616 7.29185882,2.99435294 7.42691765,2.39811765 C7.59952941,1.82691765 7.51981176,1.23529412 7.18051765,0.841976471 C6.72329412,0.270776471 5.81411765,0.216094118 5.16056471,0.216094118 L4.39632941,0.216094118 L2.37703529,0.216094118 L2.37703529,0.216094118 Z M4.39632941,3.81458824 L4.19604706,3.81458824 L2.60762353,3.81458824 L3.31915294,1.15030588 L4.39632941,1.15030588 L4.93854118,1.15030588 C5.10983529,1.15030588 5.64414118,1.15030588 5.93007059,1.43425882 C6.09807059,1.60555294 6.24169412,1.88884706 6.12376471,2.34211765 C6.01176471,2.76837647 5.78249412,3.10964706 5.44583529,3.3936 C5.07755294,3.67425882 4.67764706,3.79021176 4.39632941,3.81458824 L4.39632941,3.81458824 L4.39632941,3.81458824 Z" id="path178"></path>
                            <path d="M32.6288941,5.01101176 C31.4950588,5.12498824 30.5555765,5.57825882 30.2452706,6.74503529 C30.2156235,6.88141176 30.1872941,6.99802353 30.1872941,7.11068235 L30.1872941,7.30898824 C30.2156235,7.93487059 30.6405647,8.39077647 31.5774118,8.39077647 C31.9160471,8.39077647 32.2573176,8.33543529 32.6288941,8.18588235 C32.6598588,8.18588235 32.6868706,8.16414118 32.7402353,8.13515294 C33.1111529,7.96385882 33.3898353,7.67858824 33.4800941,7.59491765 L33.5360941,7.59491765 L33.3417412,8.27614118 L34.3056,8.27614118 L35.2977882,4.6704 C35.4420706,4.10117647 35.5791059,3.53327059 35.2668235,3.10964706 C35.0098824,2.71171765 34.3602824,2.56875294 33.8523294,2.56875294 C33.3654588,2.56875294 32.9398588,2.62804706 32.6282353,2.71171765 C31.6386824,2.96470588 31.2651294,3.56291765 31.2361412,4.10117647 L32.2329412,4.15849412 C32.3133176,3.87651765 32.4312471,3.67491765 32.6282353,3.53392941 C32.8568471,3.36658824 33.1974588,3.30729412 33.6230588,3.30729412 C33.8523294,3.30729412 34.1329882,3.33364706 34.2456471,3.53392941 C34.4195765,3.73421176 34.3602824,4.01750588 34.3049412,4.27510588 L34.1046588,4.98268235 L33.3094588,4.98268235 C33.0801882,4.98202353 32.8298353,4.98202353 32.6288941,5.01101176 L32.6288941,5.01101176 L32.6288941,5.01101176 Z M32.6288941,7.56329412 C32.4582588,7.6272 32.2882824,7.65355294 32.1156706,7.65355294 C31.8936471,7.65355294 31.6077176,7.6272 31.4390588,7.39397647 C31.2974118,7.19369412 31.2657882,6.99736471 31.3534118,6.71209412 C31.4094118,6.48809412 31.5214118,6.25882353 31.8047059,6.03350588 C31.9746824,5.91887059 32.2026353,5.77524706 32.6288941,5.7232 C32.7692235,5.6896 32.9405176,5.66390588 33.1434353,5.66390588 L33.9379765,5.66390588 L33.6243765,6.85308235 C33.4524235,7.08169412 33.2831059,7.22268235 33.0808471,7.36498824 C32.9141647,7.45590588 32.7692235,7.53957647 32.6288941,7.56329412 L32.6288941,7.56329412 L32.6288941,7.56329412 Z" id="path180"></path>
                            <path d="M58.5542588,2.68734118 L58.3579294,3.42127059 L59.0108235,3.42127059 L57.7010824,8.27548235 L58.7815529,8.27548235 L60.2843294,2.68734118 L58.5542588,2.68734118 L58.5542588,2.68734118 Z M59.5530353,0.841976471 C59.4640941,1.23595294 59.6913882,1.54823529 60.0642824,1.54823529 C60.4286118,1.54823529 60.8272,1.23529412 60.9398588,0.841976471 C61.0564706,0.468423529 60.8272,0.158776471 60.4286118,0.158776471 C60.0636235,0.158776471 59.6577882,0.467764706 59.5530353,0.841976471 L59.5530353,0.841976471 L59.5530353,0.841976471 Z" id="path182"></path>
                            <path d="M62.6712471,2.68734118 L61.1691294,8.27548235 L62.2489412,8.27548235 L63.1008,5.06569412 C63.2411294,4.69807059 63.3808,4.32912941 63.5830588,4.04517647 C63.9230118,3.50494118 64.3163294,3.42127059 64.5482353,3.42127059 C64.6898824,3.42127059 64.8565647,3.44762353 64.9731765,3.56225882 C65.0528941,3.64988235 65.0864941,3.81458824 65.0864941,4.01684706 L66.0516706,3.73289412 C66.2460235,3.16762353 66.0516706,2.85138824 65.7130353,2.68668235 C65.5364706,2.60103529 65.3401412,2.56743529 65.1418353,2.56743529 C64.5172706,2.56743529 63.8973176,2.90870588 63.4664471,3.50428235 L63.6917647,2.68668235 L62.6712471,2.68668235 L62.6712471,2.68734118 L62.6712471,2.68734118 Z" id="path184"></path>
                            <path d="M68.6382118,0.101458824 L66.8521412,6.74503529 C66.7137882,7.25298824 66.4542118,8.27548235 67.7349647,8.27548235 L68.3575529,8.27548235 L68.5545412,7.53957647 L68.2462118,7.53957647 C67.7079529,7.53957647 67.8469647,7.08169412 67.872,6.97232941 L69.72,0.101458824 L68.6382118,0.101458824 L68.6382118,0.101458824 Z" id="path186"></path>
                            <path d="M71.5574588,2.68734118 L71.3664,3.42127059 L72.0212706,3.42127059 L70.6812235,8.27548235 L71.7887059,8.27548235 L73.2954353,2.68734118 L71.5574588,2.68734118 L71.5574588,2.68734118 Z M72.5529412,0.841976471 C72.4659765,1.23595294 72.6945882,1.54823529 73.0641882,1.54823529 C73.4634353,1.54823529 73.8330353,1.23529412 73.9443765,0.841976471 C74.0293647,0.468423529 73.8007529,0.158776471 73.4364235,0.158776471 C73.0365176,0.158776471 72.6695529,0.467764706 72.5529412,0.841976471 L72.5529412,0.841976471 L72.5529412,0.841976471 Z" id="path188"></path>
                            <path d="M75.5248941,8.27548235 L76.6870588,3.87585882 C77.0843294,3.5616 77.6535529,3.30663529 78.1608471,3.30663529 C78.5311059,3.30663529 78.7333647,3.44762353 78.8157176,3.61694118 C79.0140235,3.87651765 78.8730353,4.29816471 78.8447059,4.47011765 L77.8255059,8.27548235 L78.9000471,8.27548235 L79.9225412,4.55774118 C80.0365176,4.10051765 80.0938353,3.5616 79.8368941,3.10898824 C79.6148706,2.74136471 79.184,2.56809412 78.5917176,2.56809412 C78.1924706,2.56809412 77.6239059,2.6544 76.9163294,3.10898824 L77.0289882,2.68668235 L75.2982588,2.68668235 L75.0979765,3.42061176 L75.7495529,3.42061176 L74.4470588,8.27548235 L75.5248941,8.27548235 L75.5248941,8.27548235 Z" id="path190"></path>
                            <path d="M92.1891765,3.33298824 C91.9645176,2.99435294 91.6812235,2.82503529 91.5909647,2.79472941 C91.2226824,2.60169412 90.8596706,2.56809412 90.5157647,2.56809412 C90.1125647,2.56809412 89.6915765,2.60169412 89.1836235,2.90936471 C88.7850353,3.16828235 88.3304471,3.56225882 88.1611294,4.21712941 C88.0122353,4.69807059 88.1031529,5.06569412 88.2704941,5.29496471 C88.4431059,5.55190588 88.8120471,5.69025882 89.0683294,5.77524706 L89.6079059,5.94983529 C89.8879059,6.00649412 90.1784471,6.00649412 90.3392,6.22851765 C90.4591059,6.34512941 90.5157647,6.48875294 90.4591059,6.77007059 C90.3774118,7.02503529 90.2067765,7.19435294 90.0611765,7.30832941 C89.8879059,7.4816 89.5492706,7.62654118 89.04,7.62654118 C88.7204706,7.62654118 88.4964706,7.56263529 88.2125176,7.42032941 C87.9878588,7.25298824 87.8205176,7.11002353 87.7328941,6.97167059 L87.0233412,7.62654118 C87.5332706,8.2992 88.1611294,8.38945882 88.7843765,8.38945882 C89.2376471,8.38945882 90.0611765,8.33411765 90.7707294,7.79388235 C91.1706353,7.45524706 91.448,7.02437647 91.5659294,6.65675294 C91.6515765,6.36884706 91.6812235,5.94917647 91.5428706,5.68894118 C91.3682824,5.29364706 90.8820706,5.12432941 90.6323765,5.06503529 L90.2304941,4.9504 C89.7548235,4.83576471 89.5222588,4.78108235 89.3819294,4.63811765 C89.2929882,4.55708235 89.1836235,4.38512941 89.2672941,4.04451765 C89.3239529,3.90418824 89.4036706,3.6736 89.6658824,3.50428235 C89.9465412,3.33232941 90.2298353,3.30597647 90.4037647,3.30597647 C90.6864,3.30597647 90.8820706,3.36527059 91.1080471,3.50428235 C91.2536471,3.61628235 91.3926588,3.76188235 91.5079529,3.90418824 L92.1891765,3.33298824 L92.1891765,3.33298824 Z" id="path192"></path>
                            <path d="M48.9756235,8.27548235 L50.1964235,8.27548235 L51.4172235,6.31416471 L54.5090824,6.31416471 L54.6520471,8.27548235 L56.0434824,8.27548235 L55.2792471,0.216094118 L54.2844235,0.216094118 L48.9756235,8.27548235 L48.9756235,8.27548235 Z M51.9851294,5.38061176 L54.1691294,1.94616471 L54.1961412,1.94616471 L54.4563765,5.38061176 L51.9851294,5.38061176 L51.9851294,5.38061176 Z" id="path194"></path>
                            <path d="M82.6869647,5.7232 L86.0588235,5.7232 L86.1484235,5.3536 C86.3737412,4.60847059 86.5984,3.84489412 86.2064,3.22362353 C85.8644706,2.68734118 85.1832471,2.56809412 84.6983529,2.56809412 C83.9795765,2.56809412 83.2897882,2.82569412 82.7416471,3.30663529 C82.0004706,3.95952941 81.6954353,4.83642353 81.5228235,5.57825882 C81.3528471,6.17515294 81.1795765,7.08103529 81.6335059,7.73656471 C82.0584471,8.2992 82.8299294,8.38945882 83.3655529,8.38945882 C83.8003765,8.38945882 84.2022588,8.32752941 84.6186353,8.18456471 C84.8419765,8.10352941 85.1246118,7.98889412 85.3795765,7.84790588 L85.2142118,7.19303529 C84.9539765,7.30767059 84.7583059,7.39331765 84.4723765,7.45458824 C84.2075294,7.50268235 83.9578353,7.56197647 83.6752,7.56197647 C83.2528941,7.56197647 82.8813176,7.41901176 82.6863059,7.16865882 C82.3713882,6.79905882 82.5156706,6.22654118 82.6026353,5.94785882 L82.6869647,5.7232 L82.6869647,5.7232 Z M82.8549647,4.98202353 L82.9109647,4.73167059 C83.0282353,4.44178824 83.1685647,3.98851765 83.5328941,3.67425882 C83.7727059,3.44103529 84.1409882,3.30663529 84.4730353,3.30663529 C84.7589647,3.30663529 85.0383059,3.39294118 85.1832471,3.56225882 C85.4355765,3.90550588 85.3216,4.38644706 85.2148706,4.75604706 L85.1529412,4.98268235 L82.8549647,4.98268235 L82.8549647,4.98202353 L82.8549647,4.98202353 Z" id="path196"></path>
                        </g>
                    </g>
                </g>
            </g>
        </g>
    </g>
</svg>