<svg width="147" height="40" viewBox="0 0 147 40" xmlns="http://www.w3.org/2000/svg"><title>Group 4</title><g fill="#7F7F7F" fill-rule="evenodd"><path d="M6.688 19.483c0-6.356 1.443-15.227 1.443-15.227.152-.92-.49-1.668-1.423-1.657L4.22 2.63c-.932.01-1.862.766-2.06 1.68 0 0-1.464 6.69-1.464 15.254 0 8.212 1.712 14.87 1.712 14.87.232.902 1.187 1.658 2.121 1.675l2.351.044c.936.017 1.538-.717 1.344-1.63 0 0-1.535-7.197-1.535-15.04M51.556 18.674c0-6.6 4.155-14.414 4.155-14.414.438-.825.032-1.501-.902-1.501h-3.146c-.933 0-2.143.62-2.69 1.38 0 0-3.322 4.614-4.009 14.535-.092 1.352.026 2.18.026 2.18.131.927-.25 1.096-.85.38 0 0-.48-.58-1.248-1.63-4.847-6.642-5.765-15.091-5.765-15.091-.102-.93-.948-1.696-1.882-1.707l-2.38-.024c-.938-.005-1.91.722-2.17 1.62 0 0-1.908 6.637-1.908 14.872v.63c.028.682-.296.558-.718-.272 0 0-2.418-3.23-4.525-7.113-2.107-3.884-3.723-8.097-3.723-8.097-.19-.914-1.11-1.658-2.042-1.652l-1.899.01c-.933.007-1.953.733-2.265 1.615 0 0-.964 2.728-1.302 13.586-.316 10.153 2.061 16.575 2.061 16.575.328.874 1.356 1.587 2.29 1.583l3.276-.017c.938-.006 1.447-.73 1.14-1.612 0 0-3.055-8.74-2.78-17.541l.018-.487c.021-.497.425-.245.9.558 0 0 4.19 7.084 7.205 10.962 1.872 2.406 5.64 6.644 5.64 6.644.622.698 1.894 1.267 2.828 1.267h4.19l-.003.002c.936 0 1.132-.512.436-1.136 0 0-4.363-4.585-4.736-15.506-.016-.512 0-.512 0-.512.017-.548.392-.322.84.499 0 0 1.134 2.1 2.434 3.877 5.657 7.754 10.956 11.757 10.956 11.757.748.56 2.122 1.018 3.056 1.01l3.673-.018c.932-.003 1.16-.552.504-1.217 0 0-4.685-4.746-4.685-15.995M122.41 4.433c-.161-.92-1.055-1.675-1.988-1.675h-3.446c-.933 0-1.243.87-1.221 1.63 0 .01.396 6.424-2.581 14.264-.938 2.466-1.642 3.299-1.642 3.299-.731.98-1.553.72-1.693-.204 0 0 .127-1.584-.176-3.503-1.686-10.643-6.497-14.479-6.497-14.479-.754-.552-2.131-1.002-3.068-.997l-3.586.019c-.932.005-1.085.47-.342 1.031 0 0 5.808 3.86 7.13 16.066.833 7.692-3.024 14.434-3.024 14.434-.316.879.187 1.596 1.119 1.596h3.976v-.002c1.085 0 2.007-.684 2.81-1.297 0 0 7.96-5.962 10.954-13.912 3.276-8.71 3.276-16.27 3.276-16.27M143.42 19.12c-3.167-8.915-8.165-15.102-8.165-15.102-.627-.69-1.903-1.259-2.84-1.259h-2.881c-.931 0-1.593.757-1.467 1.685 0 0 .56 6.501-1.456 13.393-3.32 11.348-9.254 16.582-9.254 16.582-.446.822-.041 1.496.892 1.496l-.001.001h2.994c.936 0 1.964 0 3.197-1.443 0 0 6.208-6.226 8.68-17.31.302-1.357.449-2.174.449-2.174.084-.929.959-.826 1.486-.057 0 0 1.714 3.368 2.718 6.194 2.804 7.896 2.91 13.098 2.91 13.098a1.52 1.52 0 0 0 1.536 1.692l2.946-.02a1.82 1.82 0 0 0 1.81-1.676s-.221-5.718-3.554-15.1M96.885 19.982c0 10.962-8.886 19.85-19.848 19.85-10.96 0-19.847-8.888-19.847-19.85C57.19 9.022 66.076.134 77.037.134 88 .134 96.885 9.021 96.885 19.982"/></g></svg>