<svg width="145" height="64" viewBox="0 0 145 64" xmlns="http://www.w3.org/2000/svg"><title>Mvideo_logo_2013</title><g fill="none" fill-rule="evenodd"><path d="M112.812 63.87H32.036h.061-.239c-8.49-.039-16.452-3.357-22.442-9.347C3.386 48.495.07 40.485.07 31.963c0-8.518 3.316-16.53 9.346-22.557C15.406 3.416 23.367.099 31.836.06L112.84.057c8.508.016 16.507 3.335 22.52 9.349 6.03 6.027 9.344 14.039 9.344 22.558 0 8.523-3.313 16.533-9.343 22.56-6.02 6.022-14.032 9.343-22.548 9.345" fill="#FFF"/><path d="M131.917 51.082a26.924 26.924 0 0 1-19.112 7.919H40.02h.005-8.17c-7.42-.032-14.13-3.05-18.998-7.919A26.946 26.946 0 0 1 4.94 31.963c0-7.465 3.026-14.221 7.92-19.115 4.868-4.869 11.577-7.888 19-7.92h80.98a26.938 26.938 0 0 1 19.078 7.92 26.938 26.938 0 0 1 7.92 19.115 26.938 26.938 0 0 1-7.92 19.12" fill="#EC2127"/><path d="M53.091 41.995a1.89 1.89 0 0 1-3.778 0 1.89 1.89 0 0 1 3.779 0m22.97-23.194c1.739.976-4.596 10.77-14.587 15.963-.723 3.096.071 5.163.75 5.075 2.086-.632 1.215-5.793 1.215-5.793s3.751-1.807 4.05-1.955c1.5 4.698-.953 11.617-5.659 11.794-5.986-.2-5.596-7.008-5.596-7.008l-3.565 1.089 1.001-2.712s2.308-.595 2.788-.73c4.065-13.717 16.75-17.308 19.604-15.723M62.442 32.04c2.351-.475 11.558-10.276 9.642-10.1-3.812.935-10.402 9.668-9.642 10.1m7.444-.712v1.956s2.568-1.674 2.763-1.366c.07.88-3.182 8.309-3.248 9.435-.058.544.23 2.531 1.929 2.531.426 0 1.197-.121 1.896-.503 2.507-1.367 5.178-3.993 5.178-3.993s-.638 1.654-.36 2.973c.268 1.32 1.668 1.858 3.152 1.311 1.478-.552 3.399-1.861 4.127-2.739-.11-.283-.526-1.608-.526-1.608s-1.329 1.252-1.653 1.091c-.33-.169 3.89-12.529 3.89-12.529h-4.649c-.694 3.147-4.692 11.349-7.401 11.705-.925-.07 3.274-9.432 3.427-10.492.31-1.384-.718-2.02-1.954-1.738-1.298.443-6.571 3.966-6.571 3.966m28.267-3.44h4.403l-7.138 22.395h-4.45s2.5-8.615 3.03-9.29c-3.541 4.48-6.693 2.701-7.251-.998-.509-4.466 1.115-8.676 4.932-11.143 3.651-2.279 5.42-.556 5.93.325.093-.208.544-1.29.544-1.29m-1.83 4.293c.035-1.88-1.277-1.856-2.32-.672-.393.455-2.546 3.712-2.47 6.32.14 2.209 1.122 1.628 1.745 1.28 1.469-1.006 2.907-4.77 3.046-6.928m-66.55 11.704c3.954 0 8.767-11.436 10.865-15.757.402-.844.638-1.458.862-1.483.745.792-6.174 13.085-2.337 16.418.367.37.862.621 1.359.744 3.7.74 6.297-3.943 8.518-6.416l-1.116-1.112c-.74.862-1.601 2.968-2.222 1.854-1.23-1.98 6.264-22.742 6.264-22.742h-7.05c-.74 1.234-8.594 19.036-10.081 19.286-.246.12-.365-.128-.365-.377.857-6.666 2.631-12.482 4.73-18.909h-7.046c-4.077 11.363-4.111 11.502-7.819 19.036-1.852 3.463-4.57 5.681-2.597.25h-6.417c-1.237 3.33-1.758 8.83 2.22 9.201.08.007.16.007.236.007 4.392 0 9.158-11.197 9.645-11.68-.367 3.83-2.116 8.403.124 10.74.682.709 1.61.94 2.228.94m77.095-4.02c1.572 2.29 6.057-2.014 6.057-2.014l1.034 1.594s-3.518 4.524-7.595 4.44c-1.921-.039-2.561-.591-3.803-1.592-.396.274-1.87 1.155-1.87 1.155l-.773-2.098s1.11-.6 1.635-.913c-1.197-10.553 9.356-14.411 13.206-12.256 2.608 1.582.576 7.226-7.891 11.683m-.28-1.942c4.562-3.614 6.504-7.011 5.543-7.68-.954-.67-2.926 1.008-4.138 3.16-1.22 2.152-1.59 4.202-1.405 4.52m9.42 3.266c.283.653 1.413 2.626 3.852 2.697 1.03.033 2.15-.32 3.859-1.247 5.73-3.124 7.137-10.94 7.037-12.415-.026-3.157-2.232-2.71-2.601-2.594-3.066 1.026-5.746 4.855-5.746 4.855l1.33 1.329s1.262-2.4 2.475-2.4c1.215 0-.716 4.683-1.023 5.376-1.594 3.515-4.486 5.027-5.277 1.92-.996-5.101 5.97-10.6 5.97-10.6l-4.726-.003s-7.932 6.17-5.15 13.082" fill="#FFF"/></g></svg>