<svg width="193" height="55" viewBox="0 0 193 55" xmlns="http://www.w3.org/2000/svg"><title>Aeroflot_Logo_en</title><defs><linearGradient x1="25.508%" y1="-3.83%" x2="69.499%" y2="92.844%" id="a"><stop stop-color="#C4161C" offset=".56%"/><stop stop-color="#C93627" offset="30%"/><stop stop-color="#EBB39E" offset="50%"/><stop stop-color="#C93627" offset="71.91%"/><stop stop-color="#C4161C" offset="100%"/></linearGradient><linearGradient x1="18.878%" y1="16.251%" x2="92.402%" y2="95.981%" id="b"><stop stop-color="#FFF" offset="0%"/><stop stop-color="#FFF" offset="34.27%"/><stop stop-color="#FFF" offset="55%"/><stop stop-color="#C2CAE3" offset="91.01%"/></linearGradient><linearGradient x1="36.366%" y1="27.417%" x2="65.807%" y2="76.189%" id="c"><stop stop-color="#00529B" offset="10.67%"/><stop stop-color="#778EC1" offset="50%"/><stop stop-color="#728ABF" offset="51.96%"/><stop stop-color="#3C69AA" offset="72.83%"/><stop stop-color="#00589F" offset="88.11%"/><stop stop-color="#00529B" offset="96.07%"/></linearGradient><linearGradient x1="8.478%" y1="-1.991%" x2="87.993%" y2="65.956%" id="d"><stop stop-color="#C4161C" offset=".56%"/><stop stop-color="#C93627" offset="49.44%"/><stop stop-color="#EBB39E" offset="100%"/></linearGradient><linearGradient x1="18.33%" y1=".313%" x2="80.078%" y2="97.189%" id="e"><stop stop-color="#C2CAE3" offset="7.3%"/><stop stop-color="#00529B" offset="50%"/><stop stop-color="#00559E" offset="54.5%"/><stop stop-color="#1F5FA4" offset="61.55%"/><stop stop-color="#486FAE" offset="70.25%"/><stop stop-color="#738BBF" offset="80.28%"/><stop stop-color="#ABB7D9" offset="91.29%"/><stop stop-color="#C2CAE3" offset="94.94%"/></linearGradient><linearGradient x1="17.889%" y1="-5.861%" x2="78.739%" y2="99.991%" id="f"><stop stop-color="#EBB39E" offset="5.62%"/><stop stop-color="#C93627" offset="32.78%"/><stop stop-color="#C4161C" offset="51.69%"/><stop stop-color="#C93627" offset="74.72%"/><stop stop-color="#EBB39E" offset="96.07%"/></linearGradient><linearGradient x1="18.581%" y1="2.282%" x2="81.899%" y2="98.45%" id="g"><stop stop-color="#FFF" offset="0%"/><stop stop-color="#FFF" offset="30%"/><stop stop-color="#D4D9EC" offset="50.56%"/><stop stop-color="#FFF" offset="70%"/><stop stop-color="#FFF" offset="100%"/></linearGradient></defs><g fill="none" fill-rule="evenodd"><path d="M7.554 38.517l-1.492-.652 6.19-.755c.11.18.217.337.342.504l-5.04.903zm16.616 0l1.494-.692-6.156-.734c-.054.2-.217.357-.328.524l4.99.903zm-.898.104l-1.876.63-2.666-.81-.23-.072c.088-.07.16-.14.23-.235.113-.088.203-.216.308-.308l4.234.796zm4.95-1.745l-1.714.794-6.84-.795c.057-.16.11-.323.162-.488l8.39.488zm.61-.237l2.234-1.418H18.97c0 .505-.074.94-.24 1.312-.463 1.205-1.633 1.783-2.804 1.766-1.15-.034-2.322-.628-2.844-1.728-.182-.4-.288-.824-.288-1.35H.66l2.213 1.418 9.27-.48c.18.662.51 1.24.94 1.666.74.778 1.797 1.207 2.843 1.207 1.028.023 2.07-.354 2.804-1.184.4-.43.705-.99.886-1.66l9.217.452zM18.73 40.314l.24.433-.24.11-.627.288-.72-1.425c-.45.16-.95.25-1.457.268-.54.02-1.1-.057-1.587-.215l-.61 1.372c-.2.015-.47 0-.648-.13-.092-.055-.182-.143-.218-.267l.218-.363.522-.935c-.164-.11-.306-.182-.453-.325l.434-.522c.74.45 1.55.7 2.343.7.793.02 1.58-.233 2.32-.755l.483.144.203.074c-.072.053-.128.103-.203.16-.14.144-.266.287-.498.414l.498.974zm0-7.366c.47.557.815 1.245.995 2.036h-.773c-.056-.233-.128-.468-.222-.684-.516-1.367-1.58-2.34-2.804-3.15-.162-.092-.307-.198-.47-.288.163.055.308.107.47.162 1.114.45 2.104 1.063 2.804 1.924zm-2.087 5.08c.203-.036.506-.146.74-.326l-1.226-2.43 1.28-.61-1.078-.935-.434.196-1.856.844.545 1.224.88-.392 1.148 2.43zm-3.345.34c-.073-.053-.147-.123-.216-.18-.144-.125-.272-.253-.357-.378l-4.232.798 1.8.605 3.005-.845zm-1.154-1.493c-.07-.16-.123-.323-.18-.488l-8.46.488 1.71.827 6.93-.827z" fill="#00529B"/><path d="M65.31 50.75c2.79.44 8.137 1.13 14.684 1.274 6.535.165 14.216-.217 21.476-1.302 7.26-1.053 14.063-2.823 18.895-4.732 4.87-1.834 7.59-4.07 7.58-4.078.025.014-2.812 2.6-7.97 4.818-5.103 2.304-12.31 4.513-19.9 5.94-7.58 1.468-15.53 2.138-22 2.177-6.465.075-11.49-.508-13.25-.784-6.084-.906-10.504-2.507-13.202-4.048-2.722-1.552-3.63-2.955-3.346-3.227.3-.324 1.657.33 4.403 1.18 2.75.86 6.933 1.936 12.63 2.782z" fill="#F47920"/><path d="M181.543 4.788l-1.037.13-.664.065c-1.247.108-3.128.268-4.788 1.325-1.646 1.05-3.533 3.246-4.852 4.934-14.297 2.394-22.136 10.865-27.323 16.478l-3.252 3.795.545-.17c9.743-8.99 18.433-13.798 26.57-14.697l.12-.013 1.084-1.414 2.28-2.99c.937-.844 2.235-1.143 4.144-1.36l3.334-.214 3.945-.276c2.252-.302 4.188-.82 6.844-4.47l3.618-4.884-.425-.367c-3.32 3.287-6.944 3.734-10.144 4.128zm.068.558c2.774-.34 5.85-.834 8.818-2.993-1.07 1.447-2.388 3.225-2.388 3.225-2.53 3.476-4.276 3.952-6.466 4.244 0 .002-3.893.272-3.893.272l-3.372.218c-1.424.16-2.46.464-3.37.917 1.267-1.597 2.95-3.508 4.422-4.447 1.54-.985 3.34-1.136 4.53-1.24l.692-.068 1.03-.13zm-11.847 6.57c-.256.332-2.263 2.963-2.263 2.963l-.945 1.233c-6.95.8-14.29 4.42-22.304 10.963 5.065-5.44 12.57-12.817 25.513-15.16zm10.818-6.44h.006-.005z" fill="#000"/><path d="M2.734 31.064c10.34-7.557 15.898-10.557 28.18-10.667l-2.646 3.57c-.498 1.058-1.27 1.01-2.084.96-8.78-.07-14.914.586-25.58 8.332l2.13-2.196z" fill="url(#a)" transform="translate(137.255 .086)"/><path d="M2.728 31.052c10.404-9.6 19.09-13.925 26.73-14.77.675-.893 3.008-3.89 3.715-4.888C15.763 14.237 8.065 26.02 2.728 31.052z" fill="url(#b)" transform="translate(137.255 .086)"/><path d="M3.262 30.503c-.206.198-.924.972-1.13 1.156 6.105-4.503 11.22-9.19 23.955-10.923.634-.72 2.487-3.155 3.36-4.454-11.61 1.578-19.204 8.06-26.185 14.22z" fill="url(#c)" transform="translate(137.255 .086)"/><path d="M28.038 24.378c.112-.394.386-.686-.905-1.447-1.52-.894-2.044-.517-1.708-1.427.25-.69 3.512-2.065 5.892-1.26 0 .002-2.11 2.45-3.28 4.135z" fill="url(#d)" transform="translate(137.255 .086)"/><path d="M37.184 10.27c-2.382.32-3.884.912-4.838 2.115L29.02 16.84c.726-.65 2.918-.968 5.292-1.03l.333.007c.1-.007.2 0 .302-.007.335-.008.69-.024 1.06-.033 3.37-.132 8.045-.607 10.775-3.788l4.09-5.658.49-.673c-3.552 4.678-11.66 4.274-14.178 4.61z" fill="url(#e)" transform="translate(137.255 .086)"/><path d="M39.16 15.22c-2.556.357-5.478.463-6.316.505-1.43.064-3.334.52-3.86 1.16-1.605 1.993-3.142 3.853-3.558 4.618.98-.906 4.206-.807 8.12-.987 3.91-.18 7.872-1.87 10.996-5.43l2.373-3.28c-1.59 2.037-4.388 2.943-7.756 3.413z" fill="url(#f)" transform="translate(137.255 .086)"/><path d="M43.29 5.11c-1.04.14-3.387.103-5.338 1.35-1.955 1.246-4.308 4.204-5.465 5.76 1.075-1.15 2.503-1.477 4.598-1.714 2.095-.242 5.12-.2 7.272-.49 2.066-.276 3.987-.69 6.655-4.357l3.62-4.886C50.88 4.49 46.78 4.644 43.288 5.11z" fill="url(#g)" transform="translate(137.255 .086)"/><g fill="#00529B"><path d="M26.868 23.274v-3.737h7.04v-1.962h-7.04v-3.402h7.42V12.21H21.65v13.05H34.7v-1.986h-7.832zM42.332 25.26V14.172h3.066c.933 0 1.796.07 2.583.596.573.406.933.986.933 1.705 0 .6-.213 1.218-1.003 1.72-1.03.67-2.823.762-3.95.626l-.644-.076 5.196 6.515h6.03l-4.933-5.438c.883-.097 2.3-.448 3.158-1 1.03-.698 1.555-1.727 1.555-2.687 0-1.075-.577-2.244-1.888-3.014-1.56-.883-3.687-.91-5.65-.91h-9.693v13.05h5.24zM84.46 17.788v-3.615h7.613V12.21H79.247v13.05h5.214V19.75h7.04v-1.964h-7.04zM93.965 12.21v13.05h12.928v-1.986h-7.685V12.21h-5.243zM144.927 12.21h-16.49v1.963h5.624V25.26h5.245V14.172h5.622V12.21zM117.33 11.83c-2.442 0-5.865.552-8.164 2.198-1.823 1.293-2.68 3.142-2.68 4.716 0 1.56.858 3.404 2.68 4.696 2.3 1.624 5.722 2.176 8.164 2.176 2.44 0 5.887-.552 8.183-2.176 1.822-1.292 2.66-3.137 2.66-4.696 0-1.574-.838-3.423-2.66-4.716-2.296-1.646-5.744-2.174-8.183-2.198zm0 12.208c-1.295 0-2.826-.288-3.954-1.702-.933-1.148-1.1-2.467-1.1-3.592 0-1.17.167-2.465 1.1-3.613 1.128-1.44 2.66-1.723 3.954-1.723 1.313 0 2.826.284 3.968 1.724.937 1.15 1.106 2.444 1.106 3.614 0 1.125-.17 2.444-1.106 3.592-1.142 1.415-2.655 1.702-3.968 1.702zM66.594 11.83c-2.44 0-5.862.552-8.16 2.198-1.822 1.293-2.684 3.142-2.684 4.716 0 1.56.862 3.404 2.685 4.696 2.297 1.624 5.72 2.176 8.16 2.176 2.438 0 5.888-.552 8.187-2.176 1.817-1.292 2.657-3.137 2.657-4.696 0-1.574-.84-3.423-2.658-4.716-2.3-1.646-5.75-2.174-8.188-2.198zm0 12.208c-1.293 0-2.826-.288-3.95-1.702-.932-1.148-1.1-2.467-1.1-3.592 0-1.17.168-2.465 1.1-3.613 1.124-1.44 2.657-1.723 3.95-1.723 1.314 0 2.825.284 3.973 1.724.934 1.15 1.1 2.444 1.1 3.614 0 1.125-.166 2.444-1.1 3.592-1.148 1.415-2.66 1.702-3.973 1.702zM3.266 25.26l2.06-3.79h7.256l2.224 3.79h5.863l-7.945-13.05h-4.86L.658 25.26h2.606zM6.283 19.7l2.467-4.546h.072l2.68 4.546H6.28z"/></g><g fill="#00529B"><path d="M55.57 35.715L54.41 40c-.145.17-.368.315-.57.422-.313.17-.624.26-.91.26-.284 0-.536-.114-.652-.29-.085-.142-.168-.366-.056-.766l1.05-3.91h-1.08l-1.017 3.77c-.086.343-.228.936.082 1.39.173.256.544.542 1.304.542.316 0 .63-.056 1.028-.227.253-.147.534-.314.764-.485l-.168.598h.962l1.51-5.588H55.57zM62.478 36.36c-.257-.338-.57-.507-.628-.538-.36-.193-.763-.226-1.108-.226-.367 0-.823.033-1.33.34-.37.26-.823.654-.99 1.31-.152.48-.09.847.082 1.076.197.257.538.396.826.48l.536.175c.28.057.567.057.735.28.087.116.177.26.118.54-.087.256-.253.425-.398.54-.197.172-.54.317-1.02.317-.312 0-.57-.064-.823-.206-.226-.168-.398-.31-.485-.45l-.713.656c.513.673 1.14.763 1.762.763.423 0 1.278-.055 1.99-.596.393-.337.68-.768.795-1.136.056-.288.112-.707-.028-.968-.203-.395-.656-.564-.912-.623l-.398-.115c-.507-.115-.736-.17-.85-.312-.11-.08-.2-.253-.11-.594.05-.14.17-.37.39-.54.285-.172.546-.2.742-.2.255 0 .482.06.682.2.17.112.31.257.425.4l.708-.572zM68.3 36.36c-.23-.338-.54-.507-.624-.538-.338-.193-.74-.226-1.078-.226-.392 0-.823.033-1.334.34-.37.26-.824.654-1.023 1.31-.107.48-.055.847.116 1.076.198.257.57.396.822.48l.51.175c.284.057.57.057.768.28.085.116.17.26.085.54-.084.256-.252.425-.37.54-.2.172-.537.317-1.02.317-.313 0-.566-.064-.85-.206-.23-.168-.372-.31-.484-.45l-.71.656c.546.673 1.167.763 1.788.763.43 0 1.276-.055 1.99-.596.396-.337.68-.768.765-1.136.085-.288.11-.707-.03-.968-.17-.395-.625-.564-.905-.623l-.4-.115c-.485-.115-.705-.17-.825-.312-.11-.08-.194-.253-.11-.594.056-.14.14-.37.397-.54.258-.172.538-.2.708-.2.287 0 .51.06.712.2.172.112.31.257.425.4l.678-.572zM70.38 35.715l-.2.734h.653l-1.3 4.853h1.074l1.503-5.588h-1.73zm.684-1.846c-.09.393.142.706.514.706.395 0 .76-.313.875-.707.11-.374-.114-.684-.512-.684-.362 0-.76.31-.876.683zM80.925 41.303l1.195-4.4c.375-.314.94-.57 1.45-.57.37 0 .57.142.652.31.172.26.087.683.027.855l-1.02 3.805h1.08l1.02-3.718c.116-.457.17-.996-.085-1.45-.23-.366-.65-.54-1.25-.54-.365 0-.99.087-1.676.54l.115-.42H80.7l-.195.733h.652l-1.305 4.854h1.073zM45.42 33.244l-2.183 8.06h1.217l.944-3.545h.817l1.14 3.543h1.469l-1.303-3.606c.598-.06 1.394-.34 1.873-.71.536-.398.94-.965 1.075-1.56.172-.573.093-1.164-.247-1.558-.457-.572-1.366-.626-2.02-.626H45.42zm2.02 3.598h-1.79l.712-2.664h1.617c.173 0 .707 0 .993.284.168.17.312.454.194.908-.112.426-.342.767-.678 1.05-.37.282-.77.398-1.05.422zM75.672 38.038c-1.134.114-2.074.568-2.384 1.735-.03.136-.058.253-.058.365v.198c.03.626.453 1.082 1.39 1.082.34 0 .68-.055 1.052-.205.03 0 .058-.02.11-.05.372-.172.65-.457.74-.54h.057l-.195.68h.964l.99-3.605c.145-.57.282-1.137-.03-1.56-.257-.4-.907-.542-1.415-.542-.487 0-.912.06-1.224.143-.988.252-1.362.85-1.39 1.39l.996.056c.08-.282.198-.484.395-.625.23-.166.57-.225.996-.225.23 0 .51.026.623.226.172.202.113.485.058.743l-.2.707h-.796c-.23 0-.48 0-.68.028zm0 2.553c-.17.065-.34.09-.513.09-.223 0-.51-.025-.678-.26-.142-.2-.173-.395-.086-.68.056-.224.168-.454.452-.68.17-.114.398-.257.824-.31.14-.033.31-.06.514-.06h.795l-.313 1.19c-.172.23-.34.37-.543.512-.167.09-.312.175-.452.2zM101.597 35.715l-.196.734h.654l-1.31 4.853h1.08l1.503-5.588h-1.73zm1-1.846c-.09.393.137.706.51.706.365 0 .763-.313.876-.707.116-.374-.113-.684-.51-.684-.366 0-.772.31-.877.683zM105.714 35.715l-1.502 5.588h1.08l.852-3.21c.14-.367.28-.736.482-1.02.34-.54.733-.624.965-.624.143 0 .31.025.426.14.08.087.113.252.113.454l.965-.284c.194-.565 0-.88-.34-1.046-.176-.085-.372-.12-.57-.12-.625 0-1.245.342-1.676.938l.225-.818h-1.02zM111.68 33.13l-1.785 6.643c-.138.507-.398 1.53.883 1.53h.622l.197-.736h-.308c-.54 0-.4-.458-.375-.567l1.848-6.87h-1.082zM114.6 35.715l-.19.734h.654l-1.34 4.853h1.108l1.506-5.588H114.6zm.996-1.846c-.087.393.142.706.51.706.4 0 .77-.313.88-.707.086-.374-.142-.684-.507-.684-.4 0-.768.31-.884.683zM118.568 41.303l1.162-4.4c.397-.314.966-.57 1.474-.57.37 0 .572.142.655.31.197.26.056.683.028.855l-1.02 3.805h1.075l1.022-3.718c.114-.457.172-.996-.085-1.45-.222-.366-.653-.54-1.245-.54-.4 0-.968.087-1.676.54l.112-.42h-1.73l-.2.733h.65l-1.302 4.855h1.078zM135.232 36.36c-.225-.338-.508-.507-.598-.538-.368-.193-.73-.226-1.075-.226-.405 0-.826.033-1.333.34-.4.26-.854.654-1.023 1.31-.15.48-.058.847.11 1.076.172.257.54.396.797.48l.54.175c.28.057.57.057.732.28.12.116.177.26.12.54-.082.256-.252.425-.398.54-.173.172-.512.317-1.02.317-.32 0-.545-.064-.83-.206-.223-.168-.39-.31-.478-.45l-.71.656c.51.673 1.138.763 1.76.763.455 0 1.278-.055 1.988-.596.4-.337.677-.768.795-1.136.084-.288.114-.707-.024-.968-.175-.395-.66-.564-.91-.623l-.403-.115c-.475-.115-.708-.17-.848-.312-.09-.08-.198-.253-.115-.594.057-.14.137-.37.4-.54.28-.172.563-.2.737-.2.282 0 .478.06.704.2.147.112.286.257.4.4l.682-.572zM92.02 41.303h1.22l1.22-1.96h3.092l.143 1.96h1.39l-.763-8.06h-.995l-5.308 8.06zm3.008-2.895l2.184-3.434h.027l.26 3.434h-2.472zM125.73 38.75h3.372l.09-.37c.225-.744.45-1.508.057-2.13-.343-.535-1.024-.654-1.51-.654-.718 0-1.407.257-1.955.738-.742.653-1.047 1.53-1.22 2.272-.17.597-.343 1.503.11 2.158.426.563 1.198.653 1.733.653.435 0 .837-.062 1.254-.205.223-.08.506-.196.76-.337l-.165-.654c-.26.115-.456.2-.742.262-.265.048-.514.107-.797.107-.422 0-.794-.144-.99-.394-.314-.37-.17-.942-.082-1.22l.084-.225zm.168-.74l.056-.25c.117-.29.257-.744.622-1.058.24-.233.608-.368.94-.368.286 0 .565.086.71.256.252.343.14.824.032 1.194l-.062.226h-2.298z"/></g></g></svg>