<?xml version="1.0" encoding="UTF-8" standalone="no"?>
<svg width="145px" height="64px" viewBox="0 0 145 64" version="1.1" xmlns="http://www.w3.org/2000/svg" xmlns:xlink="http://www.w3.org/1999/xlink" xmlns:sketch="http://www.bohemiancoding.com/sketch/ns">
    <!-- Generator: Sketch Beta 3.4 (15460) - http://www.bohemiancoding.com/sketch -->
    <title>Mvideo_logo_2013</title>
    <desc>Created with Sketch Beta.</desc>
    <defs></defs>
    <g id="Page-1" stroke="none" stroke-width="1" fill="none" fill-rule="evenodd" sketch:type="MSPage">
        <g id="Kindbeetle" sketch:type="MSArtboardGroup" transform="translate(-980.000000, -1889.000000)">
            <g id="Mvideo_logo_2013" sketch:type="MSLayerGroup" transform="translate(980.000000, 1889.000000)">
                <g id="Group" sketch:type="MSShapeGroup">
                    <g id="Shape">
                        <path d="M112.811969,63.869313 L32.0361527,63.869313 L32.0969771,63.869313 L31.8583206,63.869313 C23.367084,63.8314504 15.4064122,60.5129771 9.41557252,54.5233588 C3.38564885,48.4946565 0.0698625954,40.485374 0.0698625954,31.9636031 C0.0698625954,23.4447634 3.38564885,15.4325496 9.41557252,9.40580153 C15.4066565,3.41545038 23.367084,0.0989312977 31.8363359,0.0610687023 L112.838595,0.0574045802 C121.347176,0.0730381679 129.346198,3.39248855 135.359511,9.40580153 C141.389679,15.4332824 144.703023,23.4447634 144.703023,31.9636031 C144.703023,40.4865954 141.389679,48.4970992 135.359511,54.5233588 C129.339359,60.5464427 121.327634,63.866626 112.811969,63.869313" fill="#FFFFFF"></path>
                        <path d="M131.917191,51.0822595 C127.029008,55.9765496 120.271145,59.000916 112.804641,59.000916 L40.0207634,59.000916 L40.0256489,59.000916 L31.8561221,59.000916 C24.4360305,58.9694046 17.7267786,55.9513893 12.8581374,51.0822595 C7.96482443,46.1904122 4.93899237,39.4323053 4.93899237,31.9633588 C4.93899237,24.4975878 7.9650687,17.7416794 12.8581374,12.8478779 C17.7267786,7.97899237 24.4360305,4.95975573 31.8585649,4.92751145 L112.838595,4.92751145 C120.292885,4.93825954 127.034137,7.96189313 131.917435,12.8478779 C136.812947,17.7416794 139.836824,24.4975878 139.836824,31.9633588 C139.83658,39.4323053 136.812702,46.1904122 131.917191,51.0822595" fill="#EC2127"></path>
                        <path d="M53.0914198,41.9949924 C53.0914198,43.04 52.2440305,43.8851908 51.1997557,43.8851908 C50.1625649,43.8851908 49.3127328,43.0402443 49.3127328,41.9949924 C49.3127328,40.9512061 50.1625649,40.1062595 51.1997557,40.1062595 C52.2440305,40.1062595 53.0914198,40.9512061 53.0914198,41.9949924 M76.0627786,18.800855 C77.8007939,19.7774656 71.4662595,29.5704427 61.4754198,34.7639695 C60.7523664,37.8603969 61.5462595,39.9269618 62.2250992,39.8392672 C64.3114504,39.2073282 63.4401221,34.0455573 63.4401221,34.0455573 C63.4401221,34.0455573 67.1914504,32.2389008 67.490687,32.090626 C68.9905344,36.7890076 66.5365496,43.7076031 61.831084,43.8851908 C55.8446412,43.6846412 56.2345038,36.8769466 56.2345038,36.8769466 L52.6702901,37.9659237 L53.671084,35.2537405 C53.671084,35.2537405 55.9789924,34.658687 56.4585038,34.5245802 C60.5237252,20.8068397 73.2096489,17.2162443 76.0627786,18.800855 M62.441771,32.0403053 C64.7934046,31.5656794 74.0003664,21.7651298 72.0840305,21.9402748 C68.2721221,22.8760916 61.6823206,31.6091603 62.441771,32.0403053 M69.8860458,31.3289771 L69.8860458,33.2846412 C69.8860458,33.2846412 72.4543511,31.6108702 72.6490382,31.9186565 C72.7193893,32.7990229 69.4673588,40.2279084 69.4014046,41.3535267 C69.3432672,41.8975267 69.6305344,43.8851908 71.3299542,43.8851908 C71.7557252,43.8851908 72.5273893,43.763542 73.2262595,43.382229 C75.7334962,42.0152672 78.4041527,39.3885802 78.4041527,39.3885802 C78.4041527,39.3885802 77.7663511,41.0432977 78.0440916,42.3623817 C78.3115725,43.6819542 79.7115115,44.2198473 81.196458,43.6731603 C82.6738321,43.1213435 84.5945649,41.8120305 85.3229924,40.9343511 C85.2130687,40.6512366 84.7970687,39.3262901 84.7970687,39.3262901 C84.7970687,39.3262901 83.4679695,40.5777099 83.1443053,40.4174656 C82.8130687,40.2484275 87.0341374,27.8883664 87.0341374,27.8883664 L82.3850992,27.8883664 C81.6911145,31.0353588 77.693313,39.2366412 74.9838168,39.5927939 C74.0592366,39.5239084 78.2583206,30.1613435 78.4114809,29.1007023 C78.7204885,27.7166412 77.693313,27.0803053 76.4570382,27.3634198 C75.1592061,27.8062901 69.8860458,31.3289771 69.8860458,31.3289771 M98.1525496,27.8883664 L102.555847,27.8883664 L95.4181374,50.2837252 L90.9679389,50.2837252 C90.9679389,50.2837252 93.4680916,41.669374 93.9986565,40.9934656 C90.4566718,45.4734656 87.3045496,43.6953893 86.746626,39.9960916 C86.2380458,35.5302595 87.8617405,31.3201832 91.6790229,28.8525191 C95.3299542,26.5741679 97.0997252,28.2965496 97.6087939,29.1783817 C97.7018626,28.969771 98.1525496,27.8883664 98.1525496,27.8883664 M96.3236641,32.1807634 C96.3578626,30.3000916 95.0461069,30.3254962 94.0037863,31.5085191 C93.609771,31.9636031 91.4574656,35.2214962 91.5327023,37.8283969 C91.6738931,40.0378626 92.655145,39.4567328 93.2780458,39.1091298 C94.746626,38.1034504 96.1854046,34.3399084 96.3236641,32.1807634 M29.7746565,43.8851908 C33.7277557,43.8851908 38.5409466,32.4494656 40.6392672,28.1284885 C41.040855,27.2837863 41.2770687,26.6701679 41.5008244,26.6452519 C42.2458626,27.4367023 35.3272672,39.7298321 39.1638473,43.0632061 C39.5314809,43.433771 40.0256489,43.6843969 40.5225038,43.8067786 C44.2225344,44.5479084 46.8203969,39.8641832 49.0406107,37.3906565 L47.9254962,36.2794504 C47.1853435,37.1414962 46.3237863,39.2469008 45.703084,38.1334962 C44.4738931,36.1538931 51.9665344,15.3912672 51.9665344,15.3912672 L44.9165191,15.3912672 C44.1766107,16.6253435 36.3231756,34.4271145 34.8357863,34.6770076 C34.5900458,34.7969466 34.4708397,34.5490076 34.4708397,34.3003359 C35.3275115,27.6338321 37.1024122,21.8181374 39.2009771,15.3912672 L32.1553588,15.3912672 C28.0779237,26.7539542 28.0439695,26.8927023 24.3363664,34.4271145 C22.4837863,37.8901985 19.7667176,40.1082137 21.7387481,34.6770076 L15.3216489,34.6770076 C14.0851298,38.0079389 13.5640916,43.5063206 17.5421069,43.8783511 C17.6224733,43.8847023 17.7025954,43.8847023 17.7780763,43.8847023 C22.1696489,43.8847023 26.9364275,32.6876336 27.4232672,32.2042137 C27.0556336,36.034687 25.3073588,40.608 27.5473588,42.9454656 C28.2288855,43.6538626 29.1561527,43.8851908 29.7746565,43.8851908 M106.86974,39.8644275 C108.442382,42.1554809 112.926534,37.8513588 112.926534,37.8513588 L113.960794,39.4450076 C113.960794,39.4450076 110.443481,43.9689771 106.365557,43.8849466 C104.44458,43.8463511 103.804824,43.2940458 102.563176,42.2930076 C102.166718,42.5665954 100.693496,43.4476947 100.693496,43.4476947 L99.9201221,41.3496183 C99.9201221,41.3496183 101.029618,40.7499237 101.555053,40.4365191 C100.357618,29.8838473 110.910534,26.0260153 114.761282,28.1814962 C117.369405,29.7631756 115.33655,35.4069008 106.86974,39.8644275 M106.589557,37.9219542 C111.152122,34.3079084 113.094351,30.9107786 112.13313,30.2414656 C111.178504,29.5721527 109.206718,31.2495878 107.994626,33.4014046 C106.774962,35.5544427 106.404641,37.6043969 106.589557,37.9219542 M116.010504,41.1876641 C116.29313,41.8413435 117.422656,43.8138626 119.862229,43.8849466 C120.892092,43.9176794 122.011603,43.5659237 123.72055,42.6384122 C129.450992,39.5136489 130.857771,31.6983206 130.758107,30.2226565 C130.731725,27.0661374 128.525924,27.5138931 128.15658,27.6291908 C125.09142,28.6549008 122.410992,32.4843969 122.410992,32.4843969 L123.740092,33.8127634 C123.740092,33.8127634 125.003237,31.4130076 126.216305,31.4130076 C127.430595,31.4130076 125.500336,36.096 125.193282,36.7885191 C123.598901,40.3043664 120.707176,41.8156947 119.915969,38.7092519 C118.920305,33.6078168 125.885069,28.1082137 125.885069,28.1082137 L121.159573,28.1060153 C121.159328,28.1065038 113.228458,34.2754198 116.010504,41.1876641" fill="#FFFFFF"></path>
                    </g>
                </g>
            </g>
        </g>
    </g>
</svg>