<svg width="82" height="87" viewBox="0 0 82 87" xmlns="http://www.w3.org/2000/svg"><title>Group 9</title><path d="M76.958 21.294L79.427 18l-2.47-3.292L74.514 18l2.445 3.294zm.795 65.31h3.55l-7.15-10.161 5.943-8.644h-2.883l-4.448 6.638-4.683-6.638h-3.576l6.43 9.107-6.74 9.699h2.987l5.17-7.667 5.4 7.667zM61.96 21.038h4.219l-1.57-3.165c.643-.231 1.107-.823 1.107-1.543 0-.901-.721-1.621-1.648-1.621-.9 0-1.621.72-1.621 1.62 0 .72.438 1.313 1.08 1.52l-1.567 3.189zm-5.89 46.762v7.512h-9.542v-7.512h-2.96v18.806h2.96v-8.722h9.543v8.722h2.986V67.799H56.07zM40.607 9.548l2.753-3.704h-5.505l2.752 3.704zM44.338 0h-7.462v3.268h7.462V0zm1.338 11.724H35.54v3.294h10.136v-3.294zm7.434 6.02H28.106v3.294H53.11v-3.293zM22.704 84.058l7.437-13.97h1.953v13.97h-9.39zm12.323-.127V67.799h-6.278L18.51 86.605h18.883l2.007-2.753-4.374.078zM15.062 21.037h4.219l-1.568-3.19c.642-.206 1.08-.798 1.08-1.518 0-.901-.72-1.621-1.621-1.621-.925 0-1.647.72-1.647 1.62 0 .72.463 1.313 1.107 1.544l-1.57 3.165zM10.819 83.93c-.438.154-.978.205-1.545.205h-4.63v-5.712h4.68c.517 0 1.108.052 1.623.259.797.333 1.466 1.104 1.466 2.468 0 1.493-.591 2.393-1.594 2.78zm-6.175-7.976v-5.66h4.295c.697 0 1.237.053 1.672.233.9.307 1.52 1.157 1.52 2.443 0 1.313-.517 2.187-1.262 2.598-.515.309-1.131.386-1.801.386H4.644zm8.207.798c.925-.488 2.314-1.674 2.314-4.116 0-2.651-1.595-4.09-3.318-4.554-1.002-.258-2.006-.283-2.908-.283H1.658v18.806h6.87c1.132 0 2.367 0 3.55-.361 1.929-.541 3.447-2.314 3.447-5.094 0-2.16-1.236-3.652-2.674-4.271v-.127zM4.283 21.294L6.729 18l-2.446-3.292L1.813 18l2.47 3.294zm57.702 42.544h4.219V33.05h8.645v30.787h4.217V33.05h1.697v-3.292H.475v3.292h1.7v30.787h4.219V33.05h8.59l.054 30.787h4.19V33.05h8.878v30.787h4.244V42.95c0-1.674.078-2.753.36-3.73.59-2.11 1.877-4.29 3.55-5.294 1.26-.773 2.754-1.107 4.346-1.107 1.365 0 2.676.232 3.808.797 1.878.927 3.372 3.238 4.014 5.398.334 1.08.436 2.186.436 3.936v20.888h4.246V33.05h8.875v30.787zm-61.51-40.1h80.288v3.294H.475v-3.293z" fill="#7F7F7F" fill-rule="evenodd"/></svg>