<svg width="145" height="64" viewBox="0 0 145 64" xmlns="http://www.w3.org/2000/svg"><title>Mvideo_logo_2013</title><g fill="none" fill-rule="evenodd"><path d="M112.812 63.87H32.036h.06-.238c-8.49-.04-16.452-3.357-22.442-9.347C3.386 48.495.07 40.485.07 31.963c0-8.518 3.316-16.53 9.346-22.557C15.406 3.416 23.366.1 31.836.06L112.84.058c8.507.016 16.506 3.335 22.52 9.35 6.03 6.026 9.343 14.038 9.343 22.557 0 8.523-3.313 16.533-9.343 22.56-6.02 6.022-14.032 9.343-22.548 9.345" fill="#FFF"/><path d="M131.917 51.082c-4.888 4.895-11.646 7.92-19.112 7.92H40.02h.006-8.17c-7.42-.033-14.13-3.05-18.998-7.92-4.893-4.892-7.92-11.65-7.92-19.12 0-7.464 3.027-14.22 7.92-19.114 4.87-4.87 11.578-7.888 19-7.92h80.98c7.455.01 14.196 3.034 19.08 7.92 4.895 4.894 7.92 11.65 7.92 19.115 0 7.47-3.025 14.227-7.92 19.12" fill="#EC2127"/><path d="M53.09 41.995c0 1.045-.846 1.89-1.89 1.89-1.037 0-1.887-.845-1.887-1.89 0-1.044.85-1.89 1.887-1.89 1.044 0 1.89.846 1.89 1.89M76.064 18.8c1.738.977-4.597 10.77-14.588 15.964-.723 3.096.07 5.163.75 5.075 2.086-.633 1.215-5.794 1.215-5.794s3.75-1.807 4.05-1.955c1.5 4.7-.953 11.618-5.66 11.795-5.985-.2-5.595-7.008-5.595-7.008l-3.565 1.09 1-2.713s2.31-.595 2.79-.73c4.064-13.717 16.75-17.308 19.603-15.723m-13.62 13.24c2.35-.474 11.557-10.275 9.64-10.1-3.81.936-10.4 9.67-9.64 10.1m7.443-.71v1.955s2.568-1.674 2.763-1.366c.07.88-3.183 8.308-3.25 9.434-.057.544.23 2.53 1.93 2.53.426 0 1.197-.12 1.896-.502 2.507-1.367 5.178-3.993 5.178-3.993s-.638 1.653-.36 2.972c.268 1.32 1.668 1.858 3.152 1.31 1.478-.55 3.4-1.86 4.127-2.738-.11-.283-.526-1.608-.526-1.608s-1.33 1.252-1.653 1.09c-.33-.168 3.89-12.528 3.89-12.528h-4.65c-.693 3.147-4.69 11.35-7.4 11.705-.925-.07 3.274-9.432 3.427-10.492.31-1.383-.717-2.02-1.953-1.737-1.298.443-6.57 3.966-6.57 3.966m28.266-3.442h4.403l-7.138 22.396h-4.45s2.5-8.615 3.03-9.29c-3.54 4.48-6.693 2.7-7.25-.998-.51-4.466 1.114-8.676 4.93-11.143 3.652-2.28 5.422-.556 5.93.325.094-.208.545-1.29.545-1.29m-1.83 4.293c.035-1.88-1.277-1.855-2.32-.67-.393.454-2.546 3.71-2.47 6.318.14 2.21 1.122 1.63 1.745 1.28 1.47-1.005 2.907-4.768 3.046-6.927m-66.55 11.705c3.954 0 8.767-11.436 10.865-15.757.4-.844.637-1.458.86-1.483.746.792-6.173 13.085-2.336 16.418.367.37.862.62 1.36.744 3.7.74 6.296-3.943 8.517-6.416l-1.115-1.11c-.74.86-1.6 2.967-2.222 1.853-1.23-1.98 6.264-22.742 6.264-22.742h-7.05c-.74 1.235-8.594 19.037-10.08 19.287-.247.12-.366-.128-.366-.377.858-6.666 2.632-12.482 4.73-18.91h-7.045c-4.077 11.364-4.11 11.503-7.82 19.037-1.85 3.463-4.568 5.68-2.596.25H15.32c-1.237 3.33-1.758 8.83 2.22 9.2.08.008.16.008.236.008 4.392 0 9.158-11.197 9.645-11.68-.367 3.83-2.116 8.403.124 10.74.682.71 1.61.94 2.228.94m77.095-4.02c1.572 2.29 6.057-2.014 6.057-2.014l1.034 1.595s-3.517 4.524-7.594 4.44c-1.92-.04-2.56-.59-3.803-1.592-.396.274-1.87 1.155-1.87 1.155l-.773-2.098s1.11-.6 1.635-.913c-1.197-10.553 9.356-14.41 13.206-12.256 2.61 1.583.577 7.227-7.89 11.684m-.28-1.942c4.562-3.614 6.504-7.01 5.543-7.68-.954-.67-2.926 1.008-4.138 3.16-1.22 2.152-1.59 4.202-1.405 4.52m9.42 3.266c.283.653 1.413 2.626 3.852 2.697 1.03.033 2.15-.32 3.86-1.247 5.73-3.124 7.136-10.94 7.036-12.415-.026-3.157-2.232-2.71-2.6-2.594-3.067 1.025-5.747 4.854-5.747 4.854l1.33 1.33s1.263-2.4 2.476-2.4c1.215 0-.716 4.682-1.023 5.375-1.594 3.514-4.486 5.026-5.277 1.92-.996-5.102 5.97-10.602 5.97-10.602l-4.726-.002s-7.932 6.17-5.15 13.082" fill="#FFF"/></g></svg>