<svg width="200" height="32" viewBox="0 0 200 32" xmlns="http://www.w3.org/2000/svg"><title>RZD</title><g fill="none" fill-rule="evenodd"><path d="M50.478 3.004V4.16h9.897c.66 0 1.65 0 2.31.66.66.66.66 1.65.66 2.308v9.898c0 .66 0 1.65-.66 2.31-.66.66-1.65.66-2.31.66H55.59c-.823 0-1.896 0-2.308-.908-.412-.907.165-1.732.66-2.392l6.433-8.578h-9.897l-3.96 5.28c-.663.883-1.237 1.648-1.237 2.638s.536 1.703 1.24 2.64l.988 1.32c.99 1.32 1.98 2.638 3.3 3.298 1.32.66 2.886.66 5.03.66h4.29c2.474 0 6.186 0 8.66-2.474 2.475-2.475 2.475-6.104 2.475-7.423v-3.96c0-1.32 0-4.948-2.475-7.423C66.314.2 62.602.204 60.128.202L53.282.2c-.66 0-1.485 0-2.145.66-.66.66-.66 1.485-.66 2.144" fill="#C4151C"/><path d="M38.6 8.118H48.5L36.62 23.954h-9.896L38.6 8.118M0 10.922c0-.66 0-1.484.66-2.144.66-.66 1.484-.66 2.144-.66h16.58c2.143 0 3.71 0 5.03.66 1.32.66 2.31 1.98 3.3 3.3l.99 1.32c.702.936 1.236 1.648 1.236 2.638s-.574 1.755-1.237 2.64l-3.96 5.278h-9.897l6.434-8.578c.495-.66 1.072-1.485.66-2.392-.413-.907-1.485-.907-2.31-.907h-7.753v19.795H3.96V12.077H0v-1.155" fill="#C4151C"/><path d="M80.667 21.104c-.594.808-1.2 1.603-1.794 2.4v.45h1.675c.82-1.092 1.247-1.662 1.247-2.316h1.64v2.316H85v-2.316h1.64c0 .653.427 1.224 1.246 2.316h1.675v-.45l-1.806-2.4c1.52-1.14 1.52-1.14 1.52-2.637v-.5h-1.71v.5c0 1.817 0 1.817-1.78 1.817H85v-2.316h-1.568v2.316h-.784c-1.78 0-1.78 0-1.78-1.817v-.5h-1.712v.5c0 1.496 0 1.496 1.51 2.637M92.532 20.427c0-1.32 0-1.32 1.46-1.32 1.462 0 1.462 0 1.462 1.32h-2.922zm0 1.07h1.46c1.533-.013 1.984.01 2.495-.108l.606-.144v-.58c0-.987 0-2.84-2.815-2.84h-.57c-2.815 0-2.815 1.853-2.815 2.85v.57c0 1.07.024 2.85 3.124 2.85.463 0 1.508 0 2.648-.284V22.53h-.32l-1.14.284h-1.212c-1.46 0-1.46 0-1.46-1.318zM99.74 17.968c0 .903-.07 3.623-1.495 5.523v.464h1.746c1.034-1.378 1.034-3.17 1.034-4.668h2.46v4.668h1.566v-5.986h-5.31M108.66 20.427c0-1.32 0-1.32 1.462-1.32 1.46 0 1.46 0 1.46 1.32h-2.92zm0 1.07h1.462c1.532-.013 1.983.01 2.494-.108l.606-.144v-.58c0-.987 0-2.84-2.815-2.84h-.57c-2.815 0-2.815 1.853-2.815 2.85v.57c0 1.07.024 2.85 3.123 2.85.464 0 1.51 0 2.65-.284V22.53h-.322l-1.14.284h-1.21c-1.462 0-1.462 0-1.462-1.318zM118.982 21.056v-.178c1.21-.31 1.21-1.057 1.21-1.342 0-.57 0-1.71-2.885-1.71-.428 0-1.425 0-2.565.285v1.283h.32l1.14-.285h1.32c.913 0 .96 0 .96.665 0 .654 0 .654-.96.654h-1.32v1.07h1.32c.913 0 .96 0 .96.652 0 .664 0 .664-.96.664h-1.32l-1.14-.285h-.32v1.282c1.14.285 2.137.285 2.565.285 2.874 0 2.886-1.14 2.886-1.71 0-.285 0-1.034-1.21-1.33M126.714 17.968v2.316h-3.136v-2.316h-1.568v5.986h1.568v-2.316h3.136v2.316h1.567v-5.986h-1.566M133.234 20.96c1.247 0 1.247 0 1.247.928 0 .926 0 .926-1.246.926h-1.247V20.96h1.247zm5.594-2.992h-1.567v5.986h1.568v-5.986zm-5.38 5.986c1.888 0 2.672-.416 2.672-2.03 0-.892 0-2.174-2.458-2.174-.356 0-.963.036-1.675.214v-1.996h-1.568v5.986h3.028zM142.367 20.427c0-1.32 0-1.32 1.46-1.32 1.462 0 1.462 0 1.462 1.32h-2.923zm0 1.07h1.46c1.533-.013 1.985.01 2.496-.108l.605-.144v-.58c0-.987 0-2.84-2.815-2.84h-.57c-2.815 0-2.815 1.853-2.815 2.85v.57c0 1.07.024 2.85 3.124 2.85.463 0 1.508 0 2.65-.284V22.53h-.322l-1.14.284h-1.212c-1.46 0-1.46 0-1.46-1.318zM153.46 20.747c0-1.603 0-1.567 2.126-1.567.285 0 .677.035 1.152.142v2.566l-1.52.38c-1.758 0-1.758 0-1.758-1.52zm-.926 4.134v1.355c1.14.285 2.067.285 2.423.285 3.23 0 3.337-1.402 3.35-2.993v-5.56h-.512l-.76.572c-.522-.68-1.793-.702-2.197-.702-3.017 0-3.017 1.9-3.017 2.767v.285c0 .998 0 2.637 2.567 2.637.772 0 1.686-.214 2.35-.713v.5c0 1.84-.034 1.852-1.923 1.852h-.82l-1.14-.285h-.32zM163.07 17.826c-3.03 0-3.03 1.78-3.03 2.85v.57c0 1.07 0 2.85 3.03 2.85h.57c3.028 0 3.028-1.78 3.028-2.85v-.57c0-1.07 0-2.85-3.03-2.85h-.57zm.284 1.318c1.675 0 1.675 0 1.675 1.817 0 1.82 0 1.82-1.676 1.82-1.675 0-1.675 0-1.675-1.82 0-1.816 0-1.816 1.674-1.816zM173.248 20.96c0 1.783 0 1.783-1.746 1.783-.428 0-.974 0-1.533-.143v-2.993l1.52-.38c1.758 0 1.758.024 1.758 1.734zm-4.846-2.992v8.41h1.567v-2.602c.712.178 1.282.32 2.137.32 2.78 0 2.78-2.03 2.78-2.85v-.57c0-.997 0-2.85-2.6-2.85-1.33 0-2.104.582-2.53.902l-.57-.76h-.785zM179.602 17.826c-3.03 0-3.03 1.78-3.03 2.85v.57c0 1.07 0 2.85 3.03 2.85h.57c3.03 0 3.03-1.78 3.03-2.85v-.57c0-1.07 0-2.85-3.03-2.85h-.57zm.285 1.318c1.674 0 1.674 0 1.674 1.817 0 1.82 0 1.82-1.673 1.82-1.675 0-1.675 0-1.675-1.82 0-1.816 0-1.816 1.675-1.816zM187.725 17.826c-.57 0-1.318 0-2.458.285v1.283h.32l1.14-.285h1.46c.785 0 .785 0 .785.452 0 .31 0 .404-.605.51l-1.426.357c-.818.202-1.958.51-1.958 1.746 0 .82 0 1.924 2.886 1.924.57 0 1.318 0 2.458-.285V22.53h-.32c-.475.13-.927.236-1.105.284h-1.495c-.784 0-.784 0-.784-.45 0-.274 0-.334.333-.43l.796-.213.902-.224c.82-.202 1.96-.5 1.96-1.746 0-.82 0-1.924-2.887-1.924M197.94 24.12l1.163-.866c-.427-.57-.427-.57-.427-1.58v-3.706h-1.568v4.347l-1.52.38c-1.616 0-1.616 0-1.616-1.65v-3.077h-1.568v3.314c0 1.176 0 2.815 2.388 2.815 1.247 0 2.02-.582 2.446-.903l.7.927M79.18 3.668v8.41h1.71V9.76h1.355c2.316 0 4.133 0 4.133-3.04 0-3.052-1.817-3.052-4.133-3.052H79.18zm1.71 4.597v-3.1h2.067c1.533 0 1.604 0 1.604 1.555 0 1.51 0 1.545-1.603 1.545H80.89zM90.713 5.948c-3.03 0-3.03 1.782-3.03 2.85v.57c0 1.07 0 2.852 3.03 2.852h.57c3.03 0 3.03-1.782 3.03-2.85V8.8c0-1.07 0-2.852-3.03-2.852h-.57zm.285 1.32c1.675 0 1.675 0 1.675 1.816 0 1.817 0 1.817-1.675 1.817s-1.675 0-1.675-1.816c0-1.817 0-1.817 1.675-1.817zM98.98 12.22c.427 0 1.532 0 2.672-.285v-1.283h-.32l-1.153.285H99.5c-1.984 0-1.984 0-1.984-1.853s0-1.853 1.46-1.853c1.237 0 1.237 0 1.534 1.177l1.425-.356c0-.57 0-2.1-2.673-2.1h-.57c-2.815 0-2.815 1.78-2.815 2.85v.57c0 1.068 0 2.85 3.1 2.85M106.51 12.22c.427 0 1.532 0 2.672-.285v-1.283h-.32l-1.153.285h-.678c-1.984 0-1.984 0-1.984-1.853s0-1.853 1.46-1.853c1.237 0 1.237 0 1.534 1.177l1.425-.356c0-.57 0-2.1-2.673-2.1h-.57c-2.815 0-2.815 1.78-2.815 2.85v.57c0 1.068 0 2.85 3.1 2.85M116.605 12.244l1.164-.868c-.43-.57-.43-.57-.43-1.58V6.092h-1.567v4.348l-1.52.38c-1.616 0-1.616 0-1.616-1.65V6.09h-1.567v3.315c0 1.175 0 2.814 2.387 2.814 1.247 0 2.02-.582 2.447-.903l.7.927M122.116 3.953c-.772 0-.772 0-1.152-.428l-.69.535c.75.962 1.13 1.034 2.222 1.034h.26c1.082 0 1.474-.072 2.21-1.034l-.69-.535c-.367.428-.367.428-1.15.428h-1.01zm2.898 8.29l1.163-.867c-.427-.57-.427-.57-.427-1.58V6.092h-1.568v4.348l-1.52.38c-1.58 0-1.616 0-1.616-1.65V6.09h-1.567v3.315c0 1.175 0 2.814 2.386 2.814 1.247 0 2.02-.582 2.447-.903l.7.927zM130.857 12.22c.428 0 1.532 0 2.672-.285v-1.283h-.322l-1.152.285h-.677c-1.984 0-1.984 0-1.984-1.853s0-1.853 1.46-1.853c1.236 0 1.236 0 1.533 1.177l1.424-.356c0-.57 0-2.1-2.672-2.1h-.57c-2.815 0-2.815 1.78-2.815 2.85v.57c0 1.068 0 2.85 3.1 2.85M135.572 6.09v5.987h1.568V9.76h1.924c0 .654.428 1.224 1.247 2.317h1.676v-.45l-1.805-2.4c1.52-1.14 1.52-1.14 1.52-2.637v-.5h-1.71v.5c0 1.817 0 1.817-1.78 1.817h-1.07V6.09h-1.568M149.1 12.244l1.164-.868c-.428-.57-.428-.57-.428-1.58V6.092h-1.567v4.348l-1.522.38c-1.615 0-1.615 0-1.615-1.65V6.09h-1.568v3.315c0 1.175 0 2.814 2.387 2.814 1.248 0 2.02-.582 2.447-.903l.7.927M153.364 8.55c0-1.32 0-1.32 1.46-1.32 1.462 0 1.462 0 1.462 1.32h-2.922zm0 1.07h1.46c1.533-.013 1.984.01 2.495-.108l.605-.143v-.582c0-.987 0-2.84-2.815-2.84h-.57c-2.815 0-2.815 1.854-2.815 2.85v.572c0 1.07.024 2.85 3.123 2.85.463 0 1.51 0 2.65-.285v-1.283h-.322l-1.14.285h-1.21c-1.462 0-1.462 0-1.462-1.318z" fill="#231F20"/></g></svg>