<svg width="110" height="38" viewBox="0 0 110 38" xmlns="http://www.w3.org/2000/svg"><title>Amway_(logo)</title><g fill="none" fill-rule="evenodd"><path d="M-1-1h112.15v39.908H-1z"/><path d="M.827 37.35s62.096-15.254 108.105-4.507l.142-.497S68.93 20.49 1.598 34.93" fill="#ED174C"/><path d="M30.552 7.415v2.53c.23-.508.52-1.194 1.3-1.844.845-.72 2.08-1.12 3.284-1.12.616 0 1.234.11 1.85.327 1.918.722 2.47 2.238 2.698 2.888 1.496-2.78 3.867-3.176 5.134-3.176 1.56 0 2.925.578 3.835 1.48 1.624 1.588 1.69 3.32 1.69 7.654v9.965h-4.776V17.27c0-2.998-.065-3.61-.554-4.404-.52-.867-1.268-1.05-1.983-1.05-1.3 0-1.948.94-2.046 1.085-.52.903-.52 2.456-.52 3.972v9.244h-4.777v-9.425c0-2.022 0-2.925-.488-3.756-.358-.614-1.073-1.12-1.95-1.12-.422 0-.845.108-1.235.326-1.398.793-1.43 2.166-1.43 5.705v8.27h-4.778V7.414M69.34 7.415h4.873L69.34 26.12h-4.455L62.058 13.48 59.265 26.12h-4.517L49.874 7.414h4.874l2.568 11.7 2.63-11.7h4.225l2.603 11.7M84.49 26.12h4.682V7.38H84.59v2.418c-.845-1.805-2.307-2.852-4.16-2.852-3.184 0-7.344 2.744-7.344 10.11 0 5.85 2.988 9.46 6.986 9.46 2.73 0 3.834-1.588 4.418-2.455v2.06zm-.244-9.57c0 1.698-.228 3.323-1.236 4.55-.845.974-1.786 1.048-2.08 1.048-.942 0-2.014-.578-2.665-2.204-.388-.938-.52-2.058-.52-3.214 0-1.444.198-2.924 1.008-4.115.585-.832 1.494-1.372 2.373-1.372.714 0 1.43.36 1.917.938.617.688 1.203 1.95 1.203 4.37z" fill="#004B85"/><path d="M100.203 7.415h4.856l-5.344 18.56c-.39 1.3-1.006 3.43-1.95 4.477-.878.94-1.918 1.373-5.785 1.373-.552 0-.778-.037-1.266-.072V27.6h1.267c.457 0 1.53 0 2.016-.47.39-.325.715-1.12.715-1.878 0-.396-.195-1.12-.356-1.59l-5.2-16.247h5.2l3.054 12.6M12.11.57L4.085 26.12H9.98l1.496-5.43H19l1.533 5.43h5.926L18.1.57h-5.99zm3.028 5.61l2.564 9.842H12.71l2.428-9.843z" fill="#004B85"/></g></svg>