<svg xmlns="http://www.w3.org/2000/svg" viewBox="0 0 172.28 20.23"><g fill="#19dd57"><path d="M7.29 19.82L0 .42h5.54l4.38 13.3L14.3.42h5.54l-7.29 19.4zM39.06.42v4.43h-8.85v3h8v4.41h-8v3.16h9v4.43H25.09V.42zM45.52 19.82V.42h4.85L58 11.56c-.08-.92-.11-2.13-.11-3.22V.42H63v19.4h-4.87L50.53 8.7c.08.91.11 2.13.11 3.19v7.93zM84.57.42V5h-5.46v14.82H74V5h-5.5V.42zM107.36.42v12c0 5.85-4.44 7.82-8.73 7.82s-8.73-2-8.73-7.82v-12H95v11.72c0 2.61 1.41 3.52 3.6 3.52s3.6-.92 3.6-3.52V.42zM114.15 19.82V.42h8.18c3.94 0 8 1.41 8 6.54a5.72 5.72 0 0 1-3.71 5.82l5.35 7h-5.79l-4.68-6.28h-2.22v6.32zm5.13-10.48h3.27A2.16 2.16 0 0 0 125 7.1a2.16 2.16 0 0 0-2.47-2.25h-3.27zM151.16.42v4.43h-8.84v3h8v4.41h-8v3.16h9v4.43h-14.13V.42zM164.24 0a13.64 13.64 0 0 1 6.51 1.55v4.71a10 10 0 0 0-6.1-1.83c-1.88 0-2.47.53-2.47 1.25 0 2.52 10.09 1.75 10.09 8.62 0 4.6-3.52 5.93-7.76 5.93a15.52 15.52 0 0 1-7.46-1.77v-4.85a12.54 12.54 0 0 0 7.07 2.19c2 0 2.88-.33 2.88-1.3 0-2.8-10.09-1.86-10.09-8.79.01-3.88 3.34-5.71 7.33-5.71z"/></g></svg>