<svg width="142" height="43" viewBox="0 0 142 43" xmlns="http://www.w3.org/2000/svg"><title>Group 6</title><path d="M123.771 31.813c.345.795 1.721 3.198 4.691 3.285 1.255.04 2.62-.39 4.701-1.519 6.98-3.805 8.693-13.325 8.571-15.12-.03-3.847-2.719-3.302-3.168-3.16-3.734 1.248-6.999 5.912-6.999 5.912l1.62 1.62s1.537-2.924 3.015-2.924c1.48 0-.872 5.704-1.246 6.548-1.942 4.281-5.464 6.123-6.427 2.338-1.214-6.212 7.271-12.91 7.271-12.91l-5.757-.004s-9.66 7.515-6.272 15.934m-11.474-3.979c5.557-4.4 7.922-8.539 6.751-9.353-1.16-.816-3.563 1.228-5.04 3.85-1.485 2.62-1.936 5.117-1.71 5.503m.34 2.368c1.915 2.79 7.378-2.453 7.378-2.453l1.26 1.941s-4.285 5.51-9.25 5.408c-2.34-.048-3.12-.72-4.634-1.939-.48.334-2.277 1.407-2.277 1.407l-.942-2.556s1.352-.73 1.992-1.112c-1.458-12.854 11.395-17.553 16.085-14.928 3.176 1.927.702 8.802-9.612 14.23m-93.902 4.898c4.816 0 10.68-13.93 13.233-19.192.49-1.029.778-1.776 1.05-1.807.908.965-7.519 15.938-2.846 19.997.447.451 1.05.757 1.656.906 4.505.902 7.67-4.802 10.374-7.814l-1.359-1.354c-.9 1.05-1.95 3.615-2.707 2.258-1.498-2.412 7.63-27.7 7.63-27.7H37.18c-.9 1.503-10.468 23.186-12.278 23.49-.3.147-.445-.156-.445-.459C25.5 15.304 27.662 8.22 30.218.393h-8.582c-4.966 13.84-5.008 14.01-9.523 23.185-2.256 4.217-5.567 6.92-3.163.304H1.133c-1.507 4.056-2.14 10.755 2.704 11.207.098.01.196.01.288.01 5.35 0 11.154-13.64 11.748-14.227-.448 4.665-2.578 10.234.151 13.081.83.863 1.961 1.145 2.713 1.145m81.055-14.256c.042-2.29-1.555-2.26-2.826-.818-.478.554-3.1 4.521-3.007 7.697.17 2.692 1.366 1.984 2.125 1.56 1.79-1.226 3.541-5.81 3.71-8.439m2.227-5.227h5.363L98.69 42.892h-5.42s3.045-10.493 3.69-11.315c-4.312 5.456-8.152 3.29-8.832-1.216-.619-5.44 1.36-10.568 6.008-13.572 4.447-2.776 6.602-.677 7.223.396.113-.254.662-1.57.662-1.57m-34.429 4.19v2.382s3.128-2.039 3.366-1.664c.084 1.072-3.876 10.12-3.957 11.492-.07.662.281 3.083 2.35 3.083.52 0 1.458-.147 2.31-.613 3.052-1.665 6.306-4.863 6.306-4.863s-.777 2.014-.438 3.621c.326 1.607 2.031 2.262 3.84 1.596 1.798-.672 4.138-2.266 5.025-3.336-.134-.344-.64-1.959-.64-1.959s-1.619 1.526-2.013 1.33c-.403-.207 4.737-15.26 4.737-15.26h-5.662c-.846 3.833-5.715 13.822-9.015 14.256-1.126-.085 3.99-11.488 4.174-12.779.378-1.686-.874-2.46-2.38-2.117-1.58.54-8.003 4.83-8.003 4.83m-9.066.867c2.863-.578 14.077-12.515 11.743-12.3-4.643 1.138-12.669 11.775-11.743 12.3m16.59-16.125c2.117 1.19-5.6 13.12-17.769 19.444-.88 3.77.087 6.288.914 6.181 2.541-.77 1.48-7.056 1.48-7.056s4.57-2.2 4.933-2.38c1.826 5.722-1.16 14.148-6.893 14.364-7.29-.244-6.816-8.536-6.816-8.536l-4.34 1.326 1.217-3.303s2.812-.724 3.396-.888C56.19 6.99 71.64 2.618 75.116 4.546m-27.98 28.251a2.303 2.303 0 0 1-4.6 0 2.302 2.302 0 0 1 4.601 0" fill="#7F7F7F" fill-rule="evenodd"/></svg>