<svg width="134" height="52" viewBox="0 0 134 52" xmlns="http://www.w3.org/2000/svg"><title>Group 8</title><g fill="#7F7F7F" fill-rule="evenodd"><path d="M17.72 4.985h-2.555c-3.864 0-7.604 2.556-7.604 9.973 0 7.168 3.428 9.473 7.604 9.473h2.555V4.985zm-3.988 23.436L6.127 45.5H.58l8.352-18.263c-3.928-1.994-6.545-5.609-6.545-12.278C2.388 5.608 8.309.934 15.352.934h7.168V45.5h-4.8V28.421h-3.988zM115.763 29.793c0-9.85 3.801-16.144 11.156-16.144 2.805 0 4.426.748 5.796 1.62l-.685 4.613c-1.309-1.122-3.179-2.182-5.172-2.182-3.492 0-5.984 3.927-5.984 11.843 0 7.854 1.869 12.34 5.796 12.34 2.367 0 4.176-.934 5.297-1.931l1.122 3.615c-1.681 1.434-3.677 2.369-6.543 2.369-6.733 0-10.784-5.423-10.784-16.143zm-14.212.062v15.644h-4.86V14.085h4.86v14.523l7.543-14.523h4.924l-7.791 14.772 8.912 16.642h-5.297l-8.29-15.644zm-22.874-2.93h8.04c0-5.361-.873-9.286-3.677-9.286-2.992 0-4.05 3.676-4.363 9.286zm5.36 19.01c-6.482 0-10.47-5.173-10.47-14.833 0-10.098 2.804-17.453 9.473-17.453 5.236 0 8.663 3.927 8.663 14.585v2.68H78.616c0 7.106 1.995 10.846 5.859 10.846 2.742 0 4.923-1.247 6.17-2.12l1.122 3.74c-1.994 1.559-4.612 2.556-7.73 2.556zM63.344 18.014h-5.422v.56c0 6.607-.311 16.268-2.93 22.937h8.352V18.013zm7.292 33.657h-4.362v-6.171H52.81v6.17H48.45V41.51h1.93c2.867-6.668 3.18-16.392 3.18-24.743v-2.681h14.585V41.51h2.492v10.16zM45.644 14.085v31.414h-4.8V31.413h-7.23v14.086h-4.862V14.085h4.863v13.339h7.228v-13.34h4.8z"/></g></svg>