<svg width="154" height="53" viewBox="0 0 154 53" xmlns="http://www.w3.org/2000/svg"><title>Group 3</title><g fill="#7F7F7F" fill-rule="evenodd"><path d="M118.633 22.917c0 2.402-.322 4.697-1.745 6.433-1.195 1.375-2.526 1.479-2.94 1.479-1.332 0-2.846-.816-3.766-3.114-.549-1.326-.736-2.908-.736-4.542 0-2.041.28-4.132 1.425-5.816.827-1.175 2.112-1.938 3.354-1.938 1.009 0 2.02.509 2.709 1.325.871.97 1.7 2.756 1.7 6.174v-.001zM153.72 45.24s-5.38-1.586-15.587-3.187c1.112-1.584 1.867-4.167 2.361-5.816l7.552-26.228h-6.862l-3.95 17.807-4.317-17.807h-7.323v-.051h-6.476v3.422c-1.192-2.553-3.258-4.032-5.878-4.032-4.498 0-10.377 3.878-10.377 14.287 0 8.266 4.222 13.368 9.873 13.368 3.856 0 5.417-2.243 6.242-3.47l.003 2.909v-.001h6.614V10.089l7.322 22.882c.228.662.506 1.685.506 2.245 0 1.072-.46 2.194-1.012 2.655-.688.663-2.203.663-2.846.663h-1.79v2.13c-25.458-2.876-68.755-4.033-125.937 8.23L.75 52.313s66.805-16.41 127.026-10.504v2.593c.689.05 1.007.103 1.79.103 4.901 0 6.588-.494 7.779-1.555 5.5.779 10.912 1.764 16.175 2.993l.2-.703z"/><path d="M83.332 36.441l3.946-17.858 3.995 17.858h6.296l6.887-26.433h-6.887L93.94 26.542l-3.676-16.534h-5.97l-3.718 16.534-3.63-16.534h-6.886l6.887 26.433zM20.973 8.263l3.623 13.909h-7.055l3.432-13.91zm-5.176 20.506h10.635l2.165 7.673H42.802V24.757c0-5.001.045-6.941 2.021-8.061a3.554 3.554 0 0 1 1.745-.463 3.219 3.219 0 0 1 2.754 1.583c.69 1.175.69 2.45.69 5.307v13.319h6.75V23.378c0-2.142 0-4.337.735-5.613.138-.205 1.056-1.533 2.891-1.533 1.011 0 2.067.259 2.803 1.483.691 1.12.783 1.987.783 6.224v12.503h6.747V22.359c0-6.126-.092-8.571-2.387-10.818-1.286-1.273-3.215-2.091-5.419-2.091-1.79 0-5.14.559-7.254 4.488-.323-.918-1.103-3.061-3.814-4.081a7.869 7.869 0 0 0-2.614-.461c-1.7 0-3.447.562-4.64 1.583-1.103.919-1.515 1.888-1.838 2.604v-3.574H36.05v23.615L25.16.334h-8.468L5.355 36.443h8.327l2.115-7.673z"/></g></svg>