<?xml version="1.0" standalone="no"?>
<!DOCTYPE svg PUBLIC "-//W3C//DTD SVG 1.1//EN" "http://www.w3.org/Graphics/SVG/1.1/DTD/svg11.dtd" >
<svg xmlns="http://www.w3.org/2000/svg" xmlns:xlink="http://www.w3.org/1999/xlink" version="1.1">
<metadata>
Created by FontForge 20161116 at Mon Jul  7 22:36:59 2014
 By Jimmy Wärting
Designed at ParaType (ParaGraph) in 1997 by Tagir Safayev. Based on a condensed style of DIN type family (Linotype Staff designers). That is a group of sans serif faces made to conform to the German Industrial Standard. Based on geometric style, they vary in width but not in weight. Light style was added in 2014 by Manvel Schmavonyan.
</metadata>
<defs>
<font id="DINCondensed-Regular" horiz-adv-x="410" >
  <font-face 
    font-family="DIN Condensed"
    font-weight="400"
    font-stretch="condensed"
    units-per-em="1000"
    panose-1="2 11 6 6 4 0 0 2 2 4"
    ascent="770"
    descent="-230"
    x-height="496"
    cap-height="700"
    bbox="-270 -256 844 902"
    underline-thickness="50"
    underline-position="-100"
    stemh="100"
    stemv="100"
    unicode-range="U+0020-FEFF"
  />
<missing-glyph horiz-adv-x="233" 
 />
    <glyph glyph-name="ij" unicode="ij" horiz-adv-x="418" 
d="M54 0v496h100v-496h-100zM54 686h100v-98h-100v98zM364 496v-543c0 -37 3 -82 -32 -120c-33 -36 -74 -37 -107 -37h-32v98h18c21 0 34 8 40 15c13 14 13 32 13 44v543h100zM264 686h100v-98h-100v98z" />
    <glyph glyph-name="afii10017.var.accented" unicode="&#x410;`" horiz-adv-x="414" 
d="M404 0h-100l-33 150h-128l-33 -150h-100l153 700h88zM259 239l-54 266l-52 -266h106zM210 764h-65l50 105h121z" />
    <glyph glyph-name="afii10022.var.accented" unicode="&#x415;`" horiz-adv-x="395" 
d="M60 0v700h297v-95h-197v-206h174v-90h-174v-214h200v-95h-300zM202 764h-65l50 105h121z" />
    <glyph glyph-name="afii10026.var.accented" unicode="&#x418;`" horiz-adv-x="485" 
d="M60 700h100v-430l165 350v80h100v-700h-100v430l-165 -350v-80h-100v700zM247 764h-65l50 105h121z" />
    <glyph glyph-name="afii10032.var.accented" unicode="&#x41e;`" horiz-adv-x="462" 
d="M56 184v332c0 53 4 104 52 149c30 28 71 45 123 45s93 -17 123 -45c48 -45 52 -96 52 -149v-332c0 -53 -4 -104 -52 -149c-30 -28 -71 -45 -123 -45s-93 17 -123 45c-48 45 -52 96 -52 149zM306 169v362c0 21 -2 42 -21 61c-11 11 -29 20 -54 20s-43 -9 -54 -20
c-19 -19 -21 -40 -21 -61v-362c0 -21 2 -42 21 -61c11 -11 29 -20 54 -20s43 9 54 20c19 19 21 40 21 61zM235 764h-65l50 105h121z" />
    <glyph glyph-name="afii10037.var.accented" unicode="&#x423;`" horiz-adv-x="406" 
d="M10 700h114l96 -343h3c6 38 17 102 26 143l44 200h103l-119 -478c-20 -78 -33 -167 -92 -203c-30 -18 -60 -19 -86 -19h-36v95h25c20 0 37 7 46 17c8 8 17 29 20 42l13 59zM202 764h-65l50 105h121z" />
    <glyph glyph-name="afii10045.var.accented" unicode="&#x42b;`" horiz-adv-x="632" 
d="M60 700h100v-283h49c39 0 94 2 139 -40c43 -40 43 -90 43 -116v-82c0 -34 -2 -73 -29 -113c-19 -28 -58 -66 -150 -66h-152v700zM160 327v-237h45c26 0 86 6 86 104v38c0 34 -5 58 -27 77c-16 13 -31 18 -53 18h-51zM472 700h100v-700h-100v700zM320 764h-65l50 105h121z
" />
    <glyph glyph-name="afii10047.var.accented" unicode="&#x42d;`" horiz-adv-x="435" 
d="M45 501v63c0 99 80 146 164 146c82 0 170 -39 170 -146v-397c0 -62 -7 -177 -172 -177c-125 0 -162 78 -162 139v65h100v-40c0 -46 25 -66 68 -66c70 0 66 52 66 75v157h-124v90h124v145c0 35 -30 57 -69 57c-41 0 -65 -29 -65 -69v-42h-100zM226 764h-65l50 105h121z
" />
    <glyph glyph-name="afii10048.var.accented" unicode="&#x42e;`" horiz-adv-x="649" 
d="M243 184v125h-83v-309h-100v700h100v-301h83v117c0 53 4 104 52 149c30 28 71 45 123 45s93 -17 123 -45c48 -45 52 -96 52 -149v-332c0 -53 -4 -104 -52 -149c-30 -28 -71 -45 -123 -45s-93 17 -123 45c-48 45 -52 96 -52 149zM493 169v362c0 21 -2 42 -21 61
c-11 11 -29 20 -54 20s-43 -9 -54 -20c-19 -19 -21 -40 -21 -61v-362c0 -21 2 -42 21 -61c11 -11 29 -20 54 -20s43 9 54 20c19 19 21 40 21 61zM326 764h-65l50 105h121z" />
    <glyph glyph-name="afii10049.var.accented" unicode="&#x42f;`" horiz-adv-x="444" 
d="M384 700v-700h-100v302h-62l-90 -302h-107l104 325c-24 10 -39 26 -48 38c-18 25 -32 69 -32 107v53c0 52 14 94 37 122c47 58 121 55 172 55h126zM284 610h-47c-21 0 -45 2 -65 -18c-13 -13 -23 -37 -23 -64v-50c0 -27 1 -44 21 -63c19 -18 40 -23 62 -23h52v218z
M226 764h-65l50 105h121z" />
    <glyph glyph-name="afii10023.var.accented" unicode="&#x401;`" horiz-adv-x="399" 
d="M140 864v-100h-80v100h80zM282 764v100h80v-100h-80zM201 797h-50l50 105h106zM64 0v700h297v-95h-197v-206h174v-90h-174v-214h200v-95h-300z" />
    <glyph glyph-name="afii10065.var.accented" unicode="&#x430;`" horiz-adv-x="405" 
d="M251 0v49h-2c-7 -11 -20 -27 -34 -38c-19 -15 -37 -19 -58 -19c-20 0 -51 3 -76 26c-31 29 -36 74 -36 114c0 36 2 90 31 124c33 39 89 43 118 43c7 0 26 0 57 -3v52c0 14 -1 29 -13 42c-10 11 -25 16 -40 16c-14 0 -29 -5 -40 -18c-7 -8 -12 -19 -13 -32h-95
c-1 45 18 84 41 107c25 25 66 41 112 41c45 0 82 -16 107 -40c36 -36 41 -83 41 -117v-347h-100zM251 146v70c-12 2 -24 3 -35 3c-16 0 -40 -2 -56 -21c-13 -15 -15 -36 -15 -52c0 -14 2 -28 10 -41c10 -16 23 -23 40 -23c30 0 56 20 56 64zM209 578h-57l44 122h107z" />
    <glyph glyph-name="afii10070.var.accented" unicode="&#x435;`" horiz-adv-x="397" 
d="M150 211v-64c0 -15 1 -31 13 -43c8 -9 22 -14 38 -14c17 0 30 6 40 21c6 10 9 23 9 34h100v-4c0 -37 -7 -86 -56 -121c-25 -18 -59 -28 -93 -28c-46 0 -89 19 -115 48c-35 39 -36 90 -36 120v190c0 35 7 84 49 120c23 20 57 34 99 34c43 0 79 -14 104 -36
c44 -38 50 -88 50 -127v-130h-202zM150 288h102v65c0 13 -2 27 -14 39c-8 8 -21 14 -37 14c-17 0 -31 -7 -39 -17c-10 -12 -12 -27 -12 -40v-61zM205 578h-57l44 122h107z" />
    <glyph glyph-name="afii10074.var.accented" unicode="&#x438;`" horiz-adv-x="431" 
d="M54 496h100v-277l123 216v61h100v-496h-100v277l-123 -216v-61h-100v496zM222 578h-57l44 122h107z" />
    <glyph glyph-name="afii10080.var.accented" unicode="&#x43e;`" horiz-adv-x="402" 
d="M50 160v176c0 39 3 94 49 133c27 23 65 35 102 35s75 -12 102 -35c46 -39 49 -94 49 -133v-176c0 -39 -3 -94 -49 -133c-27 -23 -65 -35 -102 -35s-75 12 -102 35c-46 39 -49 94 -49 133zM252 154v188c0 23 -6 40 -15 50c-8 8 -21 14 -36 14s-28 -6 -36 -14
c-9 -10 -15 -27 -15 -50v-188c0 -23 6 -40 15 -50c8 -8 21 -14 36 -14s28 6 36 14c9 10 15 27 15 50zM207 578h-57l44 122h107z" />
    <glyph glyph-name="afii10085.var.accented" unicode="&#x443;`" horiz-adv-x="369" 
d="M7 496h108l81 -308h4l62 308h100l-136 -563c-7 -29 -16 -77 -46 -106s-69 -31 -100 -31h-26l-2 93h19c14 0 33 2 47 21c4 5 10 16 18 48l16 65zM189 578h-57l44 122h107z" />
    <glyph glyph-name="afii10093.var.accented" unicode="&#x44b;`" horiz-adv-x="569" 
d="M54 496h100v-184h52c37 0 76 -3 108 -32c18 -16 40 -47 40 -93v-56c0 -23 -3 -66 -40 -99c-33 -29 -71 -32 -108 -32h-152v496zM154 222v-132h46c13 0 31 2 43 17c10 11 11 24 11 35v28c0 11 -2 26 -12 37c-12 13 -28 15 -42 15h-46zM415 0v496h100v-496h-100zM291 578
h-57l44 122h107z" />
    <glyph glyph-name="afii10095.var.accented" unicode="&#x44d;`" horiz-adv-x="385" 
d="M30 346v3c0 39 13 84 40 112c25 27 67 43 115 43c49 0 82 -18 103 -37c42 -38 46 -89 46 -129v-171c0 -43 1 -91 -39 -132c-27 -28 -70 -43 -115 -43s-78 16 -100 34c-22 19 -50 54 -50 113v9h100v-8c0 -10 5 -25 11 -33c12 -15 30 -17 40 -17c24 0 36 11 41 17
c9 11 12 28 12 42v57h-98v90h98v45c0 17 -2 34 -14 48s-27 17 -39 17c-20 0 -33 -9 -40 -19c-7 -9 -11 -23 -11 -33v-8h-100zM196 578h-57l44 122h107z" />
    <glyph glyph-name="afii10096.var.accented" unicode="&#x44e;`" horiz-adv-x="568" 
d="M216 160v46h-62v-206h-100v496h100v-200h62v40c0 39 3 94 49 133c27 23 65 35 102 35s75 -12 102 -35c46 -39 49 -94 49 -133v-176c0 -39 -3 -94 -49 -133c-27 -23 -65 -35 -102 -35s-75 12 -102 35c-46 39 -49 94 -49 133zM418 154v188c0 23 -6 40 -15 50
c-8 8 -21 14 -36 14s-28 -6 -36 -14c-9 -10 -15 -27 -15 -50v-188c0 -23 6 -40 15 -50c8 -8 21 -14 36 -14s28 6 36 14c9 10 15 27 15 50zM288 578h-57l44 122h107z" />
    <glyph glyph-name="afii10097.var.accented" unicode="&#x44f;`" horiz-adv-x="399" 
d="M345 0h-100v204h-44l-68 -204h-108l81 219c-14 7 -29 19 -39 32c-14 19 -22 51 -22 78v42c0 46 22 77 40 93c32 29 71 32 108 32h152v-496zM245 284v132h-46c-13 0 -26 -2 -39 -15s-15 -26 -15 -43v-22c0 -11 2 -26 12 -37c12 -13 28 -15 42 -15h46zM206 578h-57l44 122
h107z" />
    <glyph glyph-name="afii10071.var.accented" unicode="&#x451;`" horiz-adv-x="397" 
d="M150 211v-64c0 -15 1 -31 13 -43c8 -9 22 -14 38 -14c17 0 30 6 40 21c6 10 9 23 9 34h100v-4c0 -37 -7 -86 -56 -121c-25 -18 -59 -28 -93 -28c-46 0 -89 19 -115 48c-35 39 -36 90 -36 120v190c0 35 7 84 49 120c23 20 57 34 99 34c43 0 79 -14 104 -36
c44 -38 50 -88 50 -127v-130h-202zM150 288h102v65c0 13 -2 27 -14 39c-8 8 -21 14 -37 14c-17 0 -31 -7 -39 -17c-10 -12 -12 -27 -12 -40v-61zM172 683v-95h-95v95h95zM234 588v95h95v-95h-95zM225 715h-57l44 122h107z" />
    <glyph glyph-name="fi" unicode="fi" horiz-adv-x="468" 
d="M77 0v416h-52v80h52v66c0 34 3 76 38 107c31 27 72 31 107 31h36v-88h-19c-17 0 -32 -1 -47 -17c-13 -15 -15 -30 -15 -48v-51h81v-80h-80v-416h-101zM314 0v496h100v-496h-100zM314 686h100v-98h-100v98z" />
    <glyph glyph-name="fl" unicode="fl" horiz-adv-x="492" 
d="M77 0v416h-52v80h52v66c0 34 3 76 38 107c31 27 72 31 107 31h36v-88h-19c-17 0 -32 -1 -47 -17c-13 -15 -15 -30 -15 -48v-51h81v-80h-80v-416h-101zM316 700h100v-559c0 -12 2 -27 14 -38c10 -9 24 -10 32 -10h10v-93h-29c-23 0 -71 3 -102 42c-24 30 -25 65 -25 94
v564z" />
    <glyph glyph-name=".notdef" horiz-adv-x="233" 
 />
    <glyph glyph-name="space" unicode=" " horiz-adv-x="233" 
 />
    <glyph glyph-name="exclam" unicode="!" horiz-adv-x="210" 
d="M45 700h120l-23 -525h-80zM47 110h110v-110h-110v110z" />
    <glyph glyph-name="quotedbl" unicode="&#x22;" horiz-adv-x="343" 
d="M45 686h94l-27 -246h-40zM204 686h94l-27 -246h-40z" />
    <glyph glyph-name="numbersign" unicode="#" horiz-adv-x="418" 
d="M137 700h75l-29 -207h92l29 207h75l-29 -207h56l-1 -64h-64l-21 -155h55l-1 -65h-64l-29 -209h-75l29 209h-92l-29 -209h-75l29 209h-55l1 65h64l21 155h-55v64h64zM245 274l21 155h-92l-21 -155h92z" />
    <glyph glyph-name="dollar" unicode="$" horiz-adv-x="418" 
d="M186 -80v81c-49 3 -98 26 -125 60c-20 26 -34 66 -34 118v23h100v-19c0 -20 5 -48 18 -62c9 -10 25 -18 41 -21v224l-39 13c-39 13 -74 31 -96 78c-16 34 -16 68 -16 102v10c0 29 5 85 54 130c22 20 54 38 97 42v81h48v-81c50 -2 84 -25 104 -46c39 -41 47 -93 47 -134
v-23h-100v19c0 15 -1 44 -18 64c-7 8 -18 17 -33 20v-192l32 -11c32 -11 67 -23 95 -60c28 -38 31 -77 31 -121v-14c0 -79 -19 -189 -158 -200v-81h-48zM234 307v-207c10 2 29 9 41 23c16 19 17 48 17 69v16c0 17 -1 52 -17 72c-9 12 -28 22 -41 27zM186 424v175
c-14 -4 -27 -11 -37 -27c-13 -19 -14 -39 -14 -60c0 -24 3 -45 17 -63c9 -12 23 -20 34 -25z" />
    <glyph glyph-name="percent" unicode="%" horiz-adv-x="626" 
d="M417 700h76l-288 -700h-76zM581 259v-153c0 -31 -6 -58 -30 -80c-23 -21 -51 -26 -76 -26s-53 5 -76 26c-24 22 -30 49 -30 80v153c0 31 6 58 30 80c23 21 51 26 76 26s53 -5 76 -26c24 -22 30 -49 30 -80zM447 260v-155c0 -5 0 -16 6 -23c5 -5 15 -9 22 -9s17 4 22 9
c6 7 6 18 6 23v155c0 5 0 16 -6 23c-5 5 -15 9 -22 9s-17 -4 -22 -9c-6 -7 -6 -18 -6 -23zM257 594v-153c0 -31 -6 -58 -30 -80c-23 -21 -51 -26 -76 -26s-53 5 -76 26c-24 22 -30 49 -30 80v153c0 31 6 58 30 80c23 21 51 26 76 26s53 -5 76 -26c24 -22 30 -49 30 -80z
M123 595v-155c0 -5 0 -16 6 -23c5 -5 15 -9 22 -9s17 4 22 9c6 7 6 18 6 23v155c0 5 0 16 -6 23c-5 5 -15 9 -22 9s-17 -4 -22 -9c-6 -7 -6 -18 -6 -23z" />
    <glyph glyph-name="ampersand" unicode="&#x26;" horiz-adv-x="490" 
d="M402 283l83 -23c-5 -24 -14 -51 -24 -76c-11 -28 -23 -46 -41 -66l75 -118h-107l-34 54c-12 -13 -30 -30 -48 -40c-29 -16 -70 -24 -107 -24c-62 0 -103 17 -137 57c-28 32 -42 68 -42 116c0 45 10 93 35 130c18 27 53 61 82 83c-11 16 -27 40 -39 62
c-18 32 -33 67 -33 124c0 43 11 78 41 107c35 35 78 41 115 41c46 0 79 -12 103 -28c32 -22 54 -56 54 -109c0 -46 -17 -85 -42 -119c-21 -29 -56 -61 -81 -82l113 -179c13 17 16 28 21 43c5 16 9 26 13 47zM302 122l-113 181c-17 -13 -35 -33 -46 -48
c-16 -23 -23 -48 -23 -81c0 -18 3 -39 17 -59c20 -29 48 -35 75 -35c26 0 43 6 60 16c14 8 22 14 30 26zM198 460l15 -20c33 29 48 56 56 75c8 17 13 34 13 53c0 24 -9 39 -17 47c-12 12 -27 16 -43 16c-22 0 -36 -9 -43 -16c-17 -16 -18 -38 -18 -52c0 -47 24 -86 37 -103z
" />
    <glyph glyph-name="quotesingle" unicode="'" horiz-adv-x="214" 
d="M60 686h94l-27 -246h-40z" />
    <glyph glyph-name="parenleft" unicode="(" horiz-adv-x="257" 
d="M237 -204h-70c-83 164 -117 295 -117 452s34 288 117 452h70c-24 -66 -48 -147 -61 -212c-14 -67 -26 -160 -26 -240s12 -173 26 -240c13 -65 37 -146 61 -212z" />
    <glyph glyph-name="parenright" unicode=")" horiz-adv-x="257" 
d="M20 700h70c83 -164 117 -295 117 -452s-34 -288 -117 -452h-70c24 66 48 147 61 212c14 67 26 160 26 240s-12 173 -26 240c-13 65 -37 146 -61 212z" />
    <glyph glyph-name="asterisk" unicode="*" horiz-adv-x="393" 
d="M76 437l-31 57l89 50l-87 50l28 53l88 -50l-2 103h66l-2 -103l90 55l33 -59l-95 -49l95 -46l-33 -63l-92 57l4 -107h-67l3 107z" />
    <glyph glyph-name="plus" unicode="+" horiz-adv-x="494" 
d="M50 331h157v157h80v-157h157v-80h-157v-157h-80v157h-157v80z" />
    <glyph glyph-name="comma" unicode="," horiz-adv-x="210" 
d="M50 110h110v-110l-110 -100v210z" />
    <glyph glyph-name="hyphen" unicode="-" horiz-adv-x="314" 
d="M45 351h224v-90h-224v90z" />
    <glyph glyph-name="period" unicode="." horiz-adv-x="210" 
d="M50 110h110v-110h-110v110z" />
    <glyph glyph-name="slash" unicode="/" horiz-adv-x="338" 
d="M273 700h80l-288 -700h-80z" />
    <glyph glyph-name="zero" unicode="0" horiz-adv-x="418" 
d="M55 151v398c0 35 3 89 48 127c27 23 67 34 106 34c43 0 83 -12 116 -46c36 -38 38 -77 38 -115v-398c0 -40 -3 -87 -49 -126c-30 -25 -66 -35 -105 -35c-47 0 -80 14 -102 32c-45 36 -52 82 -52 129zM263 165v370c0 18 -1 41 -12 56c-8 12 -23 21 -42 21
c-18 0 -33 -8 -42 -21c-11 -15 -12 -37 -12 -56v-370c0 -19 1 -40 12 -56c13 -19 30 -21 42 -21c19 0 32 6 42 21c11 17 12 38 12 56z" />
    <glyph glyph-name="one" unicode="1" horiz-adv-x="418" 
d="M183 0v593l-108 -78v103l112 82h96v-700h-100z" />
    <glyph glyph-name="two" unicode="2" horiz-adv-x="418" 
d="M55 504v41c0 62 20 100 43 124c35 36 79 41 112 41c45 0 85 -10 116 -48c22 -27 36 -67 36 -113v-37c0 -24 -1 -39 -9 -64c-9 -31 -16 -40 -25 -56l-158 -297h192v-95h-307v92l177 326c7 14 18 37 22 52s8 43 8 60v15c0 23 -6 40 -15 51c-6 7 -18 16 -39 16
c-24 0 -37 -12 -44 -24c-9 -16 -9 -35 -9 -57v-27h-100z" />
    <glyph glyph-name="three" unicode="3" horiz-adv-x="418" 
d="M55 503v61c0 29 5 75 49 112c26 22 60 34 102 34c36 0 78 -9 106 -32c25 -20 51 -58 51 -114v-101c0 -32 -7 -81 -61 -103c58 -24 61 -83 61 -126v-67c0 -56 -2 -97 -41 -136c-34 -34 -76 -41 -118 -41c-36 0 -75 5 -109 38c-21 20 -40 53 -40 101v71h100v-46
c0 -15 4 -36 13 -48c7 -9 21 -18 42 -18c25 0 53 12 53 60v104c0 16 -1 35 -14 50s-27 14 -44 14h-24v89h23c15 0 30 2 43 15c15 15 16 36 16 46v89c0 18 -7 33 -16 42c-7 8 -21 15 -40 15c-16 0 -28 -7 -37 -18c-13 -16 -15 -35 -15 -51v-40h-100z" />
    <glyph glyph-name="four" unicode="4" horiz-adv-x="418" 
d="M185 700h98l-146 -501h97v198h100v-199h48v-90h-48v-108h-100v108h-198v84z" />
    <glyph glyph-name="five" unicode="5" horiz-adv-x="418" 
d="M67 700h294v-90h-194v-184c9 8 20 15 32 20c15 6 32 9 47 9c33 0 66 -14 86 -36c17 -19 29 -51 29 -86v-189c0 -33 -5 -75 -38 -110c-20 -22 -55 -44 -112 -44c-47 0 -82 15 -108 38c-39 35 -46 77 -46 110v31h100v-19c0 -14 1 -31 10 -43c7 -10 22 -19 41 -19
c20 0 32 7 40 17c12 15 13 34 13 45v152c0 15 -1 31 -12 44c-9 11 -20 15 -35 15s-27 -3 -39 -16c-7 -7 -12 -16 -16 -25h-92v380z" />
    <glyph glyph-name="six" unicode="6" horiz-adv-x="418" 
d="M218 700h107l-124 -303c14 11 37 12 53 12c25 0 55 -10 77 -36c10 -12 30 -41 30 -92v-137c0 -57 -19 -93 -40 -114c-27 -27 -71 -40 -114 -40c-39 0 -75 11 -105 39c-39 37 -45 77 -45 117v102c0 65 19 99 36 142zM261 156v114c0 15 -1 28 -11 40c-8 10 -20 17 -36 17
c-13 0 -27 -4 -39 -16c-9 -9 -18 -24 -18 -45v-119c0 -13 1 -28 11 -41c5 -6 16 -18 38 -18c18 0 34 7 42 17c12 14 13 32 13 51z" />
    <glyph glyph-name="seven" unicode="7" horiz-adv-x="418" 
d="M59 700h300v-92l-160 -608h-101l159 607h-108v-82h-90v175z" />
    <glyph glyph-name="eight" unicode="8" horiz-adv-x="418" 
d="M363 549v-79c0 -38 -8 -69 -47 -107c53 -39 47 -81 47 -124v-88c0 -19 -1 -161 -154 -161s-154 142 -154 161v88c0 43 -6 85 47 124c-39 38 -47 69 -47 107v79c0 19 1 161 154 161s154 -142 154 -161zM263 482v53c0 26 -3 77 -54 77s-54 -51 -54 -77v-53
c0 -26 3 -77 54 -77s54 51 54 77zM263 165v90c0 26 -3 77 -54 77s-54 -51 -54 -77v-90c0 -26 3 -77 54 -77s54 51 54 77z" />
    <glyph glyph-name="nine" unicode="9" horiz-adv-x="418" 
d="M200 0h-107l124 303c-14 -11 -37 -12 -53 -12c-25 0 -55 10 -77 36c-10 12 -30 41 -30 92v137c0 57 19 93 40 114c27 27 71 40 114 40c39 0 75 -11 105 -39c39 -37 45 -77 45 -117v-102c0 -65 -19 -99 -36 -142zM157 544v-114c0 -15 1 -28 11 -40c8 -10 20 -17 36 -17
c13 0 27 4 39 16c9 9 18 24 18 45v119c0 13 -1 28 -11 41c-5 6 -16 18 -38 18c-18 0 -34 -7 -42 -17c-12 -14 -13 -32 -13 -51z" />
    <glyph glyph-name="colon" unicode=":" horiz-adv-x="205" 
d="M50 491h105v-105h-105v105zM50 105h105v-105h-105v105z" />
    <glyph glyph-name="semicolon" unicode=";" horiz-adv-x="205" 
d="M50 105h105v-105l-105 -100v205zM50 491h105v-105h-105v105z" />
    <glyph glyph-name="less" unicode="&#x3c;" horiz-adv-x="494" 
d="M37 273v50l394 183v-73l-290 -135l290 -135v-73z" />
    <glyph glyph-name="equal" unicode="=" horiz-adv-x="494" 
d="M50 261h394v-80h-394v80zM50 401h394v-80h-394v80z" />
    <glyph glyph-name="greater" unicode="&#x3e;" horiz-adv-x="494" 
d="M457 273l-394 -183v73l290 135l-290 135v73l394 -183v-50z" />
    <glyph glyph-name="question" unicode="?" horiz-adv-x="354" 
d="M121 173v83c0 44 0 49 34 102l57 90c16 25 17 53 17 66v42c0 14 -2 29 -15 42c-12 12 -27 14 -42 14c-20 0 -33 -8 -40 -17s-12 -26 -12 -41v-48h-100v60c0 52 28 94 56 115c23 17 55 29 93 29c51 0 89 -14 115 -38c16 -14 45 -49 45 -105v-55c0 -37 -4 -73 -23 -103
l-70 -111c-16 -25 -15 -51 -15 -68v-57h-100zM116 110h110v-110h-110v110z" />
    <glyph glyph-name="at" unicode="@" horiz-adv-x="667" 
d="M472 489v-314c0 -10 1 -36 24 -36c21 0 28 19 28 68v220c0 43 -3 111 -42 150c-28 28 -82 50 -149 50c-128 0 -162 -62 -174 -95c-4 -13 -16 -51 -16 -141v-242c0 -90 19 -130 39 -152c41 -44 119 -47 148 -47c16 0 47 2 70 6c21 4 52 13 72 20l19 -64
c-44 -19 -81 -26 -98 -29c-23 -4 -58 -6 -79 -6c-48 0 -150 6 -205 70c-48 55 -49 138 -49 204v240c0 83 7 174 51 229c31 39 97 80 218 80c87 0 169 -15 222 -71c46 -48 56 -113 56 -202v-219c0 -55 -8 -83 -17 -99c-15 -27 -48 -43 -87 -43c-20 0 -44 5 -61 18
c-16 12 -31 34 -32 65c-3 -29 -15 -42 -33 -57c-21 -17 -36 -26 -69 -26c-28 0 -61 6 -85 35c-25 30 -28 73 -28 108v138c0 40 3 95 36 126c14 13 38 23 64 23c17 0 39 -5 56 -14c15 -8 28 -20 38 -32v39h83zM278 344v-136c0 -17 1 -35 12 -50c10 -14 24 -19 38 -19
c23 0 38 12 45 24c10 18 11 49 11 79v105c0 16 0 40 -11 56c-8 11 -22 20 -40 20c-13 0 -27 -5 -37 -16c-17 -19 -18 -50 -18 -63z" />
    <glyph glyph-name="A" unicode="A" horiz-adv-x="414" 
d="M404 0h-100l-33 150h-128l-33 -150h-100l153 700h88zM259 239l-54 266l-52 -266h106z" />
    <glyph glyph-name="B" unicode="B" horiz-adv-x="441" 
d="M60 700h135c30 0 88 -3 132 -34c63 -45 64 -120 64 -161c0 -46 -4 -78 -30 -109c-13 -16 -28 -26 -38 -32c27 -12 39 -29 48 -44c20 -35 20 -54 20 -88v-53c0 -29 0 -101 -60 -146c-22 -17 -59 -33 -119 -33h-152v700zM160 610v-200h48c34 0 54 14 64 26
c12 14 19 38 19 60v43c0 18 -8 36 -19 48c-12 12 -32 23 -65 23h-47zM160 320v-230h45c15 0 47 2 68 31c17 23 18 59 18 71v33c0 34 -5 58 -27 77c-16 13 -31 18 -53 18h-51z" />
    <glyph glyph-name="C" unicode="C" horiz-adv-x="436" 
d="M291 501v40c0 14 -4 33 -13 46c-5 7 -20 25 -52 25c-26 0 -42 -11 -52 -23c-16 -20 -17 -45 -17 -69v-345c0 -23 0 -44 13 -62c7 -10 23 -25 51 -25c22 0 44 8 56 24c5 7 14 23 14 57v25h100v-29c0 -69 -24 -109 -42 -128c-21 -23 -62 -47 -131 -47
c-66 0 -104 27 -126 53c-36 42 -35 90 -35 126v363c0 46 6 98 51 137c31 28 77 41 114 41c42 0 91 -16 121 -45c25 -25 45 -67 45 -116v-48h-97z" />
    <glyph glyph-name="D" unicode="D" horiz-adv-x="451" 
d="M60 700h135c42 0 102 -2 146 -42c51 -47 54 -121 54 -151v-309c0 -48 -5 -99 -45 -143c-44 -48 -102 -55 -141 -55h-149v700zM160 602v-504h45c21 0 47 3 67 24c21 23 23 59 23 82v310c0 20 -3 45 -19 65c-19 23 -40 23 -65 23h-51z" />
    <glyph glyph-name="E" unicode="E" horiz-adv-x="395" 
d="M60 0v700h297v-95h-197v-206h174v-90h-174v-214h200v-95h-300z" />
    <glyph glyph-name="F" unicode="F" horiz-adv-x="389" 
d="M60 0v700h304v-95h-204v-210h179v-95h-179v-300h-100z" />
    <glyph glyph-name="G" unicode="G" horiz-adv-x="461" 
d="M355 0l-26 54c-14 -25 -33 -39 -48 -47c-29 -16 -61 -17 -78 -17c-36 0 -78 9 -111 50c-32 40 -36 90 -36 122v354c0 42 2 85 33 128c40 56 103 66 141 66c52 0 96 -17 124 -45c27 -27 51 -72 51 -137v-28h-100v35c0 17 -2 39 -20 57c-10 10 -27 20 -54 20
c-26 0 -44 -11 -56 -25c-19 -23 -19 -49 -19 -74v-328c0 -21 1 -51 17 -72c12 -15 32 -25 56 -25c21 0 45 11 58 28c18 23 18 57 18 82v94h-85v90h185v-382h-50z" />
    <glyph glyph-name="H" unicode="H" horiz-adv-x="455" 
d="M60 700h100v-301h135v301h100v-700h-100v309h-135v-309h-100v700z" />
    <glyph glyph-name="I" unicode="I" horiz-adv-x="220" 
d="M60 700h100v-700h-100v700z" />
    <glyph glyph-name="J" unicode="J" horiz-adv-x="361" 
d="M201 700h100v-502c0 -50 -2 -114 -51 -163c-40 -40 -87 -45 -128 -45c-26 0 -84 3 -132 60l77 65c17 -24 42 -27 56 -27c23 0 44 6 59 26c16 21 19 49 19 71v515z" />
    <glyph glyph-name="K" unicode="K" horiz-adv-x="475" 
d="M60 700h100v-337l159 337h105l-142 -287l168 -413h-109l-119 313l-62 -108v-205h-100v700z" />
    <glyph glyph-name="L" unicode="L" horiz-adv-x="407" 
d="M60 700h100v-605h212v-95h-312v700z" />
    <glyph glyph-name="M" unicode="M" horiz-adv-x="593" 
d="M60 0v700h100l138 -386h4l131 386h100v-700h-100v438h-5l-105 -316h-53l-105 316h-5v-438h-100z" />
    <glyph glyph-name="N" unicode="N" horiz-adv-x="487" 
d="M60 700h100l167 -440v440h100v-700h-100l-167 440v-440h-100v700z" />
    <glyph glyph-name="O" unicode="O" horiz-adv-x="462" 
d="M56 184v332c0 53 4 104 52 149c30 28 71 45 123 45s93 -17 123 -45c48 -45 52 -96 52 -149v-332c0 -53 -4 -104 -52 -149c-30 -28 -71 -45 -123 -45s-93 17 -123 45c-48 45 -52 96 -52 149zM306 169v362c0 21 -2 42 -21 61c-11 11 -29 20 -54 20s-43 -9 -54 -20
c-19 -19 -21 -40 -21 -61v-362c0 -21 2 -42 21 -61c11 -11 29 -20 54 -20s43 9 54 20c19 19 21 40 21 61z" />
    <glyph glyph-name="P" unicode="P" horiz-adv-x="430" 
d="M60 0v700h149c43 0 96 -2 140 -46c46 -47 51 -108 51 -160v-20c0 -39 -4 -97 -43 -142c-41 -47 -95 -55 -138 -55h-59v-277h-100zM160 610v-243h54c19 0 46 3 67 26s19 47 19 72v46c0 24 1 58 -27 81c-23 19 -51 18 -78 18h-35z" />
    <glyph glyph-name="Q" unicode="Q" horiz-adv-x="478" 
d="M56 184v332c0 53 4 104 52 149c30 28 71 45 123 45s93 -17 123 -45c48 -45 52 -96 52 -149v-332c0 -40 -1 -63 -16 -94l63 -50l-51 -62l-62 49c-25 -23 -55 -38 -109 -37c-44 1 -87 12 -123 45c-48 45 -52 96 -52 149zM258 92l-48 38l51 62l45 -36v375c0 21 -2 42 -21 61
c-11 11 -29 20 -54 20s-43 -9 -54 -20c-19 -19 -21 -40 -21 -61v-362c0 -21 2 -42 21 -61c11 -11 29 -20 54 -20c10 0 18 1 27 4z" />
    <glyph glyph-name="R" unicode="R" horiz-adv-x="445" 
d="M60 700h131c51 0 125 3 172 -55c23 -28 37 -70 37 -122v-53c0 -45 -16 -87 -37 -111c-15 -17 -35 -29 -53 -36l110 -323h-104l-97 302h-59v-302h-100v700zM160 610v-218h57c22 0 43 5 62 23c20 19 21 36 21 63v50c0 27 -10 51 -23 64c-20 20 -44 18 -65 18h-52z" />
    <glyph glyph-name="S" unicode="S" horiz-adv-x="440" 
d="M291 506v19c0 15 -1 44 -17 64c-9 11 -24 23 -53 23c-14 0 -33 -3 -49 -19c-19 -20 -21 -48 -21 -71c0 -19 3 -54 16 -73c11 -17 31 -25 46 -31l61 -22c30 -11 65 -24 91 -60c27 -37 30 -77 30 -121v-24c0 -71 -19 -125 -48 -155c-26 -27 -72 -46 -130 -46
c-71 0 -117 29 -140 61c-32 43 -32 109 -32 118v23h100v-19c0 -16 2 -44 16 -62c17 -21 42 -23 55 -23c38 0 55 15 63 25c15 19 16 48 16 69v26c0 24 -3 54 -16 72s-37 27 -48 31l-73 26c-36 13 -72 31 -92 78c-14 32 -15 67 -15 102v20c0 58 23 102 52 130
c33 32 75 43 121 43c100 0 167 -65 167 -181v-23h-100z" />
    <glyph glyph-name="T" unicode="T" horiz-adv-x="388" 
d="M20 700h348v-95h-124v-605h-100v605h-124v95z" />
    <glyph glyph-name="U" unicode="U" horiz-adv-x="454" 
d="M60 700h100v-531c0 -48 23 -81 67 -81s67 33 67 81v531h100v-516c0 -154 -92 -194 -167 -194s-167 40 -167 194v516z" />
    <glyph glyph-name="V" unicode="V" horiz-adv-x="404" 
d="M394 700l-148 -700h-88l-148 700h110l81 -484h4l84 484h105z" />
    <glyph glyph-name="W" unicode="W" horiz-adv-x="597" 
d="M15 700h106l56 -436h4l80 436h75l80 -436h6l54 436h106l-110 -700h-90l-80 452h-7l-80 -452h-90z" />
    <glyph glyph-name="X" unicode="X" horiz-adv-x="437" 
d="M31 700h106l80 -220l81 220h110l-138 -330l152 -370h-106l-99 253l-92 -253h-110l150 370z" />
    <glyph glyph-name="Y" unicode="Y" horiz-adv-x="414" 
d="M404 700l-147 -405v-295h-100v298l-147 402h110l87 -278h6l85 278h106z" />
    <glyph glyph-name="Z" unicode="Z" horiz-adv-x="405" 
d="M59 700h301v-77l-210 -533h205v-90h-310v88l205 522h-191v90z" />
    <glyph glyph-name="bracketleft" unicode="[" horiz-adv-x="252" 
d="M242 700v-74h-92v-756h91v-74h-181v904h182z" />
    <glyph glyph-name="backslash" unicode="\" horiz-adv-x="338" 
d="M65 700l288 -700h-80l-288 700h80z" />
    <glyph glyph-name="bracketright" unicode="]" horiz-adv-x="252" 
d="M10 700h182v-904h-181v74h91v756h-92v74z" />
    <glyph glyph-name="asciicircum" unicode="^" horiz-adv-x="590" 
d="M45 271l217 429h66l217 -429h-80l-170 339l-170 -339h-80z" />
    <glyph glyph-name="underscore" unicode="_" horiz-adv-x="535" 
d="M0 -142h535v-62h-535v62z" />
    <glyph glyph-name="grave" unicode="`" horiz-adv-x="241" 
d="M114 578l-94 122h107l44 -122h-57z" />
    <glyph glyph-name="a" unicode="a" horiz-adv-x="405" 
d="M251 0v49h-2c-7 -11 -20 -27 -34 -38c-19 -15 -37 -19 -58 -19c-20 0 -51 3 -76 26c-31 29 -36 74 -36 114c0 36 2 90 31 124c33 39 89 43 118 43c7 0 26 0 57 -3v52c0 14 -1 29 -13 42c-10 11 -25 16 -40 16c-14 0 -29 -5 -40 -18c-7 -8 -12 -19 -13 -32h-95
c-1 45 18 84 41 107c25 25 66 41 112 41c45 0 82 -16 107 -40c36 -36 41 -83 41 -117v-347h-100zM251 146v70c-12 2 -24 3 -35 3c-16 0 -40 -2 -56 -21c-13 -15 -15 -36 -15 -52c0 -14 2 -28 10 -41c10 -16 23 -23 40 -23c30 0 56 20 56 64z" />
    <glyph glyph-name="b" unicode="b" 
d="M154 0h-100v700h100v-244c9 11 20 21 33 29c18 11 37 19 66 19s54 -8 74 -29c26 -27 29 -60 29 -84v-258c0 -32 -1 -73 -23 -103c-8 -11 -33 -38 -83 -38c-20 0 -43 5 -61 17c-13 9 -26 22 -34 35h-1v-44zM154 340v-184c0 -16 1 -34 16 -50c7 -7 19 -16 38 -16
c15 0 26 5 35 15c13 14 13 28 13 45v201c0 12 -1 27 -13 40c-9 10 -20 15 -35 15c-19 0 -31 -9 -38 -16c-15 -16 -16 -34 -16 -50z" />
    <glyph glyph-name="c" unicode="c" horiz-adv-x="385" 
d="M355 346h-100v2c0 12 -2 26 -11 39c-7 10 -20 19 -40 19c-12 0 -27 -3 -39 -17s-14 -31 -14 -48v-192c0 -14 3 -31 12 -42c5 -6 17 -17 41 -17c14 0 29 3 40 17c10 13 11 31 11 40v1h100v-9c0 -59 -28 -94 -50 -113c-22 -18 -55 -34 -100 -34s-88 15 -115 43
c-40 41 -39 89 -39 132v171c0 40 4 91 46 129c21 19 54 37 103 37c48 0 90 -16 115 -43c27 -28 40 -73 40 -112v-3z" />
    <glyph glyph-name="d" unicode="d" 
d="M256 0v44h-1c-8 -13 -21 -26 -34 -35c-18 -12 -41 -17 -61 -17c-50 0 -75 27 -83 38c-22 30 -23 71 -23 103v258c0 24 3 57 29 84c20 21 45 29 74 29s48 -8 66 -19c13 -8 24 -18 33 -29v244h100v-700h-100zM256 156v184c0 16 -1 34 -16 50c-7 7 -19 16 -38 16
c-15 0 -26 -5 -35 -15c-12 -13 -13 -28 -13 -40v-201c0 -17 0 -31 13 -45c9 -10 20 -15 35 -15c19 0 31 9 38 16c15 16 16 34 16 50z" />
    <glyph glyph-name="e" unicode="e" horiz-adv-x="397" 
d="M150 211v-64c0 -15 1 -31 13 -43c8 -9 22 -14 38 -14c17 0 30 6 40 21c6 10 9 23 9 34h100v-4c0 -37 -7 -86 -56 -121c-25 -18 -59 -28 -93 -28c-46 0 -89 19 -115 48c-35 39 -36 90 -36 120v190c0 35 7 84 49 120c23 20 57 34 99 34c43 0 79 -14 104 -36
c44 -38 50 -88 50 -127v-130h-202zM150 288h102v65c0 13 -2 27 -14 39c-8 8 -21 14 -37 14c-17 0 -31 -7 -39 -17c-10 -12 -12 -27 -12 -40v-61z" />
    <glyph glyph-name="f" unicode="f" horiz-adv-x="268" 
d="M77 0v416h-52v80h52v66c0 34 3 76 38 107c31 27 72 31 107 31h36v-88h-20c-17 0 -32 -1 -47 -17c-13 -15 -15 -30 -15 -48v-51h81v-80h-80v-416h-100z" />
    <glyph glyph-name="g" unicode="g" horiz-adv-x="406" 
d="M252 496h100v-542c0 -40 -4 -82 -38 -118c-20 -22 -57 -45 -115 -45c-57 0 -92 24 -111 46c-21 24 -36 65 -38 103h100c-1 -15 5 -28 13 -37c11 -12 26 -14 37 -14c21 0 34 9 41 19c9 13 11 33 11 53v84c-9 -11 -20 -21 -33 -29c-18 -11 -37 -19 -66 -19s-54 8 -74 29
c-26 27 -29 60 -29 84v253c0 32 1 73 23 103c8 11 33 38 83 38c20 0 43 -5 61 -17c13 -9 26 -22 34 -35h1v44zM252 161v179c0 16 -1 34 -16 50c-7 7 -19 16 -38 16c-13 0 -25 -4 -35 -15c-12 -14 -13 -29 -13 -45v-196c0 -10 1 -26 13 -40c10 -11 22 -15 35 -15
c19 0 31 9 38 16c15 16 16 34 16 50z" />
    <glyph glyph-name="h" unicode="h" 
d="M54 0v700h100v-244c9 11 20 21 33 29c18 11 37 19 66 19s54 -8 74 -29c26 -27 29 -60 29 -84v-391h-100v351c0 12 -1 27 -13 40c-9 10 -20 15 -35 15c-19 0 -31 -9 -38 -16c-15 -16 -16 -34 -16 -50v-340h-100z" />
    <glyph glyph-name="i" unicode="i" horiz-adv-x="208" 
d="M54 0v496h100v-496h-100zM54 686h100v-98h-100v98z" />
    <glyph glyph-name="j" unicode="j" horiz-adv-x="210" 
d="M156 496v-543c0 -37 3 -82 -32 -120c-33 -36 -74 -37 -107 -37h-32v98h18c21 0 34 8 40 15c13 14 13 32 13 44v543h100zM56 686h100v-98h-100v98z" />
    <glyph glyph-name="k" unicode="k" horiz-adv-x="407" 
d="M54 0v700h100v-420h2l120 216h100l-119 -202l143 -294h-108l-90 214l-48 -75v-139h-100z" />
    <glyph glyph-name="l" unicode="l" horiz-adv-x="230" 
d="M54 700h100v-559c0 -12 2 -27 14 -38c10 -9 24 -10 32 -10h10v-93h-29c-23 0 -71 3 -102 42c-24 30 -25 65 -25 94v564z" />
    <glyph glyph-name="m" unicode="m" horiz-adv-x="608" 
d="M54 496h100v-45c9 12 21 23 31 31c17 13 39 22 68 22c19 0 37 -5 54 -16c18 -12 29 -27 36 -43c11 18 26 35 44 45c17 10 34 14 55 14c31 0 65 -5 90 -40c20 -28 22 -60 22 -86v-378h-100v351c0 13 -2 27 -13 40c-10 11 -21 15 -34 15c-15 0 -27 -5 -37 -16
c-15 -16 -16 -34 -16 -50v-340h-100v351c0 13 -1 26 -13 40c-9 10 -19 15 -34 15c-12 0 -25 -3 -37 -16c-15 -16 -16 -34 -16 -50v-340h-100v496z" />
    <glyph glyph-name="n" unicode="n" 
d="M54 0v496h100v-45c36 48 79 53 99 53c34 0 58 -12 74 -29c26 -27 29 -60 29 -84v-391h-100v351c0 12 -1 27 -13 40c-9 10 -20 15 -35 15c-19 0 -31 -9 -38 -16c-15 -16 -16 -34 -16 -50v-340h-100z" />
    <glyph glyph-name="o" unicode="o" horiz-adv-x="402" 
d="M50 160v176c0 39 3 94 49 133c27 23 65 35 102 35s75 -12 102 -35c46 -39 49 -94 49 -133v-176c0 -39 -3 -94 -49 -133c-27 -23 -65 -35 -102 -35s-75 12 -102 35c-46 39 -49 94 -49 133zM252 154v188c0 23 -6 40 -15 50c-8 8 -21 14 -36 14s-28 -6 -36 -14
c-9 -10 -15 -27 -15 -50v-188c0 -23 6 -40 15 -50c8 -8 21 -14 36 -14s28 6 36 14c9 10 15 27 15 50z" />
    <glyph glyph-name="p" unicode="p" 
d="M154 496v-44h1c8 13 21 26 34 35c18 12 41 17 61 17c50 0 75 -27 83 -38c22 -30 23 -71 23 -103v-258c0 -24 -3 -57 -29 -84c-20 -21 -45 -29 -74 -29s-48 8 -66 19c-13 8 -24 18 -33 29v-244h-100v700h100zM154 340v-184c0 -16 1 -34 16 -50c7 -7 19 -16 38 -16
c15 0 26 5 35 15c12 13 13 28 13 40v201c0 17 0 31 -13 45c-9 10 -20 15 -35 15c-19 0 -31 -9 -38 -16c-15 -16 -16 -34 -16 -50z" />
    <glyph glyph-name="q" unicode="q" 
d="M256 496h100v-700h-100v244c-9 -11 -20 -21 -33 -29c-18 -11 -37 -19 -66 -19s-54 8 -74 29c-26 27 -29 60 -29 84v258c0 32 1 73 23 103c8 11 33 38 83 38c20 0 43 -5 61 -17c13 -9 26 -22 34 -35h1v44zM256 156v184c0 16 -1 34 -16 50c-7 7 -19 16 -38 16
c-15 0 -26 -5 -35 -15c-13 -14 -13 -28 -13 -45v-201c0 -12 1 -27 13 -40c9 -10 20 -15 35 -15c19 0 31 9 38 16c15 16 16 34 16 50z" />
    <glyph glyph-name="r" unicode="r" horiz-adv-x="297" 
d="M54 496h100v-53l2 -1c41 51 96 62 131 62v-107c-48 8 -133 -4 -133 -113v-284h-100v496z" />
    <glyph glyph-name="s" unicode="s" horiz-adv-x="371" 
d="M336 362h-98c-1 15 -7 28 -15 36c-9 9 -22 13 -36 13c-25 0 -49 -16 -49 -50c0 -9 2 -21 10 -32c10 -14 26 -21 39 -26l60 -25c25 -10 50 -30 64 -48s25 -48 25 -91c0 -24 -5 -64 -32 -97c-21 -26 -58 -50 -121 -50c-60 0 -96 22 -116 44c-25 27 -37 67 -37 103h100
c0 -13 4 -28 13 -38s27 -16 41 -16s29 5 39 17c11 12 13 27 13 40c0 26 -8 45 -50 63l-59 25c-38 16 -56 35 -62 42c-22 26 -27 59 -27 84c0 49 16 86 37 108c20 20 53 40 107 40c63 0 99 -22 116 -40c24 -24 38 -63 38 -102z" />
    <glyph glyph-name="t" unicode="t" horiz-adv-x="255" 
d="M66 647h100v-151h64v-80h-64v-272c0 -10 1 -31 14 -42c11 -9 28 -9 37 -9h13v-93h-27c-29 0 -77 1 -108 35c-28 30 -29 70 -29 100v281h-51v80h51v151z" />
    <glyph glyph-name="u" unicode="u" 
d="M356 496v-496h-100v50c-2 -3 -16 -23 -35 -37c-20 -14 -43 -21 -69 -21c-42 0 -66 20 -78 37c-16 22 -20 52 -20 76v391h100v-351c0 -14 1 -30 12 -42c6 -6 16 -13 32 -13c18 0 33 8 42 18c15 16 16 35 16 48v340h100z" />
    <glyph glyph-name="v" unicode="v" horiz-adv-x="358" 
d="M351 496l-132 -496h-80l-132 496h105l67 -315h5l67 315h100z" />
    <glyph glyph-name="w" unicode="w" horiz-adv-x="545" 
d="M7 496h102l64 -314l59 314h83l61 -314l62 314h100l-118 -496h-85l-60 304h-5l-60 -304h-85z" />
    <glyph glyph-name="x" unicode="x" horiz-adv-x="360" 
d="M7 0l122 253l-116 243h105l62 -141l62 141h105l-118 -243l124 -253h-105l-68 152l-68 -152h-105z" />
    <glyph glyph-name="y" unicode="y" horiz-adv-x="369" 
d="M7 496h108l81 -308h4l62 308h100l-136 -563c-7 -29 -16 -77 -46 -106s-69 -31 -100 -31h-26l-2 93h19c14 0 33 2 47 21c4 5 10 16 18 48l16 65z" />
    <glyph glyph-name="z" unicode="z" horiz-adv-x="339" 
d="M38 411v85h276v-72l-183 -339h183v-85h-289v82l177 329h-164z" />
    <glyph glyph-name="braceleft" unicode="{" horiz-adv-x="266" 
d="M185 538v-130c0 -54 -8 -91 -24 -116c-9 -14 -28 -35 -62 -44c34 -9 53 -30 62 -44c16 -25 24 -62 24 -116v-130c0 -30 5 -82 61 -82h10v-80h-16c-39 0 -82 17 -108 46c-34 38 -37 89 -37 123v122c0 19 -1 49 -9 68c-10 26 -35 49 -76 48v90c41 -1 66 22 76 48
c8 19 9 49 9 68v122c0 22 -1 80 37 123c17 20 52 46 108 46h16v-80h-10c-9 0 -29 -1 -43 -17c-17 -18 -18 -48 -18 -65z" />
    <glyph glyph-name="bar" unicode="|" horiz-adv-x="190" 
d="M60 710h70v-914h-70v914z" />
    <glyph glyph-name="braceright" unicode="}" horiz-adv-x="266" 
d="M81 408v130c0 17 -1 47 -18 65c-14 16 -34 17 -43 17h-10v80h16c56 0 91 -26 108 -46c38 -43 37 -101 37 -123v-122c0 -19 1 -49 9 -68c10 -26 35 -49 76 -48v-90c-41 1 -66 -22 -76 -48c-8 -19 -9 -49 -9 -68v-122c0 -34 -3 -85 -37 -123c-26 -29 -69 -46 -108 -46h-16
v80h10c56 0 61 52 61 82v130c0 54 8 91 24 116c9 14 28 35 62 44c-34 9 -53 30 -62 44c-16 25 -24 62 -24 116z" />
    <glyph glyph-name="asciitilde" unicode="~" horiz-adv-x="442" 
d="M318 374h70v-3c0 -21 -5 -54 -19 -76c-12 -19 -36 -40 -78 -40c-25 0 -47 8 -62 13l-20 7c-16 6 -30 12 -45 12c-18 0 -27 -8 -31 -13c-5 -7 -9 -20 -9 -30h-70v3c0 21 5 54 19 76c12 19 36 40 78 40c25 0 47 -8 62 -13l20 -7c16 -6 30 -12 45 -12c18 0 27 8 31 13
c5 7 9 20 9 30z" />
    <glyph glyph-name="uni00A0" unicode="&#xa0;" horiz-adv-x="233" 
 />
    <glyph glyph-name="exclamdown" unicode="&#xa1;" horiz-adv-x="210" 
d="M45 -150l17 525h80l23 -525h-120zM47 440v110h110v-110h-110z" />
    <glyph glyph-name="cent" unicode="&#xa2;" horiz-adv-x="418" 
d="M369 417h-100v12c0 9 -6 23 -12 30s-15 13 -26 16v-296c11 3 20 8 26 15s12 22 12 32v9h100v-9c0 -36 -9 -79 -52 -113c-21 -17 -51 -30 -86 -33v-80h-40v80c-33 3 -71 17 -97 42c-43 41 -41 89 -41 132v155c0 39 5 91 48 129c35 31 81 35 90 36v80h40v-80
c37 -3 72 -18 96 -42c23 -24 42 -65 42 -105v-10zM191 180v295c-9 -2 -16 -7 -22 -13c-16 -17 -16 -34 -16 -50v-176c0 -11 2 -28 13 -42c9 -11 19 -13 25 -14z" />
    <glyph glyph-name="sterling" unicode="&#xa3;" horiz-adv-x="418" 
d="M258 369v-80h-81v-199h162v-90h-314v90h52v199h-52v80h52v180c0 61 21 98 38 118c33 39 74 43 114 43c122 0 147 -77 147 -135v-41h-100v30c0 7 -1 23 -11 35c-6 7 -18 16 -37 16c-50 0 -51 -55 -51 -67v-179h81z" />
    <glyph glyph-name="currency" unicode="&#xa4;" horiz-adv-x="592" 
d="M51 162l74 74c-28 45 -30 88 -30 106s2 61 30 106l-74 73l63 64l74 -74c13 10 46 32 108 32s95 -22 108 -32l74 74l63 -64l-74 -73c11 -14 30 -39 30 -106s-19 -92 -30 -106l74 -74l-63 -63l-74 74c-14 -10 -49 -32 -108 -32s-94 22 -108 32l-74 -74zM173 342
c0 -69 56 -123 123 -123s123 54 123 123c0 67 -55 123 -123 123s-123 -56 -123 -123z" />
    <glyph glyph-name="yen" unicode="&#xa5;" horiz-adv-x="418" 
d="M31 267h128v31l-14 39h-114v70h88l-107 293h110l87 -293h6l85 293h106l-106 -293h87v-70h-113l-15 -42v-28h128v-70h-128v-197h-100v197h-128v70z" />
    <glyph glyph-name="brokenbar" unicode="&#xa6;" horiz-adv-x="190" 
d="M60 163h70v-367h-70v367zM60 710h70v-367h-70v367z" />
    <glyph glyph-name="section" unicode="&#xa7;" horiz-adv-x="406" 
d="M262 542v9c0 11 -5 24 -11 32c-7 10 -22 19 -45 19c-15 0 -26 -4 -32 -9c-10 -7 -17 -19 -17 -34c0 -38 42 -53 67 -66l41 -21c31 -16 64 -34 86 -68c15 -23 20 -49 20 -75c0 -33 -12 -55 -22 -69c-12 -16 -31 -31 -44 -39c32 -32 44 -61 44 -102c0 -56 -28 -86 -52 -103
c-22 -15 -55 -26 -96 -26c-42 0 -80 11 -112 43c-30 30 -40 64 -40 102v13h95v-9c0 -11 5 -24 11 -32c7 -10 22 -19 45 -19c15 0 26 4 32 9c10 7 17 19 17 34c0 38 -42 53 -67 66l-41 21c-31 16 -64 34 -86 68c-12 19 -20 44 -20 75c0 26 8 52 27 75c10 12 26 24 39 33
c-30 27 -44 56 -44 102c0 56 29 87 52 103c22 15 55 26 96 26c42 0 80 -11 112 -43c30 -30 40 -64 40 -102v-13h-95zM217 395l-49 25c-8 -6 -20 -18 -26 -29c-5 -9 -7 -18 -7 -27c0 -14 5 -26 12 -35c10 -13 31 -24 42 -30l47 -24c9 6 18 14 24 22c10 15 11 30 11 32
c0 11 -3 25 -12 36c-10 13 -31 24 -42 30z" />
    <glyph glyph-name="dieresis" unicode="&#xa8;" horiz-adv-x="360" 
d="M149 683v-95h-95v95h95zM211 588v95h95v-95h-95z" />
    <glyph glyph-name="copyright" unicode="&#xa9;" horiz-adv-x="682" 
d="M450 469v-9h-76v10c0 7 0 17 -7 25c-6 7 -15 11 -26 11s-20 -4 -26 -11c-7 -8 -7 -18 -7 -25v-112c0 -7 0 -17 7 -25c6 -7 15 -11 26 -11c10 0 21 4 27 11s6 19 6 25v10h76v-9c0 -32 -5 -57 -31 -78c-24 -20 -52 -25 -78 -25s-54 5 -78 25c-26 21 -31 46 -31 78v110
c0 32 5 57 31 78c24 20 52 25 78 25s54 -5 78 -25c26 -21 31 -46 31 -78zM107 414c0 -130 104 -234 234 -234s234 104 234 234s-104 234 -234 234s-234 -104 -234 -234zM45 414c0 163 133 296 296 296s296 -133 296 -296s-133 -296 -296 -296s-296 133 -296 296z" />
    <glyph glyph-name="ordfeminine" unicode="&#xaa;" horiz-adv-x="308" 
d="M187 573v35c0 12 -5 20 -7 22c-4 5 -13 11 -27 11c-9 0 -17 -4 -22 -12c-3 -4 -6 -11 -6 -20h-73c0 36 19 57 28 66c24 22 54 25 74 25c44 0 69 -14 83 -28c15 -15 26 -39 26 -65v-218h-76v33c-16 -32 -46 -38 -64 -38c-32 0 -50 12 -58 22c-16 19 -20 47 -20 66
c0 34 3 61 21 79c20 21 49 25 77 25c15 0 31 -1 44 -3zM187 499v23c-7 1 -20 3 -28 3c-13 0 -23 -4 -28 -10c-6 -6 -9 -16 -9 -26v-10c0 -8 1 -19 10 -26c6 -5 14 -6 21 -6c8 0 19 5 27 19c6 12 7 27 7 33z" />
    <glyph glyph-name="guillemotleft" unicode="&#xab;" horiz-adv-x="448" 
d="M413 479v-102l-101 -100l101 -100v-102l-203 202zM228 479v-102l-101 -100l101 -100v-102l-203 202z" />
    <glyph glyph-name="logicalnot" unicode="&#xac;" horiz-adv-x="494" 
d="M449 387v-225h-80v164h-328v61h408z" />
    <glyph glyph-name="uni00AD" unicode="&#xad;" horiz-adv-x="314" 
d="M45 351h224v-90h-224v90z" />
    <glyph glyph-name="registered" unicode="&#xae;" horiz-adv-x="682" 
d="M107 414c0 -130 104 -234 234 -234s234 104 234 234s-104 234 -234 234s-234 -104 -234 -234zM241 256v316h110c24 0 53 -2 77 -20c27 -20 31 -46 31 -71v-19c0 -16 -2 -39 -19 -57c-3 -4 -11 -11 -23 -16l56 -133h-82l-45 117h-29v-117h-76zM317 438h27c6 0 21 0 30 9
c6 6 9 15 9 24c0 12 -3 21 -11 27c-9 7 -20 8 -28 8h-27v-68zM45 414c0 163 133 296 296 296s296 -133 296 -296s-133 -296 -296 -296s-296 133 -296 296z" />
    <glyph glyph-name="macron" unicode="&#xaf;" horiz-adv-x="332" 
d="M54 668h224v-70h-224v70z" />
    <glyph glyph-name="degree" unicode="&#xb0;" horiz-adv-x="330" 
d="M25 543c0 27 7 68 42 101c29 28 65 39 98 39c36 0 74 -13 102 -43c23 -24 38 -57 38 -97c0 -38 -14 -72 -34 -94c-23 -26 -62 -46 -106 -46c-38 0 -72 14 -95 35c-25 23 -45 61 -45 105zM85 543c0 -44 36 -80 80 -80s80 36 80 80s-36 80 -80 80s-80 -36 -80 -80z" />
    <glyph glyph-name="plusminus" unicode="&#xb1;" horiz-adv-x="494" 
d="M50 331h157v157h80v-157h157v-80h-157v-127h-80v127h-157v80zM50 80h394v-80h-394v80z" />
    <glyph glyph-name="twosuperior" unicode="&#xb2;" horiz-adv-x="311" 
d="M190 604v8c0 5 -3 13 -7 18c-8 10 -18 11 -24 11c-11 0 -20 -4 -25 -12c-5 -7 -6 -15 -6 -20v-6h-73v6c0 31 15 54 28 66c24 22 54 25 74 25c28 0 58 -4 83 -27c15 -14 26 -32 26 -59v-7c0 -17 -4 -29 -10 -41c-13 -26 -25 -37 -41 -53l-61 -64h110v-60h-209v50l112 118
c5 5 14 17 17 23s6 18 6 24z" />
    <glyph glyph-name="threesuperior" unicode="&#xb3;" horiz-adv-x="311" 
d="M190 603v9c0 8 -4 14 -7 18c-5 5 -13 10 -24 10s-20 -5 -25 -11c-4 -5 -6 -12 -6 -20v-6h-73v6c0 31 15 54 28 66c24 22 54 25 74 25c28 0 58 -4 83 -27c15 -14 26 -32 26 -59v-12c0 -23 -11 -50 -41 -57c26 -9 41 -31 41 -60v-14c0 -27 -11 -45 -26 -59
c-25 -23 -55 -27 -83 -27c-20 0 -50 3 -74 25c-13 12 -28 35 -28 66v6h73v-6c0 -8 2 -15 6 -20c5 -6 14 -11 25 -11s19 5 24 10c3 4 7 10 7 18v15c0 10 -2 15 -10 21c-6 4 -13 7 -21 7h-19v60h14c8 0 20 3 26 7c4 3 10 10 10 20z" />
    <glyph glyph-name="acute" unicode="&#xb4;" horiz-adv-x="241" 
d="M127 578h-57l44 122h107z" />
    <glyph glyph-name="mu" unicode="&#xb5;" horiz-adv-x="420" 
d="M366 496v-496h-100v50c-8 -19 -28 -58 -73 -58c-17 0 -29 6 -39 13v-209h-100v700h100v-351c0 -12 1 -29 15 -42c8 -8 21 -13 34 -13c16 0 34 6 46 18c16 16 17 35 17 48v340h100z" />
    <glyph glyph-name="mu" unicode="&#x3bc;" horiz-adv-x="420" 
d="M366 496v-496h-100v50c-8 -19 -28 -58 -73 -58c-17 0 -29 6 -39 13v-209h-100v700h100v-351c0 -12 1 -29 15 -42c8 -8 21 -13 34 -13c16 0 34 6 46 18c16 16 17 35 17 48v340h100z" />
    <glyph glyph-name="paragraph" unicode="&#xb6;" horiz-adv-x="490" 
d="M475 700v-70h-61v-834h-72v834h-74v-834h-72v491h-12c-30 0 -72 5 -107 39c-36 35 -40 79 -40 107v120c0 62 28 95 47 110c27 23 75 37 117 37h274z" />
    <glyph glyph-name="periodcentered" unicode="&#xb7;" horiz-adv-x="340" 
d="M100 350c0 39 31 70 70 70s70 -31 70 -70s-31 -70 -70 -70s-70 31 -70 70z" />
    <glyph glyph-name="cedilla" unicode="&#xb8;" horiz-adv-x="423" 
d="M203 0h44l-3 -37c16 0 34 -5 47 -16c16 -13 22 -30 22 -49c0 -28 -14 -46 -25 -56c-17 -15 -38 -20 -61 -20c-32 0 -57 10 -77 33l37 33c4 -4 8 -6 12 -8c5 -2 11 -4 18 -4c8 0 17 2 22 7c4 4 7 10 7 17s-3 14 -9 18c-10 7 -27 7 -39 4z" />
    <glyph glyph-name="onesuperior" unicode="&#xb9;" horiz-adv-x="311" 
d="M135 389v225l-45 -34v80l53 40h68v-311h-76z" />
    <glyph glyph-name="ordmasculine" unicode="&#xba;" horiz-adv-x="308" 
d="M263 597v-110c0 -32 -5 -57 -31 -78c-24 -20 -52 -25 -78 -25s-54 5 -78 25c-26 21 -31 46 -31 78v110c0 32 5 57 31 78c24 20 52 25 78 25s54 -5 78 -25c26 -21 31 -46 31 -78zM121 598v-112c0 -7 0 -17 7 -25c6 -7 15 -11 26 -11c10 0 21 4 27 11s6 19 6 25v112
c0 7 0 17 -7 25c-6 7 -15 11 -26 11s-20 -4 -26 -11c-7 -8 -7 -18 -7 -25z" />
    <glyph glyph-name="guillemotright" unicode="&#xbb;" horiz-adv-x="448" 
d="M35 479l203 -202l-203 -202v102l101 100l-101 100v102zM220 479l203 -202l-203 -202v102l101 100l-101 100v102z" />
    <glyph glyph-name="onequarter" unicode="&#xbc;" horiz-adv-x="630" 
d="M113 389v225l-45 -34v80l53 40h68v-311h-76zM409 700h80l-288 -700h-80zM451 307h81l-103 -200h54v67h66v-67h36v-60h-36v-47h-76v47h-135v39z" />
    <glyph glyph-name="onehalf" unicode="&#xbd;" horiz-adv-x="630" 
d="M95 389v225l-45 -34v80l53 40h68v-311h-76zM391 700h80l-288 -700h-80zM509 215v8c0 8 -4 14 -7 18c-7 9 -16 11 -24 11c-11 0 -20 -4 -25 -12c-5 -7 -6 -15 -6 -20v-6h-73v6c0 31 15 54 28 66c24 22 54 25 74 25c28 0 58 -4 83 -27c15 -14 26 -32 26 -59v-7
c0 -17 -4 -29 -10 -41c-13 -26 -25 -37 -41 -53l-61 -64h110v-60h-209v50l112 118c5 5 14 17 17 23s6 18 6 24z" />
    <glyph glyph-name="threequarters" unicode="&#xbe;" horiz-adv-x="630" 
d="M170 603v9c0 8 -4 14 -7 18c-5 5 -13 10 -24 10s-20 -5 -25 -11c-4 -5 -6 -12 -6 -20v-6h-73v6c0 31 15 54 28 66c24 22 54 25 74 25c28 0 58 -4 83 -27c15 -14 26 -32 26 -59v-12c0 -23 -11 -50 -41 -57c26 -9 41 -31 41 -60v-14c0 -27 -11 -45 -26 -59
c-25 -23 -55 -27 -83 -27c-20 0 -50 3 -74 25c-13 12 -28 35 -28 66v6h73v-6c0 -8 2 -15 6 -20c5 -6 14 -11 25 -11s19 5 24 10c3 4 7 10 7 18v15c0 10 -2 15 -10 21c-6 4 -13 7 -21 7h-19v60h14c8 0 20 3 26 7c4 3 10 10 10 20zM419 700h80l-288 -700h-80zM461 307h81
l-103 -200h54v67h66v-67h36v-60h-36v-47h-76v47h-135v39z" />
    <glyph glyph-name="questiondown" unicode="&#xbf;" horiz-adv-x="354" 
d="M233 377v-83c0 -44 0 -49 -34 -102l-57 -90c-16 -25 -17 -53 -17 -66v-42c0 -14 2 -29 15 -42c12 -12 27 -14 42 -14c20 0 33 8 40 17s12 26 12 41v48h100v-60c0 -52 -28 -94 -56 -115c-23 -17 -55 -29 -93 -29c-51 0 -89 14 -115 38c-16 14 -45 49 -45 105v55
c0 37 4 73 23 103l70 111c16 25 15 51 15 68v57h100zM238 440h-110v110h110v-110z" />
    <glyph glyph-name="Agrave" unicode="&#xc0;" horiz-adv-x="414" 
d="M404 0h-100l-33 150h-128l-33 -150h-100l153 700h88zM259 239l-54 266l-52 -266h106zM201 764l-94 105h121l44 -105h-71z" />
    <glyph glyph-name="Aacute" unicode="&#xc1;" horiz-adv-x="414" 
d="M404 0h-100l-33 150h-128l-33 -150h-100l153 700h88zM259 239l-54 266l-52 -266h106zM219 764h-65l50 105h121z" />
    <glyph glyph-name="Acircumflex" unicode="&#xc2;" horiz-adv-x="414" 
d="M404 0h-100l-33 150h-128l-33 -150h-100l153 700h88zM259 239l-54 266l-52 -266h106zM211 822l-60 -58h-64l57 105h134l57 -105h-64z" />
    <glyph glyph-name="Atilde" unicode="&#xc3;" horiz-adv-x="414" 
d="M404 0h-100l-33 150h-128l-33 -150h-100l153 700h88zM259 239l-54 266l-52 -266h106zM85 761v5c0 13 4 38 15 56c16 26 40 32 58 32c9 0 22 -2 43 -10l16 -6c8 -3 20 -8 31 -8c8 0 17 4 22 10s7 16 6 23h55v-3c0 -14 -3 -39 -13 -57c-13 -22 -32 -33 -59 -33
c-15 0 -29 4 -46 10l-14 5c-16 6 -23 9 -32 9c-11 0 -17 -6 -21 -11c-4 -6 -6 -15 -6 -22h-55z" />
    <glyph glyph-name="Adieresis" unicode="&#xc4;" horiz-adv-x="414" 
d="M404 0h-100l-33 150h-128l-33 -150h-100l153 700h88zM259 239l-54 266l-52 -266h106zM173 864v-100h-95v100h95zM235 764v100h95v-100h-95z" />
    <glyph glyph-name="Aring" unicode="&#xc5;" horiz-adv-x="414" 
d="M404 0h-100l-33 150h-128l-33 -150h-100l153 700h88zM259 239l-54 266l-52 -266h106zM129 822c0 44 36 80 80 80s80 -36 80 -80s-36 -80 -80 -80s-80 36 -80 80zM179 822c0 -17 13 -30 30 -30s30 13 30 30s-13 30 -30 30s-30 -13 -30 -30z" />
    <glyph glyph-name="AE" unicode="&#xc6;" horiz-adv-x="624" 
d="M589 0h-300v150h-125l-63 -150h-106l294 700h297v-95h-197v-207h174v-89h-174v-214h200v-95zM293 239v233h-4l-99 -233h103z" />
    <glyph glyph-name="Ccedilla" unicode="&#xc7;" horiz-adv-x="436" 
d="M291 501v40c0 14 -4 33 -13 46c-5 7 -20 25 -52 25c-26 0 -42 -11 -52 -23c-16 -20 -17 -45 -17 -69v-345c0 -23 0 -44 13 -62c7 -10 23 -25 51 -25c22 0 44 8 56 24c5 7 14 23 14 57v25h100v-29c0 -78 -31 -116 -42 -128c-24 -26 -63 -43 -103 -46l-2 -27
c19 0 36 -7 47 -17c10 -8 21 -24 21 -49c0 -31 -15 -49 -25 -58c-19 -17 -42 -21 -64 -21c-18 0 -34 3 -51 13c-11 6 -18 12 -25 20l37 36c4 -4 8 -6 12 -8c5 -2 11 -4 18 -4c8 0 17 2 22 7c4 4 7 10 7 16c0 5 -2 13 -8 18c-9 8 -25 9 -38 5l4 69c-48 3 -87 26 -109 52
c-36 42 -35 90 -35 126v363c0 46 6 98 51 137c31 28 77 41 114 41c42 0 91 -16 121 -45c25 -25 45 -67 45 -116v-48h-97z" />
    <glyph glyph-name="Egrave" unicode="&#xc8;" horiz-adv-x="395" 
d="M60 0v700h297v-95h-197v-206h174v-90h-174v-214h200v-95h-300zM184 764l-94 105h121l44 -105h-71z" />
    <glyph glyph-name="Eacute" unicode="&#xc9;" horiz-adv-x="395" 
d="M60 0v700h297v-95h-197v-206h174v-90h-174v-214h200v-95h-300zM202 764h-65l50 105h121z" />
    <glyph glyph-name="Ecircumflex" unicode="&#xca;" horiz-adv-x="395" 
d="M60 0v700h297v-95h-197v-206h174v-90h-174v-214h200v-95h-300zM197 822l-60 -58h-64l57 105h134l57 -105h-64z" />
    <glyph glyph-name="Edieresis" unicode="&#xcb;" horiz-adv-x="395" 
d="M60 0v700h297v-95h-197v-206h174v-90h-174v-214h200v-95h-300zM166 864v-100h-95v100h95zM228 764v100h95v-100h-95z" />
    <glyph glyph-name="Igrave" unicode="&#xcc;" horiz-adv-x="220" 
d="M60 700h100v-700h-100v700zM97 764l-94 105h121l44 -105h-71z" />
    <glyph glyph-name="Iacute" unicode="&#xcd;" horiz-adv-x="220" 
d="M60 700h100v-700h-100v700zM115 764h-65l50 105h121z" />
    <glyph glyph-name="Icircumflex" unicode="&#xce;" horiz-adv-x="220" 
d="M60 700h100v-700h-100v700zM110 822l-60 -58h-64l57 105h134l57 -105h-64z" />
    <glyph glyph-name="Idieresis" unicode="&#xcf;" horiz-adv-x="220" 
d="M60 700h100v-700h-100v700zM79 864v-100h-95v100h95zM141 764v100h95v-100h-95z" />
    <glyph glyph-name="Eth" unicode="&#xd0;" horiz-adv-x="454" 
d="M63 700h135c42 0 102 -2 146 -42c51 -47 54 -121 54 -151v-309c0 -48 -5 -99 -45 -143c-44 -48 -102 -55 -141 -55h-149v319h-53v70h53v311zM163 602v-213h57v-70h-57v-221h45c21 0 47 3 67 24c21 23 23 59 23 82v310c0 20 -3 45 -19 65c-19 23 -40 23 -65 23h-51z" />
    <glyph glyph-name="Ntilde" unicode="&#xd1;" horiz-adv-x="487" 
d="M60 700h100l167 -440v440h100v-700h-100l-167 440v-440h-100v700zM120 761v5c0 13 4 38 15 56c16 26 40 32 58 32c9 0 22 -2 43 -10l16 -6c8 -3 20 -8 31 -8c8 0 17 4 22 10s7 16 6 23h55v-3c0 -14 -3 -39 -13 -57c-13 -22 -32 -33 -59 -33c-15 0 -29 4 -46 10l-14 5
c-16 6 -23 9 -32 9c-11 0 -17 -6 -21 -11c-4 -6 -6 -15 -6 -22h-55z" />
    <glyph glyph-name="Ograve" unicode="&#xd2;" horiz-adv-x="462" 
d="M56 184v332c0 53 4 104 52 149c30 28 71 45 123 45s93 -17 123 -45c48 -45 52 -96 52 -149v-332c0 -53 -4 -104 -52 -149c-30 -28 -71 -45 -123 -45s-93 17 -123 45c-48 45 -52 96 -52 149zM306 169v362c0 21 -2 42 -21 61c-11 11 -29 20 -54 20s-43 -9 -54 -20
c-19 -19 -21 -40 -21 -61v-362c0 -21 2 -42 21 -61c11 -11 29 -20 54 -20s43 9 54 20c19 19 21 40 21 61zM217 764l-94 105h121l44 -105h-71z" />
    <glyph glyph-name="Oacute" unicode="&#xd3;" horiz-adv-x="462" 
d="M56 184v332c0 53 4 104 52 149c30 28 71 45 123 45s93 -17 123 -45c48 -45 52 -96 52 -149v-332c0 -53 -4 -104 -52 -149c-30 -28 -71 -45 -123 -45s-93 17 -123 45c-48 45 -52 96 -52 149zM306 169v362c0 21 -2 42 -21 61c-11 11 -29 20 -54 20s-43 -9 -54 -20
c-19 -19 -21 -40 -21 -61v-362c0 -21 2 -42 21 -61c11 -11 29 -20 54 -20s43 9 54 20c19 19 21 40 21 61zM235 764h-65l50 105h121z" />
    <glyph glyph-name="Ocircumflex" unicode="&#xd4;" horiz-adv-x="462" 
d="M56 184v332c0 53 4 104 52 149c30 28 71 45 123 45s93 -17 123 -45c48 -45 52 -96 52 -149v-332c0 -53 -4 -104 -52 -149c-30 -28 -71 -45 -123 -45s-93 17 -123 45c-48 45 -52 96 -52 149zM306 169v362c0 21 -2 42 -21 61c-11 11 -29 20 -54 20s-43 -9 -54 -20
c-19 -19 -21 -40 -21 -61v-362c0 -21 2 -42 21 -61c11 -11 29 -20 54 -20s43 9 54 20c19 19 21 40 21 61zM231 822l-60 -58h-64l57 105h134l57 -105h-64z" />
    <glyph glyph-name="Otilde" unicode="&#xd5;" horiz-adv-x="462" 
d="M56 184v332c0 53 4 104 52 149c30 28 71 45 123 45s93 -17 123 -45c48 -45 52 -96 52 -149v-332c0 -53 -4 -104 -52 -149c-30 -28 -71 -45 -123 -45s-93 17 -123 45c-48 45 -52 96 -52 149zM306 169v362c0 21 -2 42 -21 61c-11 11 -29 20 -54 20s-43 -9 -54 -20
c-19 -19 -21 -40 -21 -61v-362c0 -21 2 -42 21 -61c11 -11 29 -20 54 -20s43 9 54 20c19 19 21 40 21 61zM108 761v5c0 13 4 38 15 56c16 26 40 32 58 32c9 0 22 -2 43 -10l16 -6c8 -3 20 -8 31 -8c8 0 17 4 22 10s7 16 6 23h55v-3c0 -14 -3 -39 -13 -57
c-13 -22 -32 -33 -59 -33c-15 0 -29 4 -46 10l-14 5c-16 6 -23 9 -32 9c-11 0 -17 -6 -21 -11c-4 -6 -6 -15 -6 -22h-55z" />
    <glyph glyph-name="Odieresis" unicode="&#xd6;" horiz-adv-x="462" 
d="M56 184v332c0 53 4 104 52 149c30 28 71 45 123 45s93 -17 123 -45c48 -45 52 -96 52 -149v-332c0 -53 -4 -104 -52 -149c-30 -28 -71 -45 -123 -45s-93 17 -123 45c-48 45 -52 96 -52 149zM306 169v362c0 21 -2 42 -21 61c-11 11 -29 20 -54 20s-43 -9 -54 -20
c-19 -19 -21 -40 -21 -61v-362c0 -21 2 -42 21 -61c11 -11 29 -20 54 -20s43 9 54 20c19 19 21 40 21 61zM200 864v-100h-95v100h95zM262 764v100h95v-100h-95z" />
    <glyph glyph-name="multiply" unicode="&#xd7;" horiz-adv-x="494" 
d="M58 159l132 132l-132 132l57 57l132 -132l132 132l57 -57l-132 -132l132 -132l-57 -57l-132 132l-132 -132z" />
    <glyph glyph-name="Oslash" unicode="&#xd8;" horiz-adv-x="462" 
d="M56 184v332c0 53 4 104 52 149c30 28 71 45 123 45c51 0 84 -16 106 -31l13 31h65l-33 -79c19 -34 24 -63 24 -115v-332c0 -53 -4 -104 -52 -149c-30 -28 -71 -45 -123 -45c-51 0 -84 16 -106 31l-13 -31h-65l33 79c-19 34 -24 63 -24 115zM306 169v282l-139 -331
c13 -20 35 -32 64 -32c25 0 43 9 54 20c19 19 21 40 21 61zM156 249l139 331c-13 20 -35 32 -64 32c-25 0 -43 -9 -54 -20c-19 -19 -21 -40 -21 -61v-282z" />
    <glyph glyph-name="Ugrave" unicode="&#xd9;" horiz-adv-x="454" 
d="M60 700h100v-531c0 -48 23 -81 67 -81s67 33 67 81v531h100v-516c0 -154 -92 -194 -167 -194s-167 40 -167 194v516zM213 764l-94 105h121l44 -105h-71z" />
    <glyph glyph-name="Uacute" unicode="&#xda;" horiz-adv-x="454" 
d="M60 700h100v-531c0 -48 23 -81 67 -81s67 33 67 81v531h100v-516c0 -154 -92 -194 -167 -194s-167 40 -167 194v516zM231 764h-65l50 105h121z" />
    <glyph glyph-name="Ucircumflex" unicode="&#xdb;" horiz-adv-x="454" 
d="M60 700h100v-531c0 -48 23 -81 67 -81s67 33 67 81v531h100v-516c0 -154 -92 -194 -167 -194s-167 40 -167 194v516zM227 822l-60 -58h-64l57 105h134l57 -105h-64z" />
    <glyph glyph-name="Udieresis" unicode="&#xdc;" horiz-adv-x="454" 
d="M60 700h100v-531c0 -48 23 -81 67 -81s67 33 67 81v531h100v-516c0 -154 -92 -194 -167 -194s-167 40 -167 194v516zM196 864v-100h-95v100h95zM258 764v100h95v-100h-95z" />
    <glyph glyph-name="Yacute" unicode="&#xdd;" horiz-adv-x="414" 
d="M404 700l-147 -405v-295h-100v298l-147 402h110l87 -278h6l85 278h106zM211 764h-65l50 105h121z" />
    <glyph glyph-name="Thorn" unicode="&#xde;" horiz-adv-x="450" 
d="M160 710v-140h59c43 0 96 -2 140 -46c46 -47 51 -108 51 -160v-21c0 -39 -4 -98 -43 -142c-45 -52 -109 -56 -138 -56h-69v-145h-100v710h100zM160 480v-245h64c21 0 44 0 67 27c21 25 19 45 19 72v46c0 25 1 57 -27 81c-24 21 -50 19 -78 19h-45z" />
    <glyph glyph-name="germandbls" unicode="&#xdf;" horiz-adv-x="416" 
d="M54 0v562c0 31 5 77 49 114c26 22 60 34 102 34c36 0 78 -9 106 -32c25 -20 51 -58 51 -114v-71c0 -12 -1 -41 -14 -63c-10 -18 -29 -33 -52 -40c23 -10 41 -27 51 -46c11 -21 15 -55 15 -80v-87c0 -56 -2 -98 -41 -136c-38 -38 -85 -41 -110 -41h-23v98h21
c49 0 53 41 53 60v124c0 7 -1 36 -12 50c-10 13 -24 14 -36 14h-16v89h15c11 0 26 2 36 14c9 11 13 30 13 47v59c0 11 -2 28 -16 42c-8 8 -21 15 -40 15c-16 0 -27 -7 -37 -18c-13 -16 -15 -32 -15 -47v-547h-100z" />
    <glyph glyph-name="agrave" unicode="&#xe0;" horiz-adv-x="405" 
d="M251 0v49h-2c-7 -11 -20 -27 -34 -38c-19 -15 -37 -19 -58 -19c-20 0 -51 3 -76 26c-31 29 -36 74 -36 114c0 36 2 90 31 124c33 39 89 43 118 43c7 0 26 0 57 -3v52c0 14 -1 29 -13 42c-10 11 -25 16 -40 16c-14 0 -29 -5 -40 -18c-7 -8 -12 -19 -13 -32h-95
c-1 45 18 84 41 107c25 25 66 41 112 41c45 0 82 -16 107 -40c36 -36 41 -83 41 -117v-347h-100zM251 146v70c-12 2 -24 3 -35 3c-16 0 -40 -2 -56 -21c-13 -15 -15 -36 -15 -52c0 -14 2 -28 10 -41c10 -16 23 -23 40 -23c30 0 56 20 56 64zM196 578l-94 122h107l44 -122
h-57z" />
    <glyph glyph-name="aacute" unicode="&#xe1;" horiz-adv-x="405" 
d="M251 0v49h-2c-7 -11 -20 -27 -34 -38c-19 -15 -37 -19 -58 -19c-20 0 -51 3 -76 26c-31 29 -36 74 -36 114c0 36 2 90 31 124c33 39 89 43 118 43c7 0 26 0 57 -3v52c0 14 -1 29 -13 42c-10 11 -25 16 -40 16c-14 0 -29 -5 -40 -18c-7 -8 -12 -19 -13 -32h-95
c-1 45 18 84 41 107c25 25 66 41 112 41c45 0 82 -16 107 -40c36 -36 41 -83 41 -117v-347h-100zM251 146v70c-12 2 -24 3 -35 3c-16 0 -40 -2 -56 -21c-13 -15 -15 -36 -15 -52c0 -14 2 -28 10 -41c10 -16 23 -23 40 -23c30 0 56 20 56 64zM209 578h-57l44 122h107z" />
    <glyph glyph-name="acircumflex" unicode="&#xe2;" horiz-adv-x="405" 
d="M251 0v49h-2c-7 -11 -20 -27 -34 -38c-19 -15 -37 -19 -58 -19c-20 0 -51 3 -76 26c-31 29 -36 74 -36 114c0 36 2 90 31 124c33 39 89 43 118 43c7 0 26 0 57 -3v52c0 14 -1 29 -13 42c-10 11 -25 16 -40 16c-14 0 -29 -5 -40 -18c-7 -8 -12 -19 -13 -32h-95
c-1 45 18 84 41 107c25 25 66 41 112 41c45 0 82 -16 107 -40c36 -36 41 -83 41 -117v-347h-100zM251 146v70c-12 2 -24 3 -35 3c-16 0 -40 -2 -56 -21c-13 -15 -15 -36 -15 -52c0 -14 2 -28 10 -41c10 -16 23 -23 40 -23c30 0 56 20 56 64zM209 645l-53 -67h-57l51 122h118
l51 -122h-57z" />
    <glyph glyph-name="atilde" unicode="&#xe3;" horiz-adv-x="405" 
d="M251 0v49h-2c-7 -11 -20 -27 -34 -38c-19 -15 -37 -19 -58 -19c-20 0 -51 3 -76 26c-31 29 -36 74 -36 114c0 36 2 90 31 124c33 39 89 43 118 43c7 0 26 0 57 -3v52c0 14 -1 29 -13 42c-10 11 -25 16 -40 16c-14 0 -29 -5 -40 -18c-7 -8 -12 -19 -13 -32h-95
c-1 45 18 84 41 107c25 25 66 41 112 41c45 0 82 -16 107 -40c36 -36 41 -83 41 -117v-347h-100zM251 146v70c-12 2 -24 3 -35 3c-16 0 -40 -2 -56 -21c-13 -15 -15 -36 -15 -52c0 -14 2 -28 10 -41c10 -16 23 -23 40 -23c30 0 56 20 56 64zM87 578v6c0 14 3 43 15 65
c14 27 35 37 58 37c10 0 23 -3 45 -12l14 -6c14 -6 21 -10 31 -10c9 0 16 3 22 12c5 8 6 18 6 26h55v-3c0 -13 -2 -39 -11 -61c-15 -35 -39 -44 -60 -44c-19 0 -38 8 -47 12l-14 6c-12 5 -21 10 -32 10c-8 0 -15 -3 -21 -12c-4 -7 -6 -17 -6 -26h-55z" />
    <glyph glyph-name="adieresis" unicode="&#xe4;" horiz-adv-x="405" 
d="M251 0v49h-2c-7 -11 -20 -27 -34 -38c-19 -15 -37 -19 -58 -19c-20 0 -51 3 -76 26c-31 29 -36 74 -36 114c0 36 2 90 31 124c33 39 89 43 118 43c7 0 26 0 57 -3v52c0 14 -1 29 -13 42c-10 11 -25 16 -40 16c-14 0 -29 -5 -40 -18c-7 -8 -12 -19 -13 -32h-95
c-1 45 18 84 41 107c25 25 66 41 112 41c45 0 82 -16 107 -40c36 -36 41 -83 41 -117v-347h-100zM251 146v70c-12 2 -24 3 -35 3c-16 0 -40 -2 -56 -21c-13 -15 -15 -36 -15 -52c0 -14 2 -28 10 -41c10 -16 23 -23 40 -23c30 0 56 20 56 64zM176 683v-95h-95v95h95zM238 588
v95h95v-95h-95z" />
    <glyph glyph-name="aring" unicode="&#xe5;" horiz-adv-x="405" 
d="M251 0v49h-2c-7 -11 -20 -27 -34 -38c-19 -15 -37 -19 -58 -19c-20 0 -51 3 -76 26c-31 29 -36 74 -36 114c0 36 2 90 31 124c33 39 89 43 118 43c7 0 26 0 57 -3v52c0 14 -1 29 -13 42c-10 11 -25 16 -40 16c-14 0 -29 -5 -40 -18c-7 -8 -12 -19 -13 -32h-95
c-1 45 18 84 41 107c25 25 66 41 112 41c45 0 82 -16 107 -40c36 -36 41 -83 41 -117v-347h-100zM251 146v70c-12 2 -24 3 -35 3c-16 0 -40 -2 -56 -21c-13 -15 -15 -36 -15 -52c0 -14 2 -28 10 -41c10 -16 23 -23 40 -23c30 0 56 20 56 64zM127 641c0 44 36 80 80 80
s80 -36 80 -80s-36 -80 -80 -80s-80 36 -80 80zM177 641c0 -17 13 -30 30 -30s30 13 30 30s-13 30 -30 30s-30 -13 -30 -30z" />
    <glyph glyph-name="ae" unicode="&#xe6;" horiz-adv-x="598" 
d="M145 356h-95c-1 50 21 87 42 107c20 20 56 41 111 41c42 0 72 -12 99 -34c23 20 52 34 97 34c43 0 79 -14 104 -36c44 -38 50 -88 50 -127v-130h-202v-64c0 -15 1 -31 13 -43c8 -9 22 -14 38 -14c17 0 30 6 40 21c6 10 9 23 9 34h100v-4c0 -37 -7 -86 -56 -121
c-25 -18 -59 -28 -93 -28c-43 0 -71 14 -89 27c-7 5 -20 15 -33 31c-9 -12 -23 -26 -38 -36c-23 -15 -55 -22 -85 -22c-20 0 -51 3 -76 26c-31 29 -36 74 -36 114c0 36 2 90 31 124c33 39 89 43 118 43c7 0 26 0 57 -3v40c0 21 1 38 -13 54c-10 10 -25 16 -40 16
c-14 0 -30 -7 -40 -18c-2 -2 -11 -13 -13 -32zM251 146v71c-5 0 -23 2 -35 2c-16 0 -40 -2 -56 -21c-13 -15 -15 -36 -15 -52c0 -14 2 -28 10 -41c10 -16 23 -23 40 -23c18 0 31 6 42 20c12 15 14 31 14 44zM351 288h102v65c0 13 -2 27 -14 39c-8 8 -21 14 -37 14
c-17 0 -31 -7 -39 -17c-10 -12 -12 -27 -12 -40v-61z" />
    <glyph glyph-name="ccedilla" unicode="&#xe7;" horiz-adv-x="385" 
d="M355 346h-100v2c0 12 -2 26 -11 39c-7 10 -20 19 -40 19c-12 0 -27 -3 -39 -17s-14 -31 -14 -48v-192c0 -14 3 -31 12 -42c5 -6 17 -17 41 -17c14 0 29 3 40 17c10 13 11 31 11 40v1h100v-9c0 -59 -28 -94 -50 -113c-31 -26 -65 -31 -77 -32l-2 -31c16 0 34 -5 47 -16
c16 -13 22 -30 22 -49c0 -28 -14 -46 -25 -56c-17 -15 -38 -20 -61 -20c-32 0 -57 10 -77 33l37 33c4 -4 8 -6 12 -8c5 -2 11 -4 18 -4c8 0 17 2 22 7c4 4 7 10 7 17s-3 14 -9 18c-10 7 -27 7 -39 4l5 71c-34 3 -71 17 -95 42c-40 41 -39 89 -39 132v171c0 40 4 91 46 129
c21 19 54 37 103 37c48 0 90 -16 115 -43c27 -28 40 -73 40 -112v-3z" />
    <glyph glyph-name="egrave" unicode="&#xe8;" horiz-adv-x="397" 
d="M150 211v-64c0 -15 1 -31 13 -43c8 -9 22 -14 38 -14c17 0 30 6 40 21c6 10 9 23 9 34h100v-4c0 -37 -7 -86 -56 -121c-25 -18 -59 -28 -93 -28c-46 0 -89 19 -115 48c-35 39 -36 90 -36 120v190c0 35 7 84 49 120c23 20 57 34 99 34c43 0 79 -14 104 -36
c44 -38 50 -88 50 -127v-130h-202zM150 288h102v65c0 13 -2 27 -14 39c-8 8 -21 14 -37 14c-17 0 -31 -7 -39 -17c-10 -12 -12 -27 -12 -40v-61zM192 578l-94 122h107l44 -122h-57z" />
    <glyph glyph-name="eacute" unicode="&#xe9;" horiz-adv-x="397" 
d="M150 211v-64c0 -15 1 -31 13 -43c8 -9 22 -14 38 -14c17 0 30 6 40 21c6 10 9 23 9 34h100v-4c0 -37 -7 -86 -56 -121c-25 -18 -59 -28 -93 -28c-46 0 -89 19 -115 48c-35 39 -36 90 -36 120v190c0 35 7 84 49 120c23 20 57 34 99 34c43 0 79 -14 104 -36
c44 -38 50 -88 50 -127v-130h-202zM150 288h102v65c0 13 -2 27 -14 39c-8 8 -21 14 -37 14c-17 0 -31 -7 -39 -17c-10 -12 -12 -27 -12 -40v-61zM205 578h-57l44 122h107z" />
    <glyph glyph-name="ecircumflex" unicode="&#xea;" horiz-adv-x="397" 
d="M150 211v-64c0 -15 1 -31 13 -43c8 -9 22 -14 38 -14c17 0 30 6 40 21c6 10 9 23 9 34h100v-4c0 -37 -7 -86 -56 -121c-25 -18 -59 -28 -93 -28c-46 0 -89 19 -115 48c-35 39 -36 90 -36 120v190c0 35 7 84 49 120c23 20 57 34 99 34c43 0 79 -14 104 -36
c44 -38 50 -88 50 -127v-130h-202zM150 288h102v65c0 13 -2 27 -14 39c-8 8 -21 14 -37 14c-17 0 -31 -7 -39 -17c-10 -12 -12 -27 -12 -40v-61zM210 645l-53 -67h-57l51 122h118l51 -122h-57z" />
    <glyph glyph-name="edieresis" unicode="&#xeb;" horiz-adv-x="397" 
d="M150 211v-64c0 -15 1 -31 13 -43c8 -9 22 -14 38 -14c17 0 30 6 40 21c6 10 9 23 9 34h100v-4c0 -37 -7 -86 -56 -121c-25 -18 -59 -28 -93 -28c-46 0 -89 19 -115 48c-35 39 -36 90 -36 120v190c0 35 7 84 49 120c23 20 57 34 99 34c43 0 79 -14 104 -36
c44 -38 50 -88 50 -127v-130h-202zM150 288h102v65c0 13 -2 27 -14 39c-8 8 -21 14 -37 14c-17 0 -31 -7 -39 -17c-10 -12 -12 -27 -12 -40v-61zM172 683v-95h-95v95h95zM234 588v95h95v-95h-95z" />
    <glyph glyph-name="igrave" unicode="&#xec;" horiz-adv-x="208" 
d="M54 0v496h100v-496h-100zM98 578l-94 122h107l44 -122h-57z" />
    <glyph glyph-name="iacute" unicode="&#xed;" horiz-adv-x="208" 
d="M54 0v496h100v-496h-100zM111 578h-57l44 122h107z" />
    <glyph glyph-name="icircumflex" unicode="&#xee;" horiz-adv-x="208" 
d="M54 0v496h100v-496h-100zM104 645l-53 -67h-57l51 122h118l51 -122h-57z" />
    <glyph glyph-name="idieresis" unicode="&#xef;" horiz-adv-x="208" 
d="M54 0v496h100v-496h-100zM73 683v-95h-95v95h95zM135 588v95h95v-95h-95z" />
    <glyph glyph-name="eth" unicode="&#xf0;" horiz-adv-x="406" 
d="M352 431v-271c0 -39 -3 -94 -49 -133c-27 -23 -65 -35 -102 -35s-75 12 -102 35c-46 39 -49 94 -49 133v231c0 25 3 56 32 84c18 17 43 29 81 29c28 0 51 -8 67 -19c11 -7 21 -17 29 -28h2v15c0 20 -5 29 -15 43c-11 15 -23 27 -38 37l-147 95l55 63l135 -85
c18 -12 54 -39 69 -60c22 -31 32 -86 32 -134zM150 342v-188c0 -23 6 -40 15 -50c8 -8 21 -14 36 -14s28 6 36 14c9 10 15 27 15 50v188c0 23 -6 40 -15 50c-8 8 -21 14 -36 14s-28 -6 -36 -14c-9 -10 -15 -27 -15 -50z" />
    <glyph glyph-name="ntilde" unicode="&#xf1;" 
d="M54 0v496h100v-45c36 48 79 53 99 53c34 0 58 -12 74 -29c26 -27 29 -60 29 -84v-391h-100v351c0 12 -1 27 -13 40c-9 10 -20 15 -35 15c-19 0 -31 -9 -38 -16c-15 -16 -16 -34 -16 -50v-340h-100zM82 578v6c0 14 3 43 15 65c14 27 35 37 58 37c10 0 23 -3 45 -12l14 -6
c14 -6 21 -10 31 -10c9 0 16 3 22 12c5 8 6 18 6 26h55v-3c0 -13 -2 -39 -11 -61c-15 -35 -39 -44 -60 -44c-19 0 -38 8 -47 12l-14 6c-12 5 -21 10 -32 10c-8 0 -15 -3 -21 -12c-4 -7 -6 -17 -6 -26h-55z" />
    <glyph glyph-name="ograve" unicode="&#xf2;" horiz-adv-x="402" 
d="M50 160v176c0 39 3 94 49 133c27 23 65 35 102 35s75 -12 102 -35c46 -39 49 -94 49 -133v-176c0 -39 -3 -94 -49 -133c-27 -23 -65 -35 -102 -35s-75 12 -102 35c-46 39 -49 94 -49 133zM252 154v188c0 23 -6 40 -15 50c-8 8 -21 14 -36 14s-28 -6 -36 -14
c-9 -10 -15 -27 -15 -50v-188c0 -23 6 -40 15 -50c8 -8 21 -14 36 -14s28 6 36 14c9 10 15 27 15 50zM194 578l-94 122h107l44 -122h-57z" />
    <glyph glyph-name="oacute" unicode="&#xf3;" horiz-adv-x="402" 
d="M50 160v176c0 39 3 94 49 133c27 23 65 35 102 35s75 -12 102 -35c46 -39 49 -94 49 -133v-176c0 -39 -3 -94 -49 -133c-27 -23 -65 -35 -102 -35s-75 12 -102 35c-46 39 -49 94 -49 133zM252 154v188c0 23 -6 40 -15 50c-8 8 -21 14 -36 14s-28 -6 -36 -14
c-9 -10 -15 -27 -15 -50v-188c0 -23 6 -40 15 -50c8 -8 21 -14 36 -14s28 6 36 14c9 10 15 27 15 50zM207 578h-57l44 122h107z" />
    <glyph glyph-name="ocircumflex" unicode="&#xf4;" horiz-adv-x="402" 
d="M50 160v176c0 39 3 94 49 133c27 23 65 35 102 35s75 -12 102 -35c46 -39 49 -94 49 -133v-176c0 -39 -3 -94 -49 -133c-27 -23 -65 -35 -102 -35s-75 12 -102 35c-46 39 -49 94 -49 133zM252 154v188c0 23 -6 40 -15 50c-8 8 -21 14 -36 14s-28 -6 -36 -14
c-9 -10 -15 -27 -15 -50v-188c0 -23 6 -40 15 -50c8 -8 21 -14 36 -14s28 6 36 14c9 10 15 27 15 50zM201 645l-53 -67h-57l51 122h118l51 -122h-57z" />
    <glyph glyph-name="otilde" unicode="&#xf5;" horiz-adv-x="402" 
d="M50 160v176c0 39 3 94 49 133c27 23 65 35 102 35s75 -12 102 -35c46 -39 49 -94 49 -133v-176c0 -39 -3 -94 -49 -133c-27 -23 -65 -35 -102 -35s-75 12 -102 35c-46 39 -49 94 -49 133zM252 154v188c0 23 -6 40 -15 50c-8 8 -21 14 -36 14s-28 -6 -36 -14
c-9 -10 -15 -27 -15 -50v-188c0 -23 6 -40 15 -50c8 -8 21 -14 36 -14s28 6 36 14c9 10 15 27 15 50zM87 578v6c0 14 3 43 15 65c14 27 35 37 58 37c10 0 23 -3 45 -12l14 -6c14 -6 21 -10 31 -10c9 0 16 3 22 12c5 8 6 18 6 26h55v-3c0 -13 -2 -39 -11 -61
c-15 -35 -39 -44 -60 -44c-19 0 -38 8 -47 12l-14 6c-12 5 -21 10 -32 10c-8 0 -15 -3 -21 -12c-4 -7 -6 -17 -6 -26h-55z" />
    <glyph glyph-name="odieresis" unicode="&#xf6;" horiz-adv-x="402" 
d="M50 160v176c0 39 3 94 49 133c27 23 65 35 102 35s75 -12 102 -35c46 -39 49 -94 49 -133v-176c0 -39 -3 -94 -49 -133c-27 -23 -65 -35 -102 -35s-75 12 -102 35c-46 39 -49 94 -49 133zM252 154v188c0 23 -6 40 -15 50c-8 8 -21 14 -36 14s-28 -6 -36 -14
c-9 -10 -15 -27 -15 -50v-188c0 -23 6 -40 15 -50c8 -8 21 -14 36 -14s28 6 36 14c9 10 15 27 15 50zM175 683v-95h-95v95h95zM237 588v95h95v-95h-95z" />
    <glyph glyph-name="divide" unicode="&#xf7;" horiz-adv-x="494" 
d="M199 155c0 27 21 48 48 48s48 -21 48 -48s-21 -48 -48 -48s-48 21 -48 48zM199 427c0 27 21 48 48 48s48 -21 48 -48s-21 -48 -48 -48s-48 21 -48 48zM50 331h394v-80h-394v80z" />
    <glyph glyph-name="oslash" unicode="&#xf8;" horiz-adv-x="402" 
d="M50 160v176c0 39 3 94 49 133c23 19 58 35 102 35c32 0 53 -7 69 -15l6 15h60l-20 -48c34 -38 36 -83 36 -120v-176c0 -39 -3 -94 -49 -133c-23 -19 -58 -35 -102 -35c-32 0 -53 7 -69 15l-6 -15h-60l20 48c-34 38 -36 83 -36 120zM252 154v145l-82 -199
c6 -4 16 -10 31 -10s28 6 36 14c9 10 15 27 15 50zM150 197l82 199c-6 4 -16 10 -31 10s-28 -6 -36 -14c-9 -10 -15 -27 -15 -50v-145z" />
    <glyph glyph-name="ugrave" unicode="&#xf9;" 
d="M356 496v-496h-100v50c-2 -3 -16 -23 -35 -37c-20 -14 -43 -21 -69 -21c-42 0 -66 20 -78 37c-16 22 -20 52 -20 76v391h100v-351c0 -14 1 -30 12 -42c6 -6 16 -13 32 -13c18 0 33 8 42 18c15 16 16 35 16 48v340h100zM198 578l-94 122h107l44 -122h-57z" />
    <glyph glyph-name="uacute" unicode="&#xfa;" 
d="M356 496v-496h-100v50c-2 -3 -16 -23 -35 -37c-20 -14 -43 -21 -69 -21c-42 0 -66 20 -78 37c-16 22 -20 52 -20 76v391h100v-351c0 -14 1 -30 12 -42c6 -6 16 -13 32 -13c18 0 33 8 42 18c15 16 16 35 16 48v340h100zM211 578h-57l44 122h107z" />
    <glyph glyph-name="ucircumflex" unicode="&#xfb;" 
d="M356 496v-496h-100v50c-2 -3 -16 -23 -35 -37c-20 -14 -43 -21 -69 -21c-42 0 -66 20 -78 37c-16 22 -20 52 -20 76v391h100v-351c0 -14 1 -30 12 -42c6 -6 16 -13 32 -13c18 0 33 8 42 18c15 16 16 35 16 48v340h100zM205 645l-53 -67h-57l51 122h118l51 -122h-57z" />
    <glyph glyph-name="udieresis" unicode="&#xfc;" 
d="M356 496v-496h-100v50c-2 -3 -16 -23 -35 -37c-20 -14 -43 -21 -69 -21c-42 0 -66 20 -78 37c-16 22 -20 52 -20 76v391h100v-351c0 -14 1 -30 12 -42c6 -6 16 -13 32 -13c18 0 33 8 42 18c15 16 16 35 16 48v340h100zM174 683v-95h-95v95h95zM236 588v95h95v-95h-95z
" />
    <glyph glyph-name="yacute" unicode="&#xfd;" horiz-adv-x="369" 
d="M7 496h108l81 -308h4l62 308h100l-136 -563c-7 -29 -16 -77 -46 -106s-69 -31 -100 -31h-26l-2 93h19c14 0 33 2 47 21c4 5 10 16 18 48l16 65zM189 578h-57l44 122h107z" />
    <glyph glyph-name="thorn" unicode="&#xfe;" horiz-adv-x="406" 
d="M154 700v-248h1c8 13 21 26 34 35c18 12 41 17 61 17c50 0 75 -27 83 -38c22 -30 23 -71 23 -103v-258c0 -24 -3 -57 -29 -84c-20 -21 -45 -29 -74 -29s-48 8 -66 19c-13 8 -24 18 -33 29v-244h-100v904h100zM154 340v-184c0 -16 1 -34 16 -50c7 -7 19 -16 38 -16
c15 0 26 5 35 15c12 13 13 28 13 40v201c0 17 0 31 -13 45c-9 10 -20 15 -35 15c-19 0 -31 -9 -38 -16c-15 -16 -16 -34 -16 -50z" />
    <glyph glyph-name="ydieresis" unicode="&#xff;" horiz-adv-x="369" 
d="M7 496h108l81 -308h4l62 308h100l-136 -563c-7 -29 -16 -77 -46 -106s-69 -31 -100 -31h-26l-2 93h19c14 0 33 2 47 21c4 5 10 16 18 48l16 65zM161 683v-95h-95v95h95zM223 588v95h95v-95h-95z" />
    <glyph glyph-name="Amacron" unicode="&#x100;" horiz-adv-x="414" 
d="M404 0h-100l-33 150h-128l-33 -150h-100l153 700h88zM259 239l-54 266l-52 -266h106zM96 824h224v-60h-224v60z" />
    <glyph glyph-name="amacron" unicode="&#x101;" horiz-adv-x="405" 
d="M251 0v49h-2c-7 -11 -20 -27 -34 -38c-19 -15 -37 -19 -58 -19c-20 0 -51 3 -76 26c-31 29 -36 74 -36 114c0 36 2 90 31 124c33 39 89 43 118 43c7 0 26 0 57 -3v52c0 14 -1 29 -13 42c-10 11 -25 16 -40 16c-14 0 -29 -5 -40 -18c-7 -8 -12 -19 -13 -32h-95
c-1 45 18 84 41 107c25 25 66 41 112 41c45 0 82 -16 107 -40c36 -36 41 -83 41 -117v-347h-100zM251 146v70c-12 2 -24 3 -35 3c-16 0 -40 -2 -56 -21c-13 -15 -15 -36 -15 -52c0 -14 2 -28 10 -41c10 -16 23 -23 40 -23c30 0 56 20 56 64zM95 668h224v-70h-224v70z" />
    <glyph glyph-name="Abreve" unicode="&#x102;" horiz-adv-x="414" 
d="M404 0h-100l-33 150h-128l-33 -150h-100l153 700h88zM259 239l-54 266l-52 -266h106zM321 869v-5c0 -25 -7 -48 -19 -63c-20 -25 -59 -39 -101 -39s-81 14 -101 39c-12 15 -19 38 -19 63v5h54v-3c0 -18 12 -28 17 -32c13 -9 35 -12 49 -12s36 3 49 12c5 4 17 14 17 32v3
h54z" />
    <glyph glyph-name="abreve" unicode="&#x103;" horiz-adv-x="405" 
d="M251 0v49h-2c-7 -11 -20 -27 -34 -38c-19 -15 -37 -19 -58 -19c-20 0 -51 3 -76 26c-31 29 -36 74 -36 114c0 36 2 90 31 124c33 39 89 43 118 43c7 0 26 0 57 -3v52c0 14 -1 29 -13 42c-10 11 -25 16 -40 16c-14 0 -29 -5 -40 -18c-7 -8 -12 -19 -13 -32h-95
c-1 45 18 84 41 107c25 25 66 41 112 41c45 0 82 -16 107 -40c36 -36 41 -83 41 -117v-347h-100zM251 146v70c-12 2 -24 3 -35 3c-16 0 -40 -2 -56 -21c-13 -15 -15 -36 -15 -52c0 -14 2 -28 10 -41c10 -16 23 -23 40 -23c30 0 56 20 56 64zM330 700v-6
c0 -22 -5 -52 -19 -73c-13 -20 -42 -45 -101 -45s-88 25 -101 45c-14 21 -19 51 -19 73v6h54v-3c0 -17 9 -30 17 -37c14 -12 34 -14 49 -14s35 2 49 14c8 7 17 20 17 37v3h54z" />
    <glyph glyph-name="Aogonek" unicode="&#x104;" horiz-adv-x="414" 
d="M404 0h-13l-8 -6c-8 -6 -18 -12 -30 -23c-10 -9 -19 -19 -19 -36c0 -15 9 -29 32 -29c16 0 27 6 34 13l32 -32c-29 -33 -60 -36 -75 -36c-67 0 -84 44 -84 71c0 39 36 60 52 70l12 8h-33l-33 150h-128l-33 -150h-100l153 700h88zM259 239l-54 266l-52 -266h106z" />
    <glyph glyph-name="aogonek" unicode="&#x105;" horiz-adv-x="405" 
d="M251 0v49h-2c-7 -11 -20 -27 -34 -38c-19 -15 -37 -19 -58 -19c-20 0 -51 3 -76 26c-31 29 -36 74 -36 114c0 36 2 90 31 124c33 39 89 43 118 43c7 0 26 0 57 -3v52c0 14 -1 29 -13 42c-10 10 -25 16 -40 16c-14 0 -30 -7 -40 -18c-2 -2 -11 -13 -13 -32h-95
c-1 50 21 87 42 107c25 25 64 41 111 41c45 0 82 -16 107 -40c36 -36 41 -83 41 -117v-347l-13 -7c-10 -6 -25 -16 -32 -22c-10 -8 -19 -19 -19 -36c0 -10 4 -17 9 -21c5 -5 13 -8 23 -8c16 0 27 7 34 14l32 -33c-29 -33 -60 -36 -75 -36c-18 0 -44 2 -63 20
c-15 14 -21 33 -21 51c0 17 7 31 17 42c8 9 22 21 35 28l14 8h-41zM250 146v71c-5 0 -23 2 -34 2c-16 0 -40 -2 -56 -21c-13 -15 -15 -36 -15 -52c0 -14 2 -28 10 -41c10 -16 23 -23 40 -23c23 0 36 12 42 20c8 11 13 26 13 44z" />
    <glyph glyph-name="Cacute" unicode="&#x106;" horiz-adv-x="436" 
d="M291 501v40c0 14 -4 33 -13 46c-5 7 -20 25 -52 25c-26 0 -42 -11 -52 -23c-16 -20 -17 -45 -17 -69v-345c0 -23 0 -44 13 -62c7 -10 23 -25 51 -25c22 0 44 8 56 24c5 7 14 23 14 57v25h100v-29c0 -69 -24 -109 -42 -128c-21 -23 -62 -47 -131 -47
c-66 0 -104 27 -126 53c-36 42 -35 90 -35 126v363c0 46 6 98 51 137c31 28 77 41 114 41c42 0 91 -16 121 -45c25 -25 45 -67 45 -116v-48h-97zM223 764h-65l50 105h121z" />
    <glyph glyph-name="cacute" unicode="&#x107;" horiz-adv-x="385" 
d="M355 346h-100v2c0 12 -2 26 -11 39c-7 10 -20 19 -40 19c-12 0 -27 -3 -39 -17s-14 -31 -14 -48v-192c0 -14 3 -31 12 -42c5 -6 17 -17 41 -17c14 0 29 3 40 17c10 13 11 31 11 40v1h100v-9c0 -59 -28 -94 -50 -113c-22 -18 -55 -34 -100 -34s-88 15 -115 43
c-40 41 -39 89 -39 132v171c0 40 4 91 46 129c21 19 54 37 103 37c48 0 90 -16 115 -43c27 -28 40 -73 40 -112v-3zM219 578h-57l44 122h107z" />
    <glyph glyph-name="Ccircumflex" unicode="&#x108;" horiz-adv-x="436" 
d="M291 501v40c0 14 -4 33 -13 46c-5 7 -20 25 -52 25c-26 0 -42 -11 -52 -23c-16 -20 -17 -45 -17 -69v-345c0 -23 0 -44 13 -62c7 -10 23 -25 51 -25c22 0 44 8 56 24c5 7 14 23 14 57v25h100v-29c0 -69 -24 -109 -42 -128c-21 -23 -62 -47 -131 -47
c-66 0 -104 27 -126 53c-36 42 -35 90 -35 126v363c0 46 6 98 51 137c31 28 77 41 114 41c42 0 91 -16 121 -45c25 -25 45 -67 45 -116v-48h-97zM219 822l-60 -58h-64l57 105h134l57 -105h-64z" />
    <glyph glyph-name="ccircumflex" unicode="&#x109;" horiz-adv-x="385" 
d="M355 346h-100v2c0 12 -2 26 -11 39c-7 10 -20 19 -40 19c-12 0 -27 -3 -39 -17s-14 -31 -14 -48v-192c0 -14 3 -31 12 -42c5 -6 17 -17 41 -17c14 0 29 3 40 17c10 13 11 31 11 40v1h100v-9c0 -59 -28 -94 -50 -113c-22 -18 -55 -34 -100 -34s-88 15 -115 43
c-40 41 -39 89 -39 132v171c0 40 4 91 46 129c21 19 54 37 103 37c48 0 90 -16 115 -43c27 -28 40 -73 40 -112v-3zM209 645l-53 -67h-57l51 122h118l51 -122h-57z" />
    <glyph glyph-name="Cdotaccent" unicode="&#x10a;" horiz-adv-x="436" 
d="M291 501v40c0 14 -4 33 -13 46c-5 7 -20 25 -52 25c-26 0 -42 -11 -52 -23c-16 -20 -17 -45 -17 -69v-345c0 -23 0 -44 13 -62c7 -10 23 -25 51 -25c22 0 44 8 56 24c5 7 14 23 14 57v25h100v-29c0 -69 -24 -109 -42 -128c-21 -23 -62 -47 -131 -47
c-66 0 -104 27 -126 53c-36 42 -35 90 -35 126v363c0 46 6 98 51 137c31 28 77 41 114 41c42 0 91 -16 121 -45c25 -25 45 -67 45 -116v-48h-97zM164 864h110v-100h-110v100z" />
    <glyph glyph-name="cdotaccent" unicode="&#x10b;" horiz-adv-x="385" 
d="M355 346h-100v2c0 12 -2 26 -11 39c-7 10 -20 19 -40 19c-12 0 -27 -3 -39 -17s-14 -31 -14 -48v-192c0 -14 3 -31 12 -42c5 -6 17 -17 41 -17c14 0 29 3 40 17c10 13 11 31 11 40v1h100v-9c0 -59 -28 -94 -50 -113c-22 -18 -55 -34 -100 -34s-88 15 -115 43
c-40 41 -39 89 -39 132v171c0 40 4 91 46 129c21 19 54 37 103 37c48 0 90 -16 115 -43c27 -28 40 -73 40 -112v-3zM148 686h100v-98h-100v98z" />
    <glyph glyph-name="Ccaron" unicode="&#x10c;" horiz-adv-x="436" 
d="M291 501v40c0 14 -4 33 -13 46c-5 7 -20 25 -52 25c-26 0 -42 -11 -52 -23c-16 -20 -17 -45 -17 -69v-345c0 -23 0 -44 13 -62c7 -10 23 -25 51 -25c22 0 44 8 56 24c5 7 14 23 14 57v25h100v-29c0 -69 -24 -109 -42 -128c-21 -23 -62 -47 -131 -47
c-66 0 -104 27 -126 53c-36 42 -35 90 -35 126v363c0 46 6 98 51 137c31 28 77 41 114 41c42 0 91 -16 121 -45c25 -25 45 -67 45 -116v-48h-97zM219 811l60 58h64l-57 -105h-134l-57 105h64z" />
    <glyph glyph-name="ccaron" unicode="&#x10d;" horiz-adv-x="385" 
d="M355 346h-100v2c0 12 -2 26 -11 39c-7 10 -20 19 -40 19c-12 0 -27 -3 -39 -17s-14 -31 -14 -48v-192c0 -14 3 -31 12 -42c5 -6 17 -17 41 -17c14 0 29 3 40 17c10 13 11 31 11 40v1h100v-9c0 -59 -28 -94 -50 -113c-22 -18 -55 -34 -100 -34s-88 15 -115 43
c-40 41 -39 89 -39 132v171c0 40 4 91 46 129c21 19 54 37 103 37c48 0 90 -16 115 -43c27 -28 40 -73 40 -112v-3zM213 633l53 67h57l-51 -122h-118l-51 122h57z" />
    <glyph glyph-name="Dcaron" unicode="&#x10e;" horiz-adv-x="451" 
d="M60 700h135c42 0 102 -2 146 -42c51 -47 54 -121 54 -151v-309c0 -48 -5 -99 -45 -143c-44 -48 -102 -55 -141 -55h-149v700zM160 602v-504h45c21 0 47 3 67 24c21 23 23 59 23 82v310c0 20 -3 45 -19 65c-19 23 -40 23 -65 23h-51zM208 811l60 58h64l-57 -105h-134
l-57 105h64z" />
    <glyph glyph-name="dcaron" unicode="&#x10f;" horiz-adv-x="480" 
d="M256 0v44h-1c-8 -13 -21 -26 -34 -35c-18 -12 -41 -17 -61 -17c-50 0 -75 27 -83 38c-22 30 -23 71 -23 103v258c0 24 3 57 29 84c20 21 45 29 74 29s48 -8 66 -19c13 -8 24 -18 33 -29v244h100v-700h-100zM256 156v184c0 16 -1 34 -16 50c-7 7 -19 16 -38 16
c-15 0 -26 -5 -35 -15c-12 -13 -13 -28 -13 -40v-201c0 -17 0 -31 13 -45c9 -10 20 -15 35 -15c19 0 31 9 38 16c15 16 16 34 16 50zM403 700h100v-96l-100 -80v176z" />
    <glyph glyph-name="Dcroat" unicode="&#x110;" horiz-adv-x="454" 
d="M63 700h135c42 0 102 -2 146 -42c51 -47 54 -121 54 -151v-309c0 -48 -5 -99 -45 -143c-44 -48 -102 -55 -141 -55h-149v319h-53v70h53v311zM163 602v-213h57v-70h-57v-221h45c21 0 47 3 67 24c21 23 23 59 23 82v310c0 20 -3 45 -19 65c-19 23 -40 23 -65 23h-51z" />
    <glyph glyph-name="dcroat" unicode="&#x111;" horiz-adv-x="449" 
d="M256 0v44h-1c-8 -13 -21 -26 -34 -35c-18 -12 -41 -17 -61 -17c-50 0 -75 27 -83 38c-22 30 -23 71 -23 103v258c0 24 3 57 29 84c20 21 45 29 74 29s48 -8 66 -19c13 -8 24 -18 33 -29v93h-104v60h104v91h100v-91h48v-60h-48v-549h-100zM256 156v184c0 16 -1 34 -16 50
c-7 7 -19 16 -38 16c-15 0 -26 -5 -35 -15c-12 -13 -13 -28 -13 -40v-201c0 -17 0 -31 13 -45c9 -10 20 -15 35 -15c19 0 31 9 38 16c15 16 16 34 16 50z" />
    <glyph glyph-name="Emacron" unicode="&#x112;" horiz-adv-x="395" 
d="M60 0v700h297v-95h-197v-206h174v-90h-174v-214h200v-95h-300zM85 824h224v-60h-224v60z" />
    <glyph glyph-name="emacron" unicode="&#x113;" horiz-adv-x="397" 
d="M150 211v-64c0 -15 1 -31 13 -43c8 -9 22 -14 38 -14c17 0 30 6 40 21c6 10 9 23 9 34h100v-4c0 -37 -7 -86 -56 -121c-25 -18 -59 -28 -93 -28c-46 0 -89 19 -115 48c-35 39 -36 90 -36 120v190c0 35 7 84 49 120c23 20 57 34 99 34c43 0 79 -14 104 -36
c44 -38 50 -88 50 -127v-130h-202zM150 288h102v65c0 13 -2 27 -14 39c-8 8 -21 14 -37 14c-17 0 -31 -7 -39 -17c-10 -12 -12 -27 -12 -40v-61zM93 668h224v-70h-224v70z" />
    <glyph glyph-name="Edotaccent" unicode="&#x116;" horiz-adv-x="395" 
d="M60 0v700h297v-95h-197v-206h174v-90h-174v-214h200v-95h-300zM142 864h110v-100h-110v100z" />
    <glyph glyph-name="edotaccent" unicode="&#x117;" horiz-adv-x="397" 
d="M150 211v-64c0 -15 1 -31 13 -43c8 -9 22 -14 38 -14c17 0 30 6 40 21c6 10 9 23 9 34h100v-4c0 -37 -7 -86 -56 -121c-25 -18 -59 -28 -93 -28c-46 0 -89 19 -115 48c-35 39 -36 90 -36 120v190c0 35 7 84 49 120c23 20 57 34 99 34c43 0 79 -14 104 -36
c44 -38 50 -88 50 -127v-130h-202zM150 288h102v65c0 13 -2 27 -14 39c-8 8 -21 14 -37 14c-17 0 -31 -7 -39 -17c-10 -12 -12 -27 -12 -40v-61zM148 686h100v-98h-100v98z" />
    <glyph glyph-name="Eogonek" unicode="&#x118;" horiz-adv-x="395" 
d="M60 0v700h297v-95h-197v-206h174v-90h-174v-214h200v-95h-66l-8 -6c-8 -6 -18 -12 -30 -23c-10 -9 -19 -19 -19 -36c0 -15 9 -29 32 -29c16 0 27 6 34 13l32 -32c-29 -33 -60 -36 -75 -36c-67 0 -84 44 -84 71c0 39 36 60 52 70l12 8h-180z" />
    <glyph glyph-name="eogonek" unicode="&#x119;" horiz-adv-x="397" 
d="M150 211v-64c0 -10 1 -28 13 -40c8 -9 23 -13 36 -13c18 0 31 9 39 19c7 9 10 22 10 32h102v-4c0 -39 -13 -76 -32 -98c-13 -15 -34 -30 -52 -38l-15 -11c-8 -6 -18 -12 -30 -23c-10 -9 -19 -19 -19 -36c0 -15 9 -29 32 -29c16 0 27 6 34 13l32 -32
c-10 -11 -20 -19 -29 -24c-16 -9 -29 -12 -46 -12c-27 0 -49 7 -63 20c-15 13 -21 33 -21 51c0 17 7 31 17 42c7 8 16 15 28 23l8 5c-46 2 -85 22 -108 48c-35 39 -36 90 -36 120v190c0 35 7 84 49 120c23 20 57 34 99 34c43 0 79 -14 104 -36c44 -38 50 -88 50 -127v-130
h-202zM150 288h102v65c0 13 -2 27 -14 39c-8 8 -21 14 -37 14c-17 0 -31 -7 -39 -17c-10 -12 -12 -27 -12 -40v-61z" />
    <glyph glyph-name="Ecaron" unicode="&#x11a;" horiz-adv-x="395" 
d="M60 0v700h297v-95h-197v-206h174v-90h-174v-214h200v-95h-300zM197 811l60 58h64l-57 -105h-134l-57 105h64z" />
    <glyph glyph-name="ecaron" unicode="&#x11b;" horiz-adv-x="397" 
d="M150 211v-64c0 -15 1 -31 13 -43c8 -9 22 -14 38 -14c17 0 30 6 40 21c6 10 9 23 9 34h100v-4c0 -37 -7 -86 -56 -121c-25 -18 -59 -28 -93 -28c-46 0 -89 19 -115 48c-35 39 -36 90 -36 120v190c0 35 7 84 49 120c23 20 57 34 99 34c43 0 79 -14 104 -36
c44 -38 50 -88 50 -127v-130h-202zM150 288h102v65c0 13 -2 27 -14 39c-8 8 -21 14 -37 14c-17 0 -31 -7 -39 -17c-10 -12 -12 -27 -12 -40v-61zM205 633l53 67h57l-51 -122h-118l-51 122h57z" />
    <glyph glyph-name="Gcircumflex" unicode="&#x11c;" horiz-adv-x="461" 
d="M355 0l-26 54c-14 -25 -33 -39 -48 -47c-29 -16 -61 -17 -78 -17c-36 0 -78 9 -111 50c-32 40 -36 90 -36 122v354c0 42 2 85 33 128c40 56 103 66 141 66c52 0 96 -17 124 -45c27 -27 51 -72 51 -137v-28h-100v35c0 17 -2 39 -20 57c-10 10 -27 20 -54 20
c-26 0 -44 -11 -56 -25c-19 -23 -19 -49 -19 -74v-328c0 -21 1 -51 17 -72c12 -15 32 -25 56 -25c21 0 45 11 58 28c18 23 18 57 18 82v94h-85v90h185v-382h-50zM230 822l-60 -58h-64l57 105h134l57 -105h-64z" />
    <glyph glyph-name="gcircumflex" unicode="&#x11d;" horiz-adv-x="406" 
d="M252 496h100v-542c0 -40 -4 -82 -38 -118c-20 -22 -57 -45 -115 -45c-57 0 -92 24 -111 46c-21 24 -36 65 -38 103h100c-1 -15 5 -28 13 -37c11 -12 26 -14 37 -14c21 0 34 9 41 19c9 13 11 33 11 53v84c-9 -11 -20 -21 -33 -29c-18 -11 -37 -19 -66 -19s-54 8 -74 29
c-26 27 -29 60 -29 84v253c0 32 1 73 23 103c8 11 33 38 83 38c20 0 43 -5 61 -17c13 -9 26 -22 34 -35h1v44zM252 161v179c0 16 -1 34 -16 50c-7 7 -19 16 -38 16c-13 0 -25 -4 -35 -15c-12 -14 -13 -29 -13 -45v-196c0 -10 1 -26 13 -40c10 -11 22 -15 35 -15
c19 0 31 9 38 16c15 16 16 34 16 50zM217 645l-53 -67h-57l51 122h118l51 -122h-57z" />
    <glyph glyph-name="Gbreve" unicode="&#x11e;" horiz-adv-x="461" 
d="M355 0l-26 54c-14 -25 -33 -39 -48 -47c-29 -16 -61 -17 -78 -17c-36 0 -78 9 -111 50c-32 40 -36 90 -36 122v354c0 42 2 85 33 128c40 56 103 66 141 66c52 0 96 -17 124 -45c27 -27 51 -72 51 -137v-28h-100v35c0 17 -2 39 -20 57c-10 10 -27 20 -54 20
c-26 0 -44 -11 -56 -25c-19 -23 -19 -49 -19 -74v-328c0 -21 1 -51 17 -72c12 -15 32 -25 56 -25c21 0 45 11 58 28c18 23 18 57 18 82v94h-85v90h185v-382h-50zM350 869v-5c0 -25 -7 -48 -19 -63c-20 -25 -59 -39 -101 -39s-81 14 -101 39c-12 15 -19 38 -19 63v5h54v-3
c0 -18 12 -28 17 -32c13 -9 35 -12 49 -12s36 3 49 12c5 4 17 14 17 32v3h54z" />
    <glyph glyph-name="gbreve" unicode="&#x11f;" horiz-adv-x="406" 
d="M252 496h100v-542c0 -40 -4 -82 -38 -118c-20 -22 -57 -45 -115 -45c-57 0 -92 24 -111 46c-21 24 -36 65 -38 103h100c-1 -15 5 -28 13 -37c11 -12 26 -14 37 -14c21 0 34 9 41 19c9 13 11 33 11 53v84c-9 -11 -20 -21 -33 -29c-18 -11 -37 -19 -66 -19s-54 8 -74 29
c-26 27 -29 60 -29 84v253c0 32 1 73 23 103c8 11 33 38 83 38c20 0 43 -5 61 -17c13 -9 26 -22 34 -35h1v44zM252 161v179c0 16 -1 34 -16 50c-7 7 -19 16 -38 16c-13 0 -25 -4 -35 -15c-12 -14 -13 -29 -13 -45v-196c0 -10 1 -26 13 -40c10 -11 22 -15 35 -15
c19 0 31 9 38 16c15 16 16 34 16 50zM317 700v-6c0 -22 -5 -52 -19 -73c-13 -20 -42 -45 -101 -45s-88 25 -101 45c-14 21 -19 51 -19 73v6h54v-3c0 -17 9 -30 17 -37c14 -12 34 -14 49 -14s35 2 49 14c8 7 17 20 17 37v3h54z" />
    <glyph glyph-name="Gdotaccent" unicode="&#x120;" horiz-adv-x="461" 
d="M355 0l-26 54c-14 -25 -33 -39 -48 -47c-29 -16 -61 -17 -78 -17c-36 0 -78 9 -111 50c-32 40 -36 90 -36 122v354c0 42 2 85 33 128c40 56 103 66 141 66c52 0 96 -17 124 -45c27 -27 51 -72 51 -137v-28h-100v35c0 17 -2 39 -20 57c-10 10 -27 20 -54 20
c-26 0 -44 -11 -56 -25c-19 -23 -19 -49 -19 -74v-328c0 -21 1 -51 17 -72c12 -15 32 -25 56 -25c21 0 45 11 58 28c18 23 18 57 18 82v94h-85v90h185v-382h-50zM180 864h110v-100h-110v100z" />
    <glyph glyph-name="gdotaccent" unicode="&#x121;" horiz-adv-x="406" 
d="M252 496h100v-542c0 -40 -4 -82 -38 -118c-20 -22 -57 -45 -115 -45c-57 0 -92 24 -111 46c-21 24 -36 65 -38 103h100c-1 -15 5 -28 13 -37c11 -12 26 -14 37 -14c21 0 34 9 41 19c9 13 11 33 11 53v84c-9 -11 -20 -21 -33 -29c-18 -11 -37 -19 -66 -19s-54 8 -74 29
c-26 27 -29 60 -29 84v253c0 32 1 73 23 103c8 11 33 38 83 38c20 0 43 -5 61 -17c13 -9 26 -22 34 -35h1v44zM252 161v179c0 16 -1 34 -16 50c-7 7 -19 16 -38 16c-13 0 -25 -4 -35 -15c-12 -14 -13 -29 -13 -45v-196c0 -10 1 -26 13 -40c10 -11 22 -15 35 -15
c19 0 31 9 38 16c15 16 16 34 16 50zM153 686h100v-98h-100v98z" />
    <glyph glyph-name="Gcommaaccent" unicode="&#x122;" horiz-adv-x="461" 
d="M355 0l-26 54c-14 -25 -33 -39 -48 -47c-29 -16 -61 -17 -78 -17c-36 0 -78 9 -111 50c-32 40 -36 90 -36 122v354c0 42 2 85 33 128c40 56 103 66 141 66c52 0 96 -17 124 -45c27 -27 51 -72 51 -137v-28h-100v35c0 17 -2 39 -20 57c-10 10 -27 20 -54 20
c-26 0 -44 -11 -56 -25c-19 -23 -19 -49 -19 -74v-328c0 -21 1 -51 17 -72c12 -15 32 -25 56 -25c21 0 45 11 58 28c18 23 18 57 18 82v94h-85v90h185v-382h-50zM175 -76h100v-100l-100 -80v180z" />
    <glyph glyph-name="gcommaaccent" unicode="&#x123;" horiz-adv-x="406" 
d="M252 496h100v-542c0 -40 -4 -82 -38 -118c-20 -22 -57 -45 -115 -45c-57 0 -92 24 -111 46c-21 24 -36 65 -38 103h100c-1 -15 5 -28 13 -37c11 -12 26 -14 37 -14c21 0 34 9 41 19c9 13 11 33 11 53v84c-9 -11 -20 -21 -33 -29c-18 -11 -37 -19 -66 -19s-54 8 -74 29
c-26 27 -29 60 -29 84v253c0 32 1 73 23 103c8 11 33 38 83 38c20 0 43 -5 61 -17c13 -9 26 -22 34 -35h1v44zM252 161v179c0 16 -1 34 -16 50c-7 7 -19 16 -38 16c-13 0 -25 -4 -35 -15c-12 -14 -13 -29 -13 -45v-196c0 -10 1 -26 13 -40c10 -11 22 -15 35 -15
c19 0 31 9 38 16c15 16 16 34 16 50zM261 570h-105v105l105 110v-215z" />
    <glyph glyph-name="Hcircumflex" unicode="&#x124;" horiz-adv-x="455" 
d="M60 700h100v-301h135v301h100v-700h-100v309h-135v-309h-100v700zM227 822l-60 -58h-64l57 105h134l57 -105h-64z" />
    <glyph glyph-name="hcircumflex" unicode="&#x125;" 
d="M54 0v700h100v-244c9 11 20 21 33 29c18 11 37 19 66 19s54 -8 74 -29c26 -27 29 -60 29 -84v-391h-100v351c0 12 -1 27 -13 40c-9 10 -20 15 -35 15c-19 0 -31 -9 -38 -16c-15 -16 -16 -34 -16 -50v-340h-100zM107 802l-53 -67h-57l51 122h118l51 -122h-57z" />
    <glyph glyph-name="Hbar" unicode="&#x126;" horiz-adv-x="451" 
d="M11 644h45v56h100v-56h135v56h100v-56h49v-64h-49v-580h-100v309h-135v-309h-100v580h-45v64zM156 399h135v181h-135v-181z" />
    <glyph glyph-name="hbar" unicode="&#x127;" horiz-adv-x="458" 
d="M102 0v549h-48v60h48v91h100v-91h104v-60h-104v-93c9 11 20 21 33 29c18 11 37 19 66 19s54 -8 74 -29c26 -27 29 -60 29 -84v-391h-100v351c0 12 -1 27 -13 40c-9 10 -20 15 -35 15c-19 0 -31 -9 -38 -16c-15 -16 -16 -34 -16 -50v-340h-100z" />
    <glyph glyph-name="Imacron" unicode="&#x12a;" horiz-adv-x="220" 
d="M60 700h100v-700h-100v700zM-2 824h224v-60h-224v60z" />
    <glyph glyph-name="imacron" unicode="&#x12b;" horiz-adv-x="208" 
d="M54 0v496h100v-496h-100zM-8 668h224v-70h-224v70z" />
    <glyph glyph-name="Iogonek" unicode="&#x12e;" horiz-adv-x="220" 
d="M60 700h100v-700l-15 -12c-16 -13 -22 -18 -26 -23c-10 -11 -12 -22 -12 -30c0 -10 4 -17 9 -21c2 -2 10 -8 25 -8c14 0 24 5 32 13l32 -32c-8 -10 -18 -18 -29 -24c-16 -9 -29 -12 -46 -12c-18 0 -44 2 -63 20c-15 14 -21 33 -21 51c0 12 4 27 15 41c9 11 21 20 34 28
l14 9h-49v700z" />
    <glyph glyph-name="iogonek" unicode="&#x12f;" horiz-adv-x="208" 
d="M54 0v496h100v-496l-15 -11c-9 -7 -11 -7 -30 -23c-9 -8 -19 -16 -19 -31c0 -11 6 -29 32 -29c16 0 27 6 34 13l32 -32c-29 -33 -60 -36 -75 -36c-67 0 -84 44 -84 71c0 34 24 51 48 66l19 12h-42zM54 686h100v-98h-100v98z" />
    <glyph glyph-name="Idotaccent" unicode="&#x130;" horiz-adv-x="220" 
d="M60 700h100v-700h-100v700zM55 864h110v-100h-110v100z" />
    <glyph glyph-name="dotlessi" unicode="&#x131;" horiz-adv-x="208" 
d="M54 0v496h100v-496h-100z" />
    <glyph glyph-name="Jcircumflex" unicode="&#x134;" horiz-adv-x="361" 
d="M201 700h100v-502c0 -50 -2 -114 -51 -163c-40 -40 -87 -45 -128 -45c-26 0 -84 3 -132 60l77 65c17 -24 42 -27 56 -27c23 0 44 6 59 26c16 21 19 49 19 71v515zM245 822l-60 -58h-64l57 105h134l57 -105h-64z" />
    <glyph glyph-name="jcircumflex" unicode="&#x135;" horiz-adv-x="210" 
d="M156 496v-543c0 -37 3 -82 -32 -120c-33 -36 -74 -37 -107 -37h-32v98h18c21 0 34 8 40 15c13 14 13 32 13 44v543h100zM105 645l-53 -67h-57l51 122h118l51 -122h-57z" />
    <glyph glyph-name="Kcommaaccent" unicode="&#x136;" horiz-adv-x="475" 
d="M60 700h100v-337l159 337h105l-142 -287l168 -413h-109l-119 313l-62 -108v-205h-100v700zM182 -76h100v-100l-100 -80v180z" />
    <glyph glyph-name="kcommaaccent" unicode="&#x137;" horiz-adv-x="407" 
d="M54 0v700h100v-420h2l120 216h100l-119 -202l143 -294h-108l-90 214l-48 -75v-139h-100zM166 -73h100v-96l-100 -80v176z" />
    <glyph glyph-name="Lacute" unicode="&#x139;" horiz-adv-x="407" 
d="M60 700h100v-605h212v-95h-312v700zM132 764h-65l50 105h121z" />
    <glyph glyph-name="lacute" unicode="&#x13a;" horiz-adv-x="230" 
d="M54 700h100v-559c0 -12 2 -27 14 -38c10 -9 24 -10 32 -10h10v-93h-29c-23 0 -71 3 -102 42c-24 30 -25 65 -25 94v564zM113 726h-57l44 122h107z" />
    <glyph glyph-name="Lcommaaccent" unicode="&#x13b;" horiz-adv-x="407" 
d="M60 700h100v-605h212v-95h-312v700zM148 -76h100v-100l-100 -80v180z" />
    <glyph glyph-name="lcommaaccent" unicode="&#x13c;" horiz-adv-x="230" 
d="M54 700h100v-559c0 -12 2 -27 14 -38c10 -9 24 -10 32 -10h10v-93h-29c-23 0 -71 3 -102 42c-24 30 -25 65 -25 94v564zM84 -73h100v-96l-100 -80v176z" />
    <glyph glyph-name="Lcaron" unicode="&#x13d;" horiz-adv-x="407" 
d="M60 700h100v-605h212v-95h-312v700zM231 700h100v-100l-100 -90v190z" />
    <glyph glyph-name="lcaron" unicode="&#x13e;" horiz-adv-x="285" 
d="M54 700h100v-559c0 -12 2 -27 14 -38c10 -9 24 -10 32 -10h10v-93h-29c-23 0 -71 3 -102 42c-24 30 -25 65 -25 94v564zM208 700h100v-96l-100 -80v176z" />
    <glyph glyph-name="Ldot" unicode="&#x13f;" horiz-adv-x="407" 
d="M60 700h100v-605h212v-95h-312v700zM267 406h100v-98h-100v98z" />
    <glyph glyph-name="ldot" unicode="&#x140;" horiz-adv-x="334" 
d="M54 700h100v-559c0 -12 2 -27 14 -38c10 -9 24 -10 32 -10h10v-93h-29c-23 0 -71 3 -102 42c-24 30 -25 65 -25 94v564zM224 406h100v-98h-100v98z" />
    <glyph glyph-name="Lslash" unicode="&#x141;" horiz-adv-x="407" 
d="M60 700h100v-274l47 40l39 -46l-86 -74v-254h212v-92h-312v261l-31 -27l-39 46l70 60v360z" />
    <glyph glyph-name="lslash" unicode="&#x142;" horiz-adv-x="280" 
d="M60 700h100v-255l36 30l39 -46l-75 -63v-225c0 -12 2 -27 14 -38c10 -9 24 -10 32 -10h10v-93h-29c-23 0 -71 3 -102 42c-24 30 -25 65 -25 94v145l-31 -27l-39 46l70 60v340z" />
    <glyph glyph-name="Nacute" unicode="&#x143;" horiz-adv-x="487" 
d="M60 700h100l167 -440v440h100v-700h-100l-167 440v-440h-100v700zM248 764h-65l50 105h121z" />
    <glyph glyph-name="nacute" unicode="&#x144;" 
d="M54 0v496h100v-45c36 48 79 53 99 53c34 0 58 -12 74 -29c26 -27 29 -60 29 -84v-391h-100v351c0 12 -1 27 -13 40c-9 10 -20 15 -35 15c-19 0 -31 -9 -38 -16c-15 -16 -16 -34 -16 -50v-340h-100zM211 578h-57l44 122h107z" />
    <glyph glyph-name="Ncommaaccent" unicode="&#x145;" horiz-adv-x="487" 
d="M60 700h100l167 -440v440h100v-700h-100l-167 440v-440h-100v700zM188 -76h100v-100l-100 -80v180z" />
    <glyph glyph-name="ncommaaccent" unicode="&#x146;" 
d="M54 0v496h100v-45c36 48 79 53 99 53c34 0 58 -12 74 -29c26 -27 29 -60 29 -84v-391h-100v351c0 12 -1 27 -13 40c-9 10 -20 15 -35 15c-19 0 -31 -9 -38 -16c-15 -16 -16 -34 -16 -50v-340h-100zM155 -73h100v-96l-100 -80v176z" />
    <glyph glyph-name="Ncaron" unicode="&#x147;" horiz-adv-x="487" 
d="M60 700h100l167 -440v440h100v-700h-100l-167 440v-440h-100v700zM243 811l60 58h64l-57 -105h-134l-57 105h64z" />
    <glyph glyph-name="ncaron" unicode="&#x148;" 
d="M54 0v496h100v-45c36 48 79 53 99 53c34 0 58 -12 74 -29c26 -27 29 -60 29 -84v-391h-100v351c0 12 -1 27 -13 40c-9 10 -20 15 -35 15c-19 0 -31 -9 -38 -16c-15 -16 -16 -34 -16 -50v-340h-100zM205 633l53 67h57l-51 -122h-118l-51 122h57z" />
    <glyph glyph-name="Omacron" unicode="&#x14c;" horiz-adv-x="462" 
d="M56 184v332c0 53 4 104 52 149c30 28 71 45 123 45s93 -17 123 -45c48 -45 52 -96 52 -149v-332c0 -53 -4 -104 -52 -149c-30 -28 -71 -45 -123 -45s-93 17 -123 45c-48 45 -52 96 -52 149zM306 169v362c0 21 -2 42 -21 61c-11 11 -29 20 -54 20s-43 -9 -54 -20
c-19 -19 -21 -40 -21 -61v-362c0 -21 2 -42 21 -61c11 -11 29 -20 54 -20s43 9 54 20c19 19 21 40 21 61zM119 824h224v-60h-224v60z" />
    <glyph glyph-name="omacron" unicode="&#x14d;" horiz-adv-x="402" 
d="M50 160v176c0 39 3 94 49 133c27 23 65 35 102 35s75 -12 102 -35c46 -39 49 -94 49 -133v-176c0 -39 -3 -94 -49 -133c-27 -23 -65 -35 -102 -35s-75 12 -102 35c-46 39 -49 94 -49 133zM252 154v188c0 23 -6 40 -15 50c-8 8 -21 14 -36 14s-28 -6 -36 -14
c-9 -10 -15 -27 -15 -50v-188c0 -23 6 -40 15 -50c8 -8 21 -14 36 -14s28 6 36 14c9 10 15 27 15 50zM89 668h224v-70h-224v70z" />
    <glyph glyph-name="Obreve" unicode="&#x14e;" horiz-adv-x="462" 
d="M56 184v332c0 53 4 104 52 149c30 28 71 45 123 45s93 -17 123 -45c48 -45 52 -96 52 -149v-332c0 -53 -4 -104 -52 -149c-30 -28 -71 -45 -123 -45s-93 17 -123 45c-48 45 -52 96 -52 149zM306 169v362c0 21 -2 42 -21 61c-11 11 -29 20 -54 20s-43 -9 -54 -20
c-19 -19 -21 -40 -21 -61v-362c0 -21 2 -42 21 -61c11 -11 29 -20 54 -20s43 9 54 20c19 19 21 40 21 61zM351 869v-5c0 -25 -7 -48 -19 -63c-20 -25 -59 -39 -101 -39s-81 14 -101 39c-12 15 -19 38 -19 63v5h54v-3c0 -18 12 -28 17 -32c13 -9 35 -12 49 -12s36 3 49 12
c5 4 17 14 17 32v3h54z" />
    <glyph glyph-name="obreve" unicode="&#x14f;" horiz-adv-x="402" 
d="M50 160v176c0 39 3 94 49 133c27 23 65 35 102 35s75 -12 102 -35c46 -39 49 -94 49 -133v-176c0 -39 -3 -94 -49 -133c-27 -23 -65 -35 -102 -35s-75 12 -102 35c-46 39 -49 94 -49 133zM252 154v188c0 23 -6 40 -15 50c-8 8 -21 14 -36 14s-28 -6 -36 -14
c-9 -10 -15 -27 -15 -50v-188c0 -23 6 -40 15 -50c8 -8 21 -14 36 -14s28 6 36 14c9 10 15 27 15 50zM321 700v-6c0 -22 -5 -52 -19 -73c-13 -20 -42 -45 -101 -45s-88 25 -101 45c-14 21 -19 51 -19 73v6h54v-3c0 -17 9 -30 17 -37c14 -12 34 -14 49 -14s35 2 49 14
c8 7 17 20 17 37v3h54z" />
    <glyph glyph-name="Ohungarumlaut" unicode="&#x150;" horiz-adv-x="462" 
d="M56 184v332c0 53 4 104 52 149c30 28 71 45 123 45s93 -17 123 -45c48 -45 52 -96 52 -149v-332c0 -53 -4 -104 -52 -149c-30 -28 -71 -45 -123 -45s-93 17 -123 45c-48 45 -52 96 -52 149zM306 169v362c0 21 -2 42 -21 61c-11 11 -29 20 -54 20s-43 -9 -54 -20
c-19 -19 -21 -40 -21 -61v-362c0 -21 2 -42 21 -61c11 -11 29 -20 54 -20s43 9 54 20c19 19 21 40 21 61zM170 764h-60l50 105h111zM301 764h-60l50 105h111z" />
    <glyph glyph-name="ohungarumlaut" unicode="&#x151;" horiz-adv-x="402" 
d="M50 160v176c0 39 3 94 49 133c27 23 65 35 102 35s75 -12 102 -35c46 -39 49 -94 49 -133v-176c0 -39 -3 -94 -49 -133c-27 -23 -65 -35 -102 -35s-75 12 -102 35c-46 39 -49 94 -49 133zM252 154v188c0 23 -6 40 -15 50c-8 8 -21 14 -36 14s-28 -6 -36 -14
c-9 -10 -15 -27 -15 -50v-188c0 -23 6 -40 15 -50c8 -8 21 -14 36 -14s28 6 36 14c9 10 15 27 15 50zM145 578h-57l51 122h95zM275 578h-57l51 122h95z" />
    <glyph glyph-name="OE" unicode="&#x152;" horiz-adv-x="641" 
d="M56 184v332c0 55 2 103 46 149c31 33 68 45 102 45s74 -8 108 -40v30h291v-95h-197v-207h174v-89h-174v-214h200v-95h-294v30c-21 -21 -51 -40 -101 -40c-41 0 -78 12 -109 45c-44 46 -46 94 -46 149zM156 531v-362c0 -21 2 -42 21 -61c11 -11 29 -20 54 -20s43 9 54 20
c19 19 21 40 21 61v362c0 21 -2 42 -21 61c-11 11 -29 20 -54 20s-43 -9 -54 -20c-19 -19 -21 -40 -21 -61z" />
    <glyph glyph-name="oe" unicode="&#x153;" horiz-adv-x="599" 
d="M50 160v176c0 39 3 94 49 133c27 23 65 35 102 35c40 0 72 -12 100 -34c25 20 55 34 99 34c43 0 79 -14 104 -36c44 -38 50 -88 50 -127v-130h-202v-51c0 -21 -1 -39 13 -53c8 -9 23 -13 36 -13c18 0 31 9 39 19c7 9 10 22 10 32h102v-4c0 -67 -35 -103 -54 -118
c-23 -18 -55 -31 -95 -31c-48 0 -81 19 -101 34c-23 -18 -56 -34 -101 -34c-37 0 -75 12 -102 35c-46 39 -49 94 -49 133zM252 154v188c0 23 -6 40 -15 50c-8 8 -21 14 -36 14s-28 -6 -36 -14c-9 -10 -15 -27 -15 -50v-188c0 -23 6 -40 15 -50c8 -8 21 -14 36 -14
s28 6 36 14c9 10 15 27 15 50zM352 288h102v65c0 13 -2 27 -14 39c-8 8 -21 14 -37 14c-17 0 -31 -7 -39 -17c-10 -12 -12 -27 -12 -40v-61z" />
    <glyph glyph-name="Racute" unicode="&#x154;" horiz-adv-x="445" 
d="M60 700h131c51 0 125 3 172 -55c23 -28 37 -70 37 -122v-53c0 -45 -16 -87 -37 -111c-15 -17 -35 -29 -53 -36l110 -323h-104l-97 302h-59v-302h-100v700zM160 610v-218h57c22 0 43 5 62 23c20 19 21 36 21 63v50c0 27 -10 51 -23 64c-20 20 -44 18 -65 18h-52zM227 764
h-65l50 105h121z" />
    <glyph glyph-name="racute" unicode="&#x155;" horiz-adv-x="297" 
d="M54 496h100v-53l2 -1c41 51 96 62 131 62v-107c-48 8 -133 -4 -133 -113v-284h-100v496zM155 578h-57l44 122h107z" />
    <glyph glyph-name="Rcommaaccent" unicode="&#x156;" horiz-adv-x="445" 
d="M60 700h131c51 0 125 3 172 -55c23 -28 37 -70 37 -122v-53c0 -45 -16 -87 -37 -111c-15 -17 -35 -29 -53 -36l110 -323h-104l-97 302h-59v-302h-100v700zM160 610v-218h57c22 0 43 5 62 23c20 19 21 36 21 63v50c0 27 -10 51 -23 64c-20 20 -44 18 -65 18h-52zM167 -76
h100v-100l-100 -80v180z" />
    <glyph glyph-name="rcommaaccent" unicode="&#x157;" horiz-adv-x="297" 
d="M54 496h100v-53l2 -1c41 51 96 62 131 62v-107c-48 8 -133 -4 -133 -113v-284h-100v496zM82 -71h100v-96l-100 -80v176z" />
    <glyph glyph-name="Rcaron" unicode="&#x158;" horiz-adv-x="445" 
d="M60 700h131c51 0 125 3 172 -55c23 -28 37 -70 37 -122v-53c0 -45 -16 -87 -37 -111c-15 -17 -35 -29 -53 -36l110 -323h-104l-97 302h-59v-302h-100v700zM160 610v-218h57c22 0 43 5 62 23c20 19 21 36 21 63v50c0 27 -10 51 -23 64c-20 20 -44 18 -65 18h-52zM222 811
l60 58h64l-57 -105h-134l-57 105h64z" />
    <glyph glyph-name="rcaron" unicode="&#x159;" horiz-adv-x="297" 
d="M54 496h100v-53l2 -1c41 51 96 62 131 62v-107c-48 8 -133 -4 -133 -113v-284h-100v496zM149 633l53 67h57l-51 -122h-118l-51 122h57z" />
    <glyph glyph-name="Sacute" unicode="&#x15a;" horiz-adv-x="440" 
d="M291 506v19c0 15 -1 44 -17 64c-9 11 -24 23 -53 23c-14 0 -33 -3 -49 -19c-19 -20 -21 -48 -21 -71c0 -19 3 -54 16 -73c11 -17 31 -25 46 -31l61 -22c30 -11 65 -24 91 -60c27 -37 30 -77 30 -121v-24c0 -71 -19 -125 -48 -155c-26 -27 -72 -46 -130 -46
c-71 0 -117 29 -140 61c-32 43 -32 109 -32 118v23h100v-19c0 -16 2 -44 16 -62c17 -21 42 -23 55 -23c38 0 55 15 63 25c15 19 16 48 16 69v26c0 24 -3 54 -16 72s-37 27 -48 31l-73 26c-36 13 -72 31 -92 78c-14 32 -15 67 -15 102v20c0 58 23 102 52 130
c33 32 75 43 121 43c100 0 167 -65 167 -181v-23h-100zM224 764h-65l50 105h121z" />
    <glyph glyph-name="sacute" unicode="&#x15b;" horiz-adv-x="371" 
d="M336 362h-98c-1 15 -7 28 -15 36c-9 9 -22 13 -36 13c-25 0 -49 -16 -49 -50c0 -9 2 -21 10 -32c10 -14 26 -21 39 -26l60 -25c25 -10 50 -30 64 -48s25 -48 25 -91c0 -24 -5 -64 -32 -97c-21 -26 -58 -50 -121 -50c-60 0 -96 22 -116 44c-25 27 -37 67 -37 103h100
c0 -13 4 -28 13 -38s27 -16 41 -16s29 5 39 17c11 12 13 27 13 40c0 26 -8 45 -50 63l-59 25c-38 16 -56 35 -62 42c-22 26 -27 59 -27 84c0 49 16 86 37 108c20 20 53 40 107 40c63 0 99 -22 116 -40c24 -24 38 -63 38 -102zM192 578h-57l44 122h107z" />
    <glyph glyph-name="Scircumflex" unicode="&#x15c;" horiz-adv-x="440" 
d="M291 506v19c0 15 -1 44 -17 64c-9 11 -24 23 -53 23c-14 0 -33 -3 -49 -19c-19 -20 -21 -48 -21 -71c0 -19 3 -54 16 -73c11 -17 31 -25 46 -31l61 -22c30 -11 65 -24 91 -60c27 -37 30 -77 30 -121v-24c0 -71 -19 -125 -48 -155c-26 -27 -72 -46 -130 -46
c-71 0 -117 29 -140 61c-32 43 -32 109 -32 118v23h100v-19c0 -16 2 -44 16 -62c17 -21 42 -23 55 -23c38 0 55 15 63 25c15 19 16 48 16 69v26c0 24 -3 54 -16 72s-37 27 -48 31l-73 26c-36 13 -72 31 -92 78c-14 32 -15 67 -15 102v20c0 58 23 102 52 130
c33 32 75 43 121 43c100 0 167 -65 167 -181v-23h-100zM220 822l-60 -58h-64l57 105h134l57 -105h-64z" />
    <glyph glyph-name="scircumflex" unicode="&#x15d;" horiz-adv-x="371" 
d="M336 362h-98c-1 15 -7 28 -15 36c-9 9 -22 13 -36 13c-25 0 -49 -16 -49 -50c0 -9 2 -21 10 -32c10 -14 26 -21 39 -26l60 -25c25 -10 50 -30 64 -48s25 -48 25 -91c0 -24 -5 -64 -32 -97c-21 -26 -58 -50 -121 -50c-60 0 -96 22 -116 44c-25 27 -37 67 -37 103h100
c0 -13 4 -28 13 -38s27 -16 41 -16s29 5 39 17c11 12 13 27 13 40c0 26 -8 45 -50 63l-59 25c-38 16 -56 35 -62 42c-22 26 -27 59 -27 84c0 49 16 86 37 108c20 20 53 40 107 40c63 0 99 -22 116 -40c24 -24 38 -63 38 -102zM185 645l-53 -67h-57l51 122h118l51 -122h-57z
" />
    <glyph glyph-name="Scedilla" unicode="&#x15e;" horiz-adv-x="440" 
d="M291 506v19c0 15 -1 44 -17 64c-9 11 -24 23 -53 23c-14 0 -33 -3 -49 -19c-19 -20 -21 -48 -21 -71c0 -19 3 -54 16 -73c11 -17 31 -25 46 -31l61 -22c30 -11 65 -24 91 -60c27 -37 30 -77 30 -121v-24c0 -71 -19 -125 -48 -155c-28 -29 -74 -43 -109 -45l-2 -27
c19 0 36 -7 47 -17c10 -8 21 -24 21 -49c0 -31 -15 -49 -25 -58c-19 -17 -42 -21 -64 -21c-19 0 -36 4 -52 13c-12 7 -21 16 -24 20l37 36c4 -4 8 -6 12 -8c5 -2 11 -4 18 -4c8 0 17 2 22 7c4 4 7 10 7 16c0 5 -2 13 -8 18c-9 8 -25 9 -38 5l4 69c-52 4 -95 31 -116 60
c-32 43 -32 109 -32 118v23h100v-19c0 -16 2 -44 16 -62c17 -21 42 -23 55 -23c38 0 55 15 63 25c15 19 16 48 16 69v26c0 24 -3 54 -16 72s-37 27 -48 31l-73 26c-36 13 -72 31 -92 78c-14 32 -15 67 -15 102v20c0 58 23 102 52 130c33 32 75 43 121 43
c100 0 167 -65 167 -181v-23h-100z" />
    <glyph glyph-name="scedilla" unicode="&#x15f;" horiz-adv-x="371" 
d="M336 362h-98c-1 15 -7 28 -15 36c-9 9 -22 13 -36 13c-25 0 -49 -16 -49 -50c0 -9 2 -21 10 -32c10 -14 26 -21 39 -26l60 -25c25 -10 50 -30 64 -48s25 -48 25 -91c0 -24 -5 -64 -32 -97c-17 -20 -48 -44 -95 -48l-2 -31c16 0 34 -5 47 -16c16 -13 22 -30 22 -49
c0 -28 -14 -46 -25 -56c-17 -15 -38 -20 -61 -20c-32 0 -57 10 -77 33l37 33c4 -4 8 -6 12 -8c5 -2 11 -4 18 -4c8 0 17 2 22 7c4 4 7 10 7 17s-3 14 -9 18c-10 7 -27 7 -39 4l5 71c-40 2 -77 19 -99 43c-25 27 -37 67 -37 103h100c0 -13 4 -28 13 -38s27 -16 41 -16
s29 5 39 17c11 12 13 27 13 40c0 26 -8 45 -50 63l-59 25c-38 16 -56 35 -62 42c-22 26 -27 59 -27 84c0 49 16 86 37 108c20 20 53 40 107 40c63 0 99 -22 116 -40c24 -24 38 -63 38 -102z" />
    <glyph glyph-name="Scaron" unicode="&#x160;" horiz-adv-x="440" 
d="M291 506v19c0 15 -1 44 -17 64c-9 11 -24 23 -53 23c-14 0 -33 -3 -49 -19c-19 -20 -21 -48 -21 -71c0 -19 3 -54 16 -73c11 -17 31 -25 46 -31l61 -22c30 -11 65 -24 91 -60c27 -37 30 -77 30 -121v-24c0 -71 -19 -125 -48 -155c-26 -27 -72 -46 -130 -46
c-71 0 -117 29 -140 61c-32 43 -32 109 -32 118v23h100v-19c0 -16 2 -44 16 -62c17 -21 42 -23 55 -23c38 0 55 15 63 25c15 19 16 48 16 69v26c0 24 -3 54 -16 72s-37 27 -48 31l-73 26c-36 13 -72 31 -92 78c-14 32 -15 67 -15 102v20c0 58 23 102 52 130
c33 32 75 43 121 43c100 0 167 -65 167 -181v-23h-100zM220 811l60 58h64l-57 -105h-134l-57 105h64z" />
    <glyph glyph-name="scaron" unicode="&#x161;" horiz-adv-x="371" 
d="M336 362h-98c-1 15 -7 28 -15 36c-9 9 -22 13 -36 13c-25 0 -49 -16 -49 -50c0 -9 2 -21 10 -32c10 -14 26 -21 39 -26l60 -25c25 -10 50 -30 64 -48s25 -48 25 -91c0 -24 -5 -64 -32 -97c-21 -26 -58 -50 -121 -50c-60 0 -96 22 -116 44c-25 27 -37 67 -37 103h100
c0 -13 4 -28 13 -38s27 -16 41 -16s29 5 39 17c11 12 13 27 13 40c0 26 -8 45 -50 63l-59 25c-38 16 -56 35 -62 42c-22 26 -27 59 -27 84c0 49 16 86 37 108c20 20 53 40 107 40c63 0 99 -22 116 -40c24 -24 38 -63 38 -102zM185 633l53 67h57l-51 -122h-118l-51 122h57z
" />
    <glyph glyph-name="Tcedilla" unicode="&#x162;" horiz-adv-x="388" 
d="M20 700h348v-94h-124v-606h-28l-3 -36c19 0 36 -7 47 -17c10 -8 21 -24 21 -49c0 -31 -15 -49 -25 -58c-19 -17 -42 -21 -64 -21c-19 0 -36 4 -52 13c-12 7 -21 16 -24 20l37 36c4 -4 8 -6 12 -8c5 -2 11 -4 18 -4c8 0 17 2 22 7c4 4 7 10 7 16c0 5 -2 13 -8 18
c-9 8 -25 9 -38 5l4 78h-26v606h-124v94z" />
    <glyph glyph-name="tcedilla" unicode="&#x163;" horiz-adv-x="255" 
d="M66 647h100v-151h64v-80h-64v-272c0 -10 1 -31 14 -42c11 -9 28 -9 37 -9h13v-93h-27l-23 1l-3 -38c16 0 34 -5 47 -16c16 -13 22 -30 22 -49c0 -28 -14 -46 -25 -56c-17 -15 -38 -20 -61 -20c-32 0 -57 10 -77 33l37 33c4 -4 8 -6 12 -8c5 -2 11 -4 18 -4c8 0 17 2 22 7
c4 4 7 10 7 17s-3 14 -9 18c-9 7 -27 7 -41 4l7 87c-7 2 -26 9 -41 26c-28 30 -29 69 -29 100v281h-51v80h51v151z" />
    <glyph glyph-name="Tcaron" unicode="&#x164;" horiz-adv-x="388" 
d="M20 700h348v-95h-124v-605h-100v605h-124v95zM194 811l60 58h64l-57 -105h-134l-57 105h64z" />
    <glyph glyph-name="tcaron" unicode="&#x165;" horiz-adv-x="337" 
d="M66 647h100v-151h64v-80h-64v-272c0 -10 1 -31 14 -42c11 -9 28 -9 37 -9h13v-93h-27c-29 0 -77 1 -108 35c-28 30 -29 70 -29 100v281h-51v80h51v151zM260 700h100v-96l-100 -80v176z" />
    <glyph glyph-name="Umacron" unicode="&#x16a;" horiz-adv-x="454" 
d="M60 700h100v-531c0 -48 23 -81 67 -81s67 33 67 81v531h100v-516c0 -154 -92 -194 -167 -194s-167 40 -167 194v516zM115 824h224v-60h-224v60z" />
    <glyph glyph-name="umacron" unicode="&#x16b;" 
d="M356 496v-496h-100v50c-2 -3 -16 -23 -35 -37c-20 -14 -43 -21 -69 -21c-42 0 -66 20 -78 37c-16 22 -20 52 -20 76v391h100v-351c0 -14 1 -30 12 -42c6 -6 16 -13 32 -13c18 0 33 8 42 18c15 16 16 35 16 48v340h100zM93 668h224v-70h-224v70z" />
    <glyph glyph-name="Ubreve" unicode="&#x16c;" horiz-adv-x="454" 
d="M60 700h100v-531c0 -48 23 -81 67 -81s67 33 67 81v531h100v-516c0 -154 -92 -194 -167 -194s-167 40 -167 194v516zM347 869v-5c0 -25 -7 -48 -19 -63c-20 -25 -59 -39 -101 -39s-81 14 -101 39c-12 15 -19 38 -19 63v5h54v-3c0 -18 12 -28 17 -32c13 -9 35 -12 49 -12
s36 3 49 12c5 4 17 14 17 32v3h54z" />
    <glyph glyph-name="ubreve" unicode="&#x16d;" 
d="M356 496v-496h-100v50c-2 -3 -16 -23 -35 -37c-20 -14 -43 -21 -69 -21c-42 0 -66 20 -78 37c-16 22 -20 52 -20 76v391h100v-351c0 -14 1 -30 12 -42c6 -6 16 -13 32 -13c18 0 33 8 42 18c15 16 16 35 16 48v340h100zM325 700v-6c0 -22 -5 -52 -19 -73
c-13 -20 -42 -45 -101 -45s-88 25 -101 45c-14 21 -19 51 -19 73v6h54v-3c0 -17 9 -30 17 -37c14 -12 34 -14 49 -14s35 2 49 14c8 7 17 20 17 37v3h54z" />
    <glyph glyph-name="Uring" unicode="&#x16e;" horiz-adv-x="454" 
d="M60 700h100v-531c0 -48 23 -81 67 -81s67 33 67 81v531h100v-516c0 -154 -92 -194 -167 -194s-167 40 -167 194v516zM147 822c0 44 36 80 80 80s80 -36 80 -80s-36 -80 -80 -80s-80 36 -80 80zM197 822c0 -17 13 -30 30 -30s30 13 30 30s-13 30 -30 30s-30 -13 -30 -30z
" />
    <glyph glyph-name="uring" unicode="&#x16f;" 
d="M356 496v-496h-100v50c-2 -3 -16 -23 -35 -37c-20 -14 -43 -21 -69 -21c-42 0 -66 20 -78 37c-16 22 -20 52 -20 76v391h100v-351c0 -14 1 -30 12 -42c6 -6 16 -13 32 -13c18 0 33 8 42 18c15 16 16 35 16 48v340h100zM125 641c0 44 36 80 80 80s80 -36 80 -80
s-36 -80 -80 -80s-80 36 -80 80zM175 641c0 -17 13 -30 30 -30s30 13 30 30s-13 30 -30 30s-30 -13 -30 -30z" />
    <glyph glyph-name="Uhungarumlaut" unicode="&#x170;" horiz-adv-x="454" 
d="M60 700h100v-531c0 -48 23 -81 67 -81s67 33 67 81v531h100v-516c0 -154 -92 -194 -167 -194s-167 40 -167 194v516zM166 764h-60l50 105h111zM297 764h-60l50 105h111z" />
    <glyph glyph-name="uhungarumlaut" unicode="&#x171;" 
d="M356 496v-496h-100v50c-2 -3 -16 -23 -35 -37c-20 -14 -43 -21 -69 -21c-42 0 -66 20 -78 37c-16 22 -20 52 -20 76v391h100v-351c0 -14 1 -30 12 -42c6 -6 16 -13 32 -13c18 0 33 8 42 18c15 16 16 35 16 48v340h100zM149 578h-57l51 122h95zM279 578h-57l51 122h95z
" />
    <glyph glyph-name="Uogonek" unicode="&#x172;" horiz-adv-x="454" 
d="M60 700h100v-531c0 -48 23 -81 67 -81s67 33 67 81v531h100v-516c0 -54 -3 -104 -50 -149c-14 -13 -29 -23 -44 -30l-15 -11c-8 -6 -18 -12 -30 -23c-10 -9 -19 -19 -19 -36c0 -10 4 -17 9 -21c7 -6 15 -8 23 -8c15 0 25 4 34 13l32 -32c-8 -10 -18 -18 -29 -24
c-16 -9 -29 -12 -49 -12c-16 0 -41 2 -60 20c-15 14 -21 33 -21 51c0 17 7 31 17 42s24 21 32 26c-54 0 -91 23 -114 45c-47 46 -50 95 -50 149v516z" />
    <glyph glyph-name="uogonek" unicode="&#x173;" 
d="M356 496v-496l-15 -11c-7 -5 -13 -9 -27 -20c-11 -9 -22 -17 -22 -34c0 -9 3 -16 9 -21c5 -5 13 -8 24 -8c15 0 25 5 33 13l32 -32c-8 -10 -18 -18 -29 -24c-16 -9 -29 -12 -46 -12c-18 0 -44 2 -63 20c-15 13 -21 33 -21 51c0 34 28 53 47 65l20 13h-42v50
c-2 -3 -16 -23 -35 -37c-20 -14 -43 -21 -69 -21c-42 0 -66 20 -78 37c-16 22 -20 52 -20 76v391h100v-351c0 -14 1 -30 12 -42c6 -6 16 -13 32 -13c18 0 33 8 42 18c15 16 16 35 16 48v340h100z" />
    <glyph glyph-name="Ydieresis" unicode="&#x178;" horiz-adv-x="414" 
d="M404 700l-147 -405v-295h-100v298l-147 402h110l87 -278h6l85 278h106zM176 864v-100h-95v100h95zM238 764v100h95v-100h-95z" />
    <glyph glyph-name="Zacute" unicode="&#x179;" horiz-adv-x="405" 
d="M59 700h301v-77l-210 -533h205v-90h-310v88l205 522h-191v90zM207 764h-65l50 105h121z" />
    <glyph glyph-name="zacute" unicode="&#x17a;" horiz-adv-x="339" 
d="M38 411v85h276v-72l-183 -339h183v-85h-289v82l177 329h-164zM176 578h-57l44 122h107z" />
    <glyph glyph-name="Zdotaccent" unicode="&#x17b;" horiz-adv-x="405" 
d="M59 700h301v-77l-210 -533h205v-90h-310v88l205 522h-191v90zM147 864h110v-100h-110v100z" />
    <glyph glyph-name="zdotaccent" unicode="&#x17c;" horiz-adv-x="339" 
d="M38 411v85h276v-72l-183 -339h183v-85h-289v82l177 329h-164zM119 686h100v-98h-100v98z" />
    <glyph glyph-name="Zcaron" unicode="&#x17d;" horiz-adv-x="405" 
d="M59 700h301v-77l-210 -533h205v-90h-310v88l205 522h-191v90zM202 811l60 58h64l-57 -105h-134l-57 105h64z" />
    <glyph glyph-name="zcaron" unicode="&#x17e;" horiz-adv-x="339" 
d="M38 411v85h276v-72l-183 -339h183v-85h-289v82l177 329h-164zM169 633l53 67h57l-51 -122h-118l-51 122h57z" />
    <glyph glyph-name="uni018F" unicode="&#x18f;" horiz-adv-x="446" 
d="M56 501v63c0 99 80 146 164 146c83 0 170 -39 170 -146v-397c0 -56 -3 -99 -44 -136c-37 -35 -83 -41 -128 -41c-37 0 -83 5 -119 38c-8 5 -43 41 -43 101v271h234v155c0 35 -30 57 -69 57c-41 0 -65 -29 -65 -69v-42h-100zM156 310v-156c0 -15 2 -33 17 -48
s35 -18 51 -18c28 0 42 9 49 16c16 15 17 36 17 55v151h-134z" />
    <glyph glyph-name="florin" unicode="&#x192;" horiz-adv-x="418" 
d="M372 496l-13 -80h-80l-76 -482c-5 -34 -15 -76 -55 -107c-35 -27 -76 -31 -112 -31h-36l14 88h19c18 0 33 1 50 17c17 15 19 29 22 48l73 467h-78l13 80h77l11 66c6 34 15 76 55 107c35 27 76 31 112 31h36l-14 -88h-19c-18 0 -33 -1 -50 -17c-17 -15 -19 -29 -22 -48
l-8 -51h81z" />
    <glyph glyph-name="uni01CF" unicode="&#x1cf;" horiz-adv-x="220" 
d="M60 700h100v-700h-100v700zM110 811l60 58h64l-57 -105h-134l-57 105h64z" />
    <glyph glyph-name="uni01D0" unicode="&#x1d0;" horiz-adv-x="208" 
d="M54 0v496h100v-496h-100zM104 633l53 67h57l-51 -122h-118l-51 122h57z" />
    <glyph glyph-name="uni01DD" unicode="&#x1dd;" horiz-adv-x="397" 
d="M247 285v64c0 11 -1 28 -13 40c-8 9 -23 13 -36 13c-19 0 -31 -8 -39 -19c-7 -9 -10 -21 -10 -32h-102v4c0 68 35 102 54 118c23 19 55 31 95 31c47 0 88 -17 115 -48c35 -40 36 -88 36 -120v-190c0 -34 -7 -86 -49 -120c-23 -20 -56 -34 -99 -34s-79 13 -104 36
c-45 37 -50 89 -50 127v130h202zM247 208h-102v-65c0 -13 2 -27 14 -39c9 -9 22 -14 37 -14c17 0 31 6 39 17c11 12 12 27 12 40v61z" />
    <glyph glyph-name="Gcaron" unicode="&#x1e6;" horiz-adv-x="461" 
d="M355 0l-26 54c-14 -25 -33 -39 -48 -47c-29 -16 -61 -17 -78 -17c-36 0 -78 9 -111 50c-32 40 -36 90 -36 122v354c0 42 2 85 33 128c40 56 103 66 141 66c52 0 96 -17 124 -45c27 -27 51 -72 51 -137v-28h-100v35c0 17 -2 39 -20 57c-10 10 -27 20 -54 20
c-26 0 -44 -11 -56 -25c-19 -23 -19 -49 -19 -74v-328c0 -21 1 -51 17 -72c12 -15 32 -25 56 -25c21 0 45 11 58 28c18 23 18 57 18 82v94h-85v90h185v-382h-50zM230 811l60 58h64l-57 -105h-134l-57 105h64z" />
    <glyph glyph-name="gcaron" unicode="&#x1e7;" horiz-adv-x="406" 
d="M252 496h100v-542c0 -40 -4 -82 -38 -118c-20 -22 -57 -45 -115 -45c-57 0 -92 24 -111 46c-21 24 -36 65 -38 103h100c-1 -15 5 -28 13 -37c11 -12 26 -14 37 -14c21 0 34 9 41 19c9 13 11 33 11 53v84c-9 -11 -20 -21 -33 -29c-18 -11 -37 -19 -66 -19s-54 8 -74 29
c-26 27 -29 60 -29 84v253c0 32 1 73 23 103c8 11 33 38 83 38c20 0 43 -5 61 -17c13 -9 26 -22 34 -35h1v44zM252 161v179c0 16 -1 34 -16 50c-7 7 -19 16 -38 16c-13 0 -25 -4 -35 -15c-12 -14 -13 -29 -13 -45v-196c0 -10 1 -26 13 -40c10 -11 22 -15 35 -15
c19 0 31 9 38 16c15 16 16 34 16 50zM203 633l53 67h57l-51 -122h-118l-51 122h57z" />
    <glyph glyph-name="Scommaaccent" unicode="&#x218;" horiz-adv-x="440" 
d="M291 506v19c0 15 -1 44 -17 64c-9 11 -24 23 -53 23c-14 0 -33 -3 -49 -19c-19 -20 -21 -48 -21 -71c0 -19 3 -54 16 -73c11 -17 31 -25 46 -31l61 -22c30 -11 65 -24 91 -60c27 -37 30 -77 30 -121v-24c0 -71 -19 -125 -48 -155c-26 -27 -72 -46 -130 -46
c-71 0 -117 29 -140 61c-32 43 -32 109 -32 118v23h100v-19c0 -16 2 -44 16 -62c17 -21 42 -23 55 -23c38 0 55 15 63 25c15 19 16 48 16 69v26c0 24 -3 54 -16 72s-37 27 -48 31l-73 26c-36 13 -72 31 -92 78c-14 32 -15 67 -15 102v20c0 58 23 102 52 130
c33 32 75 43 121 43c100 0 167 -65 167 -181v-23h-100zM165 -76h100v-100l-100 -80v180z" />
    <glyph glyph-name="scommaaccent" unicode="&#x219;" horiz-adv-x="371" 
d="M336 362h-98c-1 15 -7 28 -15 36c-9 9 -22 13 -36 13c-25 0 -49 -16 -49 -50c0 -9 2 -21 10 -32c10 -14 26 -21 39 -26l60 -25c25 -10 50 -30 64 -48s25 -48 25 -91c0 -24 -5 -64 -32 -97c-21 -26 -58 -50 -121 -50c-60 0 -96 22 -116 44c-25 27 -37 67 -37 103h100
c0 -13 4 -28 13 -38s27 -16 41 -16s29 5 39 17c11 12 13 27 13 40c0 26 -8 45 -50 63l-59 25c-38 16 -56 35 -62 42c-22 26 -27 59 -27 84c0 49 16 86 37 108c20 20 53 40 107 40c63 0 99 -22 116 -40c24 -24 38 -63 38 -102zM135 -73h100v-96l-100 -80v176z" />
    <glyph glyph-name="Tcommaaccent" unicode="&#x21a;" horiz-adv-x="388" 
d="M20 700h348v-95h-124v-605h-100v605h-124v95zM146 -76h100v-100l-100 -80v180z" />
    <glyph glyph-name="tcommaaccent" unicode="&#x21b;" horiz-adv-x="255" 
d="M66 647h100v-151h64v-80h-64v-272c0 -10 1 -31 14 -42c11 -9 28 -9 37 -9h13v-93h-27c-29 0 -77 1 -108 35c-28 30 -29 70 -29 100v281h-51v80h51v151zM77 -73h100v-96l-100 -80v176z" />
    <glyph glyph-name="uni0259" unicode="&#x259;" horiz-adv-x="397" 
d="M247 285v64c0 11 -1 28 -13 40c-8 9 -23 13 -36 13c-19 0 -31 -8 -39 -19c-7 -9 -10 -21 -10 -32h-102v4c0 68 35 102 54 118c23 19 55 31 95 31c47 0 88 -17 115 -48c35 -40 36 -88 36 -120v-190c0 -34 -7 -86 -49 -120c-23 -20 -56 -34 -99 -34s-79 13 -104 36
c-45 37 -50 89 -50 127v130h202zM247 208h-102v-65c0 -13 2 -27 14 -39c9 -9 22 -14 37 -14c17 0 31 6 39 17c11 12 12 27 12 40v61z" />
    <glyph glyph-name="afii57929" unicode="&#x2bc;" horiz-adv-x="189" 
d="M35 700h100v-96l-100 -80v176z" />
    <glyph glyph-name="circumflex" unicode="&#x2c6;" horiz-adv-x="328" 
d="M164 645l-53 -67h-57l51 122h118l51 -122h-57z" />
    <glyph glyph-name="caron" unicode="&#x2c7;" horiz-adv-x="328" 
d="M164 633l53 67h57l-51 -122h-118l-51 122h57z" />
    <glyph glyph-name="breve" unicode="&#x2d8;" horiz-adv-x="348" 
d="M294 700v-6c0 -22 -5 -52 -19 -73c-13 -20 -42 -45 -101 -45s-88 25 -101 45c-14 21 -19 51 -19 73v6h54v-3c0 -17 9 -30 17 -37c14 -12 34 -14 49 -14s35 2 49 14c8 7 17 20 17 37v3h54z" />
    <glyph glyph-name="dotaccent" unicode="&#x2d9;" horiz-adv-x="208" 
d="M54 686h100v-98h-100v98z" />
    <glyph glyph-name="ring" unicode="&#x2da;" horiz-adv-x="268" 
d="M54 641c0 44 36 80 80 80s80 -36 80 -80s-36 -80 -80 -80s-80 36 -80 80zM104 641c0 -17 13 -30 30 -30s30 13 30 30s-13 30 -30 30s-30 -13 -30 -30z" />
    <glyph glyph-name="ogonek" unicode="&#x2db;" horiz-adv-x="261" 
d="M191 5l-15 -11c-8 -6 -18 -12 -30 -23c-10 -9 -19 -19 -19 -36c0 -15 9 -29 32 -29c16 0 27 6 34 13l32 -32c-29 -33 -60 -36 -75 -36c-67 0 -84 44 -84 71c0 39 36 60 52 70l20 13h53z" />
    <glyph glyph-name="tilde" unicode="&#x2dc;" horiz-adv-x="354" 
d="M54 578v6c0 14 3 43 15 65c14 27 35 37 58 37c10 0 23 -3 45 -12l14 -6c14 -6 21 -10 31 -10c9 0 16 3 22 12c5 8 6 18 6 26h55v-3c0 -13 -2 -39 -11 -61c-15 -35 -39 -44 -60 -44c-19 0 -38 8 -47 12l-14 6c-12 5 -21 10 -32 10c-8 0 -15 -3 -21 -12
c-4 -7 -6 -17 -6 -26h-55z" />
    <glyph glyph-name="hungarumlaut" unicode="&#x2dd;" horiz-adv-x="366" 
d="M127 578h-57l51 122h95zM257 578h-57l51 122h95z" />
    <glyph glyph-name="acutecomb" unicode="&#x301;" horiz-adv-x="0" 
d="M-193 578h-57l44 122h107z" />
    <glyph glyph-name="uni0394" unicode="&#x394;" horiz-adv-x="426" 
d="M35 0v90l134 610h88l134 -610v-90h-356zM293 90l-81 414l-79 -414h160z" />
    <glyph glyph-name="uni0394" unicode="&#x2206;" horiz-adv-x="426" 
d="M35 0v90l134 610h88l134 -610v-90h-356zM293 90l-81 414l-79 -414h160z" />
    <glyph glyph-name="uni03A9" unicode="&#x3a9;" horiz-adv-x="456" 
d="M53 265v241c0 52 4 105 52 149c30 28 74 45 123 45s93 -17 123 -45c48 -44 52 -97 52 -149v-241c0 -92 -21 -130 -61 -141v-26h69v-98h-159v199c47 8 51 36 51 74v248c0 21 -2 42 -21 61c-11 11 -29 20 -54 20s-43 -9 -54 -20c-19 -19 -21 -40 -21 -61v-248
c0 -38 4 -66 51 -74v-199h-159v98h69v26c-40 11 -61 49 -61 141z" />
    <glyph glyph-name="uni03A9" unicode="&#x2126;" horiz-adv-x="456" 
d="M53 265v241c0 52 4 105 52 149c30 28 74 45 123 45s93 -17 123 -45c48 -44 52 -97 52 -149v-241c0 -92 -21 -130 -61 -141v-26h69v-98h-159v199c47 8 51 36 51 74v248c0 21 -2 42 -21 61c-11 11 -29 20 -54 20s-43 -9 -54 -20c-19 -19 -21 -40 -21 -61v-248
c0 -38 4 -66 51 -74v-199h-159v98h69v26c-40 11 -61 49 -61 141z" />
    <glyph glyph-name="pi" unicode="&#x3c0;" horiz-adv-x="422" 
d="M60 0v406h-40v90h382v-90h-40v-406h-100v406h-102v-406h-100z" />
    <glyph glyph-name="afii10023" unicode="&#x401;" horiz-adv-x="395" 
d="M60 0v700h297v-95h-197v-206h174v-90h-174v-214h200v-95h-300zM81 865h102v-106h-102v106zM237 865h102v-106h-102v106z" />
    <glyph glyph-name="afii10051" unicode="&#x402;" horiz-adv-x="509" 
d="M240 0h-100v606h-120v94h348v-94h-128v-182h58c36 0 90 -4 127 -43c34 -36 39 -88 39 -124v-49c0 -55 0 -114 -27 -154c-34 -51 -90 -54 -112 -54h-30v100h21c21 0 33 15 37 23c12 21 11 52 11 72v40c0 21 1 60 -21 81c-20 19 -52 18 -77 18h-26v-334z" />
    <glyph glyph-name="afii10052" unicode="&#x403;" horiz-adv-x="384" 
d="M60 0v700h304v-95h-204v-605h-100zM198 764h-65l50 105h121z" />
    <glyph glyph-name="afii10053" unicode="&#x404;" horiz-adv-x="435" 
d="M390 501h-100v42c0 40 -24 69 -65 69c-39 0 -69 -22 -69 -57v-145h124v-90h-124v-157c0 -23 -4 -75 66 -75c43 0 68 20 68 66v40h100v-65c0 -61 -37 -139 -162 -139c-165 0 -172 115 -172 177v397c0 107 88 146 170 146c84 0 164 -47 164 -146v-63z" />
    <glyph glyph-name="afii10054" unicode="&#x405;" horiz-adv-x="440" 
d="M291 506v19c0 15 -1 44 -17 64c-9 11 -24 23 -53 23c-14 0 -33 -3 -49 -19c-19 -20 -21 -48 -21 -71c0 -19 3 -54 16 -73c11 -17 31 -25 46 -31l61 -22c30 -11 65 -24 91 -60c27 -37 30 -77 30 -121v-24c0 -71 -19 -125 -48 -155c-26 -27 -72 -46 -130 -46
c-71 0 -117 29 -140 61c-32 43 -32 109 -32 118v23h100v-19c0 -16 2 -44 16 -62c17 -21 42 -23 55 -23c38 0 55 15 63 25c15 19 16 48 16 69v26c0 24 -3 54 -16 72s-37 27 -48 31l-73 26c-36 13 -72 31 -92 78c-14 32 -15 67 -15 102v20c0 58 23 102 52 130
c33 32 75 43 121 43c100 0 167 -65 167 -181v-23h-100z" />
    <glyph glyph-name="afii10055" unicode="&#x406;" horiz-adv-x="220" 
d="M60 700h100v-700h-100v700z" />
    <glyph glyph-name="afii10056" unicode="&#x407;" horiz-adv-x="220" 
d="M60 700h100v-700h-100v700zM79 864v-100h-95v100h95zM141 764v100h95v-100h-95z" />
    <glyph glyph-name="afii10057" unicode="&#x408;" horiz-adv-x="361" 
d="M201 700h100v-502c0 -50 -2 -114 -51 -163c-40 -40 -87 -45 -128 -45c-26 0 -84 3 -132 60l77 65c17 -24 42 -27 56 -27c23 0 44 6 59 26c16 21 19 49 19 71v515z" />
    <glyph glyph-name="afii10058" unicode="&#x409;" horiz-adv-x="661" 
d="M390 417h49c39 0 94 2 139 -40c43 -40 43 -90 43 -116v-82c0 -34 -2 -73 -29 -113c-19 -28 -58 -66 -150 -66h-152v610h-80l-3 -98c-2 -70 -1 -125 -9 -238c-7 -98 -19 -168 -54 -216c-42 -58 -95 -58 -126 -58h-23v95h11c10 0 24 1 39 10c16 10 28 25 35 46
c25 70 32 273 33 361l3 188h274v-283zM390 327v-237h45c26 0 86 6 86 104v38c0 34 -5 58 -27 77c-16 13 -31 18 -53 18h-51z" />
    <glyph glyph-name="afii10059" unicode="&#x40a;" horiz-adv-x="666" 
d="M395 408h49c39 0 94 2 139 -40c43 -40 43 -90 43 -116v-73c0 -34 -2 -73 -29 -113c-19 -28 -58 -66 -150 -66h-152v318h-135v-318h-100v700h100v-292h135v292h100v-292zM395 318v-228h45c14 0 47 2 68 31c13 18 18 49 18 73v29c0 34 -5 58 -27 77c-16 13 -31 18 -53 18
h-51z" />
    <glyph glyph-name="afii10060" unicode="&#x40b;" horiz-adv-x="509" 
d="M240 0h-100v606h-120v94h348v-94h-128v-182h58c36 0 90 -4 127 -43c34 -36 39 -88 39 -124v-257h-100v235c0 21 1 60 -21 81c-20 19 -52 18 -77 18h-26v-334z" />
    <glyph glyph-name="afii10061" unicode="&#x40c;" horiz-adv-x="462" 
d="M60 700h100v-300h57c14 0 27 6 37 21c13 18 17 43 22 92l7 63c4 38 10 80 40 106c29 25 67 26 93 26h15v-90h-13c-8 0 -19 -5 -26 -11c-11 -10 -15 -29 -20 -74l-7 -67c-3 -27 -5 -52 -14 -75c-6 -14 -12 -22 -22 -29l108 -362h-109l-87 310h-81v-310h-100v700zM230 764
h-65l50 105h121z" />
    <glyph glyph-name="afii10062" unicode="&#x40e;" horiz-adv-x="406" 
d="M10 700h114l96 -343h3c6 38 17 102 26 143l44 200h103l-119 -478c-20 -78 -33 -167 -92 -203c-30 -18 -60 -19 -86 -19h-36v95h25c20 0 37 7 46 17c8 8 17 29 20 42l13 59zM335 868v-12c0 -40 -15 -66 -30 -80c-20 -19 -53 -28 -92 -28s-72 9 -92 28
c-15 14 -30 40 -30 80v12h80v-9c0 -8 1 -19 12 -28c9 -8 19 -9 30 -9s21 1 30 9c11 9 12 20 12 28v9h80z" />
    <glyph glyph-name="afii10145" unicode="&#x40f;" horiz-adv-x="400" 
d="M60 0v700h100v-610h130v610h100v-700h-115v-118h-100v118h-115z" />
    <glyph glyph-name="afii10017" unicode="&#x410;" horiz-adv-x="414" 
d="M404 0h-100l-33 150h-128l-33 -150h-100l153 700h88zM259 239l-54 266l-52 -266h106z" />
    <glyph glyph-name="afii10018" unicode="&#x411;" horiz-adv-x="431" 
d="M60 700h304v-95h-204v-188h49c39 0 94 2 139 -40c43 -40 43 -90 43 -116v-82c0 -34 -2 -73 -29 -113c-19 -28 -58 -66 -150 -66h-152v700zM160 327v-237h45c14 0 47 2 68 31c13 18 18 49 18 73v38c0 34 -5 58 -27 77c-16 13 -31 18 -53 18h-51z" />
    <glyph glyph-name="afii10019" unicode="&#x412;" horiz-adv-x="441" 
d="M60 700h135c30 0 88 -3 132 -34c63 -45 64 -120 64 -161c0 -46 -4 -78 -30 -109c-13 -16 -28 -26 -38 -32c27 -12 39 -29 48 -44c20 -35 20 -54 20 -88v-53c0 -29 0 -101 -60 -146c-22 -17 -59 -33 -119 -33h-152v700zM160 610v-200h48c34 0 54 14 64 26
c12 14 19 38 19 60v43c0 18 -8 36 -19 48c-12 12 -32 23 -65 23h-47zM160 320v-230h45c15 0 47 2 68 31c17 23 18 59 18 71v33c0 34 -5 58 -27 77c-16 13 -31 18 -53 18h-51z" />
    <glyph glyph-name="afii10020" unicode="&#x413;" horiz-adv-x="384" 
d="M60 0v700h304v-95h-204v-605h-100z" />
    <glyph glyph-name="afii10021" unicode="&#x414;" horiz-adv-x="448" 
d="M386 90h57v-198h-95v108h-258v-108h-95v198h47c22 49 40 103 51 167c17 96 21 270 21 392v51h272v-610zM286 610h-78v-55c0 -170 -11 -267 -22 -329c-8 -48 -19 -90 -42 -141h142v525z" />
    <glyph glyph-name="afii10022" unicode="&#x415;" horiz-adv-x="395" 
d="M60 0v700h297v-95h-197v-206h174v-90h-174v-214h200v-95h-300z" />
    <glyph glyph-name="afii10024" unicode="&#x416;" horiz-adv-x="654" 
d="M377 400h37c14 0 27 6 37 21c13 18 17 43 22 92l7 63c4 38 10 80 40 106c29 25 67 26 93 26h18v-90h-16c-8 0 -19 -5 -26 -11c-11 -10 -15 -29 -20 -74l-7 -67c-3 -27 -5 -52 -14 -75c-6 -14 -12 -22 -22 -29l104 -362h-109l-85 314h-59v-314h-100v314h-59l-85 -314h-109
l104 362c-10 7 -16 15 -22 29c-9 23 -11 48 -14 75l-7 67c-5 45 -9 64 -20 74c-7 6 -18 11 -26 11h-16v90h18c26 0 64 -1 93 -26c30 -26 36 -68 40 -106l7 -63c5 -49 9 -74 22 -92c10 -15 23 -21 37 -21h37v300h100v-300z" />
    <glyph glyph-name="afii10025" unicode="&#x417;" horiz-adv-x="414" 
d="M30 501v63c0 28 6 76 53 112c23 18 59 34 111 34c40 0 84 -9 115 -32c18 -13 55 -47 55 -114v-59c0 -37 -2 -76 -30 -109c-11 -12 -26 -24 -40 -32c29 -15 43 -32 50 -44c18 -30 20 -60 20 -90v-82c0 -39 -5 -81 -44 -117c-37 -34 -83 -41 -128 -41c-37 0 -83 5 -119 38
c-7 6 -43 41 -43 101v65h100v-40c0 -15 6 -37 16 -48c12 -13 36 -18 52 -18c25 0 40 7 48 15c18 17 18 38 18 60v62c0 19 -2 60 -27 80c-7 6 -23 15 -53 15h-30v90h27c26 0 50 9 64 24c18 20 19 49 19 62v45c0 15 0 39 -20 56c-11 9 -28 15 -49 15c-19 0 -35 -7 -46 -18
c-17 -16 -19 -36 -19 -51v-42h-100z" />
    <glyph glyph-name="afii10026" unicode="&#x418;" horiz-adv-x="485" 
d="M60 700h100v-430l165 350v80h100v-700h-100v430l-165 -350v-80h-100v700z" />
    <glyph glyph-name="afii10027" unicode="&#x419;" horiz-adv-x="485" 
d="M60 700h100v-430l165 350v80h100v-700h-100v430l-165 -350v-80h-100v700zM365 868v-12c0 -40 -15 -66 -30 -80c-20 -19 -53 -28 -92 -28s-72 9 -92 28c-15 14 -30 40 -30 80v12h80v-9c0 -8 1 -19 12 -28c9 -8 19 -9 30 -9s21 1 30 9c11 9 12 20 12 28v9h80z" />
    <glyph glyph-name="afii10028" unicode="&#x41a;" horiz-adv-x="462" 
d="M60 700h100v-300h57c14 0 27 6 37 21c13 18 17 43 22 92l7 63c4 38 10 80 40 106c29 25 67 26 93 26h15v-90h-13c-8 0 -19 -5 -26 -11c-11 -10 -15 -29 -20 -74l-7 -67c-3 -27 -5 -52 -14 -75c-6 -14 -12 -22 -22 -29l108 -362h-109l-87 310h-81v-310h-100v700z" />
    <glyph glyph-name="afii10029" unicode="&#x41b;" horiz-adv-x="450" 
d="M390 700v-700h-100v610h-80l-3 -98c-4 -122 -5 -179 -9 -234c-5 -74 -11 -111 -15 -130c-7 -34 -17 -67 -48 -101c-37 -40 -76 -47 -117 -47h-23v95h11c10 0 24 1 39 10c24 14 33 39 35 46c11 35 18 137 20 172c3 55 6 99 7 189l3 188h280z" />
    <glyph glyph-name="afii10030" unicode="&#x41c;" horiz-adv-x="593" 
d="M60 0v700h100l138 -386h4l131 386h100v-700h-100v438h-5l-105 -316h-53l-105 316h-5v-438h-100z" />
    <glyph glyph-name="afii10031" unicode="&#x41d;" horiz-adv-x="455" 
d="M60 700h100v-301h135v301h100v-700h-100v309h-135v-309h-100v700z" />
    <glyph glyph-name="afii10032" unicode="&#x41e;" horiz-adv-x="462" 
d="M56 184v332c0 53 4 104 52 149c30 28 71 45 123 45s93 -17 123 -45c48 -45 52 -96 52 -149v-332c0 -53 -4 -104 -52 -149c-30 -28 -71 -45 -123 -45s-93 17 -123 45c-48 45 -52 96 -52 149zM306 169v362c0 21 -2 42 -21 61c-11 11 -29 20 -54 20s-43 -9 -54 -20
c-19 -19 -21 -40 -21 -61v-362c0 -21 2 -42 21 -61c11 -11 29 -20 54 -20s43 9 54 20c19 19 21 40 21 61z" />
    <glyph glyph-name="afii10033" unicode="&#x41f;" horiz-adv-x="450" 
d="M60 700h330v-700h-100v610h-130v-610h-100v700z" />
    <glyph glyph-name="afii10034" unicode="&#x420;" horiz-adv-x="430" 
d="M60 0v700h149c43 0 96 -2 140 -46c46 -47 51 -108 51 -160v-20c0 -39 -4 -97 -43 -142c-41 -47 -95 -55 -138 -55h-59v-277h-100zM160 610v-243h54c19 0 46 3 67 26s19 47 19 72v46c0 24 1 58 -27 81c-23 19 -51 18 -78 18h-35z" />
    <glyph glyph-name="afii10035" unicode="&#x421;" horiz-adv-x="436" 
d="M291 501v40c0 14 -4 33 -13 46c-5 7 -20 25 -52 25c-26 0 -42 -11 -52 -23c-16 -20 -17 -45 -17 -69v-345c0 -23 0 -44 13 -62c7 -10 23 -25 51 -25c22 0 44 8 56 24c5 7 14 23 14 57v25h100v-29c0 -69 -24 -109 -42 -128c-21 -23 -62 -47 -131 -47
c-66 0 -104 27 -126 53c-36 42 -35 90 -35 126v363c0 46 6 98 51 137c31 28 77 41 114 41c42 0 91 -16 121 -45c25 -25 45 -67 45 -116v-48h-97z" />
    <glyph glyph-name="afii10036" unicode="&#x422;" horiz-adv-x="388" 
d="M20 700h348v-95h-124v-605h-100v605h-124v95z" />
    <glyph glyph-name="afii10037" unicode="&#x423;" horiz-adv-x="406" 
d="M10 700h114l96 -343h3c6 38 17 102 26 143l44 200h103l-119 -478c-20 -78 -33 -167 -92 -203c-30 -18 -60 -19 -86 -19h-36v95h25c20 0 37 7 46 17c8 8 17 29 20 42l13 59z" />
    <glyph glyph-name="afii10038" unicode="&#x424;" horiz-adv-x="610" 
d="M355 710v-90h24c43 0 96 -2 140 -46c46 -47 51 -108 51 -160v-121c0 -39 -4 -98 -43 -142c-45 -52 -109 -56 -138 -56h-34v-95h-100v95h-34c-29 0 -93 4 -138 56c-39 44 -43 103 -43 142v121c0 52 5 113 51 160c44 44 97 46 140 46h24v90h100zM355 529v-342h29
c20 0 45 1 67 25c21 24 19 47 19 72v146c0 24 1 58 -27 81c-23 19 -51 18 -78 18h-10zM255 529h-10c-27 0 -55 1 -78 -18c-28 -23 -27 -57 -27 -81v-146c0 -25 -2 -48 19 -72c22 -24 47 -25 67 -25h29v342z" />
    <glyph glyph-name="afii10039" unicode="&#x425;" horiz-adv-x="437" 
d="M31 700h106l80 -220l81 220h110l-135 -330l149 -370h-106l-99 253l-92 -253h-110l147 370z" />
    <glyph glyph-name="afii10040" unicode="&#x426;" horiz-adv-x="452" 
d="M60 0v700h100v-610h125v610h100v-610h62v-198h-95v108h-292z" />
    <glyph glyph-name="afii10041" unicode="&#x427;" horiz-adv-x="429" 
d="M269 700h100v-700h-100v290c-21 -8 -45 -14 -77 -14c-67 0 -100 28 -112 42c-32 36 -35 91 -35 125v257h100v-235c0 -21 0 -60 19 -81c14 -15 34 -18 49 -18c19 0 37 3 56 14v320z" />
    <glyph glyph-name="afii10042" unicode="&#x428;" horiz-adv-x="640" 
d="M60 0v700h100v-610h110v610h100v-610h110v610h100v-700h-520z" />
    <glyph glyph-name="afii10043" unicode="&#x429;" horiz-adv-x="647" 
d="M160 700v-610h110v610h100v-610h110v610h100v-610h62v-198h-95v108h-487v700h100z" />
    <glyph glyph-name="afii10044" unicode="&#x42a;" horiz-adv-x="508" 
d="M237 417h49c39 0 94 2 139 -40c43 -40 43 -90 43 -116v-82c0 -34 -2 -73 -29 -113c-19 -28 -58 -66 -150 -66h-152v605h-127v95h227v-283zM237 327v-237h45c26 0 86 6 86 104v38c0 34 -5 58 -27 77c-16 13 -31 18 -53 18h-51z" />
    <glyph glyph-name="afii10045" unicode="&#x42b;" horiz-adv-x="632" 
d="M60 700h100v-283h49c39 0 94 2 139 -40c43 -40 43 -90 43 -116v-82c0 -34 -2 -73 -29 -113c-19 -28 -58 -66 -150 -66h-152v700zM160 327v-237h45c26 0 86 6 86 104v38c0 34 -5 58 -27 77c-16 13 -31 18 -53 18h-51zM472 700h100v-700h-100v700z" />
    <glyph glyph-name="afii10046" unicode="&#x42c;" horiz-adv-x="431" 
d="M60 700h100v-283h49c39 0 94 2 139 -40c43 -40 43 -90 43 -116v-82c0 -34 -2 -73 -29 -113c-19 -28 -58 -66 -150 -66h-152v700zM160 327v-237h45c26 0 86 6 86 104v38c0 34 -5 58 -27 77c-16 13 -31 18 -53 18h-51z" />
    <glyph glyph-name="afii10047" unicode="&#x42d;" horiz-adv-x="435" 
d="M45 501v63c0 99 80 146 164 146c82 0 170 -39 170 -146v-397c0 -62 -7 -177 -172 -177c-125 0 -162 78 -162 139v65h100v-40c0 -46 25 -66 68 -66c70 0 66 52 66 75v157h-124v90h124v145c0 35 -30 57 -69 57c-41 0 -65 -29 -65 -69v-42h-100z" />
    <glyph glyph-name="afii10048" unicode="&#x42e;" horiz-adv-x="649" 
d="M243 184v125h-83v-309h-100v700h100v-301h83v117c0 53 4 104 52 149c30 28 71 45 123 45s93 -17 123 -45c48 -45 52 -96 52 -149v-332c0 -53 -4 -104 -52 -149c-30 -28 -71 -45 -123 -45s-93 17 -123 45c-48 45 -52 96 -52 149zM493 169v362c0 21 -2 42 -21 61
c-11 11 -29 20 -54 20s-43 -9 -54 -20c-19 -19 -21 -40 -21 -61v-362c0 -21 2 -42 21 -61c11 -11 29 -20 54 -20s43 9 54 20c19 19 21 40 21 61z" />
    <glyph glyph-name="afii10049" unicode="&#x42f;" horiz-adv-x="444" 
d="M384 700v-700h-100v302h-62l-90 -302h-107l104 325c-24 10 -39 26 -48 38c-18 25 -32 69 -32 107v53c0 52 14 94 37 122c47 58 121 55 172 55h126zM284 610h-47c-21 0 -45 2 -65 -18c-13 -13 -23 -37 -23 -64v-50c0 -27 1 -44 21 -63c19 -18 40 -23 62 -23h52v218z" />
    <glyph glyph-name="afii10065" unicode="&#x430;" horiz-adv-x="405" 
d="M251 0v49h-2c-7 -11 -20 -27 -34 -38c-19 -15 -37 -19 -58 -19c-20 0 -51 3 -76 26c-31 29 -36 74 -36 114c0 36 2 90 31 124c33 39 89 43 118 43c7 0 26 0 57 -3v52c0 14 -1 29 -13 42c-10 11 -25 16 -40 16c-14 0 -29 -5 -40 -18c-7 -8 -12 -19 -13 -32h-95
c-1 45 18 84 41 107c25 25 66 41 112 41c45 0 82 -16 107 -40c36 -36 41 -83 41 -117v-347h-100zM251 146v70c-12 2 -24 3 -35 3c-16 0 -40 -2 -56 -21c-13 -15 -15 -36 -15 -52c0 -14 2 -28 10 -41c10 -16 23 -23 40 -23c30 0 56 20 56 64z" />
    <glyph glyph-name="afii10066" unicode="&#x431;" horiz-adv-x="406" 
d="M54 160v252c0 49 4 105 31 147c23 36 55 51 84 63c27 11 32 13 46 18c11 4 24 10 32 19c7 7 9 15 9 25v16h92v-30c0 -19 -1 -39 -9 -56c-12 -28 -33 -37 -53 -44c-11 -4 -23 -8 -34 -11c-15 -4 -30 -8 -44 -13c-16 -6 -38 -16 -51 -34c-13 -17 -18 -42 -18 -60v-17h3
c16 36 56 61 101 61c36 0 61 -12 79 -29c19 -19 34 -49 34 -84v-223c0 -39 -3 -94 -49 -133c-27 -23 -65 -35 -102 -35s-75 12 -102 35c-46 39 -49 94 -49 133zM256 154v188c0 23 -6 40 -15 50c-8 8 -21 14 -36 14s-28 -6 -36 -14c-9 -10 -15 -27 -15 -50v-188
c0 -23 6 -40 15 -50c8 -8 21 -14 36 -14s28 6 36 14c9 10 15 27 15 50z" />
    <glyph glyph-name="afii10067" unicode="&#x432;" horiz-adv-x="399" 
d="M54 496h165c42 0 77 -15 98 -36c22 -23 33 -59 33 -86v-24c0 -21 -3 -49 -24 -73c-5 -6 -18 -18 -39 -25c12 -4 30 -12 46 -33c17 -23 21 -49 21 -71v-23c0 -46 -22 -77 -40 -93c-32 -29 -71 -32 -108 -32h-152v496zM154 406v-114h44c15 0 28 1 40 16c11 13 12 28 12 40
v10c0 22 -10 33 -12 35c-11 12 -27 13 -40 13h-44zM154 212v-122h46c13 0 31 2 43 17c10 11 11 24 11 35v18c0 11 -2 26 -12 37c-12 13 -28 15 -42 15h-46z" />
    <glyph glyph-name="afii10068" unicode="&#x433;" horiz-adv-x="313" 
d="M54 0v496h249v-90h-149v-406h-100z" />
    <glyph glyph-name="afii10069" unicode="&#x434;" horiz-adv-x="436" 
d="M369 90h57v-190h-95v100h-226v-100h-95v190h52c23 49 33 91 40 140c8 57 12 144 12 204v62h255v-406zM269 406h-64v-36c0 -54 -2 -108 -12 -168c-6 -37 -16 -74 -34 -117h110v321z" />
    <glyph glyph-name="afii10070" unicode="&#x435;" horiz-adv-x="397" 
d="M150 211v-64c0 -15 1 -31 13 -43c8 -9 22 -14 38 -14c17 0 30 6 40 21c6 10 9 23 9 34h100v-4c0 -37 -7 -86 -56 -121c-25 -18 -59 -28 -93 -28c-46 0 -89 19 -115 48c-35 39 -36 90 -36 120v190c0 35 7 84 49 120c23 20 57 34 99 34c43 0 79 -14 104 -36
c44 -38 50 -88 50 -127v-130h-202zM150 288h102v65c0 13 -2 27 -14 39c-8 8 -21 14 -37 14c-17 0 -31 -7 -39 -17c-10 -12 -12 -27 -12 -40v-61z" />
    <glyph glyph-name="afii10072" unicode="&#x436;" horiz-adv-x="576" 
d="M338 294h19c25 0 33 6 42 26c9 18 10 31 13 48l6 36c3 19 9 45 23 64c21 29 54 33 86 33h25v-85h-15c-12 0 -21 -5 -26 -10c-4 -5 -8 -14 -11 -34l-5 -37c-3 -23 -4 -40 -11 -56c-5 -11 -11 -19 -22 -25l94 -254h-103l-72 214h-43v-214h-100v214h-43l-72 -214h-103
l94 254c-11 6 -17 14 -22 25c-7 16 -8 33 -11 56l-5 37c-3 20 -7 29 -11 34c-5 5 -14 10 -26 10h-15v85h25c32 0 65 -4 86 -33c14 -19 20 -45 23 -64l6 -36c3 -17 4 -30 13 -48c9 -20 17 -26 42 -26h19v202h100v-202z" />
    <glyph glyph-name="afii10073" unicode="&#x437;" horiz-adv-x="377" 
d="M30 346v10c0 52 21 87 38 105c26 27 66 43 115 43c48 0 82 -18 103 -37c19 -18 42 -50 42 -103v-14c0 -27 -7 -49 -17 -65c-7 -10 -19 -24 -39 -33c20 -8 33 -21 41 -33c17 -24 19 -52 19 -71v-13c0 -37 -16 -76 -39 -100c-26 -27 -69 -43 -115 -43c-35 0 -79 13 -106 38
c-23 21 -42 58 -42 99v19h96v-10c0 -12 4 -23 11 -31c12 -14 28 -17 40 -17c24 0 37 9 43 17c9 11 12 28 12 42v9c0 21 -9 32 -15 37c-10 9 -26 13 -38 13h-35v86h32c18 0 32 7 40 16c7 8 12 21 12 37v5c0 13 -5 28 -12 37c-11 14 -26 17 -37 17c-19 0 -32 -7 -40 -16
c-11 -12 -13 -25 -13 -37v-7h-96z" />
    <glyph glyph-name="afii10074" unicode="&#x438;" horiz-adv-x="431" 
d="M54 496h100v-277l123 216v61h100v-496h-100v277l-123 -216v-61h-100v496z" />
    <glyph glyph-name="afii10075" unicode="&#x439;" horiz-adv-x="431" 
d="M329 694v-13c0 -27 -4 -61 -30 -87c-25 -25 -60 -28 -84 -28s-59 3 -84 28c-26 26 -30 60 -30 87v13h74v-15c0 -6 2 -17 4 -22c3 -8 13 -20 36 -20s33 12 36 20c2 5 4 16 4 22v15h74zM54 496h100v-277l123 216v61h100v-496h-100v277l-123 -216v-61h-100v496z" />
    <glyph glyph-name="afii10076" unicode="&#x43a;" horiz-adv-x="403" 
d="M154 296h32c21 0 32 4 42 24c8 16 11 34 13 48l6 36c3 19 9 45 23 64c21 29 54 33 86 33h23v-85h-13c-12 0 -21 -5 -26 -10c-4 -5 -8 -14 -11 -34l-5 -37c-3 -23 -4 -41 -11 -56c-6 -13 -13 -20 -20 -25l90 -254h-101l-72 212h-56v-212h-100v496h100v-200z" />
    <glyph glyph-name="afii10077" unicode="&#x43b;" horiz-adv-x="407" 
d="M353 496v-496h-100v406h-64l-1 -32c-1 -35 -5 -147 -16 -215c-7 -42 -20 -96 -57 -128c-21 -17 -53 -31 -92 -31h-23v84h12c21 0 40 14 51 30c12 17 18 45 24 120c3 33 7 135 8 164l2 98h256z" />
    <glyph glyph-name="afii10078" unicode="&#x43c;" horiz-adv-x="506" 
d="M146 496l106 -277h2l106 277h92v-496h-94v282l-84 -211h-42l-84 211v-282h-94v496h92z" />
    <glyph glyph-name="afii10079" unicode="&#x43d;" 
d="M54 0v496h100v-200h102v200h100v-496h-100v206h-102v-206h-100z" />
    <glyph glyph-name="afii10080" unicode="&#x43e;" horiz-adv-x="402" 
d="M50 160v176c0 39 3 94 49 133c27 23 65 35 102 35s75 -12 102 -35c46 -39 49 -94 49 -133v-176c0 -39 -3 -94 -49 -133c-27 -23 -65 -35 -102 -35s-75 12 -102 35c-46 39 -49 94 -49 133zM252 154v188c0 23 -6 40 -15 50c-8 8 -21 14 -36 14s-28 -6 -36 -14
c-9 -10 -15 -27 -15 -50v-188c0 -23 6 -40 15 -50c8 -8 21 -14 36 -14s28 6 36 14c9 10 15 27 15 50z" />
    <glyph glyph-name="afii10081" unicode="&#x43f;" horiz-adv-x="404" 
d="M54 0v496h296v-496h-100v406h-96v-406h-100z" />
    <glyph glyph-name="afii10082" unicode="&#x440;" 
d="M154 496v-44h1c8 13 21 26 34 35c18 12 41 17 61 17c50 0 75 -27 83 -38c22 -30 23 -71 23 -103v-258c0 -24 -3 -57 -29 -84c-20 -21 -45 -29 -74 -29s-48 8 -66 19c-13 8 -24 18 -33 29v-244h-100v700h100zM154 340v-184c0 -16 1 -34 16 -50c7 -7 19 -16 38 -16
c15 0 26 5 35 15c12 13 13 28 13 40v201c0 17 0 31 -13 45c-9 10 -20 15 -35 15c-19 0 -31 -9 -38 -16c-15 -16 -16 -34 -16 -50z" />
    <glyph glyph-name="afii10083" unicode="&#x441;" horiz-adv-x="385" 
d="M355 346h-100v7c0 12 -4 25 -11 34c-7 10 -20 19 -40 19c-12 0 -27 -3 -39 -17s-14 -31 -14 -48v-192c0 -14 3 -31 12 -42c5 -6 17 -17 41 -17c15 0 29 3 40 17c9 11 11 22 11 33v8h100v-9c0 -59 -28 -94 -50 -113c-22 -18 -55 -34 -100 -34s-88 15 -115 43
c-40 41 -39 89 -39 132v171c0 40 4 91 46 129c21 19 54 37 103 37c48 0 90 -16 115 -43c27 -28 40 -73 40 -112v-3z" />
    <glyph glyph-name="afii10084" unicode="&#x442;" horiz-adv-x="320" 
d="M310 406h-100v-406h-100v406h-100v90h300v-90z" />
    <glyph glyph-name="afii10085" unicode="&#x443;" horiz-adv-x="369" 
d="M7 496h108l81 -308h4l62 308h100l-136 -563c-7 -29 -16 -77 -46 -106s-69 -31 -100 -31h-26l-2 93h19c14 0 33 2 47 21c4 5 10 16 18 48l16 65z" />
    <glyph glyph-name="afii10086" unicode="&#x444;" horiz-adv-x="554" 
d="M327 -204h-100v236c-8 -12 -15 -17 -26 -24c-18 -11 -30 -16 -54 -16c-20 0 -46 4 -69 26c-19 18 -33 49 -33 87v258c0 34 0 68 27 103c26 33 59 38 80 38c18 0 34 -6 46 -13c10 -6 20 -14 29 -27v236h100v-236c9 13 19 21 29 27c12 7 28 13 46 13c21 0 54 -5 80 -38
c27 -35 27 -69 27 -103v-258c0 -38 -14 -69 -33 -87c-14 -13 -36 -26 -69 -26c-27 0 -62 13 -80 40v-236zM323 348v-200c0 -17 1 -33 14 -49c10 -12 23 -17 35 -17c11 0 23 4 31 13c12 13 13 28 13 42v217c0 16 -1 33 -13 46c-8 9 -19 14 -33 14c-17 0 -28 -9 -33 -15
c-13 -15 -14 -35 -14 -51zM231 148v200c0 16 -1 36 -14 51c-5 6 -16 15 -33 15c-14 0 -25 -5 -33 -14c-12 -13 -13 -30 -13 -46v-217c0 -14 1 -29 13 -42c8 -9 20 -13 31 -13c12 0 25 5 35 17c13 16 14 32 14 49z" />
    <glyph glyph-name="afii10087" unicode="&#x445;" horiz-adv-x="360" 
d="M7 0l122 253l-116 243h105l62 -141l62 141h105l-118 -243l124 -253h-105l-68 152l-68 -152h-105z" />
    <glyph glyph-name="afii10088" unicode="&#x446;" horiz-adv-x="428" 
d="M54 0v496h100v-406h102v406h100v-406h62v-190h-95v100h-269z" />
    <glyph glyph-name="afii10089" unicode="&#x447;" horiz-adv-x="381" 
d="M227 0v200c-25 -12 -57 -19 -87 -19c-22 0 -57 3 -82 28c-27 26 -28 58 -28 85v202h100v-177c0 -10 1 -25 12 -36s26 -12 36 -12c23 0 38 5 49 11v214h100v-496h-100z" />
    <glyph glyph-name="afii10090" unicode="&#x448;" horiz-adv-x="598" 
d="M54 496h100v-406h95v406h100v-406h95v406h100v-496h-490v496z" />
    <glyph glyph-name="afii10091" unicode="&#x449;" horiz-adv-x="616" 
d="M54 496h100v-406h95v406h100v-406h95v406h100v-406h62v-190h-95v100h-457v496z" />
    <glyph glyph-name="afii10092" unicode="&#x44a;" horiz-adv-x="430" 
d="M200 312h52c37 0 76 -3 108 -32c18 -16 40 -47 40 -93v-56c0 -23 -3 -66 -40 -99c-33 -29 -71 -32 -108 -32h-152v398h-105v98h205v-184zM200 222v-132h46c13 0 31 2 43 17c10 11 11 24 11 35v28c0 11 -2 26 -12 37c-12 13 -28 15 -42 15h-46z" />
    <glyph glyph-name="afii10093" unicode="&#x44b;" horiz-adv-x="569" 
d="M54 496h100v-184h52c37 0 76 -3 108 -32c18 -16 40 -47 40 -93v-56c0 -23 -3 -66 -40 -99c-33 -29 -71 -32 -108 -32h-152v496zM154 222v-132h46c13 0 31 2 43 17c10 11 11 24 11 35v28c0 11 -2 26 -12 37c-12 13 -28 15 -42 15h-46zM415 0v496h100v-496h-100z" />
    <glyph glyph-name="afii10094" unicode="&#x44c;" horiz-adv-x="384" 
d="M54 496h100v-184h52c37 0 76 -3 108 -32c18 -16 40 -47 40 -93v-56c0 -23 -3 -66 -40 -99c-33 -29 -71 -32 -108 -32h-152v496zM154 222v-132h46c13 0 31 2 43 17c10 11 11 24 11 35v28c0 11 -2 26 -12 37c-12 13 -28 15 -42 15h-46z" />
    <glyph glyph-name="afii10095" unicode="&#x44d;" horiz-adv-x="385" 
d="M30 346v3c0 39 13 84 40 112c25 27 67 43 115 43c49 0 82 -18 103 -37c42 -38 46 -89 46 -129v-171c0 -43 1 -91 -39 -132c-27 -28 -70 -43 -115 -43s-78 16 -100 34c-22 19 -50 54 -50 113v9h100v-8c0 -10 5 -25 11 -33c12 -15 30 -17 40 -17c24 0 36 11 41 17
c9 11 12 28 12 42v57h-98v90h98v45c0 17 -2 34 -14 48s-27 17 -39 17c-20 0 -33 -9 -40 -19c-7 -9 -11 -23 -11 -33v-8h-100z" />
    <glyph glyph-name="afii10096" unicode="&#x44e;" horiz-adv-x="568" 
d="M216 160v46h-62v-206h-100v496h100v-200h62v40c0 39 3 94 49 133c27 23 65 35 102 35s75 -12 102 -35c46 -39 49 -94 49 -133v-176c0 -39 -3 -94 -49 -133c-27 -23 -65 -35 -102 -35s-75 12 -102 35c-46 39 -49 94 -49 133zM418 154v188c0 23 -6 40 -15 50
c-8 8 -21 14 -36 14s-28 -6 -36 -14c-9 -10 -15 -27 -15 -50v-188c0 -23 6 -40 15 -50c8 -8 21 -14 36 -14s28 6 36 14c9 10 15 27 15 50z" />
    <glyph glyph-name="afii10097" unicode="&#x44f;" horiz-adv-x="399" 
d="M345 0h-100v204h-44l-68 -204h-108l81 219c-14 7 -29 19 -39 32c-14 19 -22 51 -22 78v42c0 46 22 77 40 93c32 29 71 32 108 32h152v-496zM245 284v132h-46c-13 0 -26 -2 -39 -15s-15 -26 -15 -43v-22c0 -11 2 -26 12 -37c12 -13 28 -15 42 -15h46z" />
    <glyph glyph-name="afii10071" unicode="&#x451;" horiz-adv-x="397" 
d="M150 211v-64c0 -15 1 -31 13 -43c8 -9 22 -14 38 -14c17 0 30 6 40 21c6 10 9 23 9 34h100v-4c0 -37 -7 -86 -56 -121c-25 -18 -59 -28 -93 -28c-46 0 -89 19 -115 48c-35 39 -36 90 -36 120v190c0 35 7 84 49 120c23 20 57 34 99 34c43 0 79 -14 104 -36
c44 -38 50 -88 50 -127v-130h-202zM150 288h102v65c0 13 -2 27 -14 39c-8 8 -21 14 -37 14c-17 0 -31 -7 -39 -17c-10 -12 -12 -27 -12 -40v-61zM72 683h102v-106h-102v106zM228 683h102v-106h-102v106z" />
    <glyph glyph-name="afii10099" unicode="&#x452;" horiz-adv-x="459" 
d="M102 0v549h-48v60h48v91h100v-91h104v-60h-104v-93c9 11 20 21 33 29c18 11 37 19 66 19s54 -8 74 -29c26 -27 29 -60 29 -84v-438c0 -40 1 -79 -24 -112c-32 -42 -78 -45 -115 -45h-32v93h18c21 0 34 8 40 15c13 14 13 32 13 44v403c0 12 -1 27 -13 40
c-9 10 -20 15 -35 15c-19 0 -31 -9 -38 -16c-15 -16 -16 -34 -16 -50v-340h-100z" />
    <glyph glyph-name="afii10100" unicode="&#x453;" horiz-adv-x="313" 
d="M54 0v496h249v-90h-149v-406h-100zM175 578h-57l44 122h107z" />
    <glyph glyph-name="afii10101" unicode="&#x454;" horiz-adv-x="385" 
d="M355 346h-100v8c0 10 -4 24 -11 33c-7 10 -20 19 -40 19c-12 0 -27 -3 -39 -17s-14 -31 -14 -48v-45h98v-90h-98v-57c0 -14 3 -31 12 -42c5 -6 17 -17 41 -17c10 0 28 2 40 17c6 8 11 23 11 33v8h100v-9c0 -59 -28 -94 -50 -113c-22 -18 -55 -34 -100 -34s-88 15 -115 43
c-40 41 -39 89 -39 132v171c0 40 4 91 46 129c21 19 54 37 103 37c48 0 90 -16 115 -43c27 -28 40 -73 40 -112v-3z" />
    <glyph glyph-name="afii10102" unicode="&#x455;" horiz-adv-x="371" 
d="M336 362h-98c-1 15 -7 28 -15 36c-9 9 -22 13 -36 13c-25 0 -49 -16 -49 -50c0 -9 2 -21 10 -32c10 -14 26 -21 39 -26l60 -25c25 -10 50 -30 64 -48s25 -48 25 -91c0 -24 -5 -64 -32 -97c-21 -26 -58 -50 -121 -50c-60 0 -96 22 -116 44c-25 27 -37 67 -37 103h100
c0 -13 4 -28 13 -38s27 -16 41 -16s29 5 39 17c11 12 13 27 13 40c0 26 -8 45 -50 63l-59 25c-38 16 -56 35 -62 42c-22 26 -27 59 -27 84c0 49 16 86 37 108c20 20 53 40 107 40c63 0 99 -22 116 -40c24 -24 38 -63 38 -102z" />
    <glyph glyph-name="afii10103" unicode="&#x456;" horiz-adv-x="208" 
d="M54 0v496h100v-496h-100zM54 686h100v-98h-100v98z" />
    <glyph glyph-name="afii10104" unicode="&#x457;" horiz-adv-x="208" 
d="M54 0v496h100v-496h-100zM73 683v-95h-95v95h95zM135 588v95h95v-95h-95z" />
    <glyph glyph-name="afii10105" unicode="&#x458;" horiz-adv-x="210" 
d="M156 496v-543c0 -37 3 -82 -32 -120c-33 -36 -74 -37 -107 -37h-32v98h18c21 0 34 8 40 15c13 14 13 32 13 44v543h100zM56 686h100v-98h-100v98z" />
    <glyph glyph-name="afii10106" unicode="&#x459;" horiz-adv-x="583" 
d="M353 312h52c37 0 76 -3 108 -32c18 -16 40 -47 40 -93v-56c0 -23 -3 -66 -40 -99c-33 -29 -71 -32 -108 -32h-152v406h-64l-1 -32c-5 -149 -12 -199 -14 -214c-5 -33 -17 -88 -52 -123c-21 -21 -54 -37 -86 -37h-36v90h12c21 0 39 14 49 28c14 20 21 49 26 116
c3 32 7 136 8 164l2 98h256v-184zM353 222v-132h46c13 0 31 2 43 17c10 11 11 24 11 35v28c0 11 -2 26 -12 37c-12 13 -28 15 -42 15h-46z" />
    <glyph glyph-name="afii10107" unicode="&#x45a;" horiz-adv-x="586" 
d="M256 496h100v-197h52c37 0 76 -3 108 -32c18 -16 40 -47 40 -93v-49c0 -46 -22 -77 -40 -93c-32 -29 -71 -32 -108 -32h-152v209h-102v-209h-100v496h100v-197h102v197zM356 209v-119h46c13 0 31 2 43 17c10 11 11 24 11 35v15c0 11 -2 26 -12 37c-12 13 -28 15 -42 15
h-46z" />
    <glyph glyph-name="afii10108" unicode="&#x45b;" horiz-adv-x="458" 
d="M102 0v549h-48v60h48v91h100v-91h104v-60h-104v-93c9 11 20 21 33 29c18 11 37 19 66 19s54 -8 74 -29c26 -27 29 -60 29 -84v-391h-100v351c0 12 -1 27 -13 40c-9 10 -20 15 -35 15c-19 0 -31 -9 -38 -16c-15 -16 -16 -34 -16 -50v-340h-100z" />
    <glyph glyph-name="afii10109" unicode="&#x45c;" horiz-adv-x="403" 
d="M154 296h32c21 0 32 4 42 24c8 16 11 34 13 48l6 36c3 19 9 45 23 64c21 29 54 33 86 33h23v-85h-13c-12 0 -21 -5 -26 -10c-4 -5 -8 -14 -11 -34l-5 -37c-3 -23 -4 -41 -11 -56c-6 -13 -13 -20 -20 -25l90 -254h-101l-72 212h-56v-212h-100v496h100v-200zM208 578h-57
l44 122h107z" />
    <glyph glyph-name="afii10110" unicode="&#x45e;" horiz-adv-x="369" 
d="M7 496h108l81 -308h4l62 308h100l-136 -563c-7 -29 -16 -77 -46 -106s-69 -31 -100 -31h-26l-2 93h19c14 0 33 2 47 21c4 5 10 16 18 48l16 65zM295 694v-13c0 -27 -4 -61 -30 -87c-25 -25 -60 -28 -84 -28s-59 3 -84 28c-26 26 -30 60 -30 87v13h74v-15
c0 -6 2 -17 4 -22c3 -8 13 -20 36 -20s33 12 36 20c2 5 4 16 4 22v15h74z" />
    <glyph glyph-name="afii10193" unicode="&#x45f;" 
d="M356 496v-496h-102v-100h-98v100h-102v496h100v-406h102v406h100z" />
    <glyph glyph-name="afii10146" unicode="&#x462;" horiz-adv-x="464" 
d="M193 327v-237h45c26 0 86 6 86 104v38c0 34 -5 58 -27 77c-16 13 -31 18 -53 18h-51zM193 417h49c39 0 94 2 139 -40c43 -40 43 -90 43 -116v-82c0 -34 -2 -73 -29 -113c-19 -28 -58 -66 -150 -66h-152v530h-87v90h87v80h100v-80h137v-90h-137v-113z" />
    <glyph glyph-name="afii10194" unicode="&#x463;" horiz-adv-x="415" 
d="M185 312h52c37 0 76 -3 108 -32c18 -16 40 -47 40 -93v-56c0 -23 -3 -66 -40 -99c-33 -29 -71 -32 -108 -32h-152v416h-75v80h75v151h100v-151h115v-80h-115v-104zM185 222v-132h46c13 0 31 2 43 17c10 11 11 24 11 35v28c0 11 -2 26 -12 37c-12 13 -28 15 -42 15h-46z
" />
    <glyph glyph-name="afii10147" unicode="&#x472;" horiz-adv-x="462" 
d="M56 184v332c0 53 4 104 52 149c30 28 71 45 123 45s93 -17 123 -45c48 -45 52 -96 52 -149v-332c0 -53 -4 -104 -52 -149c-30 -28 -71 -45 -123 -45s-93 17 -123 45c-48 45 -52 96 -52 149zM306 169v140h-150v-140c0 -21 2 -42 21 -61c11 -11 29 -20 54 -20s43 9 54 20
c19 19 21 40 21 61zM156 399h150v132c0 21 -2 42 -21 61c-11 11 -29 20 -54 20s-43 -9 -54 -20c-19 -19 -21 -40 -21 -61v-132z" />
    <glyph glyph-name="afii10195" unicode="&#x473;" horiz-adv-x="402" 
d="M50 160v176c0 39 3 94 49 133c27 23 65 35 102 35s75 -12 102 -35c46 -39 49 -94 49 -133v-176c0 -39 -3 -94 -49 -133c-27 -23 -65 -35 -102 -35s-75 12 -102 35c-46 39 -49 94 -49 133zM252 154v52h-102v-52c0 -23 6 -40 15 -50c8 -8 21 -14 36 -14s28 6 36 14
c9 10 15 27 15 50zM150 296h102v46c0 23 -6 40 -15 50c-8 8 -21 14 -36 14s-28 -6 -36 -14c-9 -10 -15 -27 -15 -50v-46z" />
    <glyph glyph-name="afii10148" unicode="&#x474;" horiz-adv-x="403" 
d="M351 559l-103 -559h-90l-148 700h110l81 -484h4l54 355c6 35 14 82 46 111c28 26 61 26 87 26h15v-90h-13c-8 0 -20 -4 -26 -11c-10 -13 -14 -32 -17 -48z" />
    <glyph glyph-name="afii10196" unicode="&#x475;" horiz-adv-x="357" 
d="M113 496l67 -315h5l40 205c7 29 15 68 38 91c20 21 47 24 75 24h23v-85h-12c-12 0 -19 -4 -23 -8s-10 -17 -14 -31l-88 -377h-84l-132 496h105z" />
    <glyph glyph-name="afii10050" unicode="&#x490;" horiz-adv-x="384" 
d="M60 0v700h204v64h100v-159h-204v-605h-100z" />
    <glyph glyph-name="afii10098" unicode="&#x491;" horiz-adv-x="313" 
d="M54 0v496h149v48h100v-138h-149v-406h-100z" />
    <glyph glyph-name="uni0492" unicode="&#x492;" horiz-adv-x="395" 
d="M71 0v300h-71v95h71v305h304v-95h-204v-210h157v-95h-157v-300h-100z" />
    <glyph glyph-name="uni0493" unicode="&#x493;" horiz-adv-x="309" 
d="M50 0v206h-40v80h40v210h249v-90h-148v-120h83v-80h-83v-206h-101z" />
    <glyph glyph-name="uni0494" unicode="&#x494;" horiz-adv-x="429" 
d="M60 0v700h304v-95h-204v-181h58c36 0 90 -4 127 -43c34 -36 39 -88 39 -124v-49c0 -55 0 -114 -27 -154c-34 -51 -90 -54 -112 -54h-30v100h21c21 0 33 15 37 23c12 21 11 52 11 72v40c0 21 1 60 -21 81c-20 19 -52 18 -77 18h-26v-334h-100z" />
    <glyph glyph-name="uni0495" unicode="&#x495;" horiz-adv-x="412" 
d="M54 0v496h303v-90h-202v-153c9 11 20 21 33 29c18 11 37 19 66 19s54 -8 74 -29c26 -27 29 -60 29 -84v-235c0 -40 1 -79 -24 -112c-32 -42 -78 -45 -115 -45h-32v93h18c21 0 34 8 40 15c13 14 13 32 13 44v200c0 12 -1 27 -13 40c-9 10 -20 15 -35 15
c-19 0 -31 -9 -38 -16c-15 -16 -16 -34 -16 -50v-137h-101z" />
    <glyph glyph-name="uni0496" unicode="&#x496;" horiz-adv-x="670" 
d="M377 400h37c14 0 27 6 37 21c13 18 17 43 22 92l7 63c4 38 10 80 40 106c29 25 67 26 93 26h18v-90h-16c-8 0 -19 -5 -26 -11c-11 -10 -15 -29 -20 -74l-7 -67c-3 -27 -5 -52 -14 -75c-6 -14 -12 -22 -22 -29l77 -272h62v-198h-95v108h-49l-85 314h-59v-314h-100v314h-59
l-85 -314h-109l104 362c-10 7 -16 15 -22 29c-9 23 -11 48 -14 75l-7 67c-5 45 -9 64 -20 74c-7 6 -18 11 -26 11h-16v90h18c26 0 64 -1 93 -26c30 -26 36 -68 40 -106l7 -63c5 -49 9 -74 22 -92c10 -15 23 -21 37 -21h37v300h100v-300z" />
    <glyph glyph-name="uni0497" unicode="&#x497;" horiz-adv-x="596" 
d="M338 294h19c25 0 33 6 42 26c9 18 10 31 13 48l6 36c3 19 9 45 23 64c21 29 54 33 86 33h25v-85h-15c-12 0 -21 -5 -26 -10c-4 -5 -8 -14 -11 -34l-5 -37c-3 -23 -4 -40 -11 -56c-5 -11 -11 -19 -22 -25l62 -164h62v-190h-95v100h-38l-72 214h-43v-214h-100v214h-43
l-72 -214h-103l94 254c-11 6 -17 14 -22 25c-7 16 -8 33 -11 56l-5 37c-3 20 -7 29 -11 34c-5 5 -14 10 -26 10h-15v85h25c32 0 65 -4 86 -33c14 -19 20 -45 23 -64l6 -36c3 -17 4 -30 13 -48c9 -20 17 -26 42 -26h19v202h100v-202z" />
    <glyph glyph-name="uni0498" unicode="&#x498;" horiz-adv-x="414" 
d="M30 501v63c0 28 6 76 53 112c23 18 59 34 111 34c40 0 84 -9 115 -32c18 -13 55 -47 55 -114v-59c0 -37 -2 -76 -30 -109c-11 -12 -26 -24 -40 -32c29 -15 43 -32 50 -44c18 -30 20 -60 20 -90v-82c0 -39 -5 -81 -44 -117c-24 -22 -51 -32 -79 -37v-102h-95v102
c-25 4 -51 14 -73 34c-7 6 -43 41 -43 101v65h100v-40c0 -15 6 -37 16 -48c12 -13 36 -18 52 -18c25 0 40 7 48 15c18 17 18 38 18 60v62c0 19 -2 60 -27 80c-7 6 -23 15 -53 15h-30v90h27c26 0 50 9 64 24c18 20 19 49 19 62v45c0 15 0 39 -20 56c-11 9 -28 15 -49 15
c-19 0 -35 -7 -46 -18c-17 -16 -19 -36 -19 -51v-42h-100z" />
    <glyph glyph-name="uni0499" unicode="&#x499;" horiz-adv-x="377" 
d="M30 346v10c0 52 21 87 38 105c26 27 66 43 115 43c48 0 82 -18 103 -37c19 -18 42 -50 42 -103v-14c0 -27 -7 -49 -17 -65c-7 -10 -19 -24 -39 -33c20 -8 33 -21 41 -33c17 -24 19 -52 19 -71v-13c0 -37 -16 -76 -39 -100c-17 -18 -41 -31 -68 -37v-98h-95v99
c-22 6 -43 17 -58 31c-23 21 -42 58 -42 99v19h96v-10c0 -12 4 -23 11 -31c12 -14 28 -17 40 -17c24 0 37 9 43 17c9 11 12 28 12 42v9c0 21 -9 32 -15 37c-10 9 -26 13 -38 13h-35v86h32c18 0 32 7 40 16c7 8 12 21 12 37v5c0 13 -5 28 -12 37c-11 14 -26 17 -37 17
c-19 0 -32 -7 -40 -16c-11 -12 -13 -25 -13 -37v-7h-96z" />
    <glyph glyph-name="uni049A" unicode="&#x49a;" horiz-adv-x="479" 
d="M60 700h100v-300h57c14 0 27 6 37 21c13 18 17 43 22 92l7 63c4 38 10 80 40 106c29 25 67 26 93 26h15v-90h-13c-8 0 -19 -5 -26 -11c-11 -10 -15 -29 -20 -74l-7 -67c-3 -27 -5 -52 -14 -75c-6 -14 -12 -22 -22 -29l83 -272h62v-198h-95v108h-51l-87 310h-81v-310h-100
v700z" />
    <glyph glyph-name="uni049B" unicode="&#x49b;" horiz-adv-x="423" 
d="M154 296h32c21 0 32 4 42 24c8 16 11 34 13 48l6 36c3 19 9 45 23 64c21 29 54 33 86 33h23v-85h-13c-12 0 -21 -5 -26 -10c-4 -5 -8 -14 -11 -34l-5 -37c-3 -23 -4 -41 -11 -56c-6 -13 -13 -20 -20 -25l58 -164h62v-190h-95v100h-36l-72 212h-56v-212h-100v496h100v-200
z" />
    <glyph glyph-name="uni049C" unicode="&#x49c;" horiz-adv-x="479" 
d="M60 700h100v-300h33v130h59v-126c4 2 11 6 19 17c14 21 17 50 22 92l7 63c4 38 10 80 40 106c29 25 67 26 93 26h15v-90h-13c-8 0 -19 -5 -26 -11c-11 -10 -15 -29 -20 -74l-7 -67c-3 -27 -5 -52 -14 -75c-6 -14 -12 -22 -22 -29l108 -362h-109l-87 310h-6v-123h-59v123
h-33v-310h-100v700z" />
    <glyph glyph-name="uni049D" unicode="&#x49d;" horiz-adv-x="435" 
d="M154 296h33v90h48v-88c12 3 19 9 25 22c8 17 11 33 13 48l6 36c3 19 9 45 23 64c21 29 54 33 86 33h23v-85h-13c-12 0 -21 -5 -26 -10c-4 -5 -8 -14 -11 -34l-5 -37c-3 -23 -4 -41 -11 -56c-6 -13 -13 -20 -20 -25l90 -254h-101l-72 212h-7v-90h-48v90h-33v-212h-100v496
h100v-200z" />
    <glyph glyph-name="uni04A0" unicode="&#x4a0;" horiz-adv-x="580" 
d="M278 400h57c14 0 27 6 37 21c13 18 17 43 22 92l7 63c4 38 10 80 40 106c29 25 67 26 93 26h15v-90h-13c-8 0 -19 -5 -26 -11c-11 -10 -15 -29 -20 -74l-7 -67c-3 -27 -5 -52 -14 -75c-6 -14 -12 -22 -22 -29l108 -362h-109l-87 310h-81v-310h-100v605h-153v95h253v-300z
" />
    <glyph glyph-name="uni04A1" unicode="&#x4a1;" horiz-adv-x="490" 
d="M241 296h32c21 0 32 4 42 24c8 16 11 34 13 48l6 36c3 19 9 45 23 64c21 29 54 33 86 33h23v-85h-13c-12 0 -21 -5 -26 -10c-4 -5 -8 -14 -11 -34l-5 -37c-3 -23 -4 -41 -11 -56c-6 -13 -13 -20 -20 -25l90 -254h-101l-72 212h-56v-212h-100v406h-131v90h231v-200z" />
    <glyph glyph-name="uni04A2" unicode="&#x4a2;" horiz-adv-x="462" 
d="M60 700h100v-301h135v301h100v-610h62v-198h-95v108h-67v309h-135v-309h-100v700z" />
    <glyph glyph-name="uni04A3" unicode="&#x4a3;" horiz-adv-x="428" 
d="M54 0v496h100v-200h102v200h100v-406h62v-190h-95v100h-67v206h-102v-206h-100z" />
    <glyph glyph-name="uni04A4" unicode="&#x4a4;" horiz-adv-x="595" 
d="M60 700h100v-301h135v301h280v-95h-180v-605h-100v309h-135v-309h-100v700z" />
    <glyph glyph-name="uni04A5" unicode="&#x4a5;" horiz-adv-x="508" 
d="M54 0v496h100v-200h102v200h249v-90h-149v-406h-100v206h-102v-206h-100z" />
    <glyph glyph-name="uni04AA" unicode="&#x4aa;" horiz-adv-x="436" 
d="M171 -108v104c-34 8 -62 26 -79 47c-36 42 -35 90 -35 126v363c0 46 6 98 51 137c31 28 77 41 114 41c42 0 91 -16 121 -45c25 -25 45 -67 45 -116v-48h-97v40c0 14 -4 33 -13 46c-5 7 -20 25 -52 25c-26 0 -42 -11 -52 -23c-16 -20 -17 -45 -17 -69v-345
c0 -23 0 -44 13 -62c7 -10 23 -25 51 -25c22 0 44 8 56 24c5 7 14 23 14 57v25h100v-29c0 -78 -31 -116 -42 -128c-20 -22 -51 -37 -83 -43v-102h-95z" />
    <glyph glyph-name="uni04AB" unicode="&#x4ab;" horiz-adv-x="385" 
d="M355 346h-100v2c0 12 -2 26 -11 39c-7 10 -20 19 -40 19c-12 0 -27 -3 -39 -17s-14 -31 -14 -48v-192c0 -14 3 -31 12 -42c5 -6 17 -17 41 -17c14 0 29 3 40 17c10 13 11 31 11 40v1h100v-9c0 -59 -28 -94 -50 -113c-21 -17 -42 -25 -58 -29v-97h-95v99
c-24 7 -46 19 -62 36c-40 41 -39 89 -39 132v171c0 40 4 91 46 129c21 19 54 37 103 37c48 0 90 -16 115 -43c27 -28 40 -73 40 -112v-3z" />
    <glyph glyph-name="uni04AE" unicode="&#x4ae;" horiz-adv-x="414" 
d="M404 700l-147 -405v-295h-100v298l-147 402h110l87 -278h6l85 278h106z" />
    <glyph glyph-name="uni04AF" unicode="&#x4af;" horiz-adv-x="358" 
d="M351 496l-122 -458v-242h-100v242l-122 458h105l67 -315h5l67 315h100z" />
    <glyph glyph-name="uni04B0" unicode="&#x4b0;" horiz-adv-x="414" 
d="M404 700l-130 -358h99v-80h-116v-262h-100v262h-116v80h100l-131 358h110l87 -278h6l85 278h106z" />
    <glyph glyph-name="uni04B1" unicode="&#x4b1;" horiz-adv-x="358" 
d="M351 496l-111 -416h106v-80h-117v-204h-100v204h-116v80h105l-111 416h105l67 -315h5l67 315h100z" />
    <glyph glyph-name="uni04B2" unicode="&#x4b2;" horiz-adv-x="452" 
d="M31 700h106l80 -220l81 220h110l-138 -330l115 -280h62v-198h-95v108h-36l-99 253l-92 -253h-110l150 370z" />
    <glyph glyph-name="uni04B3" unicode="&#x4b3;" horiz-adv-x="382" 
d="M7 0l122 253l-116 243h105l62 -141l62 141h105l-118 -243l81 -163h62v-190h-95v100h-29l-68 152l-68 -152h-105z" />
    <glyph glyph-name="uni04B6" unicode="&#x4b6;" horiz-adv-x="436" 
d="M269 700h100v-610h62v-198h-95v108h-67v290c-21 -8 -45 -14 -77 -14c-67 0 -100 28 -112 42c-32 36 -35 91 -35 125v257h100v-235c0 -21 0 -60 19 -81c14 -15 34 -18 49 -18c19 0 37 3 56 14v320z" />
    <glyph glyph-name="uni04B7" unicode="&#x4b7;" horiz-adv-x="399" 
d="M227 0v200c-25 -12 -57 -19 -87 -19c-22 0 -57 3 -82 28c-27 26 -28 58 -28 85v202h100v-177c0 -10 1 -25 12 -36s26 -12 36 -12c23 0 38 5 49 11v214h100v-406h62v-190h-95v100h-67z" />
    <glyph glyph-name="uni04B8" unicode="&#x4b8;" horiz-adv-x="429" 
d="M269 700h100v-700h-100v286c-12 -5 -24 -9 -37 -10v-73h-52v72c-38 1 -77 17 -100 43c-31 36 -35 90 -35 125v257h100v-235v-51c0 -23 16 -40 35 -44v97h52v-100c12 2 24 5 37 10v323z" />
    <glyph glyph-name="uni04B9" unicode="&#x4b9;" horiz-adv-x="396" 
d="M242 0v200c-10 -6 -21 -11 -33 -13v-79h-48v73c-46 -1 -76 13 -95 29c-30 26 -36 58 -36 84v202h100v-177c0 -35 27 -43 31 -44v97h48v-100c12 2 23 5 33 10v214h100v-496h-100z" />
    <glyph glyph-name="uni04BA" unicode="&#x4ba;" horiz-adv-x="434" 
d="M60 0v700h100v-276h63c36 0 90 -4 127 -43c34 -36 39 -88 39 -124v-257h-100v235c0 21 1 60 -21 81c-20 19 -52 18 -77 18h-31v-334h-100z" />
    <glyph glyph-name="uni04BB" unicode="&#x4bb;" 
d="M54 0v700h100v-244c9 11 20 21 33 29c18 11 37 19 66 19s54 -8 74 -29c26 -27 29 -60 29 -84v-391h-100v351c0 12 -1 27 -13 40c-9 10 -20 15 -35 15c-19 0 -31 -9 -38 -16c-15 -16 -16 -34 -16 -50v-340h-100z" />
    <glyph glyph-name="uni04C0" unicode="&#x4c0;" horiz-adv-x="220" 
d="M60 700h100v-700h-100v700z" />
    <glyph glyph-name="uni04C3" unicode="&#x4c3;" horiz-adv-x="460" 
d="M60 700h100v-300h49c14 0 27 6 37 21c13 18 17 43 22 92l7 63c4 38 10 80 40 106c29 25 67 26 93 26h15v-90h-13c-8 0 -19 -5 -26 -11c-11 -10 -15 -29 -20 -74l-7 -67c-3 -28 -5 -52 -14 -75c-5 -12 -10 -20 -20 -27c24 -36 45 -74 60 -107c32 -69 42 -123 42 -193
c0 -41 -5 -87 -31 -119c-32 -40 -80 -45 -111 -45h-30v100h21c13 0 30 3 41 23c9 16 10 47 10 51c0 49 -17 102 -33 137c-15 34 -37 69 -59 99h-73v-310h-100v700z" />
    <glyph glyph-name="uni04C4" unicode="&#x4c4;" horiz-adv-x="414" 
d="M154 296h32c21 0 32 4 42 24c8 16 11 34 13 48l6 36c3 19 9 45 23 64c21 29 54 33 86 33h23v-85h-13c-12 0 -21 -5 -26 -10c-4 -5 -8 -14 -11 -34l-5 -37c-3 -23 -4 -41 -11 -56c-6 -13 -13 -20 -20 -25l53 -141c15 -41 20 -77 20 -115v-66c0 -28 -3 -63 -24 -91
c-32 -42 -78 -45 -115 -45h-32v93h18c21 0 34 8 40 15c13 14 13 32 13 44v72c0 33 -9 56 -18 82l-38 110h-56v-212h-100v496h100v-200z" />
    <glyph glyph-name="uni04C7" unicode="&#x4c7;" horiz-adv-x="455" 
d="M60 700h100v-301h135v301h100v-636c0 -30 -2 -83 -31 -119c-32 -40 -80 -45 -111 -45h-30v100h21c13 0 30 3 41 23c7 12 10 36 10 51v235h-135v-309h-100v700z" />
    <glyph glyph-name="uni04C8" unicode="&#x4c8;" horiz-adv-x="411" 
d="M54 0v496h100v-200h102v200h100v-543c0 -40 1 -79 -24 -112c-32 -42 -78 -45 -115 -45h-32v93h18c21 0 34 8 40 15c13 14 13 32 13 44v258h-102v-206h-100z" />
    <glyph glyph-name="uni04CF" unicode="&#x4cf;" horiz-adv-x="208" 
d="M54 700h100v-700h-100v700z" />
    <glyph glyph-name="uni04D0" unicode="&#x4d0;" horiz-adv-x="414" 
d="M404 0h-100l-33 150h-128l-33 -150h-100l153 700h88zM259 239l-54 266l-52 -266h106zM323 868v-12c0 -40 -15 -66 -30 -80c-20 -19 -53 -28 -92 -28s-72 9 -92 28c-15 14 -30 40 -30 80v12h80v-9c0 -8 1 -19 12 -28c9 -8 19 -9 30 -9s21 1 30 9c11 9 12 20 12 28v9h80z
" />
    <glyph glyph-name="uni04D1" unicode="&#x4d1;" horiz-adv-x="405" 
d="M251 0v49h-2c-7 -11 -20 -27 -34 -38c-19 -15 -37 -19 -58 -19c-20 0 -51 3 -76 26c-31 29 -36 74 -36 114c0 36 2 90 31 124c33 39 89 43 118 43c7 0 26 0 57 -3v52c0 14 -1 29 -13 42c-10 11 -25 16 -40 16c-14 0 -29 -5 -40 -18c-7 -8 -12 -19 -13 -32h-95
c-1 45 18 84 41 107c25 25 66 41 112 41c45 0 82 -16 107 -40c36 -36 41 -83 41 -117v-347h-100zM251 146v70c-12 2 -24 3 -35 3c-16 0 -40 -2 -56 -21c-13 -15 -15 -36 -15 -52c0 -14 2 -28 10 -41c10 -16 23 -23 40 -23c30 0 56 20 56 64zM330 694v-13
c0 -27 -4 -61 -30 -87c-25 -25 -60 -28 -84 -28s-59 3 -84 28c-26 26 -30 60 -30 87v13h74v-15c0 -6 2 -17 4 -22c3 -8 13 -20 36 -20s33 12 36 20c2 5 4 16 4 22v15h74z" />
    <glyph glyph-name="uni04D2" unicode="&#x4d2;" horiz-adv-x="414" 
d="M404 0h-100l-33 150h-128l-33 -150h-100l153 700h88zM259 239l-54 266l-52 -266h106zM186 864v-100h-95v100h95zM248 764v100h95v-100h-95z" />
    <glyph glyph-name="uni04D3" unicode="&#x4d3;" horiz-adv-x="405" 
d="M251 0v49h-2c-7 -11 -20 -27 -34 -38c-19 -15 -37 -19 -58 -19c-20 0 -51 3 -76 26c-31 29 -36 74 -36 114c0 36 2 90 31 124c33 39 89 43 118 43c7 0 26 0 57 -3v52c0 14 -1 29 -13 42c-10 11 -25 16 -40 16c-14 0 -29 -5 -40 -18c-7 -8 -12 -19 -13 -32h-95
c-1 45 18 84 41 107c25 25 66 41 112 41c45 0 82 -16 107 -40c36 -36 41 -83 41 -117v-347h-100zM251 146v70c-12 2 -24 3 -35 3c-16 0 -40 -2 -56 -21c-13 -15 -15 -36 -15 -52c0 -14 2 -28 10 -41c10 -16 23 -23 40 -23c30 0 56 20 56 64zM182 683v-95h-95v95h95zM244 588
v95h95v-95h-95z" />
    <glyph glyph-name="uni04D4" unicode="&#x4d4;" horiz-adv-x="624" 
d="M589 0h-300v150h-125l-63 -150h-106l294 700h297v-95h-197v-207h174v-89h-174v-214h200v-95zM293 239v233h-4l-99 -233h103z" />
    <glyph glyph-name="uni04D5" unicode="&#x4d5;" horiz-adv-x="598" 
d="M145 356h-95c-1 50 21 87 42 107c20 20 56 41 111 41c42 0 72 -12 99 -34c23 20 52 34 97 34c43 0 79 -14 104 -36c44 -38 50 -88 50 -127v-130h-202v-64c0 -15 1 -31 13 -43c8 -9 22 -14 38 -14c17 0 30 6 40 21c6 10 9 23 9 34h100v-4c0 -37 -7 -86 -56 -121
c-25 -18 -59 -28 -93 -28c-43 0 -71 14 -89 27c-7 5 -20 15 -33 31c-9 -12 -23 -26 -38 -36c-23 -15 -55 -22 -85 -22c-20 0 -51 3 -76 26c-31 29 -36 74 -36 114c0 36 2 90 31 124c33 39 89 43 118 43c7 0 26 0 57 -3v40c0 21 1 38 -13 54c-10 10 -25 16 -40 16
c-14 0 -30 -7 -40 -18c-2 -2 -11 -13 -13 -32zM251 146v71c-5 0 -23 2 -35 2c-16 0 -40 -2 -56 -21c-13 -15 -15 -36 -15 -52c0 -14 2 -28 10 -41c10 -16 23 -23 40 -23c18 0 31 6 42 20c12 15 14 31 14 44zM351 288h102v65c0 13 -2 27 -14 39c-8 8 -21 14 -37 14
c-17 0 -31 -7 -39 -17c-10 -12 -12 -27 -12 -40v-61z" />
    <glyph glyph-name="uni04D6" unicode="&#x4d6;" horiz-adv-x="395" 
d="M60 0v700h297v-95h-197v-206h174v-90h-174v-214h200v-95h-300zM327 868v-12c0 -40 -15 -66 -30 -80c-20 -19 -53 -28 -92 -28s-72 9 -92 28c-15 14 -30 40 -30 80v12h80v-9c0 -8 1 -19 12 -28c9 -8 19 -9 30 -9s21 1 30 9c11 9 12 20 12 28v9h80z" />
    <glyph glyph-name="uni04D7" unicode="&#x4d7;" horiz-adv-x="397" 
d="M150 211v-64c0 -15 1 -31 13 -43c8 -9 22 -14 38 -14c17 0 30 6 40 21c6 10 9 23 9 34h100v-4c0 -37 -7 -86 -56 -121c-25 -18 -59 -28 -93 -28c-46 0 -89 19 -115 48c-35 39 -36 90 -36 120v190c0 35 7 84 49 120c23 20 57 34 99 34c43 0 79 -14 104 -36
c44 -38 50 -88 50 -127v-130h-202zM150 288h102v65c0 13 -2 27 -14 39c-8 8 -21 14 -37 14c-17 0 -31 -7 -39 -17c-10 -12 -12 -27 -12 -40v-61zM312 694v-13c0 -27 -4 -61 -30 -87c-25 -25 -60 -28 -84 -28s-59 3 -84 28c-26 26 -30 60 -30 87v13h74v-15c0 -6 2 -17 4 -22
c3 -8 13 -20 36 -20s33 12 36 20c2 5 4 16 4 22v15h74z" />
    <glyph glyph-name="uni04D8" unicode="&#x4d8;" horiz-adv-x="446" 
d="M56 501v63c0 99 80 146 164 146c83 0 170 -39 170 -146v-397c0 -56 -3 -99 -44 -136c-37 -35 -83 -41 -128 -41c-37 0 -83 5 -119 38c-8 5 -43 41 -43 101v271h234v155c0 35 -30 57 -69 57c-41 0 -65 -29 -65 -69v-42h-100zM156 310v-156c0 -15 2 -33 17 -48
s35 -18 51 -18c28 0 42 9 49 16c16 15 17 36 17 55v151h-134z" />
    <glyph glyph-name="afii10846" unicode="&#x4d9;" horiz-adv-x="397" 
d="M247 285v64c0 11 -1 28 -13 40c-8 9 -23 13 -36 13c-19 0 -31 -8 -39 -19c-7 -9 -10 -21 -10 -32h-102v4c0 68 35 102 54 118c23 19 55 31 95 31c47 0 88 -17 115 -48c35 -40 36 -88 36 -120v-190c0 -34 -7 -86 -49 -120c-23 -20 -56 -34 -99 -34s-79 13 -104 36
c-45 37 -50 89 -50 127v130h202zM247 208h-102v-65c0 -13 2 -27 14 -39c9 -9 22 -14 37 -14c17 0 31 6 39 17c11 12 12 27 12 40v61z" />
    <glyph glyph-name="uni04DA" unicode="&#x4da;" horiz-adv-x="446" 
d="M56 501v63c0 99 80 146 164 146c83 0 170 -39 170 -146v-397c0 -56 -3 -99 -44 -136c-37 -35 -83 -41 -128 -41c-37 0 -83 5 -119 38c-8 5 -43 41 -43 101v271h234v155c0 35 -30 57 -69 57c-41 0 -65 -29 -65 -69v-42h-100zM156 310v-156c0 -15 2 -33 17 -48
s35 -18 51 -18c28 0 42 9 49 16c16 15 17 36 17 55v151h-134zM194 864v-100h-95v100h95zM256 764v100h95v-100h-95z" />
    <glyph glyph-name="uni04DB" unicode="&#x4db;" horiz-adv-x="397" 
d="M247 285v64c0 11 -1 28 -13 40c-8 9 -23 13 -36 13c-19 0 -31 -8 -39 -19c-7 -9 -10 -21 -10 -32h-102v4c0 68 35 102 54 118c23 19 55 31 95 31c47 0 88 -17 115 -48c35 -40 36 -88 36 -120v-190c0 -34 -7 -86 -49 -120c-23 -20 -56 -34 -99 -34s-79 13 -104 36
c-45 37 -50 89 -50 127v130h202zM247 208h-102v-65c0 -13 2 -27 14 -39c9 -9 22 -14 37 -14c17 0 31 6 39 17c11 12 12 27 12 40v61zM167 683v-95h-95v95h95zM229 588v95h95v-95h-95z" />
    <glyph glyph-name="uni04DC" unicode="&#x4dc;" horiz-adv-x="654" 
d="M377 400h37c14 0 27 6 37 21c13 18 17 43 22 92l7 63c4 38 10 80 40 106c29 25 67 26 93 26h18v-90h-16c-8 0 -19 -5 -26 -11c-11 -10 -15 -29 -20 -74l-7 -67c-3 -27 -5 -52 -14 -75c-6 -14 -12 -22 -22 -29l104 -362h-109l-85 314h-59v-314h-100v314h-59l-85 -314h-109
l104 362c-10 7 -16 15 -22 29c-9 23 -11 48 -14 75l-7 67c-5 45 -9 64 -20 74c-7 6 -18 11 -26 11h-16v90h18c26 0 64 -1 93 -26c30 -26 36 -68 40 -106l7 -63c5 -49 9 -74 22 -92c10 -15 23 -21 37 -21h37v300h100v-300zM298 864v-100h-95v100h95zM360 764v100h95v-100h-95
z" />
    <glyph glyph-name="uni04DD" unicode="&#x4dd;" horiz-adv-x="576" 
d="M338 294h19c25 0 33 6 42 26c9 18 10 31 13 48l6 36c3 19 9 45 23 64c21 29 54 33 86 33h25v-85h-15c-12 0 -21 -5 -26 -10c-4 -5 -8 -14 -11 -34l-5 -37c-3 -23 -4 -40 -11 -56c-5 -11 -11 -19 -22 -25l94 -254h-103l-72 214h-43v-214h-100v214h-43l-72 -214h-103
l94 254c-11 6 -17 14 -22 25c-7 16 -8 33 -11 56l-5 37c-3 20 -7 29 -11 34c-5 5 -14 10 -26 10h-15v85h25c32 0 65 -4 86 -33c14 -19 20 -45 23 -64l6 -36c3 -17 4 -30 13 -48c9 -20 17 -26 42 -26h19v202h100v-202zM262 683v-95h-95v95h95zM324 588v95h95v-95h-95z" />
    <glyph glyph-name="uni04DE" unicode="&#x4de;" horiz-adv-x="414" 
d="M30 501v63c0 28 6 76 53 112c23 18 59 34 111 34c40 0 84 -9 115 -32c18 -13 55 -47 55 -114v-59c0 -37 -2 -76 -30 -109c-11 -12 -26 -24 -40 -32c29 -15 43 -32 50 -44c18 -30 20 -60 20 -90v-82c0 -39 -5 -81 -44 -117c-37 -34 -83 -41 -128 -41c-37 0 -83 5 -119 38
c-7 6 -43 41 -43 101v65h100v-40c0 -15 6 -37 16 -48c12 -13 36 -18 52 -18c25 0 40 7 48 15c18 17 18 38 18 60v62c0 19 -2 60 -27 80c-7 6 -23 15 -53 15h-30v90h27c26 0 50 9 64 24c18 20 19 49 19 62v45c0 15 0 39 -20 56c-11 9 -28 15 -49 15c-19 0 -35 -7 -46 -18
c-17 -16 -19 -36 -19 -51v-42h-100zM169 864v-100h-95v100h95zM231 764v100h95v-100h-95z" />
    <glyph glyph-name="uni04DF" unicode="&#x4df;" horiz-adv-x="377" 
d="M30 346v10c0 52 21 87 38 105c26 27 66 43 115 43c48 0 82 -18 103 -37c19 -18 42 -50 42 -103v-14c0 -27 -7 -49 -17 -65c-7 -10 -19 -24 -39 -33c20 -8 33 -21 41 -33c17 -24 19 -52 19 -71v-13c0 -37 -16 -76 -39 -100c-26 -27 -69 -43 -115 -43c-35 0 -79 13 -106 38
c-23 21 -42 58 -42 99v19h96v-10c0 -12 4 -23 11 -31c12 -14 28 -17 40 -17c24 0 37 9 43 17c9 11 12 28 12 42v9c0 21 -9 32 -15 37c-10 9 -26 13 -38 13h-35v86h32c18 0 32 7 40 16c7 8 12 21 12 37v5c0 13 -5 28 -12 37c-11 14 -26 17 -37 17c-19 0 -32 -7 -40 -16
c-11 -12 -13 -25 -13 -37v-7h-96zM157 683v-95h-95v95h95zM219 588v95h95v-95h-95z" />
    <glyph glyph-name="uni04E2" unicode="&#x4e2;" horiz-adv-x="485" 
d="M60 700h100v-430l165 350v80h100v-700h-100v430l-165 -350v-80h-100v700zM130 824h224v-60h-224v60z" />
    <glyph glyph-name="uni04E3" unicode="&#x4e3;" horiz-adv-x="431" 
d="M54 496h100v-277l123 216v61h100v-496h-100v277l-123 -216v-61h-100v496zM104 668h224v-70h-224v70z" />
    <glyph glyph-name="uni04E4" unicode="&#x4e4;" horiz-adv-x="485" 
d="M60 700h100v-430l165 350v80h100v-700h-100v430l-165 -350v-80h-100v700zM211 864v-100h-95v100h95zM273 764v100h95v-100h-95z" />
    <glyph glyph-name="uni04E5" unicode="&#x4e5;" horiz-adv-x="431" 
d="M54 496h100v-277l123 216v61h100v-496h-100v277l-123 -216v-61h-100v496zM192 683v-95h-95v95h95zM254 588v95h95v-95h-95z" />
    <glyph glyph-name="uni04E6" unicode="&#x4e6;" horiz-adv-x="462" 
d="M56 184v332c0 53 4 104 52 149c30 28 71 45 123 45s93 -17 123 -45c48 -45 52 -96 52 -149v-332c0 -53 -4 -104 -52 -149c-30 -28 -71 -45 -123 -45s-93 17 -123 45c-48 45 -52 96 -52 149zM306 169v362c0 21 -2 42 -21 61c-11 11 -29 20 -54 20s-43 -9 -54 -20
c-19 -19 -21 -40 -21 -61v-362c0 -21 2 -42 21 -61c11 -11 29 -20 54 -20s43 9 54 20c19 19 21 40 21 61zM206 864v-100h-95v100h95zM268 764v100h95v-100h-95z" />
    <glyph glyph-name="uni04E7" unicode="&#x4e7;" horiz-adv-x="402" 
d="M50 160v176c0 39 3 94 49 133c27 23 65 35 102 35s75 -12 102 -35c46 -39 49 -94 49 -133v-176c0 -39 -3 -94 -49 -133c-27 -23 -65 -35 -102 -35s-75 12 -102 35c-46 39 -49 94 -49 133zM252 154v188c0 23 -6 40 -15 50c-8 8 -21 14 -36 14s-28 -6 -36 -14
c-9 -10 -15 -27 -15 -50v-188c0 -23 6 -40 15 -50c8 -8 21 -14 36 -14s28 6 36 14c9 10 15 27 15 50zM175 683v-95h-95v95h95zM237 588v95h95v-95h-95z" />
    <glyph glyph-name="uni04E8" unicode="&#x4e8;" horiz-adv-x="462" 
d="M56 184v332c0 53 4 104 52 149c30 28 71 45 123 45s93 -17 123 -45c48 -45 52 -96 52 -149v-332c0 -53 -4 -104 -52 -149c-30 -28 -71 -45 -123 -45s-93 17 -123 45c-48 45 -52 96 -52 149zM306 169v140h-150v-140c0 -21 2 -42 21 -61c11 -11 29 -20 54 -20s43 9 54 20
c19 19 21 40 21 61zM156 399h150v132c0 21 -2 42 -21 61c-11 11 -29 20 -54 20s-43 -9 -54 -20c-19 -19 -21 -40 -21 -61v-132z" />
    <glyph glyph-name="uni04E9" unicode="&#x4e9;" horiz-adv-x="402" 
d="M50 160v176c0 39 3 94 49 133c27 23 65 35 102 35s75 -12 102 -35c46 -39 49 -94 49 -133v-176c0 -39 -3 -94 -49 -133c-27 -23 -65 -35 -102 -35s-75 12 -102 35c-46 39 -49 94 -49 133zM252 154v52h-102v-52c0 -23 6 -40 15 -50c8 -8 21 -14 36 -14s28 6 36 14
c9 10 15 27 15 50zM150 296h102v46c0 23 -6 40 -15 50c-8 8 -21 14 -36 14s-28 -6 -36 -14c-9 -10 -15 -27 -15 -50v-46z" />
    <glyph glyph-name="uni04EA" unicode="&#x4ea;" horiz-adv-x="462" 
d="M56 184v332c0 53 4 104 52 149c30 28 71 45 123 45s93 -17 123 -45c48 -45 52 -96 52 -149v-332c0 -53 -4 -104 -52 -149c-30 -28 -71 -45 -123 -45s-93 17 -123 45c-48 45 -52 96 -52 149zM306 169v140h-150v-140c0 -21 2 -42 21 -61c11 -11 29 -20 54 -20s43 9 54 20
c19 19 21 40 21 61zM156 399h150v132c0 21 -2 42 -21 61c-11 11 -29 20 -54 20s-43 -9 -54 -20c-19 -19 -21 -40 -21 -61v-132zM200 864v-100h-95v100h95zM262 764v100h95v-100h-95z" />
    <glyph glyph-name="uni04EB" unicode="&#x4eb;" horiz-adv-x="402" 
d="M50 160v176c0 39 3 94 49 133c27 23 65 35 102 35s75 -12 102 -35c46 -39 49 -94 49 -133v-176c0 -39 -3 -94 -49 -133c-27 -23 -65 -35 -102 -35s-75 12 -102 35c-46 39 -49 94 -49 133zM252 154v52h-102v-52c0 -23 6 -40 15 -50c8 -8 21 -14 36 -14s28 6 36 14
c9 10 15 27 15 50zM150 296h102v46c0 23 -6 40 -15 50c-8 8 -21 14 -36 14s-28 -6 -36 -14c-9 -10 -15 -27 -15 -50v-46zM170 683v-95h-95v95h95zM232 588v95h95v-95h-95z" />
    <glyph glyph-name="uni04EE" unicode="&#x4ee;" horiz-adv-x="406" 
d="M10 700h114l96 -343h3c6 38 17 102 26 143l44 200h103l-119 -478c-20 -78 -33 -167 -92 -203c-30 -18 -60 -19 -86 -19h-36v95h25c20 0 37 7 46 17c8 8 17 29 20 42l13 59zM104 824h224v-60h-224v60z" />
    <glyph glyph-name="uni04EF" unicode="&#x4ef;" horiz-adv-x="369" 
d="M7 496h108l81 -308h4l62 308h100l-136 -563c-7 -29 -16 -77 -46 -106s-69 -31 -100 -31h-26l-2 93h19c14 0 33 2 47 21c4 5 10 16 18 48l16 65zM77 668h224v-70h-224v70z" />
    <glyph glyph-name="uni04F0" unicode="&#x4f0;" horiz-adv-x="406" 
d="M10 700h114l96 -343h3c6 38 17 102 26 143l44 200h103l-119 -478c-20 -78 -33 -167 -92 -203c-30 -18 -60 -19 -86 -19h-36v95h25c20 0 37 7 46 17c8 8 17 29 20 42l13 59zM175 864v-100h-95v100h95zM237 764v100h95v-100h-95z" />
    <glyph glyph-name="uni04F1" unicode="&#x4f1;" horiz-adv-x="369" 
d="M7 496h108l81 -308h4l62 308h100l-136 -563c-7 -29 -16 -77 -46 -106s-69 -31 -100 -31h-26l-2 93h19c14 0 33 2 47 21c4 5 10 16 18 48l16 65zM163 683v-95h-95v95h95zM225 588v95h95v-95h-95z" />
    <glyph glyph-name="uni04F2" unicode="&#x4f2;" horiz-adv-x="406" 
d="M10 700h114l96 -343h3c6 38 17 102 26 143l44 200h103l-119 -478c-20 -78 -33 -167 -92 -203c-30 -18 -60 -19 -86 -19h-36v95h25c20 0 37 7 46 17c8 8 17 29 20 42l13 59zM153 764h-60l50 105h111zM284 764h-60l50 105h111z" />
    <glyph glyph-name="uni04F3" unicode="&#x4f3;" horiz-adv-x="369" 
d="M7 496h108l81 -308h4l62 308h100l-136 -563c-7 -29 -16 -77 -46 -106s-69 -31 -100 -31h-26l-2 93h19c14 0 33 2 47 21c4 5 10 16 18 48l16 65zM129 578h-57l51 122h95zM259 578h-57l51 122h95z" />
    <glyph glyph-name="uni04F4" unicode="&#x4f4;" horiz-adv-x="429" 
d="M269 700h100v-700h-100v290c-21 -8 -45 -14 -77 -14c-67 0 -100 28 -112 42c-32 36 -35 91 -35 125v257h100v-235c0 -21 0 -60 19 -81c14 -15 34 -18 49 -18c19 0 37 3 56 14v320zM183 864v-100h-95v100h95zM245 764v100h95v-100h-95z" />
    <glyph glyph-name="uni04F5" unicode="&#x4f5;" horiz-adv-x="381" 
d="M227 0v200c-25 -12 -57 -19 -87 -19c-22 0 -57 3 -82 28c-27 26 -28 58 -28 85v202h100v-177c0 -10 1 -25 12 -36s26 -12 36 -12c23 0 38 5 49 11v214h100v-496h-100zM154 683v-95h-95v95h95zM216 588v95h95v-95h-95z" />
    <glyph glyph-name="uni04F8" unicode="&#x4f8;" horiz-adv-x="632" 
d="M60 700h100v-283h49c39 0 94 2 139 -40c43 -40 43 -90 43 -116v-82c0 -34 -2 -73 -29 -113c-19 -28 -58 -66 -150 -66h-152v700zM160 327v-237h45c26 0 86 6 86 104v38c0 34 -5 58 -27 77c-16 13 -31 18 -53 18h-51zM472 700h100v-700h-100v700zM282 864v-100h-95v100h95
zM344 764v100h95v-100h-95z" />
    <glyph glyph-name="uni04F9" unicode="&#x4f9;" horiz-adv-x="569" 
d="M54 496h100v-184h52c37 0 76 -3 108 -32c18 -16 40 -47 40 -93v-56c0 -23 -3 -66 -40 -99c-33 -29 -71 -32 -108 -32h-152v496zM154 222v-132h46c13 0 31 2 43 17c10 11 11 24 11 35v28c0 11 -2 26 -12 37c-12 13 -28 15 -42 15h-46zM415 0v496h100v-496h-100zM252 683
v-95h-95v95h95zM314 588v95h95v-95h-95z" />
    <glyph glyph-name="uni1E9E" unicode="&#x1e9e;" horiz-adv-x="444" 
d="M60 0v554c0 93 74 156 166 156c85 0 158 -47 158 -146v-39l-72 -126c29 -7 53 -25 64 -44c18 -32 18 -61 18 -91v-106c0 -39 -6 -86 -48 -123c-38 -33 -79 -35 -124 -35h-7v100h13c25 0 39 8 47 16c13 13 19 34 19 56v93c0 10 2 49 -22 65c-8 5 -24 10 -44 10h-13v54
l69 133v25c0 34 -20 60 -62 60c-38 0 -62 -26 -62 -66v-546h-100z" />
    <glyph glyph-name="uni2010" unicode="&#x2010;" horiz-adv-x="314" 
d="M45 351h224v-90h-224v90z" />
    <glyph glyph-name="uni2011" unicode="&#x2011;" horiz-adv-x="314" 
d="M45 351h224v-90h-224v90z" />
    <glyph glyph-name="figuredash" unicode="&#x2012;" horiz-adv-x="453" 
d="M60 386h333v-62h-333v62z" />
    <glyph glyph-name="endash" unicode="&#x2013;" horiz-adv-x="453" 
d="M60 333h333v-62h-333v62z" />
    <glyph glyph-name="emdash" unicode="&#x2014;" horiz-adv-x="641" 
d="M35 333h571v-62h-571v62z" />
    <glyph glyph-name="quoteleft" unicode="&#x2018;" horiz-adv-x="190" 
d="M140 521h-105v105l105 110v-215z" />
    <glyph glyph-name="quoteright" unicode="&#x2019;" horiz-adv-x="190" 
d="M50 700h105v-105l-105 -110v215z" />
    <glyph glyph-name="quotesinglbase" unicode="&#x201a;" horiz-adv-x="190" 
d="M50 105h105v-105l-105 -110v215z" />
    <glyph glyph-name="quotedblleft" unicode="&#x201c;" horiz-adv-x="369" 
d="M319 521h-105v105l105 110v-215zM140 521h-105v105l105 110v-215z" />
    <glyph glyph-name="quotedblright" unicode="&#x201d;" horiz-adv-x="369" 
d="M50 700h105v-105l-105 -110v215zM229 700h105v-105l-105 -110v215z" />
    <glyph glyph-name="quotedblbase" unicode="&#x201e;" horiz-adv-x="369" 
d="M50 105h105v-105l-105 -110v215zM229 105h105v-105l-105 -110v215z" />
    <glyph glyph-name="dagger" unicode="&#x2020;" horiz-adv-x="380" 
d="M140 700h100v-199h105v-90h-105v-411h-100v411h-105v90h105v199z" />
    <glyph glyph-name="daggerdbl" unicode="&#x2021;" horiz-adv-x="380" 
d="M140 700h100v-199h105v-90h-105v-122h105v-90h-105v-199h-100v199h-105v90h105v122h-105v90h105v199z" />
    <glyph glyph-name="bullet" unicode="&#x2022;" horiz-adv-x="440" 
d="M100 350c0 66 54 120 120 120s120 -54 120 -120s-54 -120 -120 -120s-120 54 -120 120z" />
    <glyph glyph-name="ellipsis" unicode="&#x2026;" horiz-adv-x="520" 
d="M35 100h100v-100h-100v100zM215 100h100v-100h-100v100zM385 100h100v-100h-100v100z" />
    <glyph glyph-name="perthousand" unicode="&#x2030;" horiz-adv-x="889" 
d="M257 594v-153c0 -31 -6 -58 -30 -80c-23 -21 -51 -26 -76 -26s-53 5 -76 26c-24 22 -30 49 -30 80v153c0 31 6 58 30 80c23 21 51 26 76 26s53 -5 76 -26c24 -22 30 -49 30 -80zM123 595v-155c0 -5 0 -16 6 -23c5 -5 15 -9 22 -9s17 4 22 9c6 7 6 18 6 23v155
c0 5 0 16 -6 23c-5 5 -15 9 -22 9s-17 -4 -22 -9c-6 -7 -6 -18 -6 -23zM581 259v-153c0 -31 -6 -58 -30 -80c-23 -21 -51 -26 -76 -26s-53 5 -76 26c-24 22 -30 49 -30 80v153c0 31 6 58 30 80c23 21 51 26 76 26s53 -5 76 -26c24 -22 30 -49 30 -80zM447 260v-155
c0 -5 0 -16 6 -23c5 -5 15 -9 22 -9s17 4 22 9c6 7 6 18 6 23v155c0 5 0 16 -6 23c-5 5 -15 9 -22 9s-17 -4 -22 -9c-6 -7 -6 -18 -6 -23zM844 259v-153c0 -31 -6 -58 -30 -80c-23 -21 -51 -26 -76 -26s-53 5 -76 26c-24 22 -30 49 -30 80v153c0 31 6 58 30 80
c23 21 51 26 76 26s53 -5 76 -26c24 -22 30 -49 30 -80zM710 260v-155c0 -5 0 -16 6 -23c5 -5 15 -9 22 -9s17 4 22 9c6 7 6 18 6 23v155c0 5 0 16 -6 23c-5 5 -15 9 -22 9s-17 -4 -22 -9c-6 -7 -6 -18 -6 -23zM417 700h76l-288 -700h-76z" />
    <glyph glyph-name="guilsinglleft" unicode="&#x2039;" horiz-adv-x="263" 
d="M228 479v-102l-101 -100l101 -100v-102l-203 202z" />
    <glyph glyph-name="guilsinglright" unicode="&#x203a;" horiz-adv-x="263" 
d="M35 479l203 -202l-203 -202v102l101 100l-101 100v102z" />
    <glyph glyph-name="fraction" unicode="&#x2044;" horiz-adv-x="74" 
d="M141 700h80l-288 -700h-80z" />
    <glyph glyph-name="Euro" unicode="&#x20ac;" horiz-adv-x="418" 
d="M0 305h69v70h-69v70h69v87c0 46 6 98 51 137c31 28 77 41 114 41c42 0 91 -16 121 -45c25 -25 43 -67 45 -116l1 -26h-97v19c0 14 -5 32 -14 45c-5 7 -20 25 -52 25c-26 0 -42 -11 -52 -23c-16 -20 -17 -45 -17 -69v-75h134v-70h-134v-70h134v-70h-134v-60
c0 -23 0 -44 13 -62c7 -10 23 -25 51 -25c22 0 44 8 56 24c5 7 14 23 14 57h100c0 -75 -23 -113 -42 -132c-21 -23 -62 -47 -131 -47c-66 0 -104 27 -126 53c-34 40 -35 85 -35 120v72h-69v70z" />
    <glyph glyph-name="uni20B4" unicode="&#x20b4;" horiz-adv-x="418" 
d="M22 375v70h229c21 25 29 58 29 77c0 23 -2 51 -21 71c-16 16 -35 19 -49 19c-29 0 -44 -12 -53 -23c-16 -20 -17 -49 -17 -66h-97c0 64 18 110 48 141c30 30 71 46 119 46c46 0 89 -10 122 -41c30 -29 48 -71 48 -129c0 -52 -18 -85 -25 -95h40v-70h-88l-75 -70h163v-70
h-227c-18 -21 -28 -47 -28 -73c0 -12 1 -40 24 -59c9 -8 26 -15 51 -15c13 0 38 3 55 23c15 17 16 39 16 58h100c0 -46 -9 -97 -47 -135c-26 -25 -65 -44 -123 -44c-52 0 -95 13 -123 38c-34 31 -53 67 -53 127c0 29 8 56 22 80h-40v70h92l75 70h-167z" />
    <glyph glyph-name="uni20B8" unicode="&#x20b8;" horiz-adv-x="418" 
d="M35 540h348v-95h-124v-445h-100v445h-124v95zM383 605h-348v95h348v-95z" />
    <glyph glyph-name="uni20BD" unicode="&#x20bd;" horiz-adv-x="418" 
d="M0 367h55v333h149c43 0 96 -2 140 -46c46 -47 51 -108 51 -160v-20c0 -39 -4 -97 -43 -142c-41 -47 -95 -55 -138 -55h-59v-56h69v-90h-69v-131h-100v131h-55v90h55v56h-55v90zM155 610v-243h54c19 0 46 3 67 26s19 47 19 72v46c0 24 1 58 -27 81c-23 19 -51 18 -78 18
h-35z" />
    <glyph glyph-name="afii61352" unicode="&#x2116;" horiz-adv-x="757" 
d="M60 700h100l167 -440v440h100v-700h-100l-167 440v-440h-100v700zM712 503v-153c0 -31 -6 -58 -30 -80c-23 -21 -51 -26 -76 -26s-53 5 -76 26c-24 22 -30 49 -30 80v153c0 31 6 58 30 80c23 21 51 26 76 26s53 -5 76 -26c24 -22 30 -49 30 -80zM578 504v-155
c0 -5 0 -16 6 -23c5 -5 15 -9 22 -9s17 4 22 9c6 7 6 18 6 23v155c0 5 0 16 -6 23c-5 5 -15 9 -22 9s-17 -4 -22 -9c-6 -7 -6 -18 -6 -23zM500 187h212v-73h-212v73z" />
    <glyph glyph-name="uni2117" unicode="&#x2117;" horiz-adv-x="682" 
d="M107 414c0 -130 104 -234 234 -234s234 104 234 234s-104 234 -234 234s-234 -104 -234 -234zM258 256v316h110c24 0 53 -2 77 -20c27 -20 31 -46 31 -71v-19c0 -19 -4 -41 -21 -60c-25 -27 -64 -29 -92 -29h-29v-117h-76zM334 438h27c6 0 21 0 30 9c6 6 9 15 9 24
c0 12 -3 21 -11 27c-9 7 -20 8 -28 8h-27v-68zM45 414c0 163 133 296 296 296s296 -133 296 -296s-133 -296 -296 -296s-296 133 -296 296z" />
    <glyph glyph-name="trademark" unicode="&#x2122;" horiz-adv-x="729" 
d="M283 624h-80v-273h-88v273h-80v76h248v-76zM336 351v349h81l83 -194l83 194h81v-349h-83v183l-56 -135h-50l-56 135v-183h-83z" />
    <glyph glyph-name="partialdiff" unicode="&#x2202;" horiz-adv-x="402" 
d="M352 431v-271c0 -39 -3 -94 -49 -133c-27 -23 -65 -35 -102 -35s-75 12 -102 35c-46 39 -49 94 -49 133v231c0 25 3 56 32 84c18 17 43 29 81 29c28 0 51 -8 67 -19c11 -7 21 -17 29 -28h2v15c0 20 -5 29 -15 43c-13 17 -25 29 -38 37l-24 15l-29 -41l-58 40l28 40
l-57 36l48 68l57 -36l25 36l58 -40l-23 -33l18 -12c49 -33 66 -56 69 -60c22 -31 32 -86 32 -134zM150 342v-188c0 -23 6 -40 15 -50c8 -8 21 -14 36 -14s28 6 36 14c9 10 15 27 15 50v188c0 23 -6 40 -15 50c-8 8 -21 14 -36 14s-28 -6 -36 -14c-9 -10 -15 -27 -15 -50z
" />
    <glyph glyph-name="product" unicode="&#x220f;" horiz-adv-x="450" 
d="M290 610h-130v-814h-100v814h-50v90h430v-90h-50v-814h-100v814z" />
    <glyph glyph-name="summation" unicode="&#x2211;" horiz-adv-x="400" 
d="M355 -104v-100h-310v88l152 388l-150 348v80h295v-90h-188l139 -324l-153 -390h215z" />
    <glyph glyph-name="minus" unicode="&#x2212;" horiz-adv-x="494" 
d="M50 331h394v-80h-394v80z" />
    <glyph glyph-name="uni2215" unicode="&#x2215;" horiz-adv-x="338" 
d="M273 700h80l-288 -700h-80z" />
    <glyph glyph-name="radical" unicode="&#x221a;" horiz-adv-x="488" 
d="M232 147l64 553h132v-80h-69l-74 -638h-88l-102 321h-48v84h108z" />
    <glyph glyph-name="infinity" unicode="&#x221e;" horiz-adv-x="692" 
d="M346 275c-21 -32 -73 -93 -154 -93c-87 0 -147 65 -147 157c0 94 60 159 148 159c68 0 122 -44 153 -93c29 45 82 93 153 93c88 0 148 -65 148 -159c0 -92 -60 -157 -147 -157c-81 0 -133 61 -154 93zM486 410c-38 0 -74 -36 -93 -70c20 -38 57 -70 93 -70
c32 0 67 22 67 70s-38 70 -67 70zM206 270c36 0 73 32 93 70c-19 34 -55 70 -93 70c-37 0 -67 -31 -67 -70c0 -40 28 -70 67 -70z" />
    <glyph glyph-name="integral" unicode="&#x222b;" horiz-adv-x="344" 
d="M349 700l-14 -88h-19c-18 0 -33 -1 -50 -17c-17 -15 -19 -29 -22 -48l-96 -613c-5 -34 -15 -76 -55 -107c-35 -27 -76 -31 -112 -31h-36l14 88h19c18 0 33 1 50 17c17 15 19 29 22 48l96 613c5 34 15 76 55 107c35 27 76 31 112 31h36z" />
    <glyph glyph-name="approxequal" unicode="&#x2248;" horiz-adv-x="494" 
d="M371 271h73v-3c0 -22 -7 -54 -23 -76c-14 -19 -41 -40 -91 -40c-11 0 -34 1 -74 13l-23 7c-14 4 -39 12 -58 12c-12 0 -28 -3 -38 -12c-7 -7 -13 -18 -14 -31h-73v3c0 22 7 54 23 76c14 19 41 40 91 40c11 0 34 -1 74 -13l23 -7c14 -4 39 -12 58 -12c12 0 28 3 38 12
c7 7 13 18 14 31zM371 411h73v-3c0 -22 -7 -54 -23 -76c-14 -19 -41 -40 -91 -40c-11 0 -34 1 -74 13l-23 7c-14 4 -39 12 -58 12c-12 0 -28 -3 -38 -12c-7 -7 -13 -18 -14 -31h-73v3c0 22 7 54 23 76c14 19 41 40 91 40c11 0 34 -1 74 -13l23 -7c14 -4 39 -12 58 -12
c12 0 28 3 38 12c7 7 13 18 14 31z" />
    <glyph glyph-name="notequal" unicode="&#x2260;" horiz-adv-x="494" 
d="M50 261h146l22 60h-168v80h199l23 60h80l-23 -60h115v-80h-146l-22 -60h168v-80h-199l-23 -60h-80l23 60h-115v80z" />
    <glyph glyph-name="lessequal" unicode="&#x2264;" horiz-adv-x="494" 
d="M37 327v40l394 183v-73l-290 -135l290 -135v-63zM37 215v63l394 -183v-63z" />
    <glyph glyph-name="greaterequal" unicode="&#x2265;" horiz-adv-x="494" 
d="M457 327l-394 -183v63l290 135l-290 135v73l394 -183v-40zM457 215l-394 -183v63l394 183v-63z" />
    <glyph glyph-name="lozenge" unicode="&#x25ca;" horiz-adv-x="356" 
d="M178 700l128 -350l-128 -350l-128 350zM242 350l-64 176l-64 -176l64 -176z" />
    <glyph glyph-name="uniF400" unicode="&#xf400;" horiz-adv-x="0" 
d="M-193 578h-57l44 122h107z" />
    <glyph glyph-name="uniF401" unicode="&#xf401;" horiz-adv-x="0" 
d="M-205 764h-65l50 105h121z" />
    <glyph glyph-name="uniF406" unicode="&#xf406;" horiz-adv-x="348" 
d="M294 869v-5c0 -25 -7 -48 -19 -63c-20 -25 -59 -39 -101 -39s-81 14 -101 39c-12 15 -19 38 -19 63v5h54v-3c0 -18 12 -28 17 -32c13 -9 35 -12 49 -12s36 3 49 12c5 4 17 14 17 32v3h54z" />
    <glyph glyph-name="uniF407" unicode="&#xf407;" horiz-adv-x="445" 
d="M204 0h46l-3 -36c19 0 36 -7 47 -17c10 -8 21 -24 21 -49c0 -31 -15 -49 -25 -58c-19 -17 -42 -21 -64 -21c-19 0 -36 4 -52 13c-12 7 -21 16 -24 20l37 36c4 -4 8 -6 12 -8c5 -2 11 -4 18 -4c8 0 17 2 22 7c4 4 7 10 7 16c0 5 -2 13 -8 18c-9 8 -25 9 -38 5z" />
    <glyph glyph-name="uniF408" unicode="&#xf408;" horiz-adv-x="356" 
d="M178 822l-60 -58h-64l57 105h134l57 -105h-64z" />
    <glyph glyph-name="uniF409" unicode="&#xf409;" horiz-adv-x="210" 
d="M50 -76h100v-100l-100 -80v180z" />
    <glyph glyph-name="uniF40A" unicode="&#xf40a;" horiz-adv-x="210" 
d="M50 700h100v-100l-100 -90v190z" />
    <glyph glyph-name="uniF40B" unicode="&#xf40b;" horiz-adv-x="218" 
d="M54 864h110v-100h-110v100z" />
    <glyph glyph-name="uniF40C" unicode="&#xf40c;" horiz-adv-x="268" 
d="M54 822c0 44 36 80 80 80s80 -36 80 -80s-36 -80 -80 -80s-80 36 -80 80zM104 822c0 -17 13 -30 30 -30s30 13 30 30s-13 30 -30 30s-30 -13 -30 -30z" />
    <glyph glyph-name="uniF40D" unicode="&#xf40d;" horiz-adv-x="354" 
d="M54 761v5c0 13 4 38 15 56c16 26 40 32 58 32c9 0 22 -2 43 -10l16 -6c8 -3 20 -8 31 -8c8 0 17 4 22 10s7 16 6 23h55v-3c0 -14 -3 -39 -13 -57c-13 -22 -32 -33 -59 -33c-15 0 -29 4 -46 10l-14 5c-16 6 -23 9 -32 9c-11 0 -17 -6 -21 -11c-4 -6 -6 -15 -6 -22h-55z
" />
    <glyph glyph-name="uniF40E" unicode="&#xf40e;" horiz-adv-x="261" 
d="M191 5l-15 -11c-8 -6 -18 -12 -30 -23c-10 -9 -19 -19 -19 -36c0 -15 9 -29 32 -29c16 0 27 6 34 13l32 -32c-29 -33 -60 -36 -75 -36c-67 0 -84 44 -84 71c0 39 36 60 52 70l20 13h53z" />
    <glyph glyph-name="uniF4C6" unicode="&#xf4c6;" horiz-adv-x="429" 
d="M269 700h100v-636c0 -30 -2 -83 -31 -119c-32 -40 -80 -45 -111 -45h-30v100h21c13 0 30 3 41 23c7 12 10 36 10 51v216c-21 -8 -45 -14 -77 -14c-67 0 -100 28 -112 42c-32 36 -35 91 -35 125v257h100v-235c0 -21 0 -60 19 -81c14 -15 34 -18 49 -18c19 0 37 3 56 14
v320z" />
    <glyph glyph-name="uniF4C7" unicode="&#xf4c7;" horiz-adv-x="382" 
d="M227 496h100v-543c0 -40 1 -79 -24 -112c-32 -42 -78 -45 -115 -45h-32v93h18c21 0 34 8 40 15c13 14 13 32 13 44v252c-25 -12 -57 -19 -87 -19c-22 0 -57 3 -82 28c-27 26 -28 58 -28 85v202h100v-177c0 -10 1 -25 12 -36s26 -12 36 -12c23 0 38 5 49 11v214z" />
    <glyph glyph-name="dollar.fitted" unicode="&#xf5f5;" horiz-adv-x="397" 
d="M174 -80v81c-49 3 -98 26 -125 60c-20 26 -34 66 -34 118v23h100v-19c0 -20 5 -48 18 -62c9 -10 25 -18 41 -21v224l-39 13c-39 13 -74 31 -96 78c-16 34 -16 68 -16 102v10c0 29 5 85 54 130c22 20 54 38 97 42v81h48v-81c50 -2 84 -25 104 -46c39 -41 47 -93 47 -134
v-23h-100v19c0 15 -1 44 -18 64c-7 8 -18 17 -33 20v-192l32 -11c32 -11 67 -23 95 -60c28 -38 31 -77 31 -121v-14c0 -79 -19 -189 -158 -200v-81h-48zM222 307v-207c10 2 29 9 41 23c16 19 17 48 17 69v16c0 17 -1 52 -17 72c-9 12 -28 22 -41 27zM174 424v175
c-14 -4 -27 -11 -37 -27c-13 -19 -14 -39 -14 -60c0 -24 3 -45 17 -63c9 -12 23 -20 34 -25z" />
    <glyph glyph-name="Euro.fitted" unicode="&#xf5f6;" horiz-adv-x="444" 
d="M17 305h69v70h-69v70h69v87c0 46 6 98 51 137c31 28 77 41 114 41c42 0 91 -16 121 -45c25 -25 43 -67 45 -116l1 -26h-97v19c0 14 -5 32 -14 45c-5 7 -20 25 -52 25c-26 0 -42 -11 -52 -23c-16 -20 -17 -45 -17 -69v-75h134v-70h-134v-70h134v-70h-134v-60
c0 -23 0 -44 13 -62c7 -10 23 -25 51 -25c22 0 44 8 56 24c5 7 14 23 14 57h100c0 -75 -23 -113 -42 -132c-21 -23 -62 -47 -131 -47c-66 0 -104 27 -126 53c-34 40 -35 85 -35 120v72h-69v70z" />
    <glyph glyph-name="cent.fitted" unicode="&#xf5f7;" horiz-adv-x="346" 
d="M336 417h-100v12c0 9 -6 23 -12 30s-15 13 -26 16v-296c11 3 20 8 26 15s12 22 12 32v9h100v-9c0 -36 -9 -79 -52 -113c-21 -17 -51 -30 -86 -33v-80h-40v80c-33 3 -71 17 -97 42c-43 41 -41 89 -41 132v155c0 39 5 91 48 129c35 31 81 35 90 36v80h40v-80
c37 -3 72 -18 96 -42c23 -24 42 -65 42 -105v-10zM158 180v295c-9 -2 -16 -7 -22 -13c-16 -17 -16 -34 -16 -50v-176c0 -11 2 -28 13 -42c9 -11 19 -13 25 -14z" />
    <glyph glyph-name="sterling.fitted" unicode="&#xf5f8;" horiz-adv-x="394" 
d="M255 369v-80h-81v-199h162v-90h-314v90h52v199h-52v80h52v180c0 61 21 98 38 118c33 39 74 43 114 43c122 0 147 -77 147 -135v-41h-100v30c0 7 -1 23 -11 35c-6 7 -18 16 -37 16c-50 0 -51 -55 -51 -67v-179h81z" />
    <glyph glyph-name="yen.fitted" unicode="&#xf5f9;" horiz-adv-x="426" 
d="M35 267h128v31l-14 39h-114v70h88l-107 293h110l87 -293h6l85 293h106l-106 -293h87v-70h-113l-15 -42v-28h128v-70h-128v-197h-100v197h-128v70z" />
    <glyph glyph-name="florin.fitted" unicode="&#xf5fa;" horiz-adv-x="417" 
d="M379 496l-13 -80h-80l-76 -482c-5 -34 -15 -76 -55 -107c-35 -27 -76 -31 -112 -31h-36l14 88h19c18 0 33 1 50 17c17 15 19 29 22 48l73 467h-78l13 80h77l11 66c6 34 15 76 55 107c35 27 76 31 112 31h36l-14 -88h-19c-18 0 -33 -1 -50 -17c-17 -15 -19 -29 -22 -48
l-8 -51h81z" />
    <glyph glyph-name="uni20B4.fitted" unicode="&#xf5fb;" horiz-adv-x="421" 
d="M23 375v70h229c21 25 29 58 29 77c0 23 -2 51 -21 71c-16 16 -35 19 -49 19c-29 0 -44 -12 -53 -23c-16 -20 -17 -49 -17 -66h-97c0 64 18 110 48 141c30 30 71 46 119 46c46 0 89 -10 122 -41c30 -29 48 -71 48 -129c0 -52 -18 -85 -25 -95h40v-70h-88l-75 -70h163v-70
h-227c-18 -21 -28 -47 -28 -73c0 -12 1 -40 24 -59c9 -8 26 -15 51 -15c13 0 38 3 55 23c15 17 16 39 16 58h100c0 -46 -9 -97 -47 -135c-26 -25 -65 -44 -123 -44c-52 0 -95 13 -123 38c-34 31 -53 67 -53 127c0 29 8 56 22 80h-40v70h92l75 70h-167z" />
    <glyph glyph-name="uni20BD.fitted" unicode="&#xf5fc;" horiz-adv-x="428" 
d="M22 367h55v333h149c43 0 96 -2 140 -46c46 -47 51 -108 51 -160v-20c0 -39 -4 -97 -43 -142c-41 -47 -95 -55 -138 -55h-59v-56h69v-90h-69v-131h-100v131h-55v90h55v56h-55v90zM177 610v-243h54c19 0 46 3 67 26s19 47 19 72v46c0 24 1 58 -27 81c-23 19 -51 18 -78 18
h-35z" />
    <glyph glyph-name="uni20B8.fitted" unicode="&#xf5fd;" horiz-adv-x="374" 
d="M13 540h348v-95h-124v-445h-100v445h-124v95zM361 605h-348v95h348v-95z" />
    <glyph glyph-name="numbersign.fitted" unicode="&#xf5ff;" horiz-adv-x="427" 
d="M141 700h75l-29 -207h92l29 207h75l-29 -207h56l-1 -64h-64l-21 -155h55l-1 -65h-64l-29 -209h-75l29 209h-92l-29 -209h-75l29 209h-55l1 65h64l21 155h-55v64h64zM249 274l21 155h-92l-21 -155h92z" />
    <glyph glyph-name="uniF639" unicode="&#xf639;" horiz-adv-x="361" 
d="M26 151v398c0 35 3 89 48 127c27 23 67 34 106 34c43 0 83 -12 116 -46c36 -38 38 -77 38 -115v-398c0 -40 -3 -87 -49 -126c-30 -25 -66 -35 -105 -35c-47 0 -80 14 -102 32c-45 36 -52 82 -52 129zM234 165v370c0 18 -1 41 -12 56c-8 12 -23 21 -42 21
c-18 0 -33 -8 -42 -21c-11 -15 -12 -37 -12 -56v-370c0 -19 1 -40 12 -56c13 -19 30 -21 42 -21c19 0 32 6 42 21c11 17 12 38 12 56z" />
    <glyph glyph-name="uniF63A" unicode="&#xf63a;" horiz-adv-x="355" 
d="M25 504v41c0 62 20 100 43 124c35 36 79 41 112 41c45 0 85 -10 116 -48c22 -27 36 -67 36 -113v-37c0 -24 -1 -39 -9 -64c-9 -31 -16 -40 -25 -56l-158 -297h192v-95h-307v92l177 326c7 14 18 37 22 52s8 43 8 60v15c0 23 -6 40 -15 51c-6 7 -18 16 -39 16
c-24 0 -37 -12 -44 -24c-9 -16 -9 -35 -9 -57v-27h-100z" />
    <glyph glyph-name="uniF63B" unicode="&#xf63b;" horiz-adv-x="356" 
d="M22 503v61c0 29 5 75 49 112c26 22 60 34 102 34c36 0 78 -9 106 -32c25 -20 51 -58 51 -114v-101c0 -32 -7 -81 -61 -103c58 -24 61 -83 61 -126v-67c0 -56 -2 -97 -41 -136c-34 -34 -76 -41 -118 -41c-36 0 -75 5 -109 38c-21 20 -40 53 -40 101v71h100v-46
c0 -15 4 -36 13 -48c7 -9 21 -18 42 -18c25 0 53 12 53 60v104c0 16 -1 35 -14 50s-27 14 -44 14h-24v89h23c15 0 30 2 43 15c15 15 16 36 16 46v89c0 18 -7 33 -16 42c-7 8 -21 15 -40 15c-16 0 -28 -7 -37 -18c-13 -16 -15 -35 -15 -51v-40h-100z" />
    <glyph glyph-name="uniF63C" unicode="&#xf63c;" horiz-adv-x="369" 
d="M159 700h98l-146 -501h97v198h100v-199h48v-90h-48v-108h-100v108h-198v84z" />
    <glyph glyph-name="uniF63D" unicode="&#xf63d;" horiz-adv-x="352" 
d="M34 700h294v-90h-194v-184c9 8 20 15 32 20c15 6 32 9 47 9c33 0 66 -14 86 -36c17 -19 29 -51 29 -86v-189c0 -33 -5 -75 -38 -110c-20 -22 -55 -44 -112 -44c-47 0 -82 15 -108 38c-39 35 -46 77 -46 110v31h100v-19c0 -14 1 -31 10 -43c7 -10 22 -19 41 -19
c20 0 32 7 40 17c12 15 13 34 13 45v152c0 15 -1 31 -12 44c-9 11 -20 15 -35 15s-27 -3 -39 -16c-7 -7 -12 -16 -16 -25h-92v380z" />
    <glyph glyph-name="uniF63E" unicode="&#xf63e;" horiz-adv-x="339" 
d="M176 700h107l-124 -303c14 11 37 12 53 12c25 0 55 -10 77 -36c10 -12 30 -41 30 -92v-137c0 -57 -19 -93 -40 -114c-27 -27 -71 -40 -114 -40c-39 0 -75 11 -105 39c-39 37 -45 77 -45 117v102c0 65 19 99 36 142zM219 156v114c0 15 -1 28 -11 40c-8 10 -20 17 -36 17
c-13 0 -27 -4 -39 -16c-9 -9 -18 -24 -18 -45v-119c0 -13 1 -28 11 -41c5 -6 16 -18 38 -18c18 0 34 7 42 17c12 14 13 32 13 51z" />
    <glyph glyph-name="uniF63F" unicode="&#xf63f;" horiz-adv-x="331" 
d="M21 700h300v-92l-160 -608h-101l159 607h-108v-82h-90v175z" />
    <glyph glyph-name="uniF640" unicode="&#xf640;" horiz-adv-x="366" 
d="M337 549v-79c0 -38 -8 -69 -47 -107c53 -39 47 -81 47 -124v-88c0 -19 -1 -161 -154 -161s-154 142 -154 161v88c0 43 -6 85 47 124c-39 38 -47 69 -47 107v79c0 19 1 161 154 161s154 -142 154 -161zM237 482v53c0 26 -3 77 -54 77s-54 -51 -54 -77v-53
c0 -26 3 -77 54 -77s54 51 54 77zM237 165v90c0 26 -3 77 -54 77s-54 -51 -54 -77v-90c0 -26 3 -77 54 -77s54 51 54 77z" />
    <glyph glyph-name="uniF641" unicode="&#xf641;" horiz-adv-x="339" 
d="M163 0h-107l124 303c-14 -11 -37 -12 -53 -12c-25 0 -55 10 -77 36c-10 12 -30 41 -30 92v137c0 57 19 93 40 114c27 27 71 40 114 40c39 0 75 -11 105 -39c39 -37 45 -77 45 -117v-102c0 -65 -19 -99 -36 -142zM120 544v-114c0 -15 1 -28 11 -40c8 -10 20 -17 36 -17
c13 0 27 4 39 16c9 9 18 24 18 45v119c0 13 -1 28 -11 41c-5 6 -16 18 -38 18c-18 0 -34 -7 -42 -17c-12 -14 -13 -32 -13 -51z" />
    <glyph glyph-name="uniF6BA" unicode="&#xf6ba;" horiz-adv-x="314" 
d="M45 400h224v-90h-224v90z" />
    <glyph glyph-name="uniF6BB" unicode="&#xf6bb;" horiz-adv-x="453" 
d="M60 386h333v-62h-333v62z" />
    <glyph glyph-name="uniF6BC" unicode="&#xf6bc;" horiz-adv-x="641" 
d="M35 386h571v-62h-571v62z" />
    <glyph glyph-name="uniF6C3" unicode="&#xf6c3;" horiz-adv-x="208" 
d="M54 -73h100v-96l-100 -80v176z" />
    <glyph glyph-name="uniF6C9" unicode="&#xf6c9;" horiz-adv-x="261" 
d="M135 764h-65l50 105h121z" />
    <glyph glyph-name="uniF6CA" unicode="&#xf6ca;" horiz-adv-x="356" 
d="M178 811l60 58h64l-57 -105h-134l-57 105h64z" />
    <glyph glyph-name="uniF6CB" unicode="&#xf6cb;" horiz-adv-x="360" 
d="M149 864v-100h-95v100h95zM211 764v100h95v-100h-95z" />
    <glyph glyph-name="uniF6CE" unicode="&#xf6ce;" horiz-adv-x="255" 
d="M114 764l-94 105h121l44 -105h-71z" />
    <glyph glyph-name="uniF6CF" unicode="&#xf6cf;" horiz-adv-x="382" 
d="M130 764h-60l50 105h111zM261 764h-60l50 105h111z" />
    <glyph glyph-name="uniF6D0" unicode="&#xf6d0;" horiz-adv-x="332" 
d="M54 824h224v-60h-224v60z" />
    <glyph glyph-name="uniF6D1" unicode="&#xf6d1;" horiz-adv-x="364" 
d="M304 868v-12c0 -40 -15 -66 -30 -80c-20 -19 -53 -28 -92 -28s-72 9 -92 28c-15 14 -30 40 -30 80v12h80v-9c0 -8 1 -19 12 -28c9 -8 19 -9 30 -9s21 1 30 9c11 9 12 20 12 28v9h80z" />
    <glyph glyph-name="uniF6D4" unicode="&#xf6d4;" horiz-adv-x="336" 
d="M282 694v-13c0 -27 -4 -61 -30 -87c-25 -25 -60 -28 -84 -28s-59 3 -84 28c-26 26 -30 60 -30 87v13h74v-15c0 -6 2 -17 4 -22c3 -8 13 -20 36 -20s33 12 36 20c2 5 4 16 4 22v15h74z" />
    <glyph glyph-name="uniF6DC" unicode="&#xf6dc;" horiz-adv-x="243" 
d="M113 0v593l-108 -78v103l112 82h96v-700h-100z" />
    <glyph glyph-name="uniFEFF" unicode="&#xfeff;" horiz-adv-x="0" 
 />
    <glyph glyph-name="dotlessi1" horiz-adv-x="208" 
d="M54 0v496h100v-496h-100z" />
    <glyph glyph-name="hyphenminus" horiz-adv-x="314" 
d="M45 351h224v-90h-224v90z" />
    </font>
</defs>
</svg>
